<?xml version="1.0" encoding="utf-8"?>
<!-- Generator: Adobe Illustrator 23.0.3, SVG Export Plug-In . SVG Version: 6.00 Build 0)  -->
<svg version="1.1" id="Layer_1" xmlns="http://www.w3.org/2000/svg" xmlns:xlink="http://www.w3.org/1999/xlink" x="0px" y="0px"
	 viewBox="0 0 1920 1080" style="enable-background:new 0 0 1920 1080;" xml:space="preserve">
<style type="text/css">
	.st0{fill:#900404;}
</style>
<path class="st0" d="M440.56,648.23c21.22-33.57,39.88-64.3,59.89-94.12c7.83-11.67,17.69-22.47,28.37-31.63
	c50.07-42.94,75.6-99.15,90.81-161.67c18.1-74.39,50.97-141.46,102.37-198.83c3.71-4.14,7.31-8.72,11.86-11.7
	c28.89-18.95,47.99-43.36,60.18-77.2c14.68-40.74,55.99-51.88,100.33-35.72c35.23,12.83,50.5,61.81,43.24,90.01
	c-1.56,6.05-2.42,12.32-4.46,18.2c-12.07,34.8-41.51,53.56-78.37,43.54c-43.53-11.83-69.43,5.89-92.56,40
	c-32.88,48.49-59.49,99.12-69.32,158.72c41.38-13.64,82.4-27.45,123.61-40.67c85.33-27.39,173.63-34.5,261.8-27.16
	c149.69,12.45,283.52,70.73,406.1,155.66c30.27,20.97,59.85,43.45,87.05,68.2c35.63,32.42,38,64.35,9.59,104.47
	c-30.8,43.49-63.07,85.95-95.16,128.51c-43.83,58.12-101.63,100.65-160.83,141.2c-106,72.59-223.81,118.35-350.39,134.07
	c-89.12,11.07-180.06,11.46-270.08,9.9c-52.67-0.91-106.13-11.08-157.36-24.34c-46.4-12.01-76.25-49.52-95.12-92.16
	c-27.24-61.55-53.17-123.89-75.41-187.38c-27.99-79.92-45.64-162.22-53.69-247.19c-10.49-110.79,2.86-217.7,33.58-323.87
	c7.04-24.33,3.85-51.61,5.54-77.52c2.18-33.44,11.68-63.23,42.7-81.45c26.61-15.62,79.6-14.05,101.41,3.66
	c33.46,27.19,40.53,64.16,35.47,104.42c-5.75,45.8-38.48,65.38-78.7,71.8c-30.79,4.91-43.02,19.06-49.92,49.21
	c-13.97,60.97-17.39,122.69-11.45,183.6c6.2,63.52,22.78,126.04,34.85,188.98C437.53,635.02,438.8,640.22,440.56,648.23z
	 M1170.97,405.26c-54.4,5.75-93.6,7.9-132.07,14.39c-69.57,11.73-136,34.24-195.85,72.05c-17.53,11.08-35.99,25.28-37.49,51.19
	c-1.84,31.86,17.37,49.61,41.24,62.44c35.84,19.27,72.54,37.28,110.03,53.09c79.72,33.61,163.31,48.62,248.71,31.91
	c118.52-23.18,175.55-84.64,205.73-198.88c8.26-31.28-0.65-47.88-28.94-52.7C1307.29,425.98,1231.98,414.84,1170.97,405.26z"/>
</svg>
