<svg width="1318" height="955" viewBox="0 0 1318 955" preserveAspectRatio="none" fill="none" xmlns="http://www.w3.org/2000/svg">
<path d="M659.381 393C-38.4237 393 25.8636 -59.7657 0.168213 -191V779H1320.17V-191C1274.61 -59.7657 1320.17 393 659.381 393Z" fill="url(#paint0_linear_323_2)"/>
<path d="M368.992 558.198C245.648 340.483 70.3827 339.258 -1.83179 365.86V909H1320.17V225.085C1293.55 196.76 1220.7 188.794 1154.92 383.084C1089.13 577.375 881.346 690.251 785.675 722.403C698.175 758.383 492.337 775.913 368.992 558.198Z" fill="#360808"/>
<path d="M295.403 638.663C310.579 516.578 106.236 452.701 2.16821 436.022V906.348C2.16821 911.151 879.502 908.349 1318.17 906.348V413.507C1258.89 378.983 1096.07 513.076 1096.07 640.164C1096.07 764.139 935.338 845.668 785.445 794.27C652.659 748.739 521.455 782.363 441.625 785.264C386.561 787.265 280.228 760.747 295.403 638.663Z" fill="#290505"/>
<path d="M154.671 678.385C206.523 613.241 71.9407 561.652 -1.83179 544V1027L1318.17 1009.51V571.476C1305.52 558.488 1251.77 613.441 1257.31 668.394C1262.84 723.346 1224.11 760.814 1166.41 743.329C1108.71 725.844 1070.77 760.814 1048.64 833.752C1026.5 906.69 823.366 878.713 811.51 846.741C799.653 814.768 682.671 789.29 647.893 822.262C613.114 855.234 433.689 880.712 393.378 822.262C353.066 763.812 277.977 746.327 236.875 764.311C195.773 782.296 89.8568 759.815 154.671 678.385Z" fill="#170606"/>
<defs>
<linearGradient id="paint0_linear_323_2" x1="660.168" y1="123.5" x2="660.168" y2="779" gradientUnits="userSpaceOnUse">
<stop stop-color="#6B0606"/>
<stop offset="1" stop-color="#531111"/>
</linearGradient>
</defs>
</svg>
