<svg width="219" height="539" viewBox="0 0 219 539" fill="none" xmlns="http://www.w3.org/2000/svg">
<circle cx="3" cy="61" r="3" fill="#F04747"/>
<circle cx="128" cy="281" r="3" fill="#F04747"/>
<circle cx="170" cy="436" r="3" fill="#F04747"/>
<circle cx="91" cy="523" r="3" fill="#F04747"/>
<circle cx="42" cy="536" r="3" fill="#F04747"/>
<path d="M116.5 428C117.957 431.938 121.062 435.043 125 436.5C121.062 437.957 117.957 441.062 116.5 445C115.043 441.062 111.938 437.957 108 436.5C111.938 435.043 115.043 431.938 116.5 428Z" fill="#E76363"/>
<path d="M210.5 311C211.957 314.938 215.062 318.043 219 319.5C215.062 320.957 211.957 324.062 210.5 328C209.043 324.062 205.938 320.957 202 319.5C205.938 318.043 209.043 314.938 210.5 311Z" fill="#E76363"/>
<path d="M164.5 215C165.957 218.938 169.062 222.043 173 223.5C169.062 224.957 165.957 228.062 164.5 232C163.043 228.062 159.938 224.957 156 223.5C159.938 222.043 163.043 218.938 164.5 215Z" fill="#E76363"/>
<path d="M47.9999 0C49.1014 2.97674 51.4484 5.32371 54.4251 6.4252C51.4484 7.52669 49.1014 9.87366 47.9999 12.8504C46.8984 9.87366 44.5514 7.52669 41.5747 6.4252C44.5514 5.32371 46.8984 2.97674 47.9999 0Z" fill="#E76363"/>
<path d="M108 328C109.2 331.243 111.757 333.8 115 335C111.757 336.2 109.2 338.757 108 342C106.8 338.757 104.243 336.2 101 335C104.243 333.8 106.8 331.243 108 328Z" fill="#E76363"/>
<path d="M59.2913 78C60.1984 80.4514 62.1312 82.3842 64.5827 83.2913C62.1312 84.1984 60.1984 86.1312 59.2913 88.5827C58.3842 86.1312 56.4514 84.1984 54 83.2913C56.4514 82.3842 58.3842 80.4514 59.2913 78Z" fill="#E76363"/>
</svg>
