<svg width="249" height="511" viewBox="0 0 249 511" fill="none" xmlns="http://www.w3.org/2000/svg">
<circle cx="46" cy="59" r="3" fill="#F04747"/>
<circle cx="130" cy="266" r="3" fill="#F04747"/>
<circle cx="98" cy="443" r="3" fill="#F04747"/>
<path d="M240.5 486V486C241.957 489.938 245.062 493.043 249 494.5V494.5V494.5C245.062 495.957 241.957 499.062 240.5 503V503V503C239.043 499.062 235.938 495.957 232 494.5V494.5V494.5C235.938 493.043 239.043 489.938 240.5 486V486Z" fill="#E76363"/>
<path d="M156 408V408C157.2 411.243 159.757 413.8 163 415V415V415C159.757 416.2 157.2 418.757 156 422V422V422C154.8 418.757 152.243 416.2 149 415V415V415C152.243 413.8 154.8 411.243 156 408V408Z" fill="#E76363"/>
<path d="M36 171V171C37.2 174.243 39.757 176.8 43 178V178V178C39.757 179.2 37.2 181.757 36 185V185V185C34.8 181.757 32.243 179.2 29 178V178V178C32.243 176.8 34.8 174.243 36 171V171Z" fill="#E76363"/>
<path d="M126.5 494V494C127.957 497.938 131.062 501.043 135 502.5V502.5V502.5C131.062 503.957 127.957 507.062 126.5 511V511V511C125.043 507.062 121.938 503.957 118 502.5V502.5V502.5C121.938 501.043 125.043 497.938 126.5 494V494Z" fill="#E76363"/>
<path d="M108 335V335C109.2 338.243 111.757 340.8 115 342V342V342C111.757 343.2 109.2 345.757 108 349V349V349C106.8 345.757 104.243 343.2 101 342V342V342C104.243 340.8 106.8 338.243 108 335V335Z" fill="#E76363"/>
<path d="M114.291 59V59C115.198 61.4514 117.131 63.3842 119.583 64.2913V64.2913V64.2913C117.131 65.1984 115.198 67.1312 114.291 69.5827V69.5827V69.5827C113.384 67.1312 111.451 65.1984 109 64.2913V64.2913V64.2913C111.451 63.3842 113.384 61.4514 114.291 59V59Z" fill="#E76363"/>
<path d="M135.291 0V0C136.198 2.45143 138.131 4.38423 140.583 5.29134V5.29134V5.29134C138.131 6.19845 136.198 8.13125 135.291 10.5827V10.5827V10.5827C134.384 8.13125 132.451 6.19845 130 5.29134V5.29134V5.29134C132.451 4.38423 134.384 2.45143 135.291 0V0Z" fill="#E76363"/>
<path d="M7 348V348C8.20003 351.243 10.757 353.8 14 355V355V355C10.757 356.2 8.20003 358.757 7 362V362V362C5.79997 358.757 3.24304 356.2 0 355V355V355C3.24304 353.8 5.79997 351.243 7 348V348Z" fill="#E76363"/>
</svg>
