<svg width="759" height="276" viewBox="0 0 759 276" fill="none" xmlns="http://www.w3.org/2000/svg">
<g clip-path="url(#clip0_288_9318)">
<path d="M225.828 253.778C225.828 260.296 223.912 265.629 220.226 269.629C216.394 273.629 211.677 275.704 205.781 275.704C199.884 275.704 195.02 273.629 191.187 269.629C188.092 266.37 186.323 262.222 185.733 257.185C185.586 255.704 187.06 254.518 188.386 255.111C188.976 255.407 189.566 255.704 190.303 255.852C191.04 256.148 191.482 256.741 191.629 257.481C192.072 261.037 193.398 264 195.462 266.37C198.115 269.333 201.653 270.815 205.781 270.815C210.055 270.815 213.446 269.333 216.246 266.37C218.458 263.852 219.784 260.444 220.079 256.148V255.555V255.259C220.079 255.111 220.079 254.963 220.079 254.815V254.667C220.079 254.518 220.079 254.37 220.079 254.222C220.079 254.074 220.079 253.926 220.079 253.778C220.079 253.185 220.079 252.741 220.079 252.296C220.079 252 220.079 251.852 220.079 251.555V251.407C220.079 251.259 220.079 251.111 220.079 250.963C220.079 250.815 220.079 250.815 220.079 250.667C220.079 250.37 220.079 250.222 219.932 249.926V249.778C219.932 249.629 219.932 249.629 219.932 249.481C219.932 249.333 219.932 249.333 219.932 249.185C219.932 249.037 219.932 248.889 219.784 248.741C219.784 248.741 219.784 248.741 219.784 248.592C219.784 248.296 219.637 247.852 219.489 247.555C219.342 247.259 219.342 246.815 219.195 246.518C219.195 246.37 219.047 246.222 219.047 246.074C219.047 245.926 218.9 245.778 218.9 245.629C218.9 245.481 218.9 245.481 218.752 245.481C218.752 245.333 218.605 245.333 218.605 245.185C218.458 245.037 218.458 244.741 218.31 244.592C218.31 244.444 218.163 244.444 218.163 244.296C218.163 244.148 218.015 244.148 218.015 244C218.015 244 218.015 243.852 217.868 243.852C217.868 243.852 217.868 243.852 217.868 243.704C217.868 243.704 217.72 243.555 217.72 243.407C217.573 243.259 217.426 243.111 217.426 242.815C217.278 242.667 217.278 242.518 217.131 242.518C217.131 242.518 217.131 242.518 217.131 242.37C217.131 242.222 216.983 242.222 216.836 242.074C216.836 242.074 216.836 242.074 216.689 241.926L216.246 241.333C216.099 241.185 215.952 241.037 215.657 240.741L215.509 240.592L215.362 240.444C215.215 240.296 214.92 240 214.772 239.852C214.625 239.704 214.33 239.555 214.183 239.407C213.888 239.259 213.741 239.111 213.446 238.963C213.446 238.963 213.446 238.963 213.298 238.963C213.298 238.963 213.151 238.815 213.003 238.815C212.856 238.667 212.709 238.667 212.414 238.518C212.119 238.37 211.824 238.222 211.529 238.222C211.382 238.222 211.235 238.074 211.087 238.074C210.94 238.074 210.94 238.074 210.792 237.926H210.645C210.35 237.926 210.055 237.778 209.761 237.629C209.613 237.629 209.466 237.629 209.466 237.629C209.318 237.629 209.171 237.629 209.171 237.629C208.139 237.481 207.255 237.333 206.223 237.333C205.633 237.333 205.191 237.333 204.749 237.333H204.601H204.454C204.012 237.333 203.569 237.333 202.98 237.333C201.948 237.333 201.063 237.333 200.032 237.037C197.968 236.741 197.673 233.926 199.737 233.185C201.801 232.592 203.864 232.296 206.223 232.296C209.76 232.296 212.856 233.037 215.509 234.37C215.952 234.518 216.246 234.815 216.689 234.963C217.131 235.111 217.426 235.407 217.868 235.704C218.015 235.852 218.31 236 218.458 236.148C219.047 236.592 219.489 237.037 220.079 237.481C220.374 237.778 220.521 237.926 220.816 238.222C221.848 239.259 222.585 240.444 223.322 241.629C223.469 241.926 223.617 242.222 223.764 242.37C223.912 242.667 224.059 242.963 224.206 243.259C224.649 244.296 225.091 245.481 225.533 246.518C225.68 246.963 225.68 247.407 225.828 247.852C225.975 248.741 226.123 249.629 226.27 250.667C226.27 251.111 226.418 251.555 226.418 252.148C225.681 252.444 225.828 253.037 225.828 253.778Z" fill="white"/>
<path d="M302.037 274.963H274.472C273.44 274.963 272.556 274.074 272.556 273.037V234.519C272.556 233.482 273.44 232.593 274.472 232.593H301.006C302.037 232.593 302.922 233.482 302.922 234.519V235.704C302.922 236.741 302.037 237.63 301.006 237.63H280.074C279.042 237.63 278.157 238.519 278.157 239.556V248.593C278.157 249.63 279.042 250.519 280.074 250.519H299.531C300.563 250.519 301.448 251.408 301.448 252.445V253.63C301.448 254.667 300.563 255.556 299.531 255.556H280.074C279.042 255.556 278.157 256.445 278.157 257.482V267.852C278.157 268.889 279.042 269.778 280.074 269.778H302.037C303.069 269.778 303.954 270.667 303.954 271.704V272.889C303.954 274.074 303.069 274.963 302.037 274.963Z" fill="white"/>
<path d="M343.016 274.963H340.216C339.626 274.963 338.889 274.667 338.594 274.074L318.399 243.556C317.957 242.963 317.073 243.259 317.073 244V273.037C317.073 274.074 316.188 274.963 315.157 274.963H313.83C312.798 274.963 311.914 274.074 311.914 273.037V234.519C311.914 233.482 312.798 232.593 313.83 232.593H316.483C317.073 232.593 317.81 232.889 318.105 233.482L338.299 264C338.742 264.593 339.626 264.296 339.626 263.556V234.519C339.626 233.482 340.511 232.593 341.542 232.593H343.016C344.048 232.593 344.933 233.482 344.933 234.519V273.037C344.933 274.074 344.048 274.963 343.016 274.963Z" fill="white"/>
<path d="M401.243 274.963H399.474C398.442 274.963 397.557 274.074 397.557 273.037V257.037C397.557 256 396.673 255.111 395.641 255.111H377.657C376.626 255.111 375.741 256 375.741 257.037V273.037C375.741 274.074 374.857 274.963 373.825 274.963H372.203C371.172 274.963 370.287 274.074 370.287 273.037V234.519C370.287 233.482 371.172 232.593 372.203 232.593H373.825C374.857 232.593 375.741 233.482 375.741 234.519V248C375.741 249.037 376.626 249.926 377.657 249.926H395.641C396.673 249.926 397.557 249.037 397.557 248V234.519C397.557 233.482 398.442 232.593 399.474 232.593H401.243C402.275 232.593 403.159 233.482 403.159 234.519V273.037C403.159 274.074 402.275 274.963 401.243 274.963Z" fill="white"/>
<path d="M430.871 231.852C436.768 231.852 441.632 233.926 445.317 237.926C449.002 241.926 450.919 247.259 450.919 253.778C450.919 260.296 449.002 265.63 445.317 269.63C441.632 273.63 436.768 275.704 430.871 275.704C424.975 275.704 420.111 273.63 416.278 269.63C412.445 265.63 410.677 260.296 410.677 253.778C410.677 247.111 412.593 241.926 416.278 237.926C419.963 233.926 424.975 231.852 430.871 231.852ZM430.871 270.963C435.146 270.963 438.536 269.482 441.19 266.519C443.843 263.556 445.17 259.259 445.17 253.926C445.17 248.593 443.843 244.296 441.19 241.334C438.536 238.371 435.146 236.889 430.871 236.889C426.596 236.889 423.206 238.371 420.405 241.334C417.605 244.296 416.278 248.593 416.278 253.926C416.278 259.259 417.605 263.556 420.405 266.519C423.206 269.482 426.744 270.963 430.871 270.963Z" fill="white"/>
<path d="M475.094 275.704C470.229 275.704 466.544 274.815 464.038 272.889C461.532 270.963 460.058 268.741 459.468 266.074C458.879 263.408 458.437 260.445 458.437 257.037V234.519C458.437 233.482 459.321 232.593 460.353 232.593H461.974C463.006 232.593 463.891 233.482 463.891 234.519V257.037C463.891 262.667 464.775 266.222 466.691 268C468.608 269.778 471.261 270.667 474.799 270.667C478.337 270.667 481.137 269.778 482.906 268C484.675 266.222 485.707 262.519 485.707 257.037V234.519C485.707 233.482 486.591 232.593 487.623 232.593H489.392C490.424 232.593 491.308 233.482 491.308 234.519V257.037C491.308 262.222 490.719 265.926 489.539 268.445C488.36 270.963 486.444 272.741 484.085 273.926C481.727 275.111 478.779 275.704 475.094 275.704Z" fill="white"/>
<path d="M516.957 275.704C511.061 275.704 506.491 274.37 503.543 271.704C501.185 269.481 499.711 266.815 499.121 263.704C498.974 262.519 499.858 261.481 501.037 261.481H502.659C503.543 261.481 504.428 262.074 504.575 262.963C505.165 265.333 506.344 267.111 508.26 268.444C510.619 269.926 513.42 270.667 516.663 270.667C519.758 270.667 522.264 270.074 524.18 268.741C526.097 267.407 526.981 265.63 526.981 263.407C526.981 261.037 525.949 259.407 524.033 258.37C522.117 257.333 518.726 256.296 513.862 255.259C508.997 254.222 505.607 252.741 503.396 250.963C501.185 249.185 500.3 246.667 500.3 243.704C500.3 240.296 501.627 237.481 504.428 235.259C507.228 233.037 510.766 232 515.336 232C520.053 232 523.885 233.037 526.834 235.259C529.192 237.037 530.666 239.407 531.256 242.37C531.551 243.556 530.519 244.593 529.34 244.593H527.718C526.834 244.593 526.097 244 525.802 243.111C524.77 238.963 521.38 236.889 515.631 236.889C512.535 236.889 510.177 237.481 508.408 238.667C506.639 239.852 505.902 241.333 505.902 243.407C505.902 245.185 506.639 246.519 507.965 247.407C509.292 248.296 511.945 249.185 515.631 249.926C519.316 250.667 522.411 251.556 524.622 252.444C526.834 253.333 528.75 254.519 530.224 256.148C531.698 257.778 532.582 260.148 532.582 262.963C532.582 266.667 531.108 269.63 528.308 272C525.507 274.37 521.674 275.704 516.957 275.704Z" fill="white"/>
<path d="M569.876 274.963H542.311C541.279 274.963 540.395 274.074 540.395 273.037V234.519C540.395 233.482 541.279 232.593 542.311 232.593H568.845C569.876 232.593 570.761 233.482 570.761 234.519V235.704C570.761 236.741 569.876 237.63 568.845 237.63H547.913C546.881 237.63 545.996 238.519 545.996 239.556V248.593C545.996 249.63 546.881 250.519 547.913 250.519H567.371C568.402 250.519 569.287 251.408 569.287 252.445V253.63C569.287 254.667 568.402 255.556 567.371 255.556H547.913C546.881 255.556 545.996 256.445 545.996 257.482V267.852C545.996 268.889 546.881 269.778 547.913 269.778H569.876C570.908 269.778 571.793 270.667 571.793 271.704V272.889C571.94 274.074 571.056 274.963 569.876 274.963Z" fill="white"/>
<path d="M595.82 245.778H595.525C594.346 245.778 593.461 244.741 593.609 243.556C594.051 240.296 595.378 237.63 597.589 235.407C600.242 232.741 603.633 231.407 607.465 231.407C611.298 231.407 614.541 232.741 616.899 235.259C619.258 237.778 620.584 240.741 620.584 244.148C620.584 246.519 619.995 248.889 618.815 250.963C617.636 253.037 615.425 256 612.182 259.556L602.895 269.63C602.453 270.074 602.748 270.815 603.485 270.815H619.405C620.437 270.815 621.321 271.704 621.321 272.741V272.889C621.321 273.926 620.437 274.815 619.405 274.815H596.999C595.23 274.815 594.346 272.741 595.525 271.556L608.644 257.333C611.887 253.778 614.098 251.111 614.983 249.482C615.867 247.852 616.457 245.926 616.457 244.148C616.457 241.778 615.573 239.704 613.804 237.926C612.035 236.148 609.824 235.259 607.318 235.259C604.664 235.259 602.306 236.148 600.537 237.926C599.063 239.407 598.031 241.482 597.736 244C597.589 245.037 596.704 245.778 595.82 245.778Z" fill="white"/>
<path d="M625.302 253.778C625.302 248.148 625.891 243.852 627.07 240.741C628.25 237.63 630.019 235.407 632.082 233.778C634.146 232.148 636.652 231.407 639.453 231.407C642.253 231.407 644.612 232.148 646.97 233.778C649.329 235.407 650.95 237.778 652.277 240.889C653.604 244 654.193 248.296 654.193 253.778C654.193 259.111 653.604 263.407 652.277 266.519C650.95 269.63 649.181 272 646.97 273.63C644.759 275.259 642.253 276 639.453 276C636.799 276 634.293 275.259 632.082 273.63C629.871 272 628.25 269.778 627.07 266.667C625.891 263.556 625.302 259.259 625.302 253.778ZM629.281 253.778C629.281 258.519 629.724 262.222 630.608 264.741C631.493 267.259 632.672 269.037 634.441 270.37C636.21 271.704 637.831 272.296 639.747 272.296C641.664 272.296 643.433 271.704 645.054 270.37C646.676 269.037 647.855 267.259 648.739 264.741C649.771 261.778 650.361 258.074 650.361 253.778C650.361 249.482 649.919 245.926 648.887 243.259C647.855 240.593 646.676 238.519 645.054 237.333C643.433 236.148 641.664 235.407 639.747 235.407C637.831 235.407 636.062 236 634.441 237.333C632.819 238.667 631.493 240.445 630.608 242.963C629.724 245.482 629.281 249.037 629.281 253.778Z" fill="white"/>
<path d="M661.122 245.778H660.974C659.795 245.778 658.91 244.741 659.058 243.556C659.5 240.296 660.827 237.63 663.038 235.407C665.691 232.741 669.082 231.407 672.914 231.407C676.747 231.407 679.99 232.741 682.348 235.259C684.707 237.778 686.033 240.741 686.033 244.148C686.033 246.519 685.444 248.889 684.264 250.963C683.085 253.037 680.874 256 677.631 259.556L668.197 269.778C667.755 270.222 668.05 270.963 668.787 270.963H684.707C685.739 270.963 686.623 271.852 686.623 272.889V273.037C686.623 274.074 685.739 274.963 684.707 274.963H662.301C660.532 274.963 659.647 272.889 660.827 271.704L673.946 257.482C677.189 253.926 679.4 251.259 680.284 249.63C681.169 248 681.759 246.074 681.759 244.296C681.759 241.926 680.874 239.852 679.105 238.074C677.336 236.296 675.125 235.407 672.619 235.407C669.966 235.407 667.607 236.296 665.839 238.074C664.364 239.556 663.333 241.63 663.038 244.148C662.89 245.037 662.153 245.778 661.122 245.778Z" fill="white"/>
<path d="M695.173 242.222H694.73C693.404 242.222 692.372 240.741 692.962 239.556C693.846 237.333 695.025 235.556 696.647 234.222C698.858 232.296 701.511 231.407 704.607 231.407C706.818 231.407 708.882 231.852 710.798 232.889C712.714 233.926 714.188 235.259 715.22 237.037C716.252 238.815 716.841 240.593 716.841 242.37C716.841 245.63 715.367 248.296 712.419 250.37C711.977 250.667 711.977 251.407 712.567 251.556C714.041 252.296 715.367 253.333 716.399 254.667C718.168 256.889 719.2 259.407 719.2 262.222C719.2 264.593 718.61 266.963 717.284 269.185C715.957 271.407 714.336 273.037 712.124 274.222C709.913 275.407 707.555 276 704.754 276C701.069 276 698.121 274.963 695.615 272.889C693.699 271.259 692.372 268.889 691.487 266.074C691.045 264.889 692.077 263.556 693.404 263.556H693.551C694.436 263.556 695.173 264.148 695.32 264.889C696.057 266.963 696.942 268.593 698.121 269.63C699.89 271.259 702.101 272 704.754 272C707.85 272 710.356 271.111 712.124 269.185C713.893 267.259 714.925 265.185 714.925 262.667C714.925 261.037 714.483 259.407 713.599 258.074C712.714 256.741 711.387 255.556 709.913 254.815C708.587 254.222 706.818 253.778 704.459 253.63C703.427 253.482 702.69 252.741 702.69 251.704V251.407C702.69 250.37 703.427 249.63 704.459 249.482C705.786 249.333 706.965 249.037 707.997 248.593C709.618 247.852 710.798 246.963 711.535 245.926C712.272 244.889 712.567 243.704 712.567 242.519C712.567 240.741 711.83 239.111 710.356 237.778C708.881 236.445 706.965 235.704 704.754 235.704C702.985 235.704 701.364 236.148 700.037 237.185C698.858 238.074 697.973 239.407 697.089 241.333C696.647 241.778 695.91 242.222 695.173 242.222Z" fill="white"/>
<path d="M72.8193 137.037L69.5763 135.852C69.4289 135.852 69.2815 135.704 69.1341 135.407C67.66 132 66.923 130.074 65.4489 126.518C65.4489 126.37 65.4489 126.222 65.4489 125.926L66.923 122.815C67.0704 122.667 67.0704 122.37 66.923 122.222C65.7437 120.444 64.4171 118.815 62.7956 117.333C61.3215 115.852 59.7 114.518 57.9311 113.185C57.7837 113.037 57.4889 113.037 57.3415 113.185L54.246 114.667C54.0985 114.815 53.8037 114.815 53.6563 114.667C50.266 113.185 48.3497 112.444 44.8119 110.963C44.6645 110.963 44.5171 110.815 44.3697 110.518C44.0749 109.778 43.4852 108 43.1904 107.259C43.1904 107.111 42.8956 106.963 42.7482 106.815C40.6845 106.518 38.6208 106.222 36.4097 106.222C34.1986 106.222 32.1349 106.37 30.0712 106.815C29.9238 106.815 29.6289 106.963 29.6289 107.259L28.4497 110.518C28.4497 110.667 28.3023 110.815 28.0075 110.963C24.6171 112.444 22.7008 113.185 19.163 114.667C19.0156 114.667 18.8682 114.667 18.5734 114.667C17.9838 114.37 16.2149 113.481 15.4778 113.185C15.3304 113.037 15.0356 113.185 14.8882 113.185C13.1193 114.37 11.4979 115.704 10.0238 117.333C8.54971 118.815 7.22304 120.444 5.89637 122.222C5.74897 122.37 5.74897 122.667 5.89637 122.815L7.37045 125.926C7.51785 126.074 7.51785 126.222 7.37045 126.518C5.89637 129.926 5.15934 131.852 3.68526 135.407C3.68526 135.556 3.53786 135.704 3.24304 135.852L8.31485e-05 137.037C-0.147324 137.185 -0.294731 137.333 -0.442139 137.481C0.14749 139.556 8.31485e-05 141.63 8.31485e-05 143.852C8.31485e-05 146.074 0.14749 148.148 0.589712 150.222C0.589712 150.37 0.737119 150.667 1.03193 150.667L4.27489 151.852C4.4223 151.852 4.56971 152 4.71712 152.296C6.19119 155.704 6.92822 157.63 8.4023 161.185C8.4023 161.333 8.4023 161.481 8.4023 161.778L6.92822 164.889C6.78082 165.037 6.78082 165.333 6.92822 165.481C8.10748 167.259 9.43415 168.889 11.0556 170.37C12.5297 171.852 14.1512 173.185 15.9201 174.518C16.0675 174.667 16.3623 174.667 16.5097 174.518L19.6053 173.037C19.7527 172.889 19.9001 172.889 20.1949 173.037C23.5852 174.518 25.5015 175.259 29.0393 176.741C29.1867 176.741 29.3341 176.889 29.4815 177.185C29.7764 177.926 30.366 179.704 30.6608 180.444C30.6608 180.593 30.9556 180.741 31.103 180.889C33.1667 181.185 35.2304 181.481 37.4415 181.481C39.5052 181.481 41.7163 181.333 43.78 180.889C43.9274 180.889 44.2223 180.741 44.2223 180.444L45.4015 177.185C45.4015 177.037 45.5489 176.889 45.8437 176.741C49.2341 175.259 51.1504 174.518 54.6882 173.037C54.8356 173.037 54.983 173.037 55.1304 173.037C55.72 173.333 57.4889 174.222 58.226 174.518C58.3734 174.667 58.6682 174.667 58.8156 174.518C60.4371 173.481 61.9111 172.148 63.2378 170.815C63.3852 170.667 63.5326 170.518 63.68 170.37C65.1541 168.889 66.4808 167.259 67.66 165.481C67.8074 165.333 67.8074 165.037 67.66 164.889L66.186 161.778C66.186 161.63 66.0385 161.481 66.186 161.333C66.3334 160.741 66.6282 160.296 66.7756 159.852C66.923 159.407 66.6282 158.963 66.186 158.963H54.0986C53.9511 158.963 53.8037 158.963 53.6563 159.111C49.6763 163.556 43.78 166.37 37.2941 166.37C28.0075 166.37 20.0475 160.593 16.8045 152.444C16.6571 152 16.9519 151.556 17.3941 151.556C24.1749 151.556 69.2815 151.556 71.4926 151.556H71.64L73.2615 150.963C73.4089 150.963 73.5563 150.667 73.7037 150.518C73.9985 148.444 74.2934 146.37 74.2934 144.148C74.2934 141.926 74.1459 139.852 73.7037 137.778C73.1141 137.333 72.9667 137.185 72.8193 137.037ZM37.7363 147.407C34.9356 148 32.5771 145.63 33.3141 142.963C33.6089 141.63 34.6408 140.593 35.9675 140.296C38.7682 139.704 41.1267 142.074 40.3897 144.741C40.0949 146.074 39.063 147.111 37.7363 147.407ZM16.8045 136.444C16.3623 136.444 16.0675 136 16.2149 135.556C19.4578 127.407 27.4178 121.63 36.7045 121.63C45.9911 121.63 53.9511 127.407 57.1941 135.556C57.3415 136 57.0467 136.444 56.6045 136.444C51.4452 136.444 22.2586 136.444 16.8045 136.444Z" fill="white"/>
<path d="M154.63 144.445V179.408C154.63 180.296 154.041 180.889 153.156 180.889H141.363C140.479 180.889 139.889 180.296 139.889 179.408V150.667C139.889 150.222 139.742 149.926 139.447 149.63L118.81 128.889C118.221 128.296 117.336 128.296 116.746 128.889L96.1095 149.63C95.8146 149.926 95.6672 150.222 95.6672 150.667V179.408C95.6672 180.296 95.0776 180.889 94.1932 180.889H82.4006C81.5161 180.889 80.9265 180.296 80.9265 179.408V108.296C80.9265 107.408 81.5161 106.815 82.4006 106.815H94.1932C95.0776 106.815 95.6672 107.408 95.6672 108.296V125.482C95.6672 126.815 97.2887 127.408 98.1732 126.519L116.746 107.852C117.336 107.259 118.221 107.259 118.81 107.852L139.889 129.037L154.188 143.408C154.483 143.704 154.63 144 154.63 144.445Z" fill="white"/>
<path d="M117.778 147.555C119.814 147.555 121.464 145.897 121.464 143.851C121.464 141.806 119.814 140.148 117.778 140.148C115.743 140.148 114.093 141.806 114.093 143.851C114.093 145.897 115.743 147.555 117.778 147.555Z" fill="white"/>
<path d="M338.889 144.889V179.556C338.889 180.445 338.3 181.037 337.415 181.037H325.623C324.738 181.037 324.148 180.445 324.148 179.556V144.593C324.148 132.593 315.009 122.371 303.069 121.778C290.392 121.185 279.926 131.408 279.926 144V179.556C279.926 180.445 279.337 181.037 278.452 181.037H266.66C265.775 181.037 265.186 180.445 265.186 179.556V144C265.186 123.852 281.253 107.408 301.3 106.963C321.937 106.519 338.889 124 338.889 144.889Z" fill="white"/>
<path d="M289.508 155.703C291.543 155.703 293.193 154.045 293.193 152C293.193 149.954 291.543 148.296 289.508 148.296C287.472 148.296 285.823 149.954 285.823 152C285.823 154.045 287.472 155.703 289.508 155.703Z" fill="white"/>
<path d="M417.015 130.074L413.625 129.629C413.477 129.629 413.33 129.481 413.183 129.333C411.119 126.222 409.94 124.444 407.876 121.333C407.729 121.185 407.729 121.037 407.729 120.741L408.613 117.481C408.613 117.333 408.613 117.037 408.466 116.889C406.991 115.407 405.223 114.074 403.601 112.889C401.832 111.703 400.063 110.666 398.147 109.778C398 109.629 397.705 109.778 397.557 109.778L394.904 111.852C394.757 112 394.609 112 394.314 112C390.629 111.259 388.713 110.815 385.028 110.074C384.88 110.074 384.733 109.926 384.586 109.778C384.291 109.185 383.259 107.555 382.817 106.815C382.669 106.666 382.522 106.518 382.227 106.518C380.163 106.518 378.1 106.815 375.889 107.259C373.825 107.703 371.761 108.296 369.845 109.037C369.697 109.185 369.55 109.333 369.403 109.481L368.96 112.889C368.96 113.037 368.813 113.185 368.666 113.333C365.57 115.407 363.801 116.592 360.706 118.666C360.558 118.815 360.411 118.815 360.116 118.815C359.379 118.666 357.61 118.222 356.873 117.926C356.726 117.926 356.431 117.926 356.283 118.074C354.809 119.555 353.483 121.333 352.303 122.963C351.124 124.741 350.092 126.518 349.208 128.444C349.06 128.592 349.208 128.889 349.208 129.037L351.272 131.703C351.419 131.852 351.419 132 351.419 132.296C350.682 136 350.24 137.926 349.503 141.629C349.503 141.778 349.355 141.926 349.208 142.074L346.26 143.852C346.112 144 345.965 144.148 345.965 144.444C345.965 146.518 346.26 148.592 346.702 150.815C347.144 152.889 347.734 154.963 348.471 156.889C348.618 157.037 348.766 157.185 348.913 157.333L352.303 157.778C352.451 157.778 352.598 157.926 352.746 158.074C354.809 161.185 355.989 162.963 358.052 166.074C358.2 166.222 358.2 166.37 358.2 166.666L357.315 169.926C357.315 170.074 357.315 170.37 357.463 170.518C358.937 172 360.706 173.333 362.327 174.518C364.096 175.703 365.865 176.741 367.781 177.629C367.929 177.778 368.223 177.629 368.371 177.629L371.024 175.555C371.171 175.407 371.319 175.407 371.614 175.407C375.299 176.148 377.215 176.592 380.9 177.333C381.048 177.333 381.195 177.481 381.343 177.629C381.637 178.222 382.669 179.852 383.111 180.592C383.259 180.741 383.406 180.889 383.701 180.889C385.765 180.889 387.829 180.592 390.04 180.148C392.103 179.703 394.167 179.111 396.083 178.37C396.231 178.222 396.378 178.074 396.526 177.926L396.968 174.518C396.968 174.37 397.115 174.222 397.263 174.074C400.358 172 402.127 170.815 405.223 168.741C405.37 168.592 405.517 168.592 405.665 168.592C406.402 168.741 408.171 169.185 408.908 169.481C409.055 169.481 409.35 169.481 409.497 169.333C410.824 168 412.003 166.518 413.035 164.889C413.183 164.741 413.183 164.592 413.33 164.444C414.509 162.666 415.541 160.889 416.426 158.963C416.573 158.815 416.426 158.518 416.426 158.37L414.362 155.555C414.214 155.407 414.214 155.259 414.214 155.111C414.362 154.518 414.362 154.074 414.509 153.481C414.657 153.037 414.214 152.741 413.772 152.741L401.98 155.111C401.832 155.111 401.685 155.259 401.537 155.407C398.442 160.592 393.283 164.444 386.944 165.629C377.805 167.407 368.813 163.259 364.096 156C363.801 155.703 364.096 155.111 364.538 155.111C371.171 153.778 415.394 144.889 417.605 144.444H417.752L419.226 143.555C419.374 143.407 419.521 143.259 419.521 142.963C419.521 140.889 419.226 138.815 418.784 136.592C418.342 134.518 417.752 132.444 417.015 130.518C417.457 130.37 417.31 130.222 417.015 130.074ZM384.733 147.111C382.227 148.296 379.279 146.37 379.426 143.555C379.426 142.222 380.311 141.037 381.49 140.444C383.996 139.259 386.944 141.185 386.797 144C386.797 145.333 385.912 146.666 384.733 147.111ZM362.032 140.444C361.59 140.592 361.295 140.148 361.295 139.703C362.917 130.963 369.55 123.852 378.689 121.926C387.829 120.148 396.82 124.296 401.537 131.555C401.832 131.852 401.537 132.444 401.095 132.444C395.936 133.778 367.486 139.407 362.032 140.444Z" fill="white"/>
<path d="M488.95 130.074L485.559 129.629C485.412 129.629 485.265 129.481 485.117 129.333C483.053 126.222 481.874 124.444 479.81 121.333C479.663 121.185 479.663 121.037 479.663 120.741L480.547 117.481C480.547 117.333 480.547 117.037 480.4 116.889C478.926 115.407 477.157 114.074 475.536 112.889C473.767 111.703 471.998 110.666 470.082 109.778C469.934 109.629 469.639 109.778 469.492 109.778L466.839 111.852C466.691 112 466.544 112 466.249 112C462.564 111.259 460.648 110.815 456.962 110.074C456.815 110.074 456.668 109.926 456.52 109.778C456.225 109.185 455.193 107.555 454.751 106.815C454.604 106.666 454.456 106.518 454.162 106.518C452.098 106.518 450.034 106.815 447.823 107.259C445.759 107.703 443.696 108.296 441.779 109.037C441.632 109.185 441.485 109.333 441.337 109.481L440.895 112.889C440.895 113.037 440.748 113.185 440.6 113.333C437.505 115.407 435.736 116.592 432.64 118.666C432.493 118.815 432.345 118.815 432.051 118.815C431.313 118.666 429.545 118.222 428.808 117.926C428.66 117.926 428.365 117.926 428.218 118.074C426.744 119.555 425.417 121.333 424.238 122.963C423.059 124.741 422.027 126.518 421.142 128.444C420.995 128.592 421.142 128.889 421.142 129.037L423.206 131.703C423.353 131.852 423.354 132 423.354 132.296C422.616 136 422.174 137.926 421.437 141.629C421.437 141.778 421.29 141.926 421.142 142.074L418.194 143.852C418.047 144 417.899 144.148 417.899 144.444C417.899 146.518 418.194 148.592 418.636 150.815C419.079 152.889 419.668 154.963 420.405 156.889C420.553 157.037 420.7 157.185 420.848 157.333L424.238 157.778C424.385 157.778 424.533 157.926 424.68 158.074C426.744 161.185 427.923 162.963 429.987 166.074C430.134 166.222 430.134 166.37 430.134 166.666L429.25 169.926C429.25 170.074 429.25 170.37 429.397 170.518C430.871 172 432.64 173.333 434.262 174.518C436.031 175.703 437.799 176.741 439.716 177.629C439.863 177.778 440.158 177.629 440.305 177.629L442.959 175.555C443.106 175.407 443.253 175.407 443.548 175.407C447.233 176.148 449.15 176.592 452.835 177.333C452.982 177.333 453.13 177.481 453.277 177.629C453.572 178.222 454.604 179.852 455.046 180.592C455.193 180.741 455.341 180.889 455.636 180.889C457.699 180.889 459.763 180.592 461.974 180.148C464.038 179.703 466.102 179.111 468.018 178.37C468.165 178.222 468.313 178.074 468.46 177.926L468.902 174.518C468.902 174.37 469.05 174.222 469.197 174.074C472.293 172 474.062 170.815 477.157 168.741C477.305 168.592 477.452 168.592 477.599 168.592C478.336 168.741 480.105 169.185 480.842 169.481C480.99 169.481 481.285 169.481 481.432 169.333C482.759 168 483.938 166.518 484.97 164.889C485.117 164.741 485.117 164.592 485.265 164.444C486.444 162.666 487.476 160.889 488.36 158.963C488.507 158.815 488.36 158.518 488.36 158.37L486.296 155.555C486.149 155.407 486.149 155.259 486.149 155.111C486.296 154.518 486.296 154.074 486.444 153.481C486.591 153.037 486.149 152.741 485.707 152.741L473.914 155.111C473.767 155.111 473.619 155.259 473.472 155.407C470.376 160.592 465.217 164.444 458.879 165.629C449.739 167.407 440.748 163.259 436.03 156C435.736 155.703 436.031 155.111 436.473 155.111C443.106 153.778 487.328 144.889 489.539 144.444H489.687L491.161 143.555C491.308 143.407 491.456 143.259 491.456 142.963C491.456 140.889 491.161 138.815 490.719 136.592C490.276 134.518 489.687 132.444 488.95 130.518C489.392 130.37 489.245 130.222 488.95 130.074ZM456.668 147.111C454.162 148.296 451.213 146.37 451.361 143.555C451.361 142.222 452.245 141.037 453.425 140.444C455.93 139.259 458.879 141.185 458.731 144C458.731 145.333 457.847 146.666 456.668 147.111ZM434.114 140.444C433.672 140.592 433.377 140.148 433.377 139.703C434.999 130.963 441.632 123.852 450.771 121.926C459.91 120.148 468.902 124.296 473.619 131.555C473.914 131.852 473.619 132.444 473.177 132.444C467.87 133.778 439.421 139.407 434.114 140.444Z" fill="white"/>
<path d="M240.569 211.852C238.947 207.111 236.589 202.519 233.346 198.815C229.955 195.111 226.565 193.037 223.322 190.815C219.932 188.445 215.952 185.926 213.003 182.963C212.119 182.074 212.709 180.741 213.74 180.445C224.059 178.37 232.609 169.333 233.935 158.815L235.557 144.741C235.557 144.148 235.704 143.556 235.704 142.963C235.262 122.963 218.9 106.815 198.852 106.815C188.829 106.815 179.689 110.815 173.056 117.333C166.423 123.852 162.295 132.889 162 142.963C162 143.556 162 144.148 162.148 144.741L163.769 158.815C165.243 171.111 175.415 180.593 187.797 181.037C188.092 181.037 188.386 181.037 188.681 181.037H190.155C190.892 183.259 191.924 185.482 193.251 187.408C196.052 191.704 200.032 194.371 203.569 197.185C206.37 199.556 209.023 202.074 211.235 204.741C214.477 208.593 216.541 211.111 218.163 214.963C220.816 221.333 221.258 228.148 216.246 232.741C218.015 233.778 219.784 235.111 221.258 236.741C222.29 237.778 223.174 238.963 223.912 240.148C225.828 243.259 226.86 246.815 227.155 250.815C228.776 249.778 230.397 248.593 231.724 247.259V234.37C231.724 232.445 233.198 230.963 235.114 230.963H241.6C243.074 225.333 242.78 218.815 240.569 211.852ZM209.466 164.741C209.023 163.852 207.992 163.259 206.96 163.259H190.745C189.713 163.259 188.681 163.852 188.239 164.741C187.944 165.333 187.06 165.63 186.47 165.333C182.932 163.852 180.132 160.593 179.395 156.741L177.183 145.333C177.036 144.445 176.889 143.556 176.889 142.667C177.626 131.111 187.207 121.778 199 121.778C204.896 121.778 210.203 124.148 214.183 127.852C218.163 131.556 220.816 136.889 221.111 142.667C221.111 143.556 221.111 144.445 220.963 145.333L218.752 156.741C218.015 160.741 215.215 164 211.677 165.333C210.645 165.63 209.908 165.333 209.466 164.741Z" fill="white"/>
<path d="M257.815 108.444V179.555C257.815 180.444 257.226 181.037 256.341 181.037H244.549C243.664 181.037 243.074 180.444 243.074 179.555V108.444C243.074 107.555 243.664 106.963 244.549 106.963H256.341C257.226 106.963 257.815 107.555 257.815 108.444Z" fill="white"/>
<path d="M257.815 86.222V98.0738C257.815 98.9627 257.226 99.5553 256.341 99.5553H244.549C243.664 99.5553 243.074 98.9627 243.074 98.0738V86.222C243.074 85.3331 243.664 84.7405 244.549 84.7405H256.341C257.226 84.7405 257.815 85.3331 257.815 86.222Z" fill="white"/>
<path d="M558.231 108V179.111C558.231 180 557.642 180.592 556.757 180.592H544.965C544.08 180.592 543.491 180 543.491 179.111V108C543.491 107.111 544.08 106.518 544.965 106.518H556.757C557.642 106.518 558.231 107.111 558.231 108Z" fill="white"/>
<path d="M558.231 86.074V97.9259C558.231 98.8148 557.642 99.4073 556.757 99.4073H544.965C544.08 99.4073 543.491 98.8148 543.491 97.9259V86.074C543.491 85.1851 544.08 84.5925 544.965 84.5925H556.757C557.642 84.5925 558.231 85.1851 558.231 86.074Z" fill="white"/>
<path d="M536.12 108.296V120.148C536.12 120.889 535.53 121.63 534.646 121.63C523.148 122.37 514.009 132 514.009 143.852V179.408C514.009 180.296 513.419 180.889 512.535 180.889H500.742C499.858 180.889 499.268 180.296 499.268 179.408V143.852C499.268 123.852 514.893 107.704 534.646 106.815C535.53 106.815 536.12 107.556 536.12 108.296Z" fill="white"/>
<path d="M512.535 180.889H500.742C500.005 180.889 499.268 180.296 499.268 179.408V108.296C499.268 107.408 499.858 106.815 500.742 106.815H512.535C513.419 106.815 514.009 107.408 514.009 108.296V179.408C514.009 180.148 513.419 180.889 512.535 180.889Z" fill="white"/>
<path d="M717.873 186.667V190.963L706.818 184.592V180.296L717.873 186.667Z" fill="white"/>
<path d="M717.873 195.259V199.407L706.818 193.037V188.74L717.873 195.259Z" fill="white"/>
<path d="M717.873 161.037V165.333L706.818 158.815V154.518L717.873 161.037Z" fill="white"/>
<path d="M717.873 152.444V156.741L706.818 150.37V146.074L717.873 152.444Z" fill="white"/>
<path d="M719.642 136.148V139.852H717.873V148.148L706.818 141.778V139.852H704.901V136.148H719.642Z" fill="white"/>
<path d="M755.315 210.518H268.871V214.222H755.315V210.518Z" fill="white"/>
<path d="M268.871 216C270.906 216 272.556 214.341 272.556 212.296C272.556 210.25 270.906 208.592 268.871 208.592C266.835 208.592 265.186 210.25 265.186 212.296C265.186 214.341 266.835 216 268.871 216Z" fill="white"/>
<path d="M755.315 216C757.35 216 759 214.341 759 212.296C759 210.25 757.35 208.592 755.315 208.592C753.279 208.592 751.629 210.25 751.629 212.296C751.629 214.341 753.279 216 755.315 216Z" fill="white"/>
<path d="M706.375 204.888H718.168C719.052 204.888 719.642 205.481 719.642 206.37V218.222C719.642 219.111 719.052 219.703 718.168 219.703H706.375C705.491 219.703 704.901 219.111 704.901 218.222V206.37C704.901 205.629 705.638 204.888 706.375 204.888Z" fill="white"/>
<path d="M717.873 203.703V207.999L706.818 201.629V197.333L717.873 203.703Z" fill="white"/>
<path d="M210.203 237.333C209.908 237.185 209.613 237.185 209.318 237.037C209.613 237.185 209.908 237.185 210.203 237.333Z" fill="white"/>
<path d="M210.648 237.484C210.499 237.484 210.35 237.333 210.35 237.333C210.499 237.484 210.648 237.484 210.648 237.484Z" fill="white"/>
<path d="M263.122 237.778C262.975 237.482 262.827 237.333 262.68 237.037C262.532 236.889 262.385 236.593 262.237 236.445C262.09 236.296 261.795 236 261.648 235.852C261.5 235.704 261.206 235.408 261.058 235.259C260.911 235.111 260.763 234.963 260.469 234.815C260.321 234.667 260.174 234.667 260.026 234.519C259.879 234.371 259.584 234.222 259.437 234.222C259.142 234.074 258.847 233.926 258.552 233.778C258.257 233.63 257.963 233.63 257.668 233.482C255.309 232.889 252.509 232.445 248.971 232.445H235.115C234.083 232.445 233.198 233.333 233.198 234.371V272.889C233.198 273.926 234.083 274.815 235.115 274.815H236.736C237.768 274.815 238.652 273.926 238.652 272.889V259.852C238.652 258.815 239.537 257.926 240.569 257.926H249.266C253.098 257.926 256.341 257.333 258.7 256C259.142 255.852 259.437 255.556 259.879 255.259C260.174 254.963 260.616 254.815 260.911 254.519C261.206 254.222 261.5 253.926 261.795 253.63C261.943 253.482 262.09 253.333 262.237 253.185C262.532 252.889 262.68 252.593 262.975 252.148C263.417 251.408 263.859 250.667 264.154 249.778C264.596 248.296 264.891 246.667 264.891 244.741C265.186 242.222 264.449 239.852 263.122 237.778ZM257.078 250.963C256.636 251.408 256.194 251.704 255.604 252C255.457 252.148 255.162 252.148 255.015 252.296C253.54 252.889 251.772 253.037 249.56 253.037H240.863C239.832 253.037 238.947 252.148 238.947 251.111V239.704C238.947 238.667 239.832 237.778 240.863 237.778H249.56C251.919 237.778 253.835 237.926 255.162 238.371C255.309 238.371 255.457 238.519 255.604 238.519C255.752 238.519 255.899 238.667 255.899 238.667C255.899 238.667 255.899 238.667 256.046 238.667C256.194 238.667 256.194 238.815 256.341 238.815C256.489 238.815 256.636 238.963 256.783 239.111C256.931 239.259 257.078 239.408 257.373 239.556C257.52 239.704 257.668 239.852 257.668 239.852C257.815 240 257.815 240 257.963 240.148C258.11 240.296 258.257 240.593 258.405 240.741C259.289 242.074 259.732 243.556 259.732 245.185C259.289 247.704 258.552 249.63 257.078 250.963Z" fill="white"/>
<path d="M218.458 253.777C218.458 254.222 218.458 254.666 218.458 255.111C214.33 256.444 209.908 257.185 205.338 257.185C202.538 257.185 199.589 256.889 196.641 256.296C195.315 256 193.988 255.703 192.661 255.259C192.219 255.111 191.629 254.963 191.187 254.666C189.271 253.926 187.355 253.037 185.438 252C184.996 251.703 184.554 251.407 183.964 251.111C175.562 246.074 168.929 238.074 167.602 228.148C167.012 221.629 165.686 216.148 162.443 210.814C160.674 208 158.463 205.481 156.841 202.37C155.809 199.703 158.168 198.963 160.379 198.963C160.821 198.963 161.264 198.963 161.706 199.111C169.371 200.148 175.267 206.963 178.805 213.481C179.837 215.407 180.721 217.629 181.311 219.703C182.343 223.259 182.49 225.926 184.112 228.444C186.028 231.407 188.681 233.777 191.629 235.407C192.072 235.703 192.514 236 193.104 236.148C195.167 237.037 197.231 237.777 199.442 238.074C200.474 238.222 201.506 238.37 202.538 238.37C202.98 238.37 203.569 238.37 204.159 238.37C204.306 238.37 204.306 238.37 204.454 238.37C204.896 238.37 205.338 238.37 205.781 238.37C209.466 238.37 212.561 239.703 214.92 242.37C215.657 243.111 216.246 244.148 216.689 245.037C217.868 247.259 218.458 250.222 218.458 253.777Z" fill="white"/>
<path d="M704.902 163.111V163.851C704.902 164.74 704.312 165.333 703.427 165.333H681.759C670.556 165.333 661.416 156.148 661.416 144.888V141.926C661.416 130.666 670.556 121.481 681.759 121.481H699.447C700.479 121.481 701.364 121.777 702.248 122.222C703.575 122.963 704.607 124.296 704.902 125.926H719.79C719.79 124.592 719.495 123.407 719.2 122.222C718.905 120.592 718.316 119.111 717.579 117.777C717.136 116.888 716.694 116.148 716.104 115.407C714.778 113.481 713.156 111.703 711.093 110.37C707.85 108 703.722 106.666 699.447 106.666H681.759C662.448 106.666 646.676 122.37 646.676 141.926V144.888C646.676 164.296 662.301 180.148 681.759 180.148H703.427C704.312 180.148 704.902 180.74 704.902 181.629V182.37C704.902 183.259 705.491 183.851 706.376 183.851H718.168C719.053 183.851 719.642 183.259 719.642 182.37V163.111C719.642 162.222 719.053 161.629 718.168 161.629H706.376C705.639 161.629 704.902 162.37 704.902 163.111ZM704.902 173.481C704.902 175.111 703.575 176.444 701.953 176.444H681.611C664.365 176.444 650.361 162.37 650.361 145.037V142.074C650.361 124.74 664.365 110.666 681.611 110.666H699.3C705.049 110.666 710.061 113.629 713.009 118.074C714.188 120 712.861 122.518 710.503 122.518H708.292C707.555 122.518 706.67 122.074 706.228 121.481C704.607 119.407 701.953 118.074 699.153 118.074H681.464C668.197 118.074 657.584 128.888 657.584 142.074V145.037C657.584 158.37 668.344 169.037 681.464 169.037H701.806C703.427 169.037 704.754 170.37 704.754 172V173.481H704.902Z" fill="white"/>
<path d="M710.798 122.37H708.587C707.85 122.37 706.965 121.926 706.523 121.333C704.902 119.259 702.248 117.926 699.448 117.926H681.759C668.492 117.926 657.879 128.74 657.879 141.926V144.888C657.879 158.222 668.639 168.888 681.759 168.888H702.101C703.722 168.888 705.049 170.222 705.049 171.851V173.481C705.049 175.111 703.722 176.444 702.101 176.444H681.759C664.512 176.444 650.508 162.37 650.508 145.037V142.074C650.508 124.74 664.512 110.666 681.759 110.666H699.448C705.196 110.666 710.208 113.629 713.156 118.074C714.483 119.851 713.009 122.37 710.798 122.37Z" fill="white"/>
<path d="M117.484 188.444C117.484 186.814 119.842 185.037 122.495 183.703C123.232 183.259 123.38 182.518 123.232 181.926C123.232 181.777 123.085 181.629 122.938 181.481C122.79 181.185 122.495 181.037 122.201 181.037C121.906 181.185 121.611 181.333 121.316 181.481H120.874C121.316 181.333 121.906 181.185 122.201 181.037C122.053 181.037 121.906 181.037 121.906 181.037H119.4C119.252 181.037 118.958 181.037 118.663 181.185C116.157 181.777 102.006 185.333 101.858 189.481C101.564 194.074 109.671 194.963 109.229 203.851C108.639 218.074 35.2303 254.963 13.8563 265.333C12.3822 266.074 12.9718 268.148 14.4459 268.148H51.5925C51.8874 268.148 52.1822 268 52.3296 268C59.2577 263.703 66.1859 259.407 72.8192 254.963C72.8192 254.963 72.9666 254.963 72.9666 254.814H94.1932C95.5199 254.814 96.1095 256.444 95.2251 257.333C92.2769 260.148 89.3288 262.814 86.2333 265.481C85.2014 266.37 85.791 268 87.2651 268H122.201C122.643 268 123.085 267.851 123.38 267.407C130.603 258.37 145.491 235.111 146.228 219.407C146.818 203.259 117.484 191.851 117.484 188.444ZM118.221 195.259C119.695 196.296 121.316 197.481 122.79 198.666C123.822 199.555 123.232 201.333 121.758 201.333H118.663C118.221 201.333 117.926 201.185 117.631 200.888C116.599 199.703 115.42 198.666 114.241 197.481C113.356 196.592 113.946 194.963 115.272 194.963H117.336C117.631 194.963 117.926 195.111 118.221 195.259ZM119.547 181.926H120.579C120.284 182.074 119.99 182.222 119.547 182.518H117.926C118.368 182.222 118.958 182.074 119.547 181.926ZM116.304 182.963C116.452 182.963 116.599 182.814 116.894 182.814H118.81C118.368 183.111 117.778 183.407 117.336 183.703C117.041 183.851 116.894 183.851 116.599 183.851H113.946C114.683 183.555 115.42 183.259 116.304 182.963ZM111.587 185.037C111.882 184.888 112.03 184.888 112.324 184.888H115.272C114.83 185.185 114.388 185.333 114.093 185.629C113.651 185.926 113.209 186.222 112.619 186.666C112.324 186.814 112.03 186.963 111.735 186.963H109.229C109.818 186.222 110.703 185.629 111.587 185.037ZM108.787 190.666C108.492 190.074 108.492 189.481 108.492 188.888H110.113C110.555 188.888 111.145 189.185 111.292 189.481C111.587 189.926 112.177 190.518 112.619 190.963C113.061 191.407 113.651 191.851 114.093 192.296H110.408C109.966 192.296 109.376 192 109.229 191.555C109.081 191.259 108.934 190.963 108.787 190.666ZM116.599 234.666H104.954C103.627 234.666 102.89 233.037 103.922 232C108.197 228.296 112.177 224.444 115.862 220.296C117.631 218.074 119.252 215.851 120.432 213.481C120.727 212.888 121.169 212.592 121.758 212.592H127.36C128.244 212.592 128.981 213.481 128.834 214.37C127.212 221.333 122.495 228.148 117.778 234.074C117.484 234.518 117.041 234.666 116.599 234.666Z" fill="white"/>
<path d="M558.231 59.8517V75.9998C558.231 76.8887 557.642 77.4813 556.757 77.4813H544.965C544.08 77.4813 543.491 76.8887 543.491 75.9998V74.0739C543.491 73.4813 543.048 72.8887 542.459 72.5924L401.095 29.185C400.8 29.0369 400.505 29.0369 400.211 29.185L257.815 72.8887V75.9998C257.815 76.8887 257.226 77.4813 256.341 77.4813H252.803H243.075H223.027C222.29 77.4813 221.7 77.0369 221.553 76.2961L219.342 66.6665C219.195 65.9258 219.637 65.0369 220.374 64.8887L237.768 60.148L240.126 59.5554L377.363 21.9257L400.653 15.5554L457.7 -0.000179011C458.437 -0.148327 459.321 0.296117 459.468 1.03686L461.827 8.74056C462.122 9.4813 461.68 10.3702 460.795 10.5183L428.808 20.2961C427.334 20.7406 427.481 22.8146 428.808 23.1109L543.491 54.3702L557.199 58.0739C557.789 58.5183 558.231 59.1109 558.231 59.8517Z" fill="white"/>
<path d="M491.161 89.6292V97.7774C491.161 98.6663 490.572 99.2589 489.687 99.2589H484.233C483.349 99.2589 482.759 98.6663 482.759 97.7774C482.759 97.1848 482.317 96.5922 481.727 96.2959L401.98 71.8514C401.39 71.7033 400.801 71.7033 400.211 71.8514L320.464 96.2959C319.874 96.444 319.432 97.0366 319.432 97.7774C319.432 98.6663 318.842 99.2589 317.958 99.2589H316.631H311.03H301.301C299.974 99.2589 298.795 98.37 298.5 97.0366L298.058 95.1107C297.763 93.6292 298.647 91.9996 300.121 91.5551L308.081 89.3329L309.408 89.0366L387.681 67.5552L400.948 63.9996L432.935 55.2589C433.672 55.1107 434.557 55.5552 434.704 56.2959L435.736 59.5552C436.031 60.2959 435.589 61.1848 434.704 61.3329L419.079 66.0737C417.605 66.5181 417.752 68.5922 419.079 68.8885L482.464 86.2218L489.835 88.2959C490.719 88.2959 491.161 88.8885 491.161 89.6292Z" fill="white"/>
<path d="M635.768 128.445C635.325 127.259 634.736 126.222 633.999 125.185C630.019 118.37 623.975 113.037 616.752 109.778C615.573 109.333 614.541 108.889 613.362 108.445C613.214 108.445 613.214 108.445 613.067 108.296C613.067 108.296 612.919 108.296 612.772 108.296C612.33 108.148 611.888 108 611.593 108C611.298 107.852 610.856 107.852 610.414 107.704C610.119 107.556 609.676 107.556 609.234 107.408C608.792 107.259 608.35 107.259 607.908 107.111C607.465 106.963 607.023 106.963 606.581 106.963C606.139 106.963 605.697 106.815 605.254 106.815C604.812 106.815 604.517 106.815 604.075 106.815C603.928 106.815 603.928 106.815 603.78 106.815C603.338 106.815 602.896 106.815 602.454 106.815C602.011 106.815 601.569 106.815 601.127 106.815C600.979 106.815 600.832 106.815 600.832 106.815C600.39 106.815 600.095 106.815 599.653 106.815C599.211 106.815 598.768 106.815 598.326 106.963C597.884 106.963 597.442 107.111 596.999 107.111C596.557 107.111 596.115 107.259 595.673 107.408C595.378 107.408 594.936 107.556 594.494 107.704C594.051 107.852 593.757 107.852 593.314 108C592.872 108.148 592.43 108.148 591.988 108.296H591.84C591.693 108.296 591.693 108.296 591.545 108.445C590.366 108.889 589.334 109.333 588.155 109.778C580.932 112.889 574.888 118.37 570.908 125.185C570.319 126.222 569.729 127.259 569.14 128.445C566.781 133.333 565.454 138.963 565.454 144.741V179.408C565.454 180.148 566.191 180.889 566.928 180.889H578.721C579.458 180.889 580.195 180.148 580.195 179.408V143.852C580.195 143.704 580.195 143.556 580.195 143.408C580.195 141.63 580.49 139.852 580.932 138.222C581.08 137.482 581.374 136.741 581.522 136.148C583.733 130.074 588.597 125.185 594.641 122.963C595.378 122.667 595.968 122.519 596.705 122.37C597.147 122.222 597.589 122.222 597.884 122.074C598.179 122.074 598.621 121.926 598.916 121.926C599.211 121.926 599.358 121.926 599.653 121.778C599.948 121.778 600.242 121.778 600.537 121.778C600.685 121.778 600.832 121.778 600.98 121.778C600.98 121.778 600.979 121.778 601.127 121.778C601.422 121.778 601.864 121.778 602.159 121.778C602.601 121.778 602.896 121.778 603.338 121.778C603.485 121.778 603.633 121.778 603.78 121.778C604.075 121.778 604.37 121.778 604.665 121.778C604.959 121.778 605.107 121.778 605.402 121.926C605.697 121.926 606.139 122.074 606.434 122.074C606.876 122.074 607.318 122.222 607.76 122.37C608.497 122.519 609.234 122.815 609.824 122.963C615.868 125.185 620.732 130.074 622.943 136.148C623.238 136.889 623.385 137.482 623.533 138.222C623.975 139.852 624.27 141.63 624.27 143.408C624.27 143.556 624.27 143.704 624.27 143.852V179.408C624.27 180.148 625.007 180.889 625.744 180.889H637.536C638.274 180.889 639.011 180.148 639.011 179.408V144.593C639.305 138.815 637.979 133.333 635.768 128.445ZM576.657 177.185H569.287V161.63H576.657V177.185ZM635.62 177.185H628.25V161.63H635.62V177.185Z" fill="white"/>
<path d="M710.798 122.369H708.587C707.85 122.369 706.965 121.925 706.523 121.332C704.901 119.258 702.248 117.925 699.447 117.925H681.758C668.492 117.925 657.878 128.74 657.878 141.925V144.888C657.878 158.221 668.639 168.888 681.758 168.888H702.101C703.722 168.888 705.049 170.221 705.049 171.851V173.481C705.049 175.11 703.722 176.444 702.101 176.444H681.758C664.512 176.444 650.508 162.369 650.508 145.036V142.073C650.508 124.74 664.512 110.666 681.758 110.666H699.447C705.196 110.666 710.208 113.629 713.156 118.073C714.483 119.851 713.009 122.369 710.798 122.369Z" fill="white"/>
<path d="M702.101 177.185H681.759C664.07 177.185 649.624 162.666 649.624 144.889V141.926C649.624 124.148 664.07 109.629 681.759 109.629H699.447C705.196 109.629 710.65 112.592 713.893 117.333L714.041 117.629C714.63 118.815 714.63 120 714.041 121.037C713.451 122.222 712.124 122.963 710.798 122.963H708.587C707.555 122.963 706.523 122.37 705.933 121.629C704.312 119.703 701.953 118.518 699.447 118.518H681.759C668.934 118.518 658.468 129.037 658.468 141.926V144.889C658.468 157.778 668.934 168.296 681.759 168.296H702.101C704.164 168.296 705.786 169.926 705.786 172V173.629C705.638 175.555 704.017 177.185 702.101 177.185ZM681.759 111.259C664.954 111.259 651.098 125.037 651.098 142.074V145.037C651.098 161.926 664.807 175.852 681.759 175.852H702.101C703.28 175.852 704.312 174.815 704.312 173.629V172C704.312 170.815 703.28 169.778 702.101 169.778H681.759C668.197 169.778 656.994 158.666 656.994 144.889V141.926C656.994 128.296 668.05 117.037 681.759 117.037H699.447C702.396 117.037 705.196 118.37 707.113 120.741C707.555 121.185 707.997 121.481 708.734 121.481H710.798C711.535 121.481 712.272 121.037 712.714 120.296C713.009 119.555 713.009 118.815 712.567 118.222V118.074C709.618 113.629 704.754 111.111 699.447 111.111H681.759V111.259Z" fill="white"/>
</g>
<defs>
<clipPath id="clip0_288_9318">
<rect width="759" height="276" fill="white"/>
</clipPath>
</defs>
</svg>
