<?xml version="1.0" encoding="utf-8"?>
<svg viewBox="8.17 8.17 927.49 927.49" preserveAspectRatio="none" xmlns="http://www.w3.org/2000/svg">
  <defs>
    <style>
      .cls-1 {
        fill: #fff;
      }

      .cls-2, .cls-3 {
        stroke: #000;
        stroke-width: 2.72px;
      }

      .cls-2, .cls-4 {
        stroke-miterlimit: 10;
      }

      .cls-3 {
        stroke-linejoin: round;
      }

      .cls-4 {
        fill: none;
        stroke: #231f20;
        stroke-width: 16.33px;
      }
    </style>
  </defs>
  <path class="cls-3" d="m286.29,469.61s-6.35-38.99-24.5-38.09c-18.15.89-19.05,90.63,3.63,76.61,22.68-14.01,30.64-10.47,20.87-38.52Z"/>
  <g>
    <path d="m756.05,222.08c-25.41,2.27-39.17,8.82-69.57,28.33,0,0-2.58-.89-7-21.86-5.26-24.97-18.92-35.5-13.14-23.7,3.37,6.87.46,36.2-.83,54.72-5.47,29.3-29.93,29.63-29.93,29.63-10.51-.07-19.9,1.09-27.31,16.45-6.05,12.52-22.36,17.79-28.34,49.08,0,0-13.51,33.94,30.48,37.51,19,1.54,28.78,2.87,38.79-7.93,0,0-5.01,11.84-14.51,21.54-12.9,13.15-34.04,32.1-41.07,47.77-8.39,18.7-18.48,49.02-29.83,48.88-2.55-.03-4.23-.32-5.35-.84.57-1.13,1.02-2.29,1.23-3.49,2.5-13.96-6.74-20.44-12.22-20.9-8.94-1.09-22.44-.64-38.44-3.13-18.61-2.9-33.55-19.44-41.89-19.57l.03-.05s-9.22-1.21-11,8.56c-2.97-4.7-3.76-19.97,4.53-30.65,6.45-8.31,39.93-26.11,41.74-74.65.98-26.04,24.55-61.74,5.19-81.85-12.9-13.4-14.39-32.47-7.46-70.84,5.45-30.11,49.54-56.93,71.52-63.93,38.39-12.23,76.84,40.62,77.3,38.3,0,0-35.56-60.81-76.78-49.01-8.75,2.5-67.51,7.26-90.64,48.56-16.27,29.02-27.78,8.24-27.78,8.24,0,0-18.27-49.41-44.82-51.35-26.54-1.94-54.55-12.23-63.86-3.51-9.3,8.71-9.08,34.22-.8,51.71,8.28,17.5,24.6,32.75,37.78,38.46,26,11.25,67.81.9,71.11,5.66,3.3,4.76-6.07,37.27-10.49,47.47-2.73,6.31-15.22,20.13-16.73,32.22-1.51,12.09-2.09,58.08,2.71,68.69,8.09,17.88,3.38,46.86,1.07,58.81-2.3,11.94-1.23,33.1,7.11,42.37,7.23,8.03,5.19,17.73,11.82,31.77,5.51,11.67,30.6,38.21,71.45,30.73,27.98-5.11,33.29-17.25,41.36-19.98,10.35-3.51,16.56-11.94,19.28-20.18,2.72-8.23,18.01-43.87,25.35-55.4,7.33-11.53,51.66-54.98,53.55-85.49,1.89-30.48-10.07-65.69,23.85-75.68,8.53-2.51,32.33,16,48.9,19.7,14.2,3.17,75.04-12.38,80.37-28.17,5.33-15.79-34.62-54.97-56.77-52.99Z"/>
    <g>
      <path d="m280.36,606.42v17.95h26.6v16.2h-26.6v41.64h-16.13v-92h43.37v16.2h-27.24Z"/>
      <path d="m401.87,682.22l-9.64-24.93h-28.04l-9.64,24.93h-17.44l36.2-92h10.12l35.56,92h-17.13Zm-23.66-60.61l-7.81,20.03h15.65l-7.84-20.03Z"/>
      <path d="m496.62,682.22l-22.82-35.01v35.01h-15.81v-92h18.92c2.79,0,5.49.19,8.1.55,2.62.37,5.06.98,7.33,1.83,2.28.85,4.34,1.96,6.22,3.34,1.87,1.38,3.48,3.06,4.82,5.06,1.35,2,2.38,4.34,3.11,7.02.72,2.68,1.1,5.75,1.1,9.21s-.44,6.44-1.3,9.19c-.86,2.75-2.08,5.19-3.63,7.32-1.55,2.13-3.42,3.94-5.62,5.44-2.19,1.51-4.62,2.66-7.26,3.49l25.96,39.56h-19.11Zm-5.06-65.16c0-2.3-.38-4.15-1.15-5.55-.77-1.4-1.79-2.48-3.07-3.23-1.27-.75-2.73-1.25-4.38-1.49-1.64-.24-3.34-.36-5.09-.36h-3.9v21.44h4.58c1.62,0,3.22-.17,4.78-.51,1.56-.34,2.96-.92,4.18-1.74,1.22-.82,2.21-1.93,2.95-3.32.75-1.39,1.12-3.13,1.12-5.23Z"/>
      <path d="m635.61,682.22l-8.84-45.98-1.12-8.38-2.63,8.21-17.92,46.15h-9.8l-18.28-46.87-2.43-7.83-1.15,8-9.12,46.7h-16.33l18.28-92h10.12l23.65,60.83,23.82-60.83h10.11l18.08,92h-16.45Z"/>
    </g>
    <g>
      <path d="m264.17,788.92v-92h15.93v75.97h22.57v16.03h-38.5Z"/>
      <path d="m412.16,751.64v3.14c0,1.04-.06,2.03-.17,2.97-.23,4.76-1.25,9.08-3.05,12.97-1.8,3.89-4.21,7.18-7.23,9.85-3.02,2.67-6.56,4.73-10.62,6.19-4.07,1.45-8.48,2.17-13.24,2.17-3.84,0-7.61-.55-11.32-1.65-3.72-1.11-7.12-2.73-10.2-4.88-3.07-2.15-5.69-4.77-7.84-7.84-2.15-3.08-3.57-6.54-4.26-10.37-.35-1.98-.55-4.01-.62-6.1-.05-2.08-.09-4.23-.09-6.44v-56.11h17.42v54.54c0,3.95.14,7.28.44,10.02.29,2.73,1.19,4.97,2.7,6.71,1.5,1.73,3.57,3.16,6.18,4.26,2.62,1.11,5.14,1.66,7.58,1.66,3.83,0,6.88-.62,9.15-1.83,2.27-1.22,3.94-2.85,5.05-4.88,1.11-2.03,1.83-4.41,2.18-7.15.34-2.72.52-5.66.52-8.79v-54.54h17.42v56.11Z"/>
      <path d="m535.68,777.26c-6.16,4.53-11.7,7.6-16.63,9.23-4.94,1.63-10.08,2.44-15.42,2.44-6.51,0-12.7-1.24-18.56-3.74-5.87-2.5-11.01-5.86-15.42-10.1-4.42-4.24-7.93-9.24-10.55-14.98-2.61-5.75-3.92-11.88-3.92-18.39s1.28-12.8,3.83-18.56c2.55-5.74,6.07-10.77,10.54-15.07,4.47-4.3,9.63-7.69,15.5-10.19,5.86-2.5,12.11-3.75,18.73-3.75,4.88,0,9.87.82,14.98,2.45,5.11,1.63,10.69,4.77,16.73,9.41l-9.06,13.41c-2.67-1.97-5.08-3.54-7.23-4.7-2.15-1.16-4.15-2.06-6.01-2.7-1.86-.64-3.57-1.05-5.14-1.22-1.57-.17-3.11-.25-4.62-.25-4.18,0-8.16.84-11.93,2.52-3.78,1.69-7.08,3.98-9.93,6.88-2.85,2.9-5.12,6.27-6.79,10.11-1.68,3.83-2.53,7.89-2.53,12.19,0,3.95.85,7.75,2.53,11.42,1.68,3.66,3.98,6.91,6.88,9.75,2.9,2.85,6.22,5.12,9.93,6.79,3.72,1.69,7.67,2.53,11.85,2.53,1.51,0,3.05-.12,4.62-.35,1.57-.23,3.28-.67,5.14-1.31,1.85-.64,3.86-1.54,6.01-2.7,2.15-1.16,4.56-2.73,7.23-4.7l9.23,13.59Z"/>
      <path d="m629.94,787.53l-33.45-32.58v32.58h-17.25v-92h17.25v29.45l30.84-29.45h24.22l-46.52,44.43,49.13,47.57h-24.22Z"/>
    </g>
    <path class="cls-2" d="m423.89,365.97c-.52.18-8.89,3.35-.36,18.79,8.53,15.44-3.31,61.34-14.22,70.87-11.45,10.01-20.42,4.77-39.47,45.6-19.06,40.84-77.59,33.35-63.97-2.91,13.61-36.26-34.71-67.87-34.03-113.56.68-45.68,74.86-42.79,93.24-40.74,18.38,2.04,57.69-24.04,57.69-24.04,0,0,5.7-4.2,9.23-2.16,3.52,2.04,6.82,42.88-8.1,48.16Z"/>
    <path class="cls-1" d="m436.08,208.11s-3.22-11.15-15.6-13.37c-12.38-2.23-10.65,9.9,15.6,13.37Z"/>
    <path class="cls-1" d="m704.53,267.67s8.27-9.48,21.47-6c13.2,3.49,5.93,14.62-21.47,6Z"/>
    <path class="cls-1" d="m653.66,325.53s-11.45-13.77-21.65-5.35c-15.15,12.5-12.09,15.52-3.64,19.66,7.33,3.59,12.2,5.89,21.28,3.08,0,0,10.94-7.22,4.01-17.39Z"/>
    <path class="cls-1" d="m453.87,283.71c3.16-3.84,13.55-13.93,23.42-5.14,9.08,8.09,7.77,16.08.61,19.99-8.04,4.38-13.64,1.86-16.14.63,0,0-12.9-9.38-7.89-15.48Z"/>
    <path d="m479.99,290.39c0,5.89-5.65,12.85-12.62,12.85s-15-6.53-12.63-12.85c2.08-5.52,5.65-10.68,12.63-10.68s12.62,4.77,12.62,10.68Z"/>
    <path d="m649.99,338.66c-1.56,6.58-8.42,10.57-15.31,8.94-6.89-1.65-11.21-8.3-9.65-14.88,1.57-6.57,8.42-10.58,15.31-8.94,6.89,1.64,11.21,8.3,9.65,14.87Z"/>
    <path d="m427.5,372.78s-1.3-7-4.08-5.4l4.08-7.15s8.85-.17,9.36,0c.51.17-9.36,12.55-9.36,12.55Z"/>
    <path d="m620.27,535.81c-8.17-18.04-14.41-31.42-13.27-46.62.28-3.79.97-17.95,2.51-29.48h0c.28-2.13-.7,0-.7,0h0c-2.08,8.43-5.42,25.4-5.2,46.83.15,14.63,19.74,48.32,11.57,64.65,0,0,13.27-17.35,5.1-35.39Z"/>
    <path d="m557.71,559.54s24.84-23.09,29.96-32.61c5.11-9.53,21.32,18.2,14.09,28.38-7.22,10.19-58.29,18.21-44.04,4.23Z"/>
    <path class="cls-1" d="m537.7,486.08s6.37.37,10.95-.33c3.74-.58,2.2,8.11-4.57,8.75-3.72.35-11.28-5.13-6.37-8.42Z"/>
    <path class="cls-1" d="m470.12,466.43c-.34-3.11-1.59-5.78-3.86-4.68-2.27,1.1-3.36,6.6,2.54,9.3,5.9,2.7,1.66-1.51,1.32-4.62Z"/>
    <path class="cls-4" d="m935.66,471.92c0,256.12-207.63,463.74-463.75,463.74S8.17,728.04,8.17,471.92,215.8,8.17,471.91,8.17s463.75,207.63,463.75,463.75Z"/>
  </g>
</svg>
