<?xml version="1.0" encoding="utf-8"?>
<svg viewBox="0.007 0 741.829 603.169" xmlns="http://www.w3.org/2000/svg">
  <defs>
    <style>
      .cls-1 {
        fill: #eca32f;
      }

      .cls-2 {
        fill: #fff;
      }

      .cls-3, .cls-4 {
        fill: #00a651;
      }

      .cls-5 {
        fill: #e22427;
      }

      .cls-6 {
        fill: #3754a5;
      }

      .cls-7 {
        fill: #3450a3;
      }

      .cls-8 {
        fill: #3ab04a;
      }

      .cls-9 {
        stroke-width: 19px;
      }

      .cls-9, .cls-10 {
        fill: none;
        stroke: #fff;
        stroke-linecap: round;
        stroke-linejoin: round;
      }

      .cls-10 {
        stroke-width: 23px;
      }

      .cls-10, .cls-11, .cls-4 {
        font-family: Quark-Bold, Quark;
        font-size: 100px;
        font-weight: 700;
      }

      .cls-11 {
        fill: #3baf49;
      }
    </style>
  </defs>
  <g id="Layer_2-2" data-name="Layer 2">
    <g>
      <g>
        <path class="cls-5" d="m198.43,299.83c-3.56,0-5.17-2.85-5.86-4.06-5.29-9.32-6.92-19.35-7.68-26.09-.46-4.03-.65-8.29-.58-12.66.26-19.1,3.36-38.02,9.22-56.2.95-2.94,2.01-5.86,3.04-8.68,1.92-5.28,3.73-10.26,4.89-15.46,3.27-14.69,4.24-29.88,2.89-45.16-.54-6.09,3.49-7.72,5.94-8.15,10.15-1.77,19.35-3.45,28.13-5.11.75-.14,1.38-.21,1.98-.21,2.32,0,3.78,1.02,4.59,1.87,1.9,2,1.78,4.58,1.73,5.54-1.36,27.41-6.27,51.7-15.03,74.27-8.79,22.67-9.82,46.01-3.04,69.36.9,3.09.12,5.75-2.31,7.91-7.45,6.63-15.37,13.69-23.13,20.75-.56.51-2.27,2.07-4.77,2.07Z"/>
        <path class="cls-2" d="m240.38,123.04c1.08,0,1.4.59,1.32,2.17-1.24,24.98-5.61,49.3-14.7,72.71-9.23,23.79-10.3,48.02-3.18,72.56.38,1.3.09,1.96-.83,2.78-7.75,6.9-15.5,13.8-23.17,20.79-.59.54-1.04.77-1.41.77-.63,0-1.02-.67-1.51-1.53-4.26-7.51-6.1-15.72-7.06-24.19-.45-3.99-.62-7.99-.55-12.01.25-18.7,3.26-37.01,8.98-54.76,2.64-8.2,6.16-16.12,8.05-24.59,3.43-15.41,4.38-30.98,2.98-46.69-.15-1.69.02-2.47,1.82-2.78,9.41-1.64,18.81-3.34,28.2-5.13.41-.08.75-.12,1.04-.12m0-10h0c-.91,0-1.86.1-2.91.3-8.73,1.66-17.91,3.33-28.05,5.1-4.92.86-7.42,3.65-8.64,5.84-1.81,3.23-1.53,6.46-1.42,7.68,1.31,14.77.37,29.45-2.78,43.63-1.09,4.88-2.85,9.72-4.71,14.84-1.04,2.86-2.12,5.82-3.1,8.86-6.01,18.66-9.2,38.07-9.46,57.69-.08,4.55.13,9.03.61,13.27.82,7.17,2.56,17.87,8.3,27.99,2.48,4.38,5.92,6.6,10.21,6.6,2.94,0,5.68-1.13,8.14-3.37,7.77-7.08,15.67-14.11,23.08-20.71,3.88-3.45,5.22-8.08,3.78-13.04-6.47-22.27-5.49-44.53,2.9-66.15,8.95-23.08,13.98-47.88,15.36-75.83.19-3.77-.86-6.88-3.1-9.24-2.1-2.21-5.02-3.43-8.21-3.43h0Z"/>
      </g>
      <g>
        <path class="cls-1" d="m579.68,93.89c-7.53-.05-15.56-.07-26.04-.07-4.51,0-22.11.02-26.4.02-.23,0-.46,0-.69-.02-.07,0-.13,0-.2,0-.32.03-.62.05-.9.05-1.97,0-3.71-.76-4.9-2.13-.81-.93-1.69-2.53-1.5-4.95-1.54-10.01,3.91-15.99,8.19-19.63,6.97-5.94,13.72-12.52,20.24-18.89,1.59-1.55,3.17-3.1,4.77-4.64,3.08-2.98,4.51-5.4,4.79-8.11.37-3.56-1.45-4.44-3.07-4.8-1.75-.4-3.41-.6-4.93-.6-4.25,0-7.57,1.49-10.45,4.69-1.53,1.7-3.29,2.56-5.23,2.56-2.47,0-4.26-1.37-5.74-2.66-1.96-1.7-4.02-3.03-6.14-3.96-1.44-.63-4.44-1.95-5.22-5.08-.73-2.93,1.01-5.15,1.59-5.88,4.92-6.25,11.45-10.54,19.43-12.76,4.8-1.33,9.56-2.01,14.14-2.01,4.97,0,9.87.79,14.58,2.35,10.6,3.51,15.27,10.46,17.32,15.67,3.08,7.8,2.36,17.12-1.9,24.94-3.45,6.31-8.4,10.92-13.2,15.37-.94.87-1.88,1.75-2.81,2.64-1.11,1.06-2.23,2.12-3.34,3.18h14.75c5.86,0,10.71,4.74,10.82,10.57.02.8,0,1.61-.02,2.42-.03,1.15-.05,2.23.05,3.18.1.97.39,3.93-1.7,6.24-2.11,2.33-5.16,2.33-6.16,2.33h-.11Z"/>
        <path class="cls-2" d="m551.4,10c4.34,0,8.68.66,13.01,2.1,16.61,5.51,18.81,22.11,12.61,33.47-3.7,6.77-9.62,11.57-15.08,16.78-4.13,3.95-8.29,7.87-12.44,11.8h1.12c5.32,0,10.64,0,15.96,0,3.41,0,6.81,0,10.22,0,3.16,0,5.76,2.51,5.82,5.67.04,2-.15,4.02.05,6,.23,2.31-.46,3.07-2.89,3.07-.03,0-.05,0-.08,0-8.7-.06-17.4-.07-26.09-.07s-17.59.02-26.38.02h0c-.31,0-.63-.03-.94-.03-.14,0-.28,0-.42.02-.15.02-.3.03-.43.03-1.16,0-1.57-.69-1.38-1.98.02-.15.02-.3,0-.44-1.15-6.54,1.34-11.16,6.42-15.49,8.78-7.48,16.94-15.7,25.24-23.74,3.16-3.06,5.8-6.53,6.29-11.19.53-5.14-1.93-9.06-6.94-10.2-2.07-.47-4.08-.72-6.03-.72-5.31,0-10.13,1.87-14.16,6.35-.55.61-1,.9-1.51.9-.65,0-1.37-.49-2.46-1.43-2.23-1.93-4.7-3.58-7.41-4.76-2.8-1.23-2.84-1.87-1.71-3.3,4.39-5.58,10.11-9.16,16.83-11.03,4.26-1.18,8.53-1.83,12.8-1.83m0-10h0c-5.04,0-10.24.74-15.48,2.19-9.02,2.5-16.43,7.38-22.02,14.48-3.17,4.03-3.11,7.77-2.51,10.19,1.38,5.51,6.23,7.64,8.06,8.45,1.66.73,3.3,1.79,4.88,3.16,1.34,1.16,4.47,3.88,9.02,3.88,2.35,0,5.81-.73,8.95-4.22,1.91-2.13,3.92-3.03,6.73-3.03.91,0,1.9.1,2.97.3-.2.98-.87,2.33-3.23,4.62-1.59,1.54-3.18,3.09-4.76,4.64-6.47,6.31-13.16,12.83-20.01,18.67-7.94,6.77-11.21,14.52-9.96,23.67-.13,4.01,1.6,6.69,2.74,8,2.16,2.49,5.24,3.86,8.68,3.86.33,0,.68-.01,1.02-.04.26.01.52.02.77.02,4.29,0,8.58,0,12.86,0,4.51,0,9.01,0,13.52,0,10.48,0,18.51.02,26.03.07h.15c4.16,0,7.48-1.34,9.87-3.98,2.38-2.63,3.37-6.02,2.97-10.09-.06-.64-.04-1.58-.02-2.57.02-.79.04-1.68.02-2.63-.16-8.53-7.26-15.48-15.82-15.48h-2.16c3.99-3.82,8.1-8.2,11.15-13.79,4.97-9.1,5.78-20,2.16-29.17-3.46-8.77-10.7-15.37-20.4-18.59-5.22-1.73-10.65-2.61-16.16-2.61h0Z"/>
      </g>
      <g>
        <path class="cls-1" d="m631.61,93.89c-2.14,0-3.87-.67-5.15-1.98-1.95-2-1.89-4.6-1.86-5.57.04-1.52.03-3.04.02-4.64,0-1.36-.02-2.76,0-4.17-2.86.01-5.71.02-8.55.02h-10.04c-4.5,0-9.81,0-15.14.06h-.15c-5.89,0-7.48-4.09-7.78-7.51-.63-7.33,1.33-13.61,6.18-19.75,7.78-9.85,15.35-20.19,22.68-30.19,2.48-3.38,4.95-6.76,7.44-10.12,1.8-2.43,4.09-3.62,7-3.62h.28c1.21.03,2.42.04,3.64.04,1.76,0,3.51-.02,5.27-.05,1.67-.02,3.35-.04,5.02-.05h.05c.28-.04.7-.1,1.21-.1,2.43,0,4.52,1.35,5.47,3.51.68,1.56,1.01,4.01-1.31,6.78l-.11.13c-2.26,3.06-4.55,6.13-6.84,9.21-3.18,4.28-6.44,8.66-9.67,13.04.92-.38,1.96-.57,3.13-.57h.21c1.92.03,3.84.05,5.76.05,2.21,0,4.42-.02,6.63-.07h.22c2.14,0,3.88.67,5.16,1.99,1.3,1.34,1.93,3.17,1.87,5.43-.04,1.54-.03,3.07-.02,4.7,0,.82.01,1.65,0,2.49h.05c.71,0,1.43,0,2.14.02.67,0,1.34.02,2.01.02.4,0,.8,0,1.2-.01h.28c2.15,0,3.89.66,5.15,1.96,1.27,1.31,1.88,3.04,1.81,5.15-.09,3.09-.1,6.5-.02,10.4.04,2.14-.58,3.88-1.85,5.18-1.26,1.29-2.96,1.94-5.04,1.94-.12,0-.24,0-.37,0-.48-.02-.96-.02-1.44-.02-.64,0-1.28,0-1.91.02-.66,0-1.33.02-1.99.02.02,1.44,0,2.86,0,4.25-.01,1.69-.02,3.3.01,4.91.05,2.15-.57,3.89-1.84,5.19-1.26,1.29-2.97,1.94-5.08,1.94h-.22c-2.03-.04-4.7-.08-7.35-.08-2.1,0-4,.03-5.8.08h-.33Zm-6.24-40.91c0-.19,0-.38,0-.58.02-2.3.04-4.48-.05-6.65-.02-.54,0-1.06.06-1.56-.02.03-.05.07-.07.1-2.06,2.83-4.05,5.7-6.1,8.68h1.12c1.69,0,3.37,0,5.04,0Z"/>
        <path class="cls-2" d="m641.7,11.26c.37,0,.71.1.89.52.32.73-.41,1.33-.83,1.9-6.83,9.23-13.74,18.4-20.5,27.68-3.87,5.32-7.51,10.8-11.55,16.63,3.62,0,7.11,0,10.52,0,2.93,0,5.81,0,8.69.01,0,0,0,0,.01,0,1.52,0,1.42-1.01,1.42-2.05-.01-3.46.1-6.93-.04-10.38-.07-1.7.52-2.19,2.06-2.19.04,0,.09,0,.13,0,1.94.03,3.89.05,5.83.05,2.25,0,4.5-.02,6.74-.07.04,0,.08,0,.12,0,1.61,0,2.08.69,2.03,2.28-.1,3.37.05,6.74-.06,10.11-.06,1.68.45,2.3,1.98,2.3.12,0,.25,0,.38-.01.91-.05,1.83-.07,2.74-.07,1.38,0,2.77.04,4.15.04.43,0,.87,0,1.3-.01.06,0,.12,0,.17,0,1.31,0,2.01.35,1.96,1.95-.11,3.55-.09,7.11-.02,10.66.03,1.5-.52,2.02-1.89,2.02-.06,0-.13,0-.2,0-.53-.02-1.07-.02-1.6-.02-1.32,0-2.65.04-3.97.04-.78,0-1.57-.01-2.35-.06-.16,0-.31-.01-.45-.01-1.66,0-2.29.62-2.2,2.58.17,3.91-.01,7.84.08,11.75.03,1.52-.49,2.02-1.92,2.02-.04,0-.08,0-.12,0-2.48-.05-4.96-.08-7.44-.08-1.99,0-3.97.02-5.95.08-.06,0-.13,0-.18,0-1.78,0-2.05-.83-2.01-2.42.09-3.73-.09-7.48.09-11.2.11-2.19-.67-2.74-2.7-2.74-.02,0-.05,0-.07,0-3.63.02-7.26.03-10.89.03-3.33,0-6.65,0-9.98,0-5.07,0-10.15.01-15.22.06-.03,0-.07,0-.1,0-2.29,0-2.62-.83-2.8-2.94-.53-6.19,1.16-11.2,5.12-16.23,10.42-13.21,20.21-26.91,30.21-40.45.81-1.1,1.57-1.59,2.98-1.59.05,0,.1,0,.16,0,1.25.03,2.5.04,3.75.04,3.48,0,6.97-.09,10.45-.09.33,0,.73-.1,1.09-.1m0-10c-.64,0-1.19.05-1.57.1-1.59,0-3.17.03-4.76.05-1.8.02-3.5.05-5.22.05-1.29,0-2.44-.01-3.51-.04-.14,0-.27,0-.4,0-3.12,0-7.57.98-11.02,5.65-2.49,3.37-4.97,6.76-7.45,10.14-7.3,9.96-14.85,20.27-22.57,30.05-5.61,7.1-7.97,14.72-7.24,23.28.96,11.22,10.01,12.09,12.76,12.09h.21c5.31-.06,10.62-.06,15.12-.06h4.98s5,0,5,0c1.08,0,2.29,0,3.59,0,0,1.27,0,2.48-.02,3.67-.09,3.77,1.01,6.86,3.28,9.19,1.55,1.59,4.32,3.49,8.73,3.49.16,0,.32,0,.48,0,1.75-.05,3.6-.08,5.66-.08,2.61,0,5.25.04,7.25.08.11,0,.21,0,.31,0,4.37,0,7.12-1.87,8.65-3.44,1.54-1.58,3.36-4.38,3.26-8.79-.03-1.32-.02-2.67-.01-4.07.06,0,.12,0,.18,0,.18,0,.36,0,.53,0,4.33,0,7.07-1.87,8.61-3.44,1.55-1.58,3.37-4.39,3.28-8.78-.08-3.82-.07-7.14.02-10.14.13-4.37-1.68-7.19-3.22-8.78-1.54-1.59-4.31-3.48-8.74-3.48-.12,0-.25,0-.38,0-.11,0-.21,0-.32,0,0-.71.01-1.4.03-2.08.13-4.56-1.71-7.44-3.28-9.05-1.56-1.6-4.34-3.51-8.75-3.51-.1,0-.21,0-.32,0-1.76.03-3.55.06-5.33.06,1.12-1.51,2.25-3.02,3.36-4.51,2.27-3.04,4.53-6.09,6.79-9.14,4.33-5.17,2.88-10.1,2.06-11.99-1.76-4.02-5.61-6.51-10.05-6.51h0Z"/>
      </g>
      <g>
        <path class="cls-5" d="m332.87,296.28c-17.22,0-34.11-4.98-50.2-14.79-24.31-14.84-33.41-41.99-23.21-69.19,5.55-14.79,14.15-25.44,26.3-32.57,2.93-1.72,6.03-3.04,9.33-3.97-3.62.11-7.22.17-10.79.17s-7.47-.06-11.14-.18c-3.11-.11-6.18-.38-9.15-.64-1.38-.12-2.76-.24-4.14-.35-.63-.06-1.31-.13-2.06-.3-7.03-1.48-9.73-5.09-10.75-7.85-1-2.72-1.3-7.15,3-12.73,7.77-10.1,18.22-17.68,31.05-22.51,15.29-5.75,31-8.67,46.72-8.67,11.86,0,23.98,1.67,36,4.95,4.68,1.29,9.34,3.23,13.87,5.78,11.86-5.63,24.14-12.05,33.65-21.99,1.17-1.21,2.07-2.39,2.68-3.51,1.5-2.77,3.55-4.18,6.08-4.18,2.07,0,3.67,1.02,4.7,1.79,5.51,4.1,11.07,8.04,16.5,11.73,3.92,2.65,4.72,6.61,2.12,10.59-3.18,4.85-7.53,9.06-13.7,13.25-7.25,4.94-15.46,8.95-26.4,12.87,8.5,11.39,13.65,24.47,15.66,39.79,1.83,14.02.43,28.81-4.29,45.22-8.78,30.47-30.66,49.22-65.03,55.71-5.57,1.05-11.21,1.59-16.79,1.59h0Zm-23.34-99.15c-.91,0-2.06,1.11-2.66,1.77-3.86,4.23-6.29,9.27-7.03,14.56-1.56,11.05-.35,21.44,3.59,30.91,4.34,10.42,11.87,16.85,22.38,19.11,4.66,1,8.85,1.49,12.81,1.49,8.98,0,16.54-2.6,23.12-7.95,6.61-5.38,11.02-12.7,13.48-22.39,5.46-21.55,3.34-42.15-6.28-61.23-.03-.06-.07-.12-.09-.17-1.31-2.34-2.77-4.97-3.46-5.56-.07,0-.18-.02-.37-.02-1.18,0-3.31.4-6,.9-13.47,2.52-26.39,4.38-38.93,5.6,2.87.23,6.01.69,9.21,1.59,15.23,4.26,25.55,14.43,30.69,30.23,1.68,5.2-2.04,7.59-3.22,8.19-8.3,4.3-15.57,8.1-22.2,11.61-1.19.63-2.3.93-3.39.93-.54,0-5.31-.17-5.68-5.97v-.2c-.96-7.5-2.81-12.85-6.01-17.32-2.01-2.82-4.93-4.67-9.45-6-.17-.05-.34-.08-.49-.08Zm14.72-50.61c-9.74,0-19.16,1.16-26.93,3.16,11.83-.16,23.39-1.32,34.29-2.93-2.38-.15-4.84-.23-7.36-.23Z"/>
        <path class="cls-2" d="m420.09,108.75c.45,0,.99.26,1.71.79,5.48,4.07,11.04,8.03,16.69,11.86,1.73,1.17,1.77,2.14.74,3.72-3.21,4.9-7.54,8.6-12.32,11.85-8.42,5.74-17.7,9.68-27.28,13-1.45.51-2.9,1.01-4.7,1.64,11.1,12.43,16.99,26.82,19.09,42.8,1.92,14.67-.06,29.01-4.14,43.18-8.91,30.91-31.25,46.53-61.15,52.18-5.34,1.01-10.63,1.5-15.86,1.5-16.73,0-32.79-5.03-47.6-14.06-22.59-13.79-30.44-38.36-21.13-63.16,4.74-12.64,12.31-23.07,24.15-30.01,5.61-3.29,11.7-4.75,18.23-4.96,2.46-.08,4.91-.16,7.35-.16,4.72,0,9.41.32,14.07,1.62,14.11,3.95,22.83,13.27,27.28,26.96.33,1.02.32,1.65-.75,2.2-7.44,3.85-14.86,7.72-22.26,11.64-.47.25-.8.35-1.05.35-.76,0-.63-1-.73-1.78-.89-7.04-2.68-13.73-6.89-19.62-3.03-4.25-7.34-6.49-12.11-7.89-.66-.19-1.29-.28-1.9-.28-2.51,0-4.62,1.49-6.36,3.4-4.47,4.9-7.39,10.8-8.29,17.24-1.61,11.43-.55,22.76,3.93,33.52,4.87,11.7,13.45,19.39,25.94,22.08,4.69,1.01,9.33,1.6,13.86,1.6,9.32,0,18.21-2.51,26.27-9.07,8-6.51,12.68-15.24,15.17-25.04,5.66-22.35,3.79-44.03-6.69-64.77-.04-.08-.09-.16-.13-.24-3.48-6.25-4.6-8.2-8.22-8.2-1.64,0-3.8.4-6.92.98-24.41,4.56-49,7.3-73.8,7.3-3.65,0-7.31-.06-10.97-.18-4.37-.15-8.72-.64-13.08-.97-.45-.04-.9-.09-1.35-.19-7.67-1.62-9.66-6.44-4.88-12.65,7.52-9.78,17.4-16.57,28.85-20.88,14.84-5.59,29.83-8.35,44.95-8.35,11.49,0,23.06,1.6,34.69,4.77,4.66,1.28,9.09,3.21,13.28,5.63.61.35,1.15.68,1.8.68.3,0,.61-.07.97-.23,13.21-6.23,26.13-12.92,36.4-23.66,1.32-1.37,2.54-2.9,3.45-4.56.57-1.04,1.04-1.58,1.69-1.58m-125.47,45.94c21.14,0,41.89-3.25,62.57-7.41-8.58-3.93-20.64-5.76-32.94-5.76-19.26,0-39.12,4.48-47.12,12.39,5.86.54,11.69.78,17.49.78m125.47-55.94c-2.54,0-7.27.89-10.48,6.82-.25.46-.8,1.29-1.86,2.39-8.36,8.74-19.2,14.69-29.93,19.87-4.16-2.15-8.4-3.82-12.67-4.99-12.47-3.4-25.02-5.13-37.33-5.13-16.32,0-32.63,3.03-48.48,8.99-13.72,5.16-24.91,13.29-33.25,24.14-5.99,7.78-4.9,14.3-3.72,17.5,1.19,3.22,4.64,8.94,14.42,11.02,1,.22,1.9.32,2.57.37h.06s.06.01.06.01c1.36.1,2.71.22,4.07.34,3.04.27,6.19.54,9.43.65.82.03,1.64.05,2.47.07-9.1,7.4-16.03,17.36-20.67,29.73-11.09,29.54-1.17,59.06,25.28,75.21,16.89,10.3,34.66,15.53,52.81,15.53,5.88,0,11.85-.56,17.72-1.68,36.37-6.87,59.55-26.8,68.9-59.24,4.92-17.08,6.37-32.53,4.45-47.25-1.79-13.62-6.12-25.91-12.91-36.7,8.46-3.37,15.3-6.94,21.52-11.18,6.72-4.57,11.51-9.22,15.05-14.63,4.1-6.28,2.68-13.3-3.5-17.48-5.36-3.63-10.85-7.54-16.33-11.6-.9-.67-3.7-2.77-7.67-2.77h0Zm-76.78,77.52c5.45-.83,10.98-1.76,16.61-2.82,1-.19,2.07-.39,2.99-.54.49.85,1.05,1.84,1.52,2.7.02.04.04.08.07.12,9.16,18.22,11.07,37.08,5.85,57.67-2.19,8.6-6.04,15.06-11.79,19.74-5.73,4.66-12.07,6.83-19.96,6.83-3.6,0-7.44-.45-11.75-1.38-8.94-1.92-15.09-7.21-18.81-16.15-3.59-8.63-4.69-18.14-3.26-28.28.58-4.18,2.49-8.18,5.51-11.6,3.07,1.15,4.34,2.48,5.1,3.54,2.68,3.74,4.25,8.35,5.09,14.92v.02c.46,7.32,5.86,10.66,10.67,10.66,1.92,0,3.79-.49,5.7-1.5,6.65-3.52,13.9-7.31,22.2-11.61,5.33-2.74,7.56-8.3,5.67-14.16-4.13-12.71-11.31-22.13-21.42-28.16h0Z"/>
      </g>
      <g>
        <path class="cls-5" d="m514.93,296.23c-24.73,0-45.11-12.5-57.38-35.19-7.31-13.52-11.91-28.68-14.48-47.69-3.86-28.46-3.33-59.54,1.61-95.03.28-1.99,1.59-6.6,7.74-6.6h.1c4.96.04,9.92.07,14.88.07s8.94-.03,12.89-.09h.25c.95,0,3.86,0,5.85,2.3,2,2.32,1.58,5.17,1.4,6.39-3.24,22.38-4.68,42.52-4.41,61.54.21,14.92,1.31,34.44,8.07,53.19,3.5,9.73,7.78,16.85,13.5,22.41,4.78,4.65,10.59,7.32,15.94,7.32,6.95,0,12.96-4.43,17.37-12.8,3.94-7.48,6.25-15.97,7.49-27.51.82-7.54.95-15.02,1.08-22.25.03-1.8.07-3.56.11-5.27l.07-2.02c.36-9.82.66-18.3-.12-26.77-.26-2.7-.7-4.84-1.39-6.72-.49-1.31-.98-2.14-1.56-2.61-2.12-1.73-3.27-1.82-3.48-1.82-.52,0-1.24,1.12-1.72,2.22-2.45,5.63-3.13,12.02-3.78,18.2-.71,6.69-.67,13.63-.58,19.6,0,.88.04,3.5-1.89,5.45-.83.84-2.31,1.84-4.65,1.84-.49,0-.99-.04-1.55-.13-5.33-.84-10.65-1.64-15.98-2.43-2.4-.36-4.81-.72-7.21-1.08-5.58-.84-6-5.18-6-6.49,0-13.12,1.03-28.41,8.56-42.38,6.94-12.88,18.36-20.86,33.95-23.72,2.6-.47,5.12-.71,7.5-.71,11.96,0,21.22,5.79,28.31,17.71,5.14,8.64,8.52,18.86,10.64,32.18,4.41,27.45,1.15,53.84-9.67,78.44-9.37,21.28-25.19,34.72-45.75,38.86-5.31,1.07-10.59,1.61-15.7,1.61Z"/>
        <path class="cls-2" d="m480.56,116.7c2.3,0,2.62.78,2.3,2.97-2.99,20.67-4.76,41.44-4.46,62.34.26,18.64,1.98,37.1,8.36,54.81,3.26,9.07,7.69,17.46,14.71,24.3,5.5,5.35,12.46,8.73,19.43,8.73,7.99,0,15.98-4.45,21.79-15.47,4.83-9.18,6.94-19.1,8.04-29.3,1.05-9.7,1.01-19.46,1.22-27.94.38-10.63.8-20.01-.07-29.38-.26-2.73-.73-5.41-1.68-7.99-.67-1.81-1.57-3.52-3.09-4.76-2.27-1.85-4.55-2.95-6.64-2.95-2.49,0-4.7,1.55-6.3,5.23-2.73,6.27-3.46,12.97-4.17,19.67-.71,6.72-.71,13.46-.61,20.2.02,1.54-.33,2.22-1.55,2.22-.23,0-.48-.02-.77-.07-7.74-1.22-15.48-2.35-23.22-3.52-.92-.14-1.75-.22-1.75-1.55.01-13.87,1.23-27.51,7.96-40.01,6.55-12.16,17.03-18.71,30.45-21.17,2.33-.43,4.52-.63,6.6-.63,10.75,0,18.25,5.57,24.01,15.26,5.57,9.37,8.3,19.75,10,30.41,4.19,26.1,1.33,51.46-9.31,75.64-8.17,18.56-21.8,31.87-42.16,35.97-4.97,1-9.9,1.51-14.72,1.51-21.52,0-40.9-10.22-52.98-32.56-7.77-14.38-11.75-29.93-13.92-45.98-4.24-31.29-2.73-62.51,1.61-93.67.27-1.9,1.09-2.29,2.78-2.29.02,0,.04,0,.07,0,4.97.04,9.94.07,14.91.07,4.32,0,8.65-.02,12.98-.09.06,0,.12,0,.18,0m0-10c-.11,0-.23,0-.34,0-3.92.06-8.12.09-12.81.09-5,0-10.09-.03-14.84-.07h-.14c-6.88,0-11.74,4.18-12.69,10.9-5.01,35.95-5.54,67.48-1.62,96.41,2.62,19.36,7.53,35.52,15.03,49.39,13.19,24.38,35.13,37.81,61.78,37.81,5.44,0,11.06-.58,16.69-1.71,22.23-4.48,39.29-18.91,49.34-41.74,11.22-25.5,14.59-52.83,10.03-81.25-1.4-8.77-4.09-21.85-11.28-33.93-7.96-13.37-18.93-20.15-32.61-20.15-2.68,0-5.51.27-8.4.8-17.16,3.15-29.76,11.98-37.46,26.26-8.05,14.95-9.15,31.01-9.16,44.75,0,4.57,2.66,10.3,10.17,11.43h.07c2.4.37,4.78.73,7.17,1.09,5.25.79,10.68,1.6,16,2.44.82.13,1.58.19,2.33.19,3.17,0,6.09-1.18,8.21-3.33,2.26-2.28,3.38-5.31,3.34-9-.09-5.87-.12-12.63.56-19.04.43-4.04.84-7.93,1.7-11.52.11.68.21,1.42.28,2.22.75,8.12.45,16.46.1,26.11l-.07,1.97v.05s0,.05,0,.05c-.04,1.72-.08,3.49-.11,5.3-.13,7.13-.27,14.5-1.06,21.81-1.17,10.89-3.32,18.82-6.95,25.72-3.54,6.72-7.89,10.13-12.94,10.13-4.06,0-8.6-2.15-12.46-5.9-5.14-5.01-9.04-11.53-12.27-20.51-6.5-18.05-7.57-37.04-7.77-51.57-.27-18.76,1.16-38.64,4.36-60.77.23-1.55.93-6.32-2.57-10.37-2.31-2.68-5.55-4.03-9.63-4.03h0Z"/>
      </g>
    </g>
  </g>
  <g id="Layer_5" data-name="Layer 5">
    <g>
      <g>
        <path class="cls-3" d="m106.66,82.66h-6.7l-.5-4.18c-2.95,2.66-6.41,4.68-10.58,4.68-5.9,0-10.58-3.31-10.58-11.09v-25.42h7.2v25.06c0,2.88,1.3,4.61,3.82,4.61,3.46,0,6.77-1.87,10.15-4.75v-24.91h7.2v36Z"/>
        <path class="cls-3" d="m111.56,28.66h-14.33c-3.6,0-4.75-1.66-4.75-4.68v-1.15h-3.17l1.15-5.83h3.53c3.17,0,4.61,1.22,4.61,4.39v1.44h13.83l-.86,5.83Z"/>
        <path class="cls-3" d="m100.9,30.53c3.46,0,6.12,2.66,6.12,6.12s-2.66,5.98-6.12,5.98-5.98-2.66-5.98-5.98,2.66-6.12,5.98-6.12Zm0,7.85c1.01,0,1.8-.79,1.8-1.73,0-1.01-.79-1.8-1.8-1.8-.86,0-1.73.79-1.73,1.8,0,.94.86,1.73,1.73,1.73Zm22.68,44.28v-24.05c0-4.32-3.17-5.62-6.7-5.62-2.09,0-4.18.43-5.9,1.01v-6.7c2.09-.72,4.46-1.15,6.84-1.15,6.55,0,12.96,3.17,12.96,12.03v24.48h-7.2Z"/>
        <path class="cls-3" d="m143.17,71.5c0,3.6,2.95,4.82,6.05,4.82,2.02,0,4.1-.43,5.54-1.15v6.7c-1.87.86-4.1,1.3-6.34,1.3-6.91,0-12.46-3.53-12.46-11.3v-12.46c0-9,7.63-13.25,15.27-13.25s15.27,4.25,15.27,13.25v23.26h-7.2v-23.04c0-4.54-4.03-6.62-8.06-6.62s-8.06,2.09-8.06,6.62v11.88Z"/>
        <path class="cls-3" d="m141.58,35.86h8.71l.5-4.32h6.34v4.32h2.52l.5-4.32h6.34v10.8h-26.43l1.51-6.48Z"/>
        <path class="cls-3" d="m160.01,28.66l.43-9.72h6.05v9.72h-6.48Z"/>
        <path class="cls-3" d="m172.25,46.66h7.2v24.12c2.45,2.66,5.98,5.54,9.36,5.54s4.61-2.02,4.61-5.26v-24.41h7.2v24.55c0,7.71-4.18,11.95-10.01,11.95-5.04,0-7.63-1.87-11.16-4.97l-.5,4.46h-6.7v-36Z"/>
        <path class="cls-3" d="m236.48,82.66h-7.2v-28.44c0-.86-.58-1.22-1.22-1.22s-1.08.29-1.3.72l-2.38,4.82h-5.98l-2.23-4.61c-.29-.58-.72-.94-1.3-.94-1.15,0-2.02.72-2.02,2.88v15.62c0,3.6,2.95,4.82,6.05,4.82,2.02,0,4.1-.43,5.54-1.15v6.7c-1.87.86-4.1,1.3-6.34,1.3-6.91,0-12.46-3.53-12.46-11.3v-15.91c0-7.2,3.96-9.79,8.71-9.79,3.53,0,5.54,1.37,6.98,4.68,1.66-3.31,4.32-4.68,7.7-4.68,4.18,0,7.42,2.45,7.42,7.63v28.87Z"/>
        <path class="cls-3" d="m242.09,74.52c2.16.65,6.7,1.8,11.09,1.8,3.38,0,6.26-.94,6.26-4.25,0-5.9-18.29-4.82-18.29-16.2,0-7.42,5.83-9.72,13.03-9.72,4.1,0,8.35.86,11.52,1.87l-1.01,6.48c-2.23-.58-6.55-1.51-10.44-1.51-3.17,0-5.9.65-5.9,2.88,0,5.76,18.29,4.1,18.29,16.2,0,8.21-5.83,11.09-13.39,11.09-4.18,0-8.57-.79-12.1-1.58l.94-7.06Z"/>
        <path class="cls-3" d="m283.49,82.66v-24.05c0-4.32-3.17-5.62-6.7-5.62-2.09,0-4.18.43-5.9,1.01v-6.7c2.09-.72,4.46-1.15,6.84-1.15,6.55,0,12.96,3.17,12.96,12.03v24.48h-7.2Z"/>
      </g>
      <g>
        <path class="cls-9" d="m106.66,82.66h-6.7l-.5-4.18c-2.95,2.66-6.41,4.68-10.58,4.68-5.9,0-10.58-3.31-10.58-11.09v-25.42h7.2v25.06c0,2.88,1.3,4.61,3.82,4.61,3.46,0,6.77-1.87,10.15-4.75v-24.91h7.2v36Z"/>
        <path class="cls-9" d="m111.56,28.66h-14.33c-3.6,0-4.75-1.66-4.75-4.68v-1.15h-3.17l1.15-5.83h3.53c3.17,0,4.61,1.22,4.61,4.39v1.44h13.83l-.86,5.83Z"/>
        <path class="cls-9" d="m100.9,30.53c3.46,0,6.12,2.66,6.12,6.12s-2.66,5.98-6.12,5.98-5.98-2.66-5.98-5.98,2.66-6.12,5.98-6.12Zm0,7.85c1.01,0,1.8-.79,1.8-1.73,0-1.01-.79-1.8-1.8-1.8-.86,0-1.73.79-1.73,1.8,0,.94.86,1.73,1.73,1.73Zm22.68,44.28v-24.05c0-4.32-3.17-5.62-6.7-5.62-2.09,0-4.18.43-5.9,1.01v-6.7c2.09-.72,4.46-1.15,6.84-1.15,6.55,0,12.96,3.17,12.96,12.03v24.48h-7.2Z"/>
        <path class="cls-9" d="m143.17,71.5c0,3.6,2.95,4.82,6.05,4.82,2.02,0,4.1-.43,5.54-1.15v6.7c-1.87.86-4.1,1.3-6.34,1.3-6.91,0-12.46-3.53-12.46-11.3v-12.46c0-9,7.63-13.25,15.27-13.25s15.27,4.25,15.27,13.25v23.26h-7.2v-23.04c0-4.54-4.03-6.62-8.06-6.62s-8.06,2.09-8.06,6.62v11.88Z"/>
        <path class="cls-9" d="m141.58,35.86h8.71l.5-4.32h6.34v4.32h2.52l.5-4.32h6.34v10.8h-26.43l1.51-6.48Z"/>
        <path class="cls-9" d="m160.01,28.66l.43-9.72h6.05v9.72h-6.48Z"/>
        <path class="cls-9" d="m172.25,46.66h7.2v24.12c2.45,2.66,5.98,5.54,9.36,5.54s4.61-2.02,4.61-5.26v-24.41h7.2v24.55c0,7.71-4.18,11.95-10.01,11.95-5.04,0-7.63-1.87-11.16-4.97l-.5,4.46h-6.7v-36Z"/>
        <path class="cls-9" d="m236.48,82.66h-7.2v-28.44c0-.86-.58-1.22-1.22-1.22s-1.08.29-1.3.72l-2.38,4.82h-5.98l-2.23-4.61c-.29-.58-.72-.94-1.3-.94-1.15,0-2.02.72-2.02,2.88v15.62c0,3.6,2.95,4.82,6.05,4.82,2.02,0,4.1-.43,5.54-1.15v6.7c-1.87.86-4.1,1.3-6.34,1.3-6.91,0-12.46-3.53-12.46-11.3v-15.91c0-7.2,3.96-9.79,8.71-9.79,3.53,0,5.54,1.37,6.98,4.68,1.66-3.31,4.32-4.68,7.7-4.68,4.18,0,7.42,2.45,7.42,7.63v28.87Z"/>
        <path class="cls-9" d="m242.09,74.52c2.16.65,6.7,1.8,11.09,1.8,3.38,0,6.26-.94,6.26-4.25,0-5.9-18.29-4.82-18.29-16.2,0-7.42,5.83-9.72,13.03-9.72,4.1,0,8.35.86,11.52,1.87l-1.01,6.48c-2.23-.58-6.55-1.51-10.44-1.51-3.17,0-5.9.65-5.9,2.88,0,5.76,18.29,4.1,18.29,16.2,0,8.21-5.83,11.09-13.39,11.09-4.18,0-8.57-.79-12.1-1.58l.94-7.06Z"/>
        <path class="cls-9" d="m283.49,82.66v-24.05c0-4.32-3.17-5.62-6.7-5.62-2.09,0-4.18.43-5.9,1.01v-6.7c2.09-.72,4.46-1.15,6.84-1.15,6.55,0,12.96,3.17,12.96,12.03v24.48h-7.2Z"/>
      </g>
      <g>
        <path class="cls-8" d="m106.66,82.66h-6.7l-.5-4.18c-2.95,2.66-6.41,4.68-10.58,4.68-5.9,0-10.58-3.31-10.58-11.09v-25.42h7.2v25.06c0,2.88,1.3,4.61,3.82,4.61,3.46,0,6.77-1.87,10.15-4.75v-24.91h7.2v36Z"/>
        <path class="cls-8" d="m111.56,28.66h-14.33c-3.6,0-4.75-1.66-4.75-4.68v-1.15h-3.17l1.15-5.83h3.53c3.17,0,4.61,1.22,4.61,4.39v1.44h13.83l-.86,5.83Z"/>
        <path class="cls-8" d="m100.9,30.53c3.46,0,6.12,2.66,6.12,6.12s-2.66,5.98-6.12,5.98-5.98-2.66-5.98-5.98,2.66-6.12,5.98-6.12Zm0,7.85c1.01,0,1.8-.79,1.8-1.73,0-1.01-.79-1.8-1.8-1.8-.86,0-1.73.79-1.73,1.8,0,.94.86,1.73,1.73,1.73Zm22.68,44.28v-24.05c0-4.32-3.17-5.62-6.7-5.62-2.09,0-4.18.43-5.9,1.01v-6.7c2.09-.72,4.46-1.15,6.84-1.15,6.55,0,12.96,3.17,12.96,12.03v24.48h-7.2Z"/>
        <path class="cls-8" d="m143.17,71.5c0,3.6,2.95,4.82,6.05,4.82,2.02,0,4.1-.43,5.54-1.15v6.7c-1.87.86-4.1,1.3-6.34,1.3-6.91,0-12.46-3.53-12.46-11.3v-12.46c0-9,7.63-13.25,15.27-13.25s15.27,4.25,15.27,13.25v23.26h-7.2v-23.04c0-4.54-4.03-6.62-8.06-6.62s-8.06,2.09-8.06,6.62v11.88Z"/>
        <path class="cls-8" d="m141.58,35.86h8.71l.5-4.32h6.34v4.32h2.52l.5-4.32h6.34v10.8h-26.43l1.51-6.48Z"/>
        <path class="cls-8" d="m160.01,28.66l.43-9.72h6.05v9.72h-6.48Z"/>
        <path class="cls-8" d="m172.25,46.66h7.2v24.12c2.45,2.66,5.98,5.54,9.36,5.54s4.61-2.02,4.61-5.26v-24.41h7.2v24.55c0,7.71-4.18,11.95-10.01,11.95-5.04,0-7.63-1.87-11.16-4.97l-.5,4.46h-6.7v-36Z"/>
        <path class="cls-8" d="m236.48,82.66h-7.2v-28.44c0-.86-.58-1.22-1.22-1.22s-1.08.29-1.3.72l-2.38,4.82h-5.98l-2.23-4.61c-.29-.58-.72-.94-1.3-.94-1.15,0-2.02.72-2.02,2.88v15.62c0,3.6,2.95,4.82,6.05,4.82,2.02,0,4.1-.43,5.54-1.15v6.7c-1.87.86-4.1,1.3-6.34,1.3-6.91,0-12.46-3.53-12.46-11.3v-15.91c0-7.2,3.96-9.79,8.71-9.79,3.53,0,5.54,1.37,6.98,4.68,1.66-3.31,4.32-4.68,7.7-4.68,4.18,0,7.42,2.45,7.42,7.63v28.87Z"/>
        <path class="cls-8" d="m242.09,74.52c2.16.65,6.7,1.8,11.09,1.8,3.38,0,6.26-.94,6.26-4.25,0-5.9-18.29-4.82-18.29-16.2,0-7.42,5.83-9.72,13.03-9.72,4.1,0,8.35.86,11.52,1.87l-1.01,6.48c-2.23-.58-6.55-1.51-10.44-1.51-3.17,0-5.9.65-5.9,2.88,0,5.76,18.29,4.1,18.29,16.2,0,8.21-5.83,11.09-13.39,11.09-4.18,0-8.57-.79-12.1-1.58l.94-7.06Z"/>
        <path class="cls-8" d="m283.49,82.66v-24.05c0-4.32-3.17-5.62-6.7-5.62-2.09,0-4.18.43-5.9,1.01v-6.7c2.09-.72,4.46-1.15,6.84-1.15,6.55,0,12.96,3.17,12.96,12.03v24.48h-7.2Z"/>
      </g>
    </g>
    <g>
      <g>
        <text class="cls-4" transform="translate(189.63 432.57)" style="white-space: pre;"><tspan x="0" y="0">ดื่มดี</tspan></text>
        <text class="cls-4" transform="translate(373.53 432.57)" style="white-space: pre;"><tspan x="0" y="0">สดชื่น</tspan></text>
      </g>
      <g>
        <text class="cls-10" transform="translate(189.63 432.57)" style="white-space: pre;"><tspan x="0" y="0">ดื่มดี</tspan></text>
        <text class="cls-10" transform="translate(373.53 432.57)" style="white-space: pre;"><tspan x="0" y="0">สดชื่น</tspan></text>
      </g>
      <g>
        <text class="cls-11" transform="translate(189.63 432.57)" style="white-space: pre;"><tspan x="0" y="0">ดื่มดี</tspan></text>
        <text class="cls-11" transform="translate(373.53 432.57)" style="white-space: pre;"><tspan x="0" y="0">สดชื่น</tspan></text>
      </g>
    </g>
  </g>
  <g id="Layer_4" data-name="Layer 4">
    <g>
      <g>
        <path class="cls-6" d="m47.78,505.65c-.2.19-.41.39-.61.58,0,0-.2.21-.2.21-.18.18-.36.35-.53.53,0,0-.21.19-.21.19l-.38.38c-1.02,1-1.78,2.21-2.28,3.55-3.74,9.98-8.92,19.25-13.86,28.89-.52,1.01-2.05.7-2.11-.42-.03-.6,0-1.18-.02-1.75-.21-6.46-.69-12.91-1.61-19.31-.73-5.06-1.32-10.18-4.05-14.69-2.43-4.02-6.12-5.59-10.22-4.41-5.3,1.53-11.22,8.85-11.64,14.4-.04.48-.08.98-.03,1.46.14,1.39.9,2.17,2.32,2.39,1.62.25,1.72-.92,2.02-1.97.73-2.52,1.96-4.74,4.08-6.35,2.15-1.63,4.02-1.5,5.44,1.03,1.32,2.37,2.21,4.9,2.6,7.56,2.28,15.52,2.02,31.12,1.17,46.72-.02.36-.09.72-.14,1.1-.14,1.06,1.12,1.69,1.89.95,3.12-3.03,6.81-5.36,8.49-9.28,3.46-8.08,7.43-15.89,11.31-23.76,1.28-2.61,2.61-5.19,4.15-8.18.49-.96,1.91-.74,2.1.32,2.37,13.69,5.19,26.55,6.89,40.13.12.92,1.23,1.31,1.89.65,2.99-2.94,6.17-5.19,7.5-8.61,4.62-11.84,10.87-22.89,16.02-34.46,2.08-4.67,4.19-9.35,5-14.47.64-4.04-1.31-7.01-4.16-9.5-.77-.67-1.94-1.39-3.07.32-1.46,2.21-3.23,4.21-5.4,5.73-2.79,1.95-1.09,2.85-.12,3.72,2.46,2.22,2.91,5.37,2.23,8.02-2.42,9.45-6.87,18.07-11.61,27.46-.48.96-1.91.75-2.1-.31-1.78-10.23-4.03-19.53-4.77-29.09-.07-.56-.1-.75-.23-1.52-.21-2.01-.41-3.93-.29-5.91,0-.24.02-.48.03-.72l.09-2.09.43-2.39v-.37c.03-.8-.77-1.36-1.51-1.07,0,0-.02,0-.03.01-.62.53-1.01,1.16-1.63,1.69l-2.79,2.64Z"/>
        <path class="cls-6" d="m114.7,518.91c2.38.07,4.73-.26,7.15.2,4.66,1.32,4.37,1.27,3.59,5.97-1.64,9.96-2.96,19.97-4.37,29.96-.11.76-.61,1.83.44,2.25.94.37,1.53-.57,2.09-1.15,1.44-1.51,2.46-3.3,3.47-5.12.43-.78.41-2.62,2.04-1.85,1.34.63,2.3,1.8,1.8,3.57-.44,1.56-1.31,2.87-2.25,4.14-2.32,3.15-4.73,6.25-8.31,8.07-5.52,2.81-9.08.44-8.72-5.81.13-2.29.5-4.56.84-7.59-2.78,2.96-5.05,5.42-7.37,7.83-2.39,2.48-5.08,4.53-8.34,5.77-6.29,2.39-10.72-.08-11.54-6.74-1.51-12.2,2.74-22.4,11.1-31.2,3.67-3.86,8.08-6.2,13.12-7.59.56-.16,2.41-.45,3.53-.62.58-.09,1.16-.12,1.74-.1Zm-19.95,30.81c0,1.1-.07,2.2.01,3.29.29,3.85,1.86,4.79,5.26,3.14.98-.47,1.92-1.1,2.73-1.81,7.59-6.64,11.91-14.96,12.96-25,.14-1.33-.27-1.94-1.47-2.49-5.03-2.28-10.08-1.12-13.37,3.31-4.3,5.8-5.86,12.49-6.13,19.56Z"/>
        <path class="cls-6" d="m170.71,520.01c-3.81,6.28-8.73,8.69-15.73,7.87-5.41-.63-5.44-.12-5.96,5.22-.65,6.67-1.41,13.33-2.01,20-.17,1.88-.57,4.22,1.61,5.19,2.25.99,3.89-.73,5.43-2.13.54-.49.9-1.2,1.48-1.61.84-.59.96-2.78,2.64-1.54,1.3.97,1.54,2.55.68,3.96-2.85,4.67-6.83,8.04-12.32,8.89-5.11.79-8.22-2.33-8.49-8.06-.32-6.86,1.22-13.58,1.73-20.38.14-1.82.16-3.7.65-5.44,1.07-3.79-.52-4.68-3.96-4.27-1.89.23-3.84.04-5.95-.34,3.2-2.66,4.5-7.64,9.87-7.39,1.37.06,1.68-1.02,1.59-1.97-.63-6.77,4.55-7.15,9.09-8.47.58,2.74-.13,5.25-.49,7.74-.31,2.12.38,2.8,2.5,2.76,5.72-.1,11.44-.04,17.63-.04Z"/>
        <path class="cls-6" d="m195.63,547.01c2.76,1.89,3.22,4.14,1.46,6.64-3.63,5.17-8.01,9.55-14.17,11.62-7.76,2.61-15.01-1.88-16.28-9.95-1.98-12.55,7.23-29.76,18.81-34.98,1.42-.64,3-1.1,4.55-1.29,5.41-.66,8.36,2.13,8.16,7.58-.17,4.5-2.36,8.12-5.16,11.43-3.96,4.67-8.86,8.1-14.67,9.91-2.91.91-2.91,2.18-2.04,4.49,1.79,4.76,5.42,6.42,10.2,4.59,4.68-1.8,7.04-5.74,9.16-10.04Zm-5.47-15.12c-.04-1.54.09-3.33-1.88-4.19-2.27-.99-4.38-.44-6.14,1.05-3.4,2.87-5.12,6.73-6.02,11-.23,1.07-.18,1.82,1.24,2.04,5.11.81,12.57-4.8,12.81-9.89Z"/>
        <path class="cls-6" d="m220.12,532.24c2.79-4,5.45-7.62,9.22-10.22,3.79-2.61,7.8-3.9,12.41-2.4,2.17.7,3.41,1.43,1.12,3.53-1.25,1.15-2.41,2.43-3.44,3.78-1.46,1.91-2.86,2.81-5.53,1.93-2.61-.85-4.98.75-6.81,2.67-5.66,5.93-8.84,13.04-9.83,21.15-.13,1.09-.15,2.19-.27,3.28q-.94,8.24-9.93,10.28c.78-7.47,1.56-14.81,2.31-22.16.48-4.72.92-9.45,1.33-14.18.06-.68.25-1.58-.48-1.99-.99-.55-1.51.42-2.12.95-1.58,1.4-2.61,3.22-3.58,5.03-1.01,1.88-1.83,1.49-2.83.04-.97-1.4-.8-2.79-.05-4.13,2.64-4.72,6.46-8.27,11.43-10.35,3.69-1.54,6.67.38,7,4.34.22,2.64.04,5.32.04,8.46Z"/>
        <path class="cls-6" d="m321.3,566.76c.04-8.95.87-17.18,1.73-25.4.13-1.21.2-2.44.43-3.63.4-2.03-.51-2.52-2.38-2.5-5.98.08-11.97.09-17.95,0-1.9-.03-2.53.68-2.68,2.5-.21,2.67-.73,5.31-1.06,7.97-.55,4.51-1.97,8.55-6.2,11.54,2.52,1.26,5.14.64,7.71,1.5-3.74,4.46-7.04,8.37-13.73,7.03-4.96-1-10.19-.7-15.3-.99,1.62-4.38,6.16-7.71,10.67-7.6,1.76.04,2.71-.86,3.59-2.07,1.98-2.73,3.04-5.87,3.43-9.15,1.37-11.37,2.52-22.77,3.94-34.14.32-2.6-.47-3.37-2.87-2.98-2.04.33-4.13.5-6.12,1.04-7.75,2.11-10.87,8.08-7.69,15.47,1.11,2.58.71,3.94-1.28,5.52-1.71,1.36-3.3,2.91-4.79,4.52-1.83,1.98-2.42.99-2.98-.95-3.06-10.67,1.62-22.18,11.36-28.09,7.51-4.55,15.75-5.53,24.3-5.41,2.18.03,2,1.1,1.64,2.56-1.77,7.12-2.4,14.41-3.23,21.67-.23,2.04.24,2.59,2.2,2.57,5.98-.07,11.97-.09,17.95.02,2.04.04,2.71-.69,2.94-2.67.91-7.74,1.91-15.49,4.41-22.93,3.67-10.94,9.94-19.51,21.46-23.18,4.69-1.49,9.38-1.23,14.03.34,1.76.59,2.28,1.25.61,2.63-1.12.93-2.22,1.94-3.13,3.08-2.17,2.71-4.12,3.84-7.87,1.84-5.46-2.91-11.06-.22-13.65,5.83-2.92,6.8-3.72,14.14-4.62,21.36-1.48,11.85-3.04,23.7-3.4,35.66-.16,5.4.9,6.17,5.9,4.21,1.16-.45,2.53-1.77,3.46.02.9,1.71-.15,3.12-1.64,3.95-2.02,1.12-4.15,2.05-6.26,3.01-4.08,1.87-8.18,3.7-12.97,5.86Z"/>
        <path class="cls-6" d="m466.38,519.45c.46.02,1.31.05,2.16.1,5.99.36,6.08.63,5.21,6.37-2.08,13.74-2.81,27.62-3.75,41.46-1.02,15.06-7.45,26.5-21.4,33.18-2.67,1.28-5.48,2.09-8.38,2.45-12.84,1.6-21.04-9.1-16.73-21.81,2.14-6.3,6.47-11.09,11.08-15.66.78-.77,2.29-1.23,1.46-2.89-3.45-6.91-1.94-13.84.33-20.59,4.65-13.82,16.44-22.67,30.02-22.61Zm-5.1,32.14c-.4.46-.8.91-1.19,1.38-5.15,6.06-10.21,12.24-19.02,12.96-.53.04-1.1.52-1.5.94-3.23,3.35-6.16,6.93-7.8,11.35-2.51,6.74-.34,13,5.45,16.01,7.98,4.15,17.62-.11,20.65-9.45,3.48-10.73,3.38-21.95,3.43-33.18Zm-17.28-.61c.43,1.7-.92,4.67,1.73,5.79,2.55,1.08,4.66-1,6.43-2.61,7.01-6.4,11.42-14.13,12.1-23.81.15-2.22-.7-3.03-2.58-3.61-4.77-1.47-8.74-.21-11.86,4.11-4.24,5.86-5.62,12.6-5.81,20.13Z"/>
        <path class="cls-6" d="m399.58,533.54c3.67-3.72,6.46-6.9,9.8-9.5,2.72-2.12,5.56-3.96,8.96-4.78,4.8-1.15,7.69.93,7.8,5.85.17,7.36-1.77,14.49-2.59,21.75-.33,2.91-.71,5.81-1.02,8.71-.07.69-.31,1.57.44,2.01.98.58,1.58-.32,2.17-.86,1.62-1.51,2.72-3.42,3.88-5.29.44-.72.58-2.21,1.95-1.57.97.45,1.67,1.35,1.79,2.59.49,5.11-11.44,14.99-16.18,13.31-2.62-.93-3.11-3.22-3.11-5.66.01-7.72,1.77-15.24,2.59-22.86.25-2.3.37-4.61.57-6.92.24-2.77-1.32-3.08-3.45-2.48-2.42.69-4.32,2.25-6.05,3.98-6.54,6.53-9.97,14.6-9.96,23.66.01,7-3.64,9.6-10.04,10.74.6-5.67,1.19-11.29,1.79-16.91.67-6.3,1.36-12.6,1.97-18.91.09-.88.56-2.15-.59-2.6-1.07-.41-1.74.69-2.32,1.4-1.06,1.33-1.94,2.8-2.97,4.16-.54.72-.59,2.36-1.74,1.97-1.22-.41-2.03-1.68-2.03-3.18,0-1.15.48-2.14,1.1-3.05,2.42-3.58,5.41-6.63,9.11-8.87,4.85-2.95,8.87-.71,8.87,4.95,0,2.42-.41,4.84-.74,8.37Z"/>
        <path class="cls-6" d="m375.69,546.94c2.73,1.89,3.28,4.14,1.55,6.66-3.3,4.79-7.33,8.91-12.76,11.2-9.99,4.21-18.77-2.71-18.03-14.17.78-12.12,6.72-21.47,16.22-28.64,4.79-3.62,10.8-4.02,13.59-1.45,2.86,2.64,2.82,8.41-.34,13.63-4.08,6.73-10.02,11.28-17.43,13.79-2.4.81-3.08,1.67-2.21,4.15,1.81,5.17,6,7.05,10.98,4.69,4.23-2,6.6-5.63,8.43-9.86Zm-5.37-16.41c-.02-.64-.25-2.07-1.86-2.77-1.95-.85-3.87-.69-5.56.54-3.98,2.91-5.72,7.14-6.75,11.76-.24,1.06.11,1.51,1.22,1.7,5.5.96,13.09-5.07,12.95-11.24Z"/>
        <path class="cls-6" d="m555.25,529.08c3.21,1.89,5.88,3.79,7.9,6.44,5.97,7.79,3.68,18.48-5.29,24.32-5,3.26-10.62,4.77-16.51,5.5-11.11,1.37-22.05.02-33.69-1.57,2.67-2.86,4.9-5.23,7.09-7.63.95-1.04,1.95-.6,3.03-.34,5.25,1.26,7.6-.05,9.2-5.28,1.58-5.16,2.05-10.51,2.63-15.84.92-8.48,1.75-16.97,2.87-25.43.4-3.03-.99-3.02-3.05-2.51-3.33.82-6.53,1.97-9.41,3.92-5.78,3.91-7.66,9.88-4.77,16.25.81,1.78.71,2.76-.78,3.97-2.44,1.97-4.72,4.14-7.14,6.28-4.56-9.56-1.17-21.7,7.92-29.33,5-4.19,10.83-6.59,17.15-7.75,7.12-1.32,14.32-1.55,21.48-.21,5.61,1.05,10.7,3.1,12.39,9.31,1.69,6.22-.73,11.23-5.24,15.38-1.69,1.56-3.63,2.85-5.79,4.53Zm-24.6,28.67c6.43.87,12.56,2.03,18.76.69,5.17-1.12,7.77-4.27,7.82-9.52.06-6.28-5.01-12.98-11.16-14.76-5.48-1.58-6.59-.76-7.14,4.89-.68,7.05-1,14.31-8.28,18.7Zm13.89-29.79c5.91,1.03,12.4-6.6,12.62-11.81.24-5.72-2.84-8.7-10.65-9.9-.36-.06-.72-.12-1.08-.21-1.98-.49-2.82.17-3.01,2.31-.45,5.08-1.12,10.15-1.76,15.21-.57,4.46-.61,4.45,3.89,4.4Z"/>
        <path class="cls-6" d="m701.65,551.47c-4.48,5.28-8.58,9.24-13.52,12.25-2.44,1.49-5.01,2.65-7.94,2.16-3.44-.58-5.26-2.92-5.84-6.2-2.44-13.83,3.14-24.71,12.75-34.02,4.17-4.04,9.28-6.32,15.09-6.61,2.24-.11,2.8-.85,3.06-2.94,1.4-11.37,5.56-21.45,14.57-29,5.81-4.87,12.52-6.86,20.11-5.63,2.26.37,2.48,1.11.82,2.62-.99.9-1.97,1.84-2.84,2.85-2.07,2.41-4.13,3.68-7.79,3-5.83-1.08-10.04,1.91-12.35,7.47-2.57,6.19-2.75,12.83-3.52,19.34-1.49,12.58-2.77,25.19-4.12,37.79-.1.91-.74,2.19.35,2.65,1.18.51,1.91-.72,2.51-1.57,1.05-1.49,1.97-3.08,2.98-4.59.53-.79.41-2.57,2.03-1.88,1.23.53,2.19,1.63,1.95,3.21-.11.71-.31,1.45-.66,2.07-2.3,4.1-5.27,7.61-9.24,10.18-2.03,1.32-4.29,2.04-6.56.83-2.37-1.27-2.61-3.67-2.49-6.05.11-2.29.37-4.57.65-7.93Zm-18.13-1.13c0,.85-.07,1.71.01,2.56.38,4.07,1.93,4.96,5.52,3.19.76-.38,1.51-.82,2.18-1.34,8.48-6.46,12.04-15.34,12.66-25.69.1-1.61-.77-2.11-1.99-2.57-4.59-1.73-9.32-.22-12.54,4.19-4.27,5.85-5.58,12.61-5.85,19.66Z"/>
        <path class="cls-6" d="m626.32,566.33c.77-7.13,1.51-14.11,2.28-21.08.53-4.84,1.14-9.68,1.62-14.53.1-1.02.55-2.52-.69-2.95-1.12-.39-1.94.84-2.56,1.71-1.42,1.97-2.74,4.01-4.17,6.12-2.78-1.68-2.94-3.9-1.31-6.4,2.42-3.74,5.54-6.84,9.39-9.07,4.83-2.78,8.54-.61,8.56,4.93.01,2.49-.21,4.97-.35,8.12,3.07-3,5.56-5.62,8.25-8.03,2.92-2.62,6.1-4.88,10.01-5.84,5.09-1.25,8.08.92,8.12,6.32.05,6.23-1.55,12.31-2.29,18.47-.46,3.87-.92,7.74-1.33,11.62-.07.66-.36,1.54.55,1.89.82.32,1.35-.35,1.86-.84,1.59-1.54,2.77-3.38,3.91-5.26.43-.71.58-2.23,1.91-1.67,1.12.47,2.06,1.5,1.86,2.87-.15,1.06-.48,2.18-1.04,3.08-2.52,3.99-5.83,7.21-10.09,9.3-4.83,2.37-8.26.21-8.22-5.24.05-6.84,1.56-13.54,2.38-20.31.37-3.02.74-6.05,1.01-9.08.23-2.53-1.14-3.3-3.41-2.66-2.67.75-4.74,2.45-6.61,4.41-5.5,5.76-8.63,12.61-9.4,20.54-.08.85-.18,1.7-.27,2.55q-.9,8.4-9.98,11.04Z"/>
        <path class="cls-6" d="m608.74,557.83c3.37-1.68,4.57-4.38,6.07-6.86.49-.8.51-2.58,2.12-1.77,1.19.6,2.01,1.71,1.77,3.31-.66,4.42-9.08,12.75-13.57,13.38-3.97.55-6.1-1.41-5.93-5.79.1-2.63.61-5.24,1.02-8.58-3.05,3.21-5.57,5.94-8.18,8.59-2.43,2.47-5.24,4.38-8.59,5.39-5.48,1.65-9.35-.39-10.29-5.98-2.19-12.93,2.16-23.78,11.46-32.7,7.43-7.13,16.43-9.04,26.42-7.25,2.48.44,3.1,1.38,2.5,3.94-2.47,10.45-3.34,21.16-4.92,31.75-.1.68.06,1.39.13,2.57Zm-26.51-7.11c.16,2.16-.36,4.83,1.91,5.93,2.21,1.08,4.24-.65,5.89-2.05,7.69-6.49,12.19-14.72,13.3-24.78.2-1.79-.37-2.64-2.04-3.23-5.39-1.9-9.81-.6-13.16,4.08-4.29,5.99-5.42,12.92-5.91,20.03Z"/>
      </g>
      <g>
        <path class="cls-9" d="m47.78,505.65c-.2.19-.41.39-.61.58,0,0-.2.21-.2.21-.18.18-.36.35-.53.53,0,0-.21.19-.21.19l-.38.38c-1.02,1-1.78,2.21-2.28,3.55-3.74,9.98-8.92,19.25-13.86,28.89-.52,1.01-2.05.7-2.11-.42-.03-.6,0-1.18-.02-1.75-.21-6.46-.69-12.91-1.61-19.31-.73-5.06-1.32-10.18-4.05-14.69-2.43-4.02-6.12-5.59-10.22-4.41-5.3,1.53-11.22,8.85-11.64,14.4-.04.48-.08.98-.03,1.46.14,1.39.9,2.17,2.32,2.39,1.62.25,1.72-.92,2.02-1.97.73-2.52,1.96-4.74,4.08-6.35,2.15-1.63,4.02-1.5,5.44,1.03,1.32,2.37,2.21,4.9,2.6,7.56,2.28,15.52,2.02,31.12,1.17,46.72-.02.36-.09.72-.14,1.1-.14,1.06,1.12,1.69,1.89.95,3.12-3.03,6.81-5.36,8.49-9.28,3.46-8.08,7.43-15.89,11.31-23.76,1.28-2.61,2.61-5.19,4.15-8.18.49-.96,1.91-.74,2.1.32,2.37,13.69,5.19,26.55,6.89,40.13.12.92,1.23,1.31,1.89.65,2.99-2.94,6.17-5.19,7.5-8.61,4.62-11.84,10.87-22.89,16.02-34.46,2.08-4.67,4.19-9.35,5-14.47.64-4.04-1.31-7.01-4.16-9.5-.77-.67-1.94-1.39-3.07.32-1.46,2.21-3.23,4.21-5.4,5.73-2.79,1.95-1.09,2.85-.12,3.72,2.46,2.22,2.91,5.37,2.23,8.02-2.42,9.45-6.87,18.07-11.61,27.46-.48.96-1.91.75-2.1-.31-1.78-10.23-4.03-19.53-4.77-29.09-.07-.56-.1-.75-.23-1.52-.21-2.01-.41-3.93-.29-5.91,0-.24.02-.48.03-.72l.09-2.09.43-2.39v-.37c.03-.8-.77-1.36-1.51-1.07,0,0-.02,0-.03.01-.62.53-1.01,1.16-1.63,1.69l-2.79,2.64Z"/>
        <path class="cls-9" d="m114.7,518.91c2.38.07,4.73-.26,7.15.2,4.66,1.32,4.37,1.27,3.59,5.97-1.64,9.96-2.96,19.97-4.37,29.96-.11.76-.61,1.83.44,2.25.94.37,1.53-.57,2.09-1.15,1.44-1.51,2.46-3.3,3.47-5.12.43-.78.41-2.62,2.04-1.85,1.34.63,2.3,1.8,1.8,3.57-.44,1.56-1.31,2.87-2.25,4.14-2.32,3.15-4.73,6.25-8.31,8.07-5.52,2.81-9.08.44-8.72-5.81.13-2.29.5-4.56.84-7.59-2.78,2.96-5.05,5.42-7.37,7.83-2.39,2.48-5.08,4.53-8.34,5.77-6.29,2.39-10.72-.08-11.54-6.74-1.51-12.2,2.74-22.4,11.1-31.2,3.67-3.86,8.08-6.2,13.12-7.59.56-.16,2.41-.45,3.53-.62.58-.09,1.16-.12,1.74-.1Zm-19.95,30.81c0,1.1-.07,2.2.01,3.29.29,3.85,1.86,4.79,5.26,3.14.98-.47,1.92-1.1,2.73-1.81,7.59-6.64,11.91-14.96,12.96-25,.14-1.33-.27-1.94-1.47-2.49-5.03-2.28-10.08-1.12-13.37,3.31-4.3,5.8-5.86,12.49-6.13,19.56Z"/>
        <path class="cls-9" d="m170.71,520.01c-3.81,6.28-8.73,8.69-15.73,7.87-5.41-.63-5.44-.12-5.96,5.22-.65,6.67-1.41,13.33-2.01,20-.17,1.88-.57,4.22,1.61,5.19,2.25.99,3.89-.73,5.43-2.13.54-.49.9-1.2,1.48-1.61.84-.59.96-2.78,2.64-1.54,1.3.97,1.54,2.55.68,3.96-2.85,4.67-6.83,8.04-12.32,8.89-5.11.79-8.22-2.33-8.49-8.06-.32-6.86,1.22-13.58,1.73-20.38.14-1.82.16-3.7.65-5.44,1.07-3.79-.52-4.68-3.96-4.27-1.89.23-3.84.04-5.95-.34,3.2-2.66,4.5-7.64,9.87-7.39,1.37.06,1.68-1.02,1.59-1.97-.63-6.77,4.55-7.15,9.09-8.47.58,2.74-.13,5.25-.49,7.74-.31,2.12.38,2.8,2.5,2.76,5.72-.1,11.44-.04,17.63-.04Z"/>
        <path class="cls-9" d="m195.63,547.01c2.76,1.89,3.22,4.14,1.46,6.64-3.63,5.17-8.01,9.55-14.17,11.62-7.76,2.61-15.01-1.88-16.28-9.95-1.98-12.55,7.23-29.76,18.81-34.98,1.42-.64,3-1.1,4.55-1.29,5.41-.66,8.36,2.13,8.16,7.58-.17,4.5-2.36,8.12-5.16,11.43-3.96,4.67-8.86,8.1-14.67,9.91-2.91.91-2.91,2.18-2.04,4.49,1.79,4.76,5.42,6.42,10.2,4.59,4.68-1.8,7.04-5.74,9.16-10.04Zm-5.47-15.12c-.04-1.54.09-3.33-1.88-4.19-2.27-.99-4.38-.44-6.14,1.05-3.4,2.87-5.12,6.73-6.02,11-.23,1.07-.18,1.82,1.24,2.04,5.11.81,12.57-4.8,12.81-9.89Z"/>
        <path class="cls-9" d="m220.12,532.24c2.79-4,5.45-7.62,9.22-10.22,3.79-2.61,7.8-3.9,12.41-2.4,2.17.7,3.41,1.43,1.12,3.53-1.25,1.15-2.41,2.43-3.44,3.78-1.46,1.91-2.86,2.81-5.53,1.93-2.61-.85-4.98.75-6.81,2.67-5.66,5.93-8.84,13.04-9.83,21.15-.13,1.09-.15,2.19-.27,3.28q-.94,8.24-9.93,10.28c.78-7.47,1.56-14.81,2.31-22.16.48-4.72.92-9.45,1.33-14.18.06-.68.25-1.58-.48-1.99-.99-.55-1.51.42-2.12.95-1.58,1.4-2.61,3.22-3.58,5.03-1.01,1.88-1.83,1.49-2.83.04-.97-1.4-.8-2.79-.05-4.13,2.64-4.72,6.46-8.27,11.43-10.35,3.69-1.54,6.67.38,7,4.34.22,2.64.04,5.32.04,8.46Z"/>
        <path class="cls-9" d="m321.3,566.76c.04-8.95.87-17.18,1.73-25.4.13-1.21.2-2.44.43-3.63.4-2.03-.51-2.52-2.38-2.5-5.98.08-11.97.09-17.95,0-1.9-.03-2.53.68-2.68,2.5-.21,2.67-.73,5.31-1.06,7.97-.55,4.51-1.97,8.55-6.2,11.54,2.52,1.26,5.14.64,7.71,1.5-3.74,4.46-7.04,8.37-13.73,7.03-4.96-1-10.19-.7-15.3-.99,1.62-4.38,6.16-7.71,10.67-7.6,1.76.04,2.71-.86,3.59-2.07,1.98-2.73,3.04-5.87,3.43-9.15,1.37-11.37,2.52-22.77,3.94-34.14.32-2.6-.47-3.37-2.87-2.98-2.04.33-4.13.5-6.12,1.04-7.75,2.11-10.87,8.08-7.69,15.47,1.11,2.58.71,3.94-1.28,5.52-1.71,1.36-3.3,2.91-4.79,4.52-1.83,1.98-2.42.99-2.98-.95-3.06-10.67,1.62-22.18,11.36-28.09,7.51-4.55,15.75-5.53,24.3-5.41,2.18.03,2,1.1,1.64,2.56-1.77,7.12-2.4,14.41-3.23,21.67-.23,2.04.24,2.59,2.2,2.57,5.98-.07,11.97-.09,17.95.02,2.04.04,2.71-.69,2.94-2.67.91-7.74,1.91-15.49,4.41-22.93,3.67-10.94,9.94-19.51,21.46-23.18,4.69-1.49,9.38-1.23,14.03.34,1.76.59,2.28,1.25.61,2.63-1.12.93-2.22,1.94-3.13,3.08-2.17,2.71-4.12,3.84-7.87,1.84-5.46-2.91-11.06-.22-13.65,5.83-2.92,6.8-3.72,14.14-4.62,21.36-1.48,11.85-3.04,23.7-3.4,35.66-.16,5.4.9,6.17,5.9,4.21,1.16-.45,2.53-1.77,3.46.02.9,1.71-.15,3.12-1.64,3.95-2.02,1.12-4.15,2.05-6.26,3.01-4.08,1.87-8.18,3.7-12.97,5.86Z"/>
        <path class="cls-9" d="m466.38,519.45c.46.02,1.31.05,2.16.1,5.99.36,6.08.63,5.21,6.37-2.08,13.74-2.81,27.62-3.75,41.46-1.02,15.06-7.45,26.5-21.4,33.18-2.67,1.28-5.48,2.09-8.38,2.45-12.84,1.6-21.04-9.1-16.73-21.81,2.14-6.3,6.47-11.09,11.08-15.66.78-.77,2.29-1.23,1.46-2.89-3.45-6.91-1.94-13.84.33-20.59,4.65-13.82,16.44-22.67,30.02-22.61Zm-5.1,32.14c-.4.46-.8.91-1.19,1.38-5.15,6.06-10.21,12.24-19.02,12.96-.53.04-1.1.52-1.5.94-3.23,3.35-6.16,6.93-7.8,11.35-2.51,6.74-.34,13,5.45,16.01,7.98,4.15,17.62-.11,20.65-9.45,3.48-10.73,3.38-21.95,3.43-33.18Zm-17.28-.61c.43,1.7-.92,4.67,1.73,5.79,2.55,1.08,4.66-1,6.43-2.61,7.01-6.4,11.42-14.13,12.1-23.81.15-2.22-.7-3.03-2.58-3.61-4.77-1.47-8.74-.21-11.86,4.11-4.24,5.86-5.62,12.6-5.81,20.13Z"/>
        <path class="cls-9" d="m399.58,533.54c3.67-3.72,6.46-6.9,9.8-9.5,2.72-2.12,5.56-3.96,8.96-4.78,4.8-1.15,7.69.93,7.8,5.85.17,7.36-1.77,14.49-2.59,21.75-.33,2.91-.71,5.81-1.02,8.71-.07.69-.31,1.57.44,2.01.98.58,1.58-.32,2.17-.86,1.62-1.51,2.72-3.42,3.88-5.29.44-.72.58-2.21,1.95-1.57.97.45,1.67,1.35,1.79,2.59.49,5.11-11.44,14.99-16.18,13.31-2.62-.93-3.11-3.22-3.11-5.66.01-7.72,1.77-15.24,2.59-22.86.25-2.3.37-4.61.57-6.92.24-2.77-1.32-3.08-3.45-2.48-2.42.69-4.32,2.25-6.05,3.98-6.54,6.53-9.97,14.6-9.96,23.66.01,7-3.64,9.6-10.04,10.74.6-5.67,1.19-11.29,1.79-16.91.67-6.3,1.36-12.6,1.97-18.91.09-.88.56-2.15-.59-2.6-1.07-.41-1.74.69-2.32,1.4-1.06,1.33-1.94,2.8-2.97,4.16-.54.72-.59,2.36-1.74,1.97-1.22-.41-2.03-1.68-2.03-3.18,0-1.15.48-2.14,1.1-3.05,2.42-3.58,5.41-6.63,9.11-8.87,4.85-2.95,8.87-.71,8.87,4.95,0,2.42-.41,4.84-.74,8.37Z"/>
        <path class="cls-9" d="m375.69,546.94c2.73,1.89,3.28,4.14,1.55,6.66-3.3,4.79-7.33,8.91-12.76,11.2-9.99,4.21-18.77-2.71-18.03-14.17.78-12.12,6.72-21.47,16.22-28.64,4.79-3.62,10.8-4.02,13.59-1.45,2.86,2.64,2.82,8.41-.34,13.63-4.08,6.73-10.02,11.28-17.43,13.79-2.4.81-3.08,1.67-2.21,4.15,1.81,5.17,6,7.05,10.98,4.69,4.23-2,6.6-5.63,8.43-9.86Zm-5.37-16.41c-.02-.64-.25-2.07-1.86-2.77-1.95-.85-3.87-.69-5.56.54-3.98,2.91-5.72,7.14-6.75,11.76-.24,1.06.11,1.51,1.22,1.7,5.5.96,13.09-5.07,12.95-11.24Z"/>
        <path class="cls-9" d="m555.25,529.08c3.21,1.89,5.88,3.79,7.9,6.44,5.97,7.79,3.68,18.48-5.29,24.32-5,3.26-10.62,4.77-16.51,5.5-11.11,1.37-22.05.02-33.69-1.57,2.67-2.86,4.9-5.23,7.09-7.63.95-1.04,1.95-.6,3.03-.34,5.25,1.26,7.6-.05,9.2-5.28,1.58-5.16,2.05-10.51,2.63-15.84.92-8.48,1.75-16.97,2.87-25.43.4-3.03-.99-3.02-3.05-2.51-3.33.82-6.53,1.97-9.41,3.92-5.78,3.91-7.66,9.88-4.77,16.25.81,1.78.71,2.76-.78,3.97-2.44,1.97-4.72,4.14-7.14,6.28-4.56-9.56-1.17-21.7,7.92-29.33,5-4.19,10.83-6.59,17.15-7.75,7.12-1.32,14.32-1.55,21.48-.21,5.61,1.05,10.7,3.1,12.39,9.31,1.69,6.22-.73,11.23-5.24,15.38-1.69,1.56-3.63,2.85-5.79,4.53Zm-24.6,28.67c6.43.87,12.56,2.03,18.76.69,5.17-1.12,7.77-4.27,7.82-9.52.06-6.28-5.01-12.98-11.16-14.76-5.48-1.58-6.59-.76-7.14,4.89-.68,7.05-1,14.31-8.28,18.7Zm13.89-29.79c5.91,1.03,12.4-6.6,12.62-11.81.24-5.72-2.84-8.7-10.65-9.9-.36-.06-.72-.12-1.08-.21-1.98-.49-2.82.17-3.01,2.31-.45,5.08-1.12,10.15-1.76,15.21-.57,4.46-.61,4.45,3.89,4.4Z"/>
        <path class="cls-9" d="m701.65,551.47c-4.48,5.28-8.58,9.24-13.52,12.25-2.44,1.49-5.01,2.65-7.94,2.16-3.44-.58-5.26-2.92-5.84-6.2-2.44-13.83,3.14-24.71,12.75-34.02,4.17-4.04,9.28-6.32,15.09-6.61,2.24-.11,2.8-.85,3.06-2.94,1.4-11.37,5.56-21.45,14.57-29,5.81-4.87,12.52-6.86,20.11-5.63,2.26.37,2.48,1.11.82,2.62-.99.9-1.97,1.84-2.84,2.85-2.07,2.41-4.13,3.68-7.79,3-5.83-1.08-10.04,1.91-12.35,7.47-2.57,6.19-2.75,12.83-3.52,19.34-1.49,12.58-2.77,25.19-4.12,37.79-.1.91-.74,2.19.35,2.65,1.18.51,1.91-.72,2.51-1.57,1.05-1.49,1.97-3.08,2.98-4.59.53-.79.41-2.57,2.03-1.88,1.23.53,2.19,1.63,1.95,3.21-.11.71-.31,1.45-.66,2.07-2.3,4.1-5.27,7.61-9.24,10.18-2.03,1.32-4.29,2.04-6.56.83-2.37-1.27-2.61-3.67-2.49-6.05.11-2.29.37-4.57.65-7.93Zm-18.13-1.13c0,.85-.07,1.71.01,2.56.38,4.07,1.93,4.96,5.52,3.19.76-.38,1.51-.82,2.18-1.34,8.48-6.46,12.04-15.34,12.66-25.69.1-1.61-.77-2.11-1.99-2.57-4.59-1.73-9.32-.22-12.54,4.19-4.27,5.85-5.58,12.61-5.85,19.66Z"/>
        <path class="cls-9" d="m626.32,566.33c.77-7.13,1.51-14.11,2.28-21.08.53-4.84,1.14-9.68,1.62-14.53.1-1.02.55-2.52-.69-2.95-1.12-.39-1.94.84-2.56,1.71-1.42,1.97-2.74,4.01-4.17,6.12-2.78-1.68-2.94-3.9-1.31-6.4,2.42-3.74,5.54-6.84,9.39-9.07,4.83-2.78,8.54-.61,8.56,4.93.01,2.49-.21,4.97-.35,8.12,3.07-3,5.56-5.62,8.25-8.03,2.92-2.62,6.1-4.88,10.01-5.84,5.09-1.25,8.08.92,8.12,6.32.05,6.23-1.55,12.31-2.29,18.47-.46,3.87-.92,7.74-1.33,11.62-.07.66-.36,1.54.55,1.89.82.32,1.35-.35,1.86-.84,1.59-1.54,2.77-3.38,3.91-5.26.43-.71.58-2.23,1.91-1.67,1.12.47,2.06,1.5,1.86,2.87-.15,1.06-.48,2.18-1.04,3.08-2.52,3.99-5.83,7.21-10.09,9.3-4.83,2.37-8.26.21-8.22-5.24.05-6.84,1.56-13.54,2.38-20.31.37-3.02.74-6.05,1.01-9.08.23-2.53-1.14-3.3-3.41-2.66-2.67.75-4.74,2.45-6.61,4.41-5.5,5.76-8.63,12.61-9.4,20.54-.08.85-.18,1.7-.27,2.55q-.9,8.4-9.98,11.04Z"/>
        <path class="cls-9" d="m608.74,557.83c3.37-1.68,4.57-4.38,6.07-6.86.49-.8.51-2.58,2.12-1.77,1.19.6,2.01,1.71,1.77,3.31-.66,4.42-9.08,12.75-13.57,13.38-3.97.55-6.1-1.41-5.93-5.79.1-2.63.61-5.24,1.02-8.58-3.05,3.21-5.57,5.94-8.18,8.59-2.43,2.47-5.24,4.38-8.59,5.39-5.48,1.65-9.35-.39-10.29-5.98-2.19-12.93,2.16-23.78,11.46-32.7,7.43-7.13,16.43-9.04,26.42-7.25,2.48.44,3.1,1.38,2.5,3.94-2.47,10.45-3.34,21.16-4.92,31.75-.1.68.06,1.39.13,2.57Zm-26.51-7.11c.16,2.16-.36,4.83,1.91,5.93,2.21,1.08,4.24-.65,5.89-2.05,7.69-6.49,12.19-14.72,13.3-24.78.2-1.79-.37-2.64-2.04-3.23-5.39-1.9-9.81-.6-13.16,4.08-4.29,5.99-5.42,12.92-5.91,20.03Z"/>
      </g>
      <g>
        <path class="cls-7" d="m47.78,505.65c-.2.19-.41.39-.61.58,0,0-.2.21-.2.21-.18.18-.36.35-.53.53,0,0-.21.19-.21.19l-.38.38c-1.02,1-1.78,2.21-2.28,3.55-3.74,9.98-8.92,19.25-13.86,28.89-.52,1.01-2.05.7-2.11-.42-.03-.6,0-1.18-.02-1.75-.21-6.46-.69-12.91-1.61-19.31-.73-5.06-1.32-10.18-4.05-14.69-2.43-4.02-6.12-5.59-10.22-4.41-5.3,1.53-11.22,8.85-11.64,14.4-.04.48-.08.98-.03,1.46.14,1.39.9,2.17,2.32,2.39,1.62.25,1.72-.92,2.02-1.97.73-2.52,1.96-4.74,4.08-6.35,2.15-1.63,4.02-1.5,5.44,1.03,1.32,2.37,2.21,4.9,2.6,7.56,2.28,15.52,2.02,31.12,1.17,46.72-.02.36-.09.72-.14,1.1-.14,1.06,1.12,1.69,1.89.95,3.12-3.03,6.81-5.36,8.49-9.28,3.46-8.08,7.43-15.89,11.31-23.76,1.28-2.61,2.61-5.19,4.15-8.18.49-.96,1.91-.74,2.1.32,2.37,13.69,5.19,26.55,6.89,40.13.12.92,1.23,1.31,1.89.65,2.99-2.94,6.17-5.19,7.5-8.61,4.62-11.84,10.87-22.89,16.02-34.46,2.08-4.67,4.19-9.35,5-14.47.64-4.04-1.31-7.01-4.16-9.5-.77-.67-1.94-1.39-3.07.32-1.46,2.21-3.23,4.21-5.4,5.73-2.79,1.95-1.09,2.85-.12,3.72,2.46,2.22,2.91,5.37,2.23,8.02-2.42,9.45-6.87,18.07-11.61,27.46-.48.96-1.91.75-2.1-.31-1.78-10.23-4.03-19.53-4.77-29.09-.07-.56-.1-.75-.23-1.52-.21-2.01-.41-3.93-.29-5.91,0-.24.02-.48.03-.72l.09-2.09.43-2.39v-.37c.03-.8-.77-1.36-1.51-1.07,0,0-.02,0-.03.01-.62.53-1.01,1.16-1.63,1.69l-2.79,2.64Z"/>
        <path class="cls-7" d="m114.7,518.91c2.38.07,4.73-.26,7.15.2,4.66,1.32,4.37,1.27,3.59,5.97-1.64,9.96-2.96,19.97-4.37,29.96-.11.76-.61,1.83.44,2.25.94.37,1.53-.57,2.09-1.15,1.44-1.51,2.46-3.3,3.47-5.12.43-.78.41-2.62,2.04-1.85,1.34.63,2.3,1.8,1.8,3.57-.44,1.56-1.31,2.87-2.25,4.14-2.32,3.15-4.73,6.25-8.31,8.07-5.52,2.81-9.08.44-8.72-5.81.13-2.29.5-4.56.84-7.59-2.78,2.96-5.05,5.42-7.37,7.83-2.39,2.48-5.08,4.53-8.34,5.77-6.29,2.39-10.72-.08-11.54-6.74-1.51-12.2,2.74-22.4,11.1-31.2,3.67-3.86,8.08-6.2,13.12-7.59.56-.16,2.41-.45,3.53-.62.58-.09,1.16-.12,1.74-.1Zm-19.95,30.81c0,1.1-.07,2.2.01,3.29.29,3.85,1.86,4.79,5.26,3.14.98-.47,1.92-1.1,2.73-1.81,7.59-6.64,11.91-14.96,12.96-25,.14-1.33-.27-1.94-1.47-2.49-5.03-2.28-10.08-1.12-13.37,3.31-4.3,5.8-5.86,12.49-6.13,19.56Z"/>
        <path class="cls-7" d="m170.71,520.01c-3.81,6.28-8.73,8.69-15.73,7.87-5.41-.63-5.44-.12-5.96,5.22-.65,6.67-1.41,13.33-2.01,20-.17,1.88-.57,4.22,1.61,5.19,2.25.99,3.89-.73,5.43-2.13.54-.49.9-1.2,1.48-1.61.84-.59.96-2.78,2.64-1.54,1.3.97,1.54,2.55.68,3.96-2.85,4.67-6.83,8.04-12.32,8.89-5.11.79-8.22-2.33-8.49-8.06-.32-6.86,1.22-13.58,1.73-20.38.14-1.82.16-3.7.65-5.44,1.07-3.79-.52-4.68-3.96-4.27-1.89.23-3.84.04-5.95-.34,3.2-2.66,4.5-7.64,9.87-7.39,1.37.06,1.68-1.02,1.59-1.97-.63-6.77,4.55-7.15,9.09-8.47.58,2.74-.13,5.25-.49,7.74-.31,2.12.38,2.8,2.5,2.76,5.72-.1,11.44-.04,17.63-.04Z"/>
        <path class="cls-7" d="m195.63,547.01c2.76,1.89,3.22,4.14,1.46,6.64-3.63,5.17-8.01,9.55-14.17,11.62-7.76,2.61-15.01-1.88-16.28-9.95-1.98-12.55,7.23-29.76,18.81-34.98,1.42-.64,3-1.1,4.55-1.29,5.41-.66,8.36,2.13,8.16,7.58-.17,4.5-2.36,8.12-5.16,11.43-3.96,4.67-8.86,8.1-14.67,9.91-2.91.91-2.91,2.18-2.04,4.49,1.79,4.76,5.42,6.42,10.2,4.59,4.68-1.8,7.04-5.74,9.16-10.04Zm-5.47-15.12c-.04-1.54.09-3.33-1.88-4.19-2.27-.99-4.38-.44-6.14,1.05-3.4,2.87-5.12,6.73-6.02,11-.23,1.07-.18,1.82,1.24,2.04,5.11.81,12.57-4.8,12.81-9.89Z"/>
        <path class="cls-7" d="m220.12,532.24c2.79-4,5.45-7.62,9.22-10.22,3.79-2.61,7.8-3.9,12.41-2.4,2.17.7,3.41,1.43,1.12,3.53-1.25,1.15-2.41,2.43-3.44,3.78-1.46,1.91-2.86,2.81-5.53,1.93-2.61-.85-4.98.75-6.81,2.67-5.66,5.93-8.84,13.04-9.83,21.15-.13,1.09-.15,2.19-.27,3.28q-.94,8.24-9.93,10.28c.78-7.47,1.56-14.81,2.31-22.16.48-4.72.92-9.45,1.33-14.18.06-.68.25-1.58-.48-1.99-.99-.55-1.51.42-2.12.95-1.58,1.4-2.61,3.22-3.58,5.03-1.01,1.88-1.83,1.49-2.83.04-.97-1.4-.8-2.79-.05-4.13,2.64-4.72,6.46-8.27,11.43-10.35,3.69-1.54,6.67.38,7,4.34.22,2.64.04,5.32.04,8.46Z"/>
        <path class="cls-7" d="m321.3,566.76c.04-8.95.87-17.18,1.73-25.4.13-1.21.2-2.44.43-3.63.4-2.03-.51-2.52-2.38-2.5-5.98.08-11.97.09-17.95,0-1.9-.03-2.53.68-2.68,2.5-.21,2.67-.73,5.31-1.06,7.97-.55,4.51-1.97,8.55-6.2,11.54,2.52,1.26,5.14.64,7.71,1.5-3.74,4.46-7.04,8.37-13.73,7.03-4.96-1-10.19-.7-15.3-.99,1.62-4.38,6.16-7.71,10.67-7.6,1.76.04,2.71-.86,3.59-2.07,1.98-2.73,3.04-5.87,3.43-9.15,1.37-11.37,2.52-22.77,3.94-34.14.32-2.6-.47-3.37-2.87-2.98-2.04.33-4.13.5-6.12,1.04-7.75,2.11-10.87,8.08-7.69,15.47,1.11,2.58.71,3.94-1.28,5.52-1.71,1.36-3.3,2.91-4.79,4.52-1.83,1.98-2.42.99-2.98-.95-3.06-10.67,1.62-22.18,11.36-28.09,7.51-4.55,15.75-5.53,24.3-5.41,2.18.03,2,1.1,1.64,2.56-1.77,7.12-2.4,14.41-3.23,21.67-.23,2.04.24,2.59,2.2,2.57,5.98-.07,11.97-.09,17.95.02,2.04.04,2.71-.69,2.94-2.67.91-7.74,1.91-15.49,4.41-22.93,3.67-10.94,9.94-19.51,21.46-23.18,4.69-1.49,9.38-1.23,14.03.34,1.76.59,2.28,1.25.61,2.63-1.12.93-2.22,1.94-3.13,3.08-2.17,2.71-4.12,3.84-7.87,1.84-5.46-2.91-11.06-.22-13.65,5.83-2.92,6.8-3.72,14.14-4.62,21.36-1.48,11.85-3.04,23.7-3.4,35.66-.16,5.4.9,6.17,5.9,4.21,1.16-.45,2.53-1.77,3.46.02.9,1.71-.15,3.12-1.64,3.95-2.02,1.12-4.15,2.05-6.26,3.01-4.08,1.87-8.18,3.7-12.97,5.86Z"/>
        <path class="cls-7" d="m466.38,519.45c.46.02,1.31.05,2.16.1,5.99.36,6.08.63,5.21,6.37-2.08,13.74-2.81,27.62-3.75,41.46-1.02,15.06-7.45,26.5-21.4,33.18-2.67,1.28-5.48,2.09-8.38,2.45-12.84,1.6-21.04-9.1-16.73-21.81,2.14-6.3,6.47-11.09,11.08-15.66.78-.77,2.29-1.23,1.46-2.89-3.45-6.91-1.94-13.84.33-20.59,4.65-13.82,16.44-22.67,30.02-22.61Zm-5.1,32.14c-.4.46-.8.91-1.19,1.38-5.15,6.06-10.21,12.24-19.02,12.96-.53.04-1.1.52-1.5.94-3.23,3.35-6.16,6.93-7.8,11.35-2.51,6.74-.34,13,5.45,16.01,7.98,4.15,17.62-.11,20.65-9.45,3.48-10.73,3.38-21.95,3.43-33.18Zm-17.28-.61c.43,1.7-.92,4.67,1.73,5.79,2.55,1.08,4.66-1,6.43-2.61,7.01-6.4,11.42-14.13,12.1-23.81.15-2.22-.7-3.03-2.58-3.61-4.77-1.47-8.74-.21-11.86,4.11-4.24,5.86-5.62,12.6-5.81,20.13Z"/>
        <path class="cls-7" d="m399.58,533.54c3.67-3.72,6.46-6.9,9.8-9.5,2.72-2.12,5.56-3.96,8.96-4.78,4.8-1.15,7.69.93,7.8,5.85.17,7.36-1.77,14.49-2.59,21.75-.33,2.91-.71,5.81-1.02,8.71-.07.69-.31,1.57.44,2.01.98.58,1.58-.32,2.17-.86,1.62-1.51,2.72-3.42,3.88-5.29.44-.72.58-2.21,1.95-1.57.97.45,1.67,1.35,1.79,2.59.49,5.11-11.44,14.99-16.18,13.31-2.62-.93-3.11-3.22-3.11-5.66.01-7.72,1.77-15.24,2.59-22.86.25-2.3.37-4.61.57-6.92.24-2.77-1.32-3.08-3.45-2.48-2.42.69-4.32,2.25-6.05,3.98-6.54,6.53-9.97,14.6-9.96,23.66.01,7-3.64,9.6-10.04,10.74.6-5.67,1.19-11.29,1.79-16.91.67-6.3,1.36-12.6,1.97-18.91.09-.88.56-2.15-.59-2.6-1.07-.41-1.74.69-2.32,1.4-1.06,1.33-1.94,2.8-2.97,4.16-.54.72-.59,2.36-1.74,1.97-1.22-.41-2.03-1.68-2.03-3.18,0-1.15.48-2.14,1.1-3.05,2.42-3.58,5.41-6.63,9.11-8.87,4.85-2.95,8.87-.71,8.87,4.95,0,2.42-.41,4.84-.74,8.37Z"/>
        <path class="cls-7" d="m375.69,546.94c2.73,1.89,3.28,4.14,1.55,6.66-3.3,4.79-7.33,8.91-12.76,11.2-9.99,4.21-18.77-2.71-18.03-14.17.78-12.12,6.72-21.47,16.22-28.64,4.79-3.62,10.8-4.02,13.59-1.45,2.86,2.64,2.82,8.41-.34,13.63-4.08,6.73-10.02,11.28-17.43,13.79-2.4.81-3.08,1.67-2.21,4.15,1.81,5.17,6,7.05,10.98,4.69,4.23-2,6.6-5.63,8.43-9.86Zm-5.37-16.41c-.02-.64-.25-2.07-1.86-2.77-1.95-.85-3.87-.69-5.56.54-3.98,2.91-5.72,7.14-6.75,11.76-.24,1.06.11,1.51,1.22,1.7,5.5.96,13.09-5.07,12.95-11.24Z"/>
        <path class="cls-7" d="m555.25,529.08c3.21,1.89,5.88,3.79,7.9,6.44,5.97,7.79,3.68,18.48-5.29,24.32-5,3.26-10.62,4.77-16.51,5.5-11.11,1.37-22.05.02-33.69-1.57,2.67-2.86,4.9-5.23,7.09-7.63.95-1.04,1.95-.6,3.03-.34,5.25,1.26,7.6-.05,9.2-5.28,1.58-5.16,2.05-10.51,2.63-15.84.92-8.48,1.75-16.97,2.87-25.43.4-3.03-.99-3.02-3.05-2.51-3.33.82-6.53,1.97-9.41,3.92-5.78,3.91-7.66,9.88-4.77,16.25.81,1.78.71,2.76-.78,3.97-2.44,1.97-4.72,4.14-7.14,6.28-4.56-9.56-1.17-21.7,7.92-29.33,5-4.19,10.83-6.59,17.15-7.75,7.12-1.32,14.32-1.55,21.48-.21,5.61,1.05,10.7,3.1,12.39,9.31,1.69,6.22-.73,11.23-5.24,15.38-1.69,1.56-3.63,2.85-5.79,4.53Zm-24.6,28.67c6.43.87,12.56,2.03,18.76.69,5.17-1.12,7.77-4.27,7.82-9.52.06-6.28-5.01-12.98-11.16-14.76-5.48-1.58-6.59-.76-7.14,4.89-.68,7.05-1,14.31-8.28,18.7Zm13.89-29.79c5.91,1.03,12.4-6.6,12.62-11.81.24-5.72-2.84-8.7-10.65-9.9-.36-.06-.72-.12-1.08-.21-1.98-.49-2.82.17-3.01,2.31-.45,5.08-1.12,10.15-1.76,15.21-.57,4.46-.61,4.45,3.89,4.4Z"/>
        <path class="cls-7" d="m701.65,551.47c-4.48,5.28-8.58,9.24-13.52,12.25-2.44,1.49-5.01,2.65-7.94,2.16-3.44-.58-5.26-2.92-5.84-6.2-2.44-13.83,3.14-24.71,12.75-34.02,4.17-4.04,9.28-6.32,15.09-6.61,2.24-.11,2.8-.85,3.06-2.94,1.4-11.37,5.56-21.45,14.57-29,5.81-4.87,12.52-6.86,20.11-5.63,2.26.37,2.48,1.11.82,2.62-.99.9-1.97,1.84-2.84,2.85-2.07,2.41-4.13,3.68-7.79,3-5.83-1.08-10.04,1.91-12.35,7.47-2.57,6.19-2.75,12.83-3.52,19.34-1.49,12.58-2.77,25.19-4.12,37.79-.1.91-.74,2.19.35,2.65,1.18.51,1.91-.72,2.51-1.57,1.05-1.49,1.97-3.08,2.98-4.59.53-.79.41-2.57,2.03-1.88,1.23.53,2.19,1.63,1.95,3.21-.11.71-.31,1.45-.66,2.07-2.3,4.1-5.27,7.61-9.24,10.18-2.03,1.32-4.29,2.04-6.56.83-2.37-1.27-2.61-3.67-2.49-6.05.11-2.29.37-4.57.65-7.93Zm-18.13-1.13c0,.85-.07,1.71.01,2.56.38,4.07,1.93,4.96,5.52,3.19.76-.38,1.51-.82,2.18-1.34,8.48-6.46,12.04-15.34,12.66-25.69.1-1.61-.77-2.11-1.99-2.57-4.59-1.73-9.32-.22-12.54,4.19-4.27,5.85-5.58,12.61-5.85,19.66Z"/>
        <path class="cls-7" d="m626.32,566.33c.77-7.13,1.51-14.11,2.28-21.08.53-4.84,1.14-9.68,1.62-14.53.1-1.02.55-2.52-.69-2.95-1.12-.39-1.94.84-2.56,1.71-1.42,1.97-2.74,4.01-4.17,6.12-2.78-1.68-2.94-3.9-1.31-6.4,2.42-3.74,5.54-6.84,9.39-9.07,4.83-2.78,8.54-.61,8.56,4.93.01,2.49-.21,4.97-.35,8.12,3.07-3,5.56-5.62,8.25-8.03,2.92-2.62,6.1-4.88,10.01-5.84,5.09-1.25,8.08.92,8.12,6.32.05,6.23-1.55,12.31-2.29,18.47-.46,3.87-.92,7.74-1.33,11.62-.07.66-.36,1.54.55,1.89.82.32,1.35-.35,1.86-.84,1.59-1.54,2.77-3.38,3.91-5.26.43-.71.58-2.23,1.91-1.67,1.12.47,2.06,1.5,1.86,2.87-.15,1.06-.48,2.18-1.04,3.08-2.52,3.99-5.83,7.21-10.09,9.3-4.83,2.37-8.26.21-8.22-5.24.05-6.84,1.56-13.54,2.38-20.31.37-3.02.74-6.05,1.01-9.08.23-2.53-1.14-3.3-3.41-2.66-2.67.75-4.74,2.45-6.61,4.41-5.5,5.76-8.63,12.61-9.4,20.54-.08.85-.18,1.7-.27,2.55q-.9,8.4-9.98,11.04Z"/>
        <path class="cls-7" d="m608.74,557.83c3.37-1.68,4.57-4.38,6.07-6.86.49-.8.51-2.58,2.12-1.77,1.19.6,2.01,1.71,1.77,3.31-.66,4.42-9.08,12.75-13.57,13.38-3.97.55-6.1-1.41-5.93-5.79.1-2.63.61-5.24,1.02-8.58-3.05,3.21-5.57,5.94-8.18,8.59-2.43,2.47-5.24,4.38-8.59,5.39-5.48,1.65-9.35-.39-10.29-5.98-2.19-12.93,2.16-23.78,11.46-32.7,7.43-7.13,16.43-9.04,26.42-7.25,2.48.44,3.1,1.38,2.5,3.94-2.47,10.45-3.34,21.16-4.92,31.75-.1.68.06,1.39.13,2.57Zm-26.51-7.11c.16,2.16-.36,4.83,1.91,5.93,2.21,1.08,4.24-.65,5.89-2.05,7.69-6.49,12.19-14.72,13.3-24.78.2-1.79-.37-2.64-2.04-3.23-5.39-1.9-9.81-.6-13.16,4.08-4.29,5.99-5.42,12.92-5.91,20.03Z"/>
      </g>
    </g>
  </g>
</svg>