<?xml version="1.0" encoding="utf-8"?>
<svg viewBox="20 20 1581.34 1581.34" preserveAspectRatio="none" xmlns="http://www.w3.org/2000/svg">
  <defs>
    <style>
      .cls-1 {
        fill: #1d1d1b;
      }

      .cls-1, .cls-2, .cls-3, .cls-4 {
        stroke: #1d1d1b;
      }

      .cls-1, .cls-3, .cls-4 {
        stroke-linecap: round;
        stroke-miterlimit: 2;
      }

      .cls-1, .cls-4 {
        stroke-width: 30.25px;
      }

      .cls-5 {
        font-family: Mitr-Medium, Mitr;
        font-weight: 500;
      }

      .cls-5, .cls-6 {
        font-size: 60px;
      }

      .cls-7 {
        fill: #fff;
      }

      .cls-8 {
        fill: #d0b8a1;
      }

      .cls-2 {
        stroke-miterlimit: 3;
        stroke-width: 107.17px;
      }

      .cls-2, .cls-9, .cls-3, .cls-4 {
        fill: none;
      }

      .cls-10 {
        font-family: Mitr-Regular, Mitr;
        font-size: 72px;
      }

      .cls-9 {
        stroke: #d0b8a1;
        stroke-width: 40px;
      }

      .cls-9, .cls-11 {
        stroke-miterlimit: 10;
      }

      .cls-11 {
        stroke: #000;
        stroke-width: 2px;
      }

      .cls-3 {
        stroke-width: 12.1px;
      }

      .cls-6 {
        font-family: Mitr-Light, Mitr;
        font-weight: 300;
      }
    </style>
  </defs>
  <g id="Cicle_Line" data-name="Cicle Line">
    <circle class="cls-9" cx="810.67" cy="810.67" r="790.67"/>
  </g>
  <g id="Cicle_Bg" data-name="Cicle Bg">
    <circle class="cls-8" cx="810.67" cy="810.67" r="728.82"/>
  </g>
  <g id="Ig_Text" data-name="Ig Text" transform="matrix(1, 0, 0, 1, -223.173904, -159.012543)">
    <text class="cls-6" transform="translate(363.37 1327.09) rotate(39.87)" style="white-space: pre;"><tspan x="0" y="0">    </tspan></text>
    <text class="cls-5" transform="translate(447.33 1389.26) rotate(31.51)" style="white-space: pre;"><tspan x="0" y="0">IG</tspan></text>
    <text class="cls-6" transform="translate(500 1419.31) rotate(26.03)" style="white-space: pre;"><tspan x="0" y="0"> : </tspan></text>
    <text class="cls-10" transform="translate(558.8 1446.12) rotate(19.97)" style="white-space: pre;"><tspan x="0" y="0">Loonghoom_square</tspan></text>
  </g>
  <g id="Rabiit_2" data-name="Rabiit 2">
    <g>
      <path class="cls-11" d="m731.12,194.26c-9.98-6.25-20.67-6.07-31.57-3.01-.59.17-1.27,1-1.41,1.63-.82,3.7-1.86,7.4-2.14,11.15-.92,12.6,1.75,24.71,5.65,36.58,1.66,5.05,3.63,9.99,5.54,15.18-.42-.54-.72-.91-1-1.29-6.03-8.03-12.67-15.48-20.5-21.82-8.49-6.88-17.77-12.23-28.66-14.29-6.28-1.19-12.55-1.12-18.83.45.01.35-.02.6.04.82.38,1.27.71,2.56,1.17,3.8,6.14,16.38,16.99,29.11,30.81,39.5,6.87,5.17,14.41,9.19,22.09,13.01,2.27,1.13,4.42,2.75,6.21,4.55,2.58,2.6,2.33,5.94,1.75,9.36-.62,3.65-.83,7.38-1.27,11.07-.05.45-.39.97-.75,1.26-.84.69-1.78,1.25-2.67,1.86l-9.21,6.29c1.13,1.97,2.18,3.79,3.22,5.61,2.73,4.82,5.77,9.51,10.73,12.2,3.44,1.86,6.6,3.7,8.29,7.39.15.32.43.6.72.81,2.58,1.9,5.17,3.78,7.84,5.72-.15.27-.53.89-.84,1.54-1.37,2.89-1.51,5.78-.08,8.71,1.29,2.64,2.54,5.3,3.79,7.92-2.39,2.28-2.42,2.63-.58,5.34.68,1,1.36,1.99,2.04,2.99,2.17,3.18,2.47,3.24,5.7,1.33.09-.06,78.33-53.57,78.74-53.79,1.58-.86,1.74-2.13.9-3.5-1.23-2-2.55-3.95-3.97-5.83-.89-1.17-2.09-1.59-3.45-.5-.49.39-1.08.66-1.32.8-1.5-1.3-2.76-2.39-4.01-3.48-.61-.53-1.37-.97-1.8-1.61-1.83-2.73-4.41-4.12-7.62-4.1-1.83,0-3.66.48-5.69.76.21-5.24-1.44-9.84-4.68-13.92-.31-.38-.39-1.12-.29-1.63.86-4.36.38-8.62-1.57-12.53-1.96-3.92-4.29-7.67-6.69-11.34-1.37-2.09-1.02-2.38-3.56-.64-4.02,2.77-8.06,5.52-12.11,8.25-.45.3-1.12.64-1.57.52-4.41-1.22-8.79-2.53-13.18-3.81-4.39-1.28-7.46-4.02-9.2-8.28-1.52-3.74-1.93-7.66-1.17-11.55,1.22-6.2,2.78-12.33,4.24-18.48.25-1.04.73-2.03,1.13-3.13,6.59,2.24,13.18,3.72,20.6,3.82-1.39-4.13-2.48-8.02-4-11.72-3.35-8.13-8.2-15.19-15.8-19.94Zm-12.91,148.44c2.37-3.36,5.63-5.58,9.56-6.75,3.8-1.13,6.87-.09,9.31,3.01,1.3,1.64,1.39,3.15.28,4.61-1.22,1.6-2.48,1.85-4.56.92-.1-.04-.23,0-.82.04.74,2.27.04,4.08-1.69,5.46-1.61,1.28-3.37,1.94-5.48.54.49,1.62.74,2.84-.76,3.85-1.84,1.21-3.22,1.25-4.88-.24-3.32-2.98-3.75-7.46-.95-11.43Zm28.55-10.3c1.47-2.46,2.79-4.68,4.17-6.99,1.46,2.14,2.99,4.38,4.51,6.63.12.18.12.47.09.7-.18,1.57-4.06,3.43-5.35,2.49-1.21-.88-2.32-1.91-3.42-2.83Zm4.87-7.56c2.74-.43,5.31-.83,8.16-1.28.46,1.49,1.04,3.06,1.38,4.68.11.5-.26,1.37-.69,1.67-3.72,2.52-3.41,3-5.91-.75-.95-1.44-1.95-2.86-2.95-4.32Zm32.69-25.79c3.76-.23,6.81,2.11,7.91,5.64.72,2.29-.59,4.57-2.96,4.8-.73.07-1.54-.59-2.4-.95-.08.12-.31.31-.31.5.05,3.74-3.72,6.09-7.07,4.32-.99-.52-1.36-.52-1.21.71.22,1.74-.77,2.7-2.23,3.28-1.58.62-2.97.38-3.99-1.07-1.89-2.68-2.81-5.65-1.11-8.64,2.92-5.12,7.38-8.22,13.38-8.58Zm-30.12-28.43c.77-.4,1.46-.97,2.42-1.63,1.59,9.07,3.12,17.81,4.66,26.58,3.37-.82,7.19-4.23,11.71-10.38,2.99,3.25,4.41,7.08,4.81,11.38.18,1.95-.19,3.26-2.11,4.4-1.9,1.14-3.54,2.91-4.93,4.68-1.95,2.47-2.4,5.39-1.16,8.37.51,1.23.19,1.93-.73,2.78-3.36,3.09-7.23,5.18-11.67,6.21-.64.15-1.31.28-1.96.27-2.71-.05-3.72-1.77-3.01-4.4.88-3.3,1.65-6.66,2.1-10.05.37-2.82-.26-5.54-2.5-7.61-1.8-1.65-3.92-1.99-6.24-1.45-6.1,1.43-11.13,4.65-14.95,9.54-3.91,5-1.84,11.03,4.41,12.75,3.05.84,6.28,1.08,9.45,1.4,4.05.4,5.17,2.42,3.08,5.94-2.05,3.45-4.96,6.02-8.4,8.04-.84.48-1.47.54-2.22-.23-3.45-3.54-7.5-3.55-11.63-1.57-2.08,1.01-3.98,2.47-5.83,3.9-.91.71-1.62.96-2.74.53-4.37-1.65-8.48-5.61-9.76-9.55,1.56-.41,3.01-.75,4.44-1.2,1.21-.38,1.58-1.11,1.3-2.47-1.59-7.67-3.06-15.36-4.55-23.06-.11-.59-.02-1.21-.03-1.82l.63-.03c1.59,8.59,3.18,17.18,4.87,26.3,1.74-1.19,3.21-2.07,4.51-3.16.31-.26.21-1.22.07-1.8-1.73-7.32-3.45-14.66-5.32-21.95-.44-1.69-.15-2.71,1.39-3.47.73-.36,1.37-.91,2.31-1.55,1.76,8.8,3.46,17.27,5.27,26.32,1.25-1.14,2.33-1.93,3.16-2.93,2.72-3.25,3.75-7.21,3.71-11.29-.03-4.25-.28-8.58-1.14-12.73-.52-2.52.79-3.08,2.22-4.16,1.51-1.14,2.18.18,3.04.83,4.91,3.73,10.42,5.72,16.58,5.92.54.02,1.08,0,1.62-.03.3-.02.59-.09,1.07-.17-1.46-7.75-2.91-15.45-4.37-23.15.27-.05.55-.09.82-.14,1.5,7.75,3,15.49,4.48,23.16.26.09.37.17.48.17,4.66-.32,4.72-.43,3.68-4.93-1.48-6.39-2.85-12.82-4.43-19.19-.41-1.67-.07-2.6,1.38-3.34Zm-10.34-60.27c2.41,4.46,4.14,9.2,5.26,14.43-16.51-1.18-30.43-7.65-42.29-18.8-.18.05-.36.1-.54.14.31,1.3.34,2.78,1,3.86,1.44,2.35,1.47,4.76,1.39,7.4-.46,14.08,3.19,27.18,9.85,39.51.04.08.18.1.51.28-2.45-13.2-.53-25.73,4.54-37.98,1.92.84,3.67,1.61,5.43,2.39-1.08,3.85-2.33,7.62-3.17,11.48-.96,4.41-1.78,8.87-2.22,13.35-.24,2.39.17,4.95.8,7.3,1.48,5.59,5.03,9.38,10.7,10.95,3.25.9,6.54,1.68,9.8,2.55.67.18,1.31.49,2.2.83l-47.03,32.1c.01-1.09-.09-2.01.05-2.89.43-2.74.89-5.47,1.43-8.19,1.03-5.08-.64-9.16-4.91-11.87-3.65-2.32-7.62-4.12-11.44-6.18-15.73-8.46-28.98-19.66-38.43-35.01-3.11-5.04-5.65-10.35-7.34-16.3,8.15-1.72,15.92-1.13,23.56,1.38,11.13,3.66,20.32,10.38,28.62,18.44,7.21,7,13.48,14.78,18.85,23.28.19.3.4.59.6.88.2-.03.4-.07.61-.1-.09-.57-.07-1.19-.28-1.72-3.02-7.67-6.4-15.22-9.03-23.03-3.95-11.72-6.28-23.79-5.1-36.26.28-3.03,1.14-6.02,1.84-9.01.12-.52.69-1.21,1.18-1.35,9.07-2.5,18.08-2.95,26.86,1.14,7.65,3.57,12.8,9.69,16.71,16.96Z"/>
      <path class="cls-11" d="m698.58,259.89c.92,1.63,1.69,2.93,2.37,4.26.19.37.11.87.15,1.3-.39.03-.82.17-1.18.07-13.21-3.59-25.11-9.49-34.3-19.94-3.82-4.35-6.76-9.26-7.35-15.2-.17-1.74-1.36-2.26-2.72-2.71-.69-.22-1.41-.34-2.07-.62-.41-.18-.74-.56-1.1-.86.45-.16.91-.48,1.36-.45,5.35.29,10.25,2.04,14.84,4.71,7.49,4.34,13.65,10.26,19.34,16.67,3.76,4.23,7.26,8.68,10.65,12.76Z"/>
    </g>
  </g>
  <g id="Body">
    <g>
      <path class="cls-4" d="m715.94,1248.11c21.66,65.57-2.15-9.4,17.68,56.66,4.3,5.22,11.44,5.91,17.28,7.67,2.38.23,4.02.63,6.4.86,15.13,5.06,29.98,5.53,45.17,7.48,7.88.52,15.99-1.34,23.47.82,55.05-.22,108.86-12.58,161.42-26.97,12.36-3.61,24.22-9.44,36.41-13.79,4.42-1.02,9.41-2.94,13.84-3.95,32.16-12.04,61.76-25.04,91.63-41.35"/>
      <path class="cls-4" d="m661.95,421.57c11.49-10.91,24.31-19.29,36.96-28.4,3.92-3.23,8-5.72,12.08-8.21,1.31-1.08,2.44-2.89,4.48-4.13,7.43-4.81,14.13-9.45,20.82-14.09,17.64-11.03,34.55-21.9,52.36-32.2,2.04-1.24,4.99-1.92,7.03-3.17,60.87-35.7,126.42-57.74,193.51-73.14,28.01-6.43,57.04-8.44,86.22.38l2.72,1.7c18.42,5.86,31.55,19.14,41.91,33.83,7.13,10.78,11.31,22.23,14.19,34.77,2.31,13.44,3.14,27.21.86,40.93-6.84,31.06-23.81,55.13-45.55,78.75-18.56,20.56-35.76,36.92-56.24,52.49-2.04,1.24-4.82,2.66-6.86,3.9-6.36,6.12-13.05,10.76-20.48,15.57-11.52,7.3-23.2,13.86-34.89,20.43-11.12,5.66-21.5,11.14-32.62,16.8-26.49,13.07-52.52,21.37-79.68,31.49l-7.37,1.69c-48.65,16.26-98.18,29.49-148.84,36.15-7.29.96-14.14,1.28-21.28,1.8-20.15,1.47-40.21-1.98-60.59-5.16-7.31-1.43-14.96-4.33-15.35-12.77-.28-4.59,2.9-7.65,5.51-9.8,26.27-20.78,58.7-28.22,89.5-36.07,46.84-12.31,94.02-23.14,141.87-31.02,9.75-1.46,19.23-3.14,29.26-4.39,3.75-.47,7.71-.22,11.57-.33,40.82-4.72,81.47-10.17,122.45-4.06,29.64,4.06,58.89,9.76,86.88,23.51,9.8,5.51,20.51,11.59,21.74,23.72-.18,9.35-6.94,17.11-14.37,21.92-21.9,12.79-43,22.29-66.14,33.03-22.97,11.48-45.32,18.94-68.4,26.57-2.78,1.41-4.82,2.66-7.6,4.07-26.77,8.47-53.53,16.95-80.64,23.95-19,5.14-38.73,10.44-57.9,14.84-81.43,17.14-161.48,30.09-247.26,35.04-4.76-.46-10.09-.01-14.68.27-13.61,1.57-27.38,2.41-41.1.12-9.86-2.39-18.48-2.74-28.34-5.13-1.81-1.14-3.46-1.53-6.01-2.5-5.27-2.67-11.28-5.17-14.67-9.82-1.08-1.31-2.32-3.35-3.4-4.65-4.98-8.17-5.14-19,.88-26.59,11.53-17.39,28.15-32.85,48.79-37.59.74-.17,1.64.4,1.81,1.14,22.82,72.36,48.08,141.83,71.73,213.42"/>
      <path class="cls-4" d="m917.1,278.66c-13.34-14.01-26.71-24.91-41.49-38.59-8.5-6.59-16.26-13.34-24.75-19.93-40.73-28.67-80.89-58.25-128.95-68.17-33.9-2.31-66.56,7.52-98.55,20.3-43.1,18.43-81.17,41.92-118.3,68.27-.7-1-1.4-2.01-2.01-3.08.81.92,1.56,1.92,2.01,3.08-6.99-12.34-21.72-19.05-35.16-16.74-14.01,3.22-27.39,12.5-31.89,26.72-3.13,10.03,1.28,19.11,6.43,28.01,1.24,2.04,1.35,5.9.22,7.71-4.88,5.78-10.44,8.61-15.32,14.38-1.87,1.98-4.08,2.49-5.96,4.47-15.15,15.12-29.91,28.59-41.27,46.72-.57.91-2.04,1.24-2.61,2.15-2.84,4.53-5.68,9.06-8.52,13.6-.57.91-2.04,1.24-2.61,2.15-9.26,13.77-15.39,27.59-21.93,43.06-6.2,16.94-5.25,34.57.11,51.19,5.03,15.14,15.45,26.72,24.56,39.37,1.98,1.87,3.06,3.18,4.47,5.96,27.17,37.22,52.53,73.3,87.3,106.45,5.78,4.88,14.05,3.76,19.28-.55,21.28-18.85,36.55-40.21,54.77-62.24,3.18-3.06,5.79-5.21,8.97-8.27,1.14-1.81,3.01-3.79,4.14-5.61,2.61-2.15,5.22-4.3,7.66-7.19,1.7-2.72,4.14-5.61,5.85-8.33,12.04-15.18,24.01-27.24,36.95-41.85,10.5-11.72,21.68-20.5,31.27-32.79,5.62-5.95,11.58-10.42,17.12-16"/>
      <path class="cls-4" d="m999.77,256.86s-71.47,30.85-142.38,95.69c0,0-29.48,28.05-61.32,80.59-31.84,52.54-118.34,48.46-159.28,12.62"/>
      <path class="cls-1" d="m654.79,421.06c1.36-.31,2.6-.3,3.72-.06l-154.1-170.78-3.43-3.4s-52.45,54.58-86.84,133.65c0,0-33.89,60.99,7.26,112.74l82.95,98.8s105.89-124.13,145.02-159.42c-1.87-4.33-.52-10.18,5.42-11.54Z"/>
    </g>
  </g>
  <g id="Brand_Name" data-name="Brand Name">
    <g id="Text_Stoke" data-name="Text Stoke">
      <path class="cls-2" d="m910.31,942.78c15.23-.21,30.44-2.12,48-3.61-2.59-10.46-4.79-20.16-7.09-29.5,2.69,2.77,5.85,5.12,9.43,6.99,18.15,9.45,39.27,6.64,53.69-7.35,4.84-4.7,11.03-11.55,17.29-18.13-.53,4.5-.85,6.95-.92,8.08-.66,9.46-5.47,22.59-1.09,27.43,5.48,6.07,18.56,5.08,28.24,7.61,8.61,2.25,12.52-.53,13.95-9.47,3.9-24.32,8.52-48.52,12.84-72.77.74-4.14,1.38-7.77,1.9-10.98,3.39,26.89,6.25,53.85,9.43,80.77.39,3.3,1.43,6.51,2.28,10.23,11.69-1.35,22.15-2.59,32.62-3.76,6.97-.78,9.16-4.54,7.99-11.33-1.23-7.14-1.75-14.39-2.59-21.6,1.12-.31,2.25-.62,3.37-.93,4.76,5.64,9.3,11.5,14.34,16.88,11.65,12.46,31.16,16.45,46.29,9.79,17.92-7.89,26.26-20.3,24.71-39.55-1.72-21.44-4.47-42.79-7.02-64.16-1.87-15.64-2.04-15.61-18.22-13.8-6.22.7-12.44,1.7-18.68,1.92-8.71.32-11.29,4.07-10.03,12.76,2.58,17.8,4.55,35.72,6.08,53.65,1.38,16.24-7.94,25.44-21.94,21.84-9.93-2.56-15.87-9.46-17.06-19.97-1.89-16.72-3.93-33.42-5.63-50.16-.86-8.45-3.84-12.96-13.47-10.89-7.62,1.64-15.5,2.42-23.3,2.7-5.81.21-9.12,1.66-10.42,5.16-3.77-4.59-12.38-6.03-28.97-8.98-10.93-1.94-15.44.77-16.79,11.95-1.88,15.61-5.01,31.09-8.02,46.54-3.31,17.04-13.19,24.7-27.38,21.83-11.98-2.42-15.41-10.13-12.37-27.96,1.56-9.15,3.22-18.29,4.83-27.44,6.33-36.11,6.31-35.97-30.73-40.9-7.37-.98-11.37.59-12.66,8.49-3.79,23.11-8.42,46.09-11.94,69.23-.12.82-.22,1.63-.31,2.43-3.98-9.54-9.4-18.39-18.43-27.23-4.13-4.05-.86-8.46.43-12.39,3.5-10.63,7.88-20.97,12.93-34.07-14.71,1.25-25.76,2.53-36.84,3-8.27.35-12.84,4.04-14.52,12.04-.95,4.54-2.47,8.96-3.83,13.4-7.05,23.03-3.58,20.33-33.77,21.72-.73-8.67-2.18-19.89-2.44-29.06-.27-9.4-3.92-13.61-13.76-12.21-8.74,1.24-17.6,2.07-26.42,2.2-10.24.15-13.62,4.18-12.54,14.63,1.15,11.09,2.16,22.2,3.1,33.31-2.82-4.75-6.13-9.4-9.97-13.89-28.98-33.93-76.25-32.03-101.2-3.8,8.63,11.67,13.95,24.64,34.79,24.28,8.06-.14,11.6.43,15.7,5.92,12.52,16.78,21.97,33.28,19.49,54.29-.73,6.15-4.37,12.71-8.47,17.56-9.23,10.9-17.13,10.11-25.7-1.2-19.75-26.07-39.23-52.34-59.52-77.99-3.55-4.48-11.51-9.86-15.69-8.67-9.34,2.65-18.35,6.44-27.22,10.31-10.98-22.54-29.61-32.93-58.1-31.18-39.57,2.44-75.35,16.35-106.94,40.43-2.8,2.13-5.93,6.87-5.42,9.79,2.52,14.41,16.25,19.76,28.66,12.21,6.78-4.13,13.73-8.2,21.06-11.17,54.3-22.03,68.3-4.51,74.78,38.81.07.47-.31,1-.89,2.74-42.82-11.65-49.27-11.76-74.22-1.43-21.63,8.96-33.89,29.97-29.9,50.47,5.45,27.99,24.79,38.63,43.83,37.92,12.79-.48,25.85-4.91,37.85-9.86,1.25-.52,2.37-1.33,3.41-2.34,6.73-6.56,3.4-18.32-5.81-20.22-.05-.01-.11-.02-.16-.03-11.48-2.25-17.88-8.8-19.86-19.84-2.05-11.46,2.99-19.53,13.13-24.64,21.92-11.05,35.32-5.32,42.61,18.18q11.09,35.78,46.99,25.02c2.03-.61,4.03-1.46,6.11-1.78,13.79-2.17,16.72-9.05,10.86-23.94-6.02-15.3-10.98-30.98-15.3-46.84,22.49,26.77,45.03,53.49,67.86,79.97,2.49,2.88,9.6,4.46,13.32,3.14,17.26-6.11,34.8-12.1,50.93-20.62,18.94-9.99,32.07-24.44,39.05-40.85,2.86,20.95,8.67,20.14,40.26,17.53,11.8-.97,13.84-6.13,12.78-16.03-1.64-15.27-3.23-30.57-3.81-45.89-.15-3.97-2.89-14.95.17-16.17,14.92-5.92,38.89-1.59,39.76,20.7.55,14.31,5.67,28.2,9.66,41.97,1.09,3.77,6.93,8.79,10.53,8.74Z"/>
      <path class="cls-2" d="m630.69,1056.64c12.81-3.79,24.37-7.21,39.91-11.81-4.28-16.34-7.66-25.27-11.07-39.13-1.57-6.38-8.92-7.34-12.71-6.56-14.04,2.91-27.91,7.08-41.42,11.97-10.41,3.77-7.03,15.82-1.65,15.8,20.96-.09,13.93-12.58,26.94,29.72Z"/>
      <path class="cls-2" d="m1058.11,1001.83c3.36-14.38,4.38-22.66,7.4-34.77,1.39-5.58-3.91-9.32-7.15-10.25-12.04-3.48-24.47-5.91-36.91-7.64-9.59-1.33-11.89,9.37-7.72,11.55,16.24,8.48,15.9-4.04,8.7,33.96,11.45,2.3,21.78,4.37,35.67,7.15Z"/>
      <rect class="cls-2" x="1054.33" y="756.48" width="39.59" height="32.19" rx="3.66" ry="3.66" transform="translate(207.46 1772.33) rotate(-84.8)"/>
      <path class="cls-2" d="m745.59,1074.03c-3.13-27.79,2.67-24.33-27.05-21.64-17.13,1.55-10.88,1.21-10.67,13.98.61,6.06,0,10.66.71,16.66-3.65-4.37-7.18-8.84-10.83-13.21-12.15-14.57-28.93-18.2-46.22-10.61-18.96,8.33-29.04,23.5-30.62,43.17-.1,1.21-.17,2.42-.22,3.62-4.61-3.67-10.54-6.44-17.68-7.91-10.34-2.13-20.94-2.83-31.43-4.03-8.89-1.01-17.88-2.63-18.62-14.1-.74-11.46,8.4-14.7,16.75-16.12,7.43-1.27,15.05-1.48,22.98-1.77,4.79-.17,8.88-3.47,10.24-8.19,1.51-5.24,2.5-10.21-7.46-11.4-25.33-3.05-49.56,1.06-70.26,16.8-12.15,9.24-19.87,21.69-15.64,38.88,4.13,16.78,17.05,25.74,40.63,28.12,7.67.77,15.75.38,22.84,2.99,4.85,1.79,11.07,7.56,11.57,12.06.47,4.23-4.82,11.37-9.22,13.24-7.56,3.21-16.39,4.48-24.72,4.47-10.67-.02-14.34-.28-16.17,4.64-2.59,6.95,2.22,14.65,9.43,15.63,26.38,3.59,63.67-7.49,78.06-24.56,3.35-3.97,5.83-8.09,7.51-12.21,3.86,5.93,9.1,11.25,15.97,15.78,16.07,10.58,42.42,11.11,56.91-8.5.03-.04,1.53-1.64,1.56-1.67,1.69-1.6,3.35-3.13,6.99-6.4,1.41,13.82,2.56,25.17,3.71,36.51,3.01,29.56,2.97,29.26,32.2,26.11,9.47-1.02,11.87-4.86,10.86-13.97-4.32-38.75-7.83-77.6-12.09-116.36Zm-53.23,63.9c-12.51,1.95-25.88-6.75-27.84-18.93-1-6.24-1.06-12.82-.32-19.11,1.67-14.18,9.51-21.22,22.19-21.02,13.31.21,18.27,5.36,20.13,20.93.29,2.47.51,4.96.76,7.44.02,0,.03,0,.05,0,.22,2.13.43,4.25.65,6.38,1.5,14.51-3.59,22.44-15.62,24.31Z"/>
      <path class="cls-2" d="m874.58,1026.04c-.48-6.08-2.82-8.63-8.98-7.95-8.17.9-16.37,1.67-24.58,2.11-6.41.35-7.93,3.61-7.34,9.46,1.21,11.93,2.35,23.89,2.8,35.87.25,6.73.04,13.78-1.71,20.21-2.06,7.58-8.35,11.55-16.32,11.68-8.15.13-12.54-4.7-14.1-12.27-.96-4.67-1.75-9.41-2.19-14.15-1.41-15.23-2.63-30.47-4.03-47.07-11.65.99-21.79,2.14-31.96,2.61-6.88.32-8.64,3.51-8.02,9.88,1.89,19.44,3.13,38.95,5.18,58.37,1.83,17.34,10.89,28.38,24.81,31.63,17.41,4.05,33.38-2.2,42.66-16.94,3.08-4.89,5.64-10.11,9.53-17.16,1.25,3.26,1.9,4.41,2.13,5.64,4.77,25.11,4.74,24.92,31.07,21.93,6.63-.75,8.87-3.32,8.26-9.85-2.59-27.98-5.02-55.98-7.22-83.99Z"/>
      <path class="cls-2" d="m1022.38,1075.52c-1.49-17.5-10.83-28.93-27.32-34-29.59-9.1-57.89-2.09-85.76,8.09-4.79,1.75-11.2,3.31-6.7,10.6,3.33,5.4,2.99,14.9,15.22,10.41,11.87-4.36,25.16-6.9,37.78-6.73,21.94.31,31.98,18.32,23.75,40.26-1.66-.76-3.61-1.15-4.85-2.31-13.13-12.16-28.85-12.17-44.96-9.44-14.4,2.44-26.73,14.73-27.7,26.77-1.34,16.54,5.57,28.39,20.64,34.47,17.02,6.86,52.84,6.67,62.77-34,1.23,3.09,2.24,6.62,3,10.6q3.87,20.08,24.12,18.35c1.85-.16,3.71-.52,5.55-.43,8.41.4,10.86-3.52,9.99-11.65-2.18-20.29-3.79-40.65-5.52-60.99Zm-65.1,61.98c-11.51-1.97-12.67-6.9-13.13-15.55-.45-8.56,3.51-14.66,12.6-17.12,12.27-3.31,21.41.56,26.99,11.49-7.37,4.47-18.06,22.62-26.46,21.18Z"/>
      <path class="cls-2" d="m1238.52,1057.04c5.38-1.36,10.82-2.59,9.15-10.42-2.63-12.38-7.34-23.38-17.63-31.56-23.42-18.61-48.23-15.58-73.07-4.27-26.65,12.14-40.73,40.67-34.43,67.49,7.11,30.22,31.06,49.28,62.04,47.98,16.61-.7,32.2-4.33,45.88-13,9.63-6.1,11.75-19.25,4.61-28.13l-.12-.15c-6.3,3.19-10.89,6.19-15.92,7.93-16.27,5.63-32.79,11.23-47.48-3.64-3.34-4.55-6.24-10.05-8.8-13.44,4.65-1.04,8.67-1.74,12.85-2.86,20.9-5.57,41.93-10.65,62.91-15.94Zm-79.15-6.38c4-17.33,11.84-24.23,27.27-23.98,12.17.2,20.06,9.64,22.91,28.52-12.91,3.3-25.12,6.64-37.44,9.51-10.5,2.45-15.29-3.01-12.74-14.06Z"/>
      <path class="cls-2" d="m1121.48,1015.18c-.74-3.34-1.93-8.98-3.57-9.23-3.46-.52-7.82,1.12-10.94,3.18-3.25,2.15-5.96,5.55-8.05,8.93-4.38,7.09-9.31,16.4-14.23,25.27-.92-3.45-1.79-6.97-2.19-8.74-1.93-8.48-1.01-21.36-6.09-24.42-6.6-3.98-17.9.34-27.17.18-10.64-.19-12.72,4.84-11.8,14.41,3,31.03,5.69,62.11,7.74,93.21.73,11.16,4.89,14.96,15.89,12.79,7.5-1.48,15.29-1.81,22.97-1.99,7.88-.19,10.58-3.49,9.78-11.36-1.77-17.32-3.05-34.69-4.24-52.06-.88-12.79,6.22-26.1,18.16-28.13,14.71-2.5,16.3-10.36,13.72-22.03Z"/>
    </g>
    <g id="white_Text" data-name="white Text">
      <path class="cls-7" d="m1036.4,891.03c-6.41,6.77-12.75,13.8-17.72,18.63-14.78,14.37-36.45,17.29-55.09,7.62-15.15-7.87-22.96-24.12-19.92-44.36,3.57-23.76,8.3-47.34,12.16-71.07,1.32-8.11,5.41-9.73,12.98-8.73,38.02,5.02,38.04,4.87,31.59,41.93-1.63,9.39-3.33,18.77-4.92,28.17-3.1,18.3.43,26.21,12.73,28.67,14.57,2.92,24.69-4.94,28.06-22.44,3.06-15.86,6.25-31.75,8.16-47.77,1.37-11.48,6-14.26,17.22-12.28,35.31,6.23,35.39,5.85,29.1,41.42-4.4,24.89-9.1,49.73-13.08,74.69-1.46,9.18-5.47,12.03-14.31,9.74-9.94-2.58-23.36-1.55-28.99-7.77-4.5-4.97.42-18.45,1.09-28.16.08-1.16.4-3.68.94-8.3Z"/>
      <path class="cls-7" d="m1143.8,895.22c.86,7.39,1.42,14.84,2.68,22.16,1.21,6.96-1.04,10.82-8.19,11.63-10.75,1.22-21.49,2.5-33.47,3.91-.87-3.81-1.95-7.11-2.35-10.5-3.82-31.9-7.18-63.86-11.46-95.69-1.31-9.72,1.78-13.12,11.08-13.47,8-.3,16.09-1.11,23.91-2.8,9.88-2.14,12.95,2.49,13.84,11.16,1.77,17.18,3.88,34.31,5.84,51.47,1.23,10.78,7.33,17.86,17.53,20.47,14.37,3.68,23.92-5.78,22.48-22.44-1.59-18.4-3.64-36.78-6.31-55.05-1.3-8.91,1.34-12.77,10.28-13.11,6.4-.24,12.78-1.28,19.17-2,16.6-1.88,16.78-1.91,18.72,14.14,2.64,21.92,5.5,43.84,7.29,65.83,1.61,19.75-6.93,32.5-25.31,40.62-15.52,6.86-35.55,2.79-47.52-9.98-5.18-5.52-9.84-11.52-14.74-17.31-1.15.32-2.31.64-3.46.96Z"/>
      <path class="cls-7" d="m961.22,940.38c-18.02,1.55-33.62,3.53-49.25,3.77-3.69.06-9.69-5.09-10.82-8.96-4.11-14.12-9.38-28.38-9.96-43.06-.92-22.87-25.53-27.29-40.83-21.19-3.15,1.25-.31,12.51-.16,16.59.61,15.73,2.27,31.43,3.97,47.09,1.1,10.16-.98,15.45-13.09,16.47-39.76,3.33-39.73,3.85-43.16-36.22-2.53-29.5-4.62-59.05-7.73-88.49-1.13-10.72,2.34-14.86,12.85-15.03,9.05-.14,18.14-1.01,27.11-2.29,10.1-1.44,13.85,2.87,14.14,12.52.28,9.41,1.78,20.93,2.54,29.82,30.98-1.46,27.42,1.31,34.63-22.34,1.39-4.56,2.94-9.1,3.91-13.76,1.71-8.22,6.4-12,14.89-12.38,11.37-.5,22.7-1.83,37.8-3.13-5.16,13.45-9.64,24.07-13.22,34.98-1.32,4.03-4.68,8.57-.43,12.71,14.05,13.72,19.59,27.45,24.4,43.63,4.59,15.46,7.95,31.29,12.42,49.26Z"/>
      <path class="cls-7" d="m562.97,931.1c.59-1.79.98-2.34.9-2.82-6.71-44.45-21.1-62.4-76.79-39.73-7.52,3.06-14.64,7.25-21.59,11.49-12.72,7.77-26.82,2.3-29.43-12.49-.53-3,2.68-7.86,5.55-10.06,32.38-24.75,69.08-39.08,109.69-41.63,37.2-2.34,58.05,15.51,67.2,53.57,5.69,23.68,12.38,47.13,21.32,69.78,6.03,15.27,3.03,22.34-11.12,24.58-2.13.34-4.18,1.21-6.27,1.84q-36.82,11.09-48.25-25.62c-7.5-24.1-21.27-29.97-43.75-18.6-10.4,5.26-15.56,13.55-13.44,25.31,2.04,11.33,8.62,18.04,20.4,20.33.05.01.11.02.16.03,9.45,1.94,12.89,14,5.99,20.74-1.07,1.04-2.22,1.88-3.5,2.41-12.3,5.1-25.71,9.67-38.83,10.17-19.55.75-39.4-10.14-45.03-38.86-4.12-21.03,8.43-42.61,30.62-51.83,25.59-10.64,32.21-10.53,76.17,1.37Z"/>
      <path class="cls-7" d="m679.31,842.56c25.57-29,74.08-31.02,103.86,3.76,37.41,43.7,27.4,101.89-23.45,128.81-16.54,8.76-34.53,14.93-52.23,21.22-3.82,1.36-11.12-.25-13.67-3.21-32.55-37.65-64.53-75.8-96.6-113.86-.57-.68-.46-1.94-1.11-5.05,13.94-5.8,27.97-12.82,42.79-17.05,4.28-1.22,12.46,4.28,16.11,8.88,20.85,26.29,40.88,53.23,61.19,79.95,8.8,11.59,16.92,12.39,26.37,1.2,4.21-4.98,7.93-11.72,8.67-18.03,2.52-21.56-7.2-38.48-20.07-55.68-4.22-5.64-7.85-6.21-16.12-6.06-21.38.39-26.86-12.91-35.73-24.88Z"/>
      <path class="cls-7" d="m666.1,1049.2c-15.95,4.74-27.8,8.26-40.94,12.17-13.4-43.39-6.18-30.57-27.68-30.46-5.53.03-9.01-12.34,1.67-16.22,13.85-5.03,28.09-9.33,42.49-12.34,3.89-.81,11.43.16,13.05,6.71,3.52,14.22,7,23.38,11.41,40.14Z"/>
      <path class="cls-7" d="m1063.72,1004.56c-14.26-2.84-24.87-4.95-36.62-7.29,7.34-39.01,7.7-26.16-8.98-34.84-4.29-2.23-1.94-13.22,7.91-11.86,12.76,1.76,25.52,4.24,37.88,7.79,3.33.96,8.77,4.79,7.35,10.51-3.08,12.43-4.12,20.93-7.55,35.69Z"/>
      <rect class="cls-7" x="1062.83" y="729.27" width="33.03" height="40.63" rx="4.84" ry="4.84" transform="translate(178.99 -207.61) rotate(11.97)"/>
      <path class="cls-7" d="m704.37,1071.26c-.24-13.11-6.64-12.75,10.93-14.36,30.5-2.8,24.54-6.35,27.79,22.17,4.42,39.77,8.07,79.63,12.56,119.4,1.05,9.35-1.41,13.29-11.12,14.35-29.98,3.26-29.95,3.57-33.07-26.76-1.2-11.64-2.4-23.28-3.86-37.46-3.73,3.36-5.44,4.93-7.17,6.58-.03.03-1.57,1.68-1.6,1.72-14.84,20.14-41.88,19.64-58.39,8.8-20.77-13.63-27.09-34.36-25.27-57.36,1.6-20.19,11.92-35.77,31.37-44.34,17.73-7.81,34.96-4.11,47.45,10.83,3.75,4.48,7.38,9.06,11.13,13.54-.73-6.15-.12-10.87-.75-17.09Zm-.5,41.93h-.05c-.26-2.54-.49-5.09-.79-7.63-1.92-15.98-7.02-21.25-20.68-21.45-13.01-.19-21.05,7.05-22.74,21.6-.75,6.45-.69,13.21.35,19.61,2.03,12.49,15.76,21.41,28.6,19.39,12.34-1.94,17.56-10.09,15.99-24.97-.23-2.18-.45-4.36-.67-6.54Z"/>
      <path class="cls-7" d="m840.36,1097.7c-3.98,7.24-6.61,12.6-9.76,17.62-9.5,15.14-25.89,21.57-43.76,17.44-14.3-3.31-23.6-14.63-25.51-32.42-2.13-19.93-3.44-39.94-5.4-59.89-.64-6.53,1.16-9.81,8.22-10.14,10.44-.5,20.84-1.69,32.79-2.72,1.46,17.03,2.73,32.67,4.2,48.3.46,4.87,1.27,9.73,2.26,14.52,1.61,7.77,6.12,12.72,14.48,12.57,8.18-.14,14.63-4.22,16.74-12,1.79-6.6,2-13.84,1.73-20.75-.48-12.29-1.66-24.56-2.92-36.8-.62-6.01.94-9.35,7.52-9.72,8.42-.47,16.83-1.26,25.22-2.2,6.32-.71,8.72,1.91,9.22,8.15,2.3,28.75,4.83,57.47,7.52,86.19.63,6.7-1.66,9.33-8.47,10.12-27.01,3.11-26.98,3.3-31.91-22.46-.24-1.26-.91-2.44-2.19-5.79Z"/>
      <path class="cls-7" d="m978.23,1094.6c-8.56,46.12-48.07,47.36-66.14,40.11-15.47-6.22-22.58-18.37-21.23-35.35.98-12.36,13.62-24.98,28.4-27.51,16.53-2.83,30.59-2.42,46.44,9.25,1.4,1.03,3,1.96,4.7,2.74,8.42-22.52-1.91-41-24.42-41.28-12.95-.16-26.58,2.47-38.76,6.95-12.55,4.62-12.2-5.12-15.63-10.66-4.63-7.47,1.95-9.08,6.86-10.88,28.59-10.49,57.62-17.71,88-8.41,16.93,5.18,26.53,16.9,28.08,34.86,1.8,20.87,3.48,41.76,5.74,62.58.91,8.34-1.61,12.37-10.23,11.97-1.89-.09-3.79.29-5.69.45q-20.78,1.8-24.77-18.8c-4.24-21.85-15.4-30.63-32.36-26.03-9.32,2.53-13.38,8.8-12.91,17.58.48,8.87.26,14.89,12.66,16.61,17.47,2.41,23.8-23.19,31.27-24.16Z"/>
      <path class="cls-7" d="m1235.47,1099.16c4.02,4.98,7.67,9.52,12.01,14.9-17.35,19.35-39.43,26.49-63.64,27.54-31.79,1.37-56.4-18.16-63.73-49.16-6.51-27.51,7.91-56.81,35.24-69.3,25.47-11.64,50.93-14.78,74.99,4.28,10.57,8.38,15.42,19.66,18.13,32.36,1.72,8.04-3.86,9.31-9.38,10.71-21.52,5.46-43.1,10.69-64.54,16.44-4.29,1.15-8.42,1.88-13.19,2.95,2.64,3.48,5.62,9.11,9.05,13.78,15.09,15.24,32.04,9.47,48.73,3.67,5.16-1.79,9.87-4.88,16.33-8.16Zm-26.11-30.53c-2.95-19.37-11.06-29.05-23.55-29.24-15.83-.24-23.87,6.85-27.95,24.64-2.6,11.34,2.32,16.94,13.09,14.41,12.63-2.97,25.16-6.41,38.41-9.81Z"/>
      <path class="cls-7" d="m536.27,1187.36c-7.4-1-12.34-8.89-9.69-16.02,1.88-5.06,5.65-4.79,16.59-4.79,8.55,0,17.61-1.31,25.36-4.62,4.52-1.92,9.94-9.25,9.45-13.6-.52-4.62-6.91-10.54-11.89-12.36-7.27-2.67-15.57-2.25-23.44-3.04-24.21-2.41-37.48-11.59-41.74-28.81-4.36-17.64,3.54-30.42,16-39.92,21.22-16.18,46.07-20.42,72.08-17.33,10.22,1.22,9.21,6.31,7.67,11.69-1.39,4.85-5.58,8.24-10.49,8.42-8.14.3-15.95.53-23.58,1.85-8.58,1.47-17.95,4.8-17.17,16.57.78,11.77,10.01,13.42,19.13,14.45,10.77,1.21,21.64,1.92,32.26,4.1,29.99,6.13,39.37,34.51,19.54,58.11-14.74,17.54-52.99,28.96-80.07,25.31Z"/>
      <path class="cls-7" d="m1078.94,1055.71c5.03-9.1,10.08-18.66,14.57-25.95,2.14-3.47,4.92-6.96,8.25-9.17,3.2-2.12,7.67-3.81,11.23-3.28,1.68.25,2.92,6.04,3.68,9.46,2.66,11.97,1.04,20.04-14.05,22.63-12.25,2.1-19.52,15.77-18.6,28.9,1.25,17.82,2.58,35.65,4.42,53.42.84,8.08-1.93,11.47-10.02,11.67-7.88.2-15.87.54-23.57,2.07-11.28,2.24-15.56-1.65-16.33-13.1-2.14-31.92-4.95-63.81-8.07-95.65-.96-9.81,1.17-14.98,12.09-14.8,9.51.16,21.1-4.29,27.88-.22,5.21,3.13,4.29,16.36,6.28,25.06.41,1.81,1.31,5.42,2.26,8.96Z"/>
    </g>
    <path class="cls-3" d="m1079.34,678.56s-63.62-17.56-82.68,37.45"/>
    <path class="cls-3" d="m1159.76,721.39s140.18-59.85,148.27,109.45"/>
    <path class="cls-3" d="m1322.23,1095.03s12.76,155.78-179.19,110.74"/>
    <path class="cls-3" d="m851.36,1203.04s41.8,71.96,132.38,22.47"/>
    <path class="cls-3" d="m633.14,1245.46s-160.28,98.13-192.09-85.73"/>
    <path class="cls-3" d="m477.33,773.33s-173.67-2.17-104.67,180.32"/>
  </g>
</svg>
