<?xml version="1.0" encoding="utf-8"?>
<svg viewBox="-0.01 0 578.03 174.28" preserveAspectRatio="none" xmlns="http://www.w3.org/2000/svg">
  <defs>
    <style>
      .cls-1 {
        fill: none;
      }

      .cls-2 {
        fill: #818181;
      }

      .cls-3 {
        fill: #dde03f;
      }
    </style>
  </defs>
  <g id="Layer_1-2" data-name="Layer 1">
    <g>
      <g>
        <path class="cls-3" d="m67.02,59.17c-1.89-5.52-5.28-10.24-10.06-14.1-2.49-1.91-5.2-3.42-8.13-4.46-3.98-1.37-7.98-2.06-12.03-2.06,0,0,0,0,0,0H9.72s-.06,0-.11,0c-.39,0-1.56.04-2.7.29l-1.02.3c-3.03.89-5.12,3.21-5.76,6.4-.04.31-.14,1.13-.14,2.12v112.93c0,4.4,3.1,8.08,7.23,8.97.11.02.22.04.33.06.18.03.35.06.53.08.37.04.75.07,1.14.07.09,0,.17-.01.26-.01.27,0,.54-.03.81-.06,4.55-.55,8.07-4.42,8.07-9.11v-27.68h18.41c4.05,0,8.06-.69,12.04-2.06,5.45-1.94,10.18-5.42,14.03-10.32,3.98-5.03,6.02-10.57,6.02-16.41v-32.28c0-4.74-.63-8.96-1.85-12.67Zm-16.49,44.42c0,1.85-.77,3.65-2.33,5.53-1.82,2.16-3.82,3.68-6.08,4.59-.35.14-2.59.84-11.05.84h-12.69v-57.64h12.69c8.46,0,10.7.7,11.05.84,2.25.91,4.24,2.41,6.05,4.55.01.01.02.02.04.04,1.56,1.88,2.33,3.68,2.33,5.53v35.72Z"/>
        <path class="cls-3" d="m392.8,47.46s0-.07,0-.1c0-.42-.05-.86-.12-1.31-.02-.12-.03-.24-.05-.36-.02-.09-.05-.19-.07-.28-.96-4.04-4.58-7.05-8.92-7.05h-16.15V8.83l-.02-.12c-.05-.93-.23-1.82-.53-2.65-.07-.2-.14-.39-.23-.58-1.42-3.23-4.64-5.48-8.4-5.48-.12,0-.24.01-.36.02-4.9.19-8.81,4.21-8.81,9.16v29.19h-3.34c-4.56,0-8.34,3.33-9.04,7.69-.08.48-.13.97-.13,1.48,0,.04,0,.08,0,.12.06,5.01,4.14,9.06,9.17,9.06h3.34v66.82c0,1.23.25,2.4.69,3.48,1.37,3.34,4.65,5.7,8.49,5.7.03,0,.06,0,.1,0,.03,0,.05,0,.08,0,.55,0,1.1-.07,1.64-.18.02,0,.03,0,.05,0,.13-.03.25-.06.37-.1.44-.11.86-.26,1.27-.43.04-.02.09-.03.13-.05.09-.04.2-.09.3-.14,3.1-1.47,5.24-4.62,5.24-8.28V56.71h16.15c4.28,0,7.87-2.94,8.88-6.91.06-.24.12-.49.16-.74.02-.11.04-.22.05-.33.05-.39.09-.79.09-1.19,0-.02,0-.03,0-.05,0-.01,0-.02,0-.03Z"/>
        <g>
          <path class="cls-1" d="m471.43,57.67c-1.61-.51-3.35-.79-5.11-.79-4.58,0-8.47,1.72-11.83,5.27-2.84,3.03-4.32,7.84-4.4,14.32,0,.04.03.07.07.07h32s.07-.03.07-.07v-2.55c0-2.91-.41-5.32-1.25-7.17-2.13-4.73-5.26-7.69-9.56-9.08Z"/>
          <path class="cls-3" d="m498,59.17c-3.08-6.74-7.78-12.03-13.88-15.69-5.45-3.27-11.54-4.94-18.06-4.94-5.95,0-11.3,1.29-15.92,3.78-5.37,2.96-9.78,6.97-13.13,11.92-3.51,5.17-5.26,10.73-5.26,16.55v34.87c0,3.04.52,5.94,1.51,8.69,1.22,3.42,3.18,6.61,5.91,9.54,4.9,5.26,10.89,8.21,17.78,8.79l.21.03,19.85.1h15.12l.58-.11.81-.15c4.25-1.02,7.36-4.98,7.05-9.61-.33-4.92-4.72-8.59-9.65-8.59h-31.53c-2.37,0-4.4-.93-6.36-2.91-1.96-1.95-2.94-5.13-2.94-9.42v-7.07s.03-.07.07-.07h42.57l.11-.03c4.13-.31,7.42-3.61,7.72-7.75h0c.03-.43.04-.83.04-.84v-6.68s-.01-7.28-.01-7.28c0-.94-.06-2.21-.1-2.87-.39-3.8-1.19-7.23-2.48-10.29Zm-15.77,17.3s-.03.07-.07.07h-32s-.07-.03-.07-.07c.07-6.48,1.55-11.29,4.4-14.32,3.36-3.55,7.25-5.27,11.83-5.27,1.75,0,3.5.28,5.11.79,4.3,1.4,7.43,4.35,9.56,9.08.84,1.85,1.25,4.26,1.25,7.17v2.55Z"/>
        </g>
        <path class="cls-3" d="m574.36,116.46s-.05-.03-.07-.05c-.18-.13-.35-.25-.54-.37-.03-.02-.06-.04-.09-.05-.9-.56-1.91-.97-2.99-1.18-.38-.09-.77-.16-1.2-.22-.92-.11-1.5-.2-1.86-.25h0s-.05,0-.08-.01c-.1-.01-.19-.06-.29-.09l-.31-.13c-.44-.18-.76-.37-1.01-.57-.48-.49-.78-1.16-.78-1.9h0V9.38c0-.24-.02-.48-.04-.72-.06-.74-.2-1.45-.42-2.13-.47-1.44-1.28-2.72-2.34-3.74-1.65-1.6-3.9-2.59-6.38-2.59-.12,0-.24.01-.35.02-4.9.19-8.83,4.21-8.83,9.16v99.4c0,6.38,1.49,11.58,4.41,15.4,3.53,4.65,8.31,7.48,13.96,8.39.88.14,1.79.23,2.7.29.34.04.68.06,1.03.06.04,0,.09,0,.13,0,.05,0,.09,0,.14,0h.58l.46-.11c4.43-.64,7.83-4.44,7.83-9.04,0-2.99-1.44-5.64-3.66-7.31Z"/>
        <path class="cls-3" d="m284.25,85.99l-.22-.15-35.31-17.27-.45-.27c-1.84-1.11-3.06-3.13-3.06-5.43,0-3.47,2.79-6.28,6.25-6.32.06,0,.11,0,.17,0,.02,0,.04,0,.05,0,7.4.09,15.57,1.98,24.23,5.59,1.5.66,3.08,1,4.77,1,1.33,0,2.38-.14,3.3-.48l.27-.08c.55-.22.92-.47.92-.47h0l.18-.14c1.64-1.16,3.73-3.39,4.27-7.3l.05-.39v-.37c0-3.44-1.66-6.38-4.66-8.03l-.22-.12-.22-.1c-1.44-.62-2.96-1.21-4.53-1.79h0s-8.9-3.71-19.69-5.09c-.03,0-.05-.01-.09-.02-3.84-.59-7.97-.58-7.97-.58h0c-.09,0-.17,0-.24,0-1.43,0-2.83.13-4.2.33-.14.01-.27.02-.41.04h0c-1.75.3-3.44.74-5.02,1.34-4.2,1.52-7.84,4.21-10.76,8.02-2.98,3.87-4.63,8.11-4.93,13.01v2.29c0,8.6,4.01,15.76,11.64,20.66l.28.16,35.14,17.21c1.4.57,2.54,1.6,3.27,2.9.12.21.25.41.35.64.01.02.02.05.03.07.12.29.2.6.28.9.11.5.18,1.08.18,1.79,0,.6-.1,1.18-.27,1.76-.04.13-.07.26-.12.38-.04.11-.1.23-.15.34-.05.12-.1.24-.16.36-.06.12-.13.25-.2.37-.11.19-.22.37-.35.55-1.04,1.42-2.64,2.42-4.47,2.66h0c-2.75.38-5.2.57-7.28.57-3.79,0-7.43-.37-10.88-1.11,0,0-.01,0-.02,0-5.17-.96-8.94-2.52-8.94-2.52,0,0,0,0,0,0-.33-.13-.82-.37-1.53-.77-.96-.56-1.85-1.01-2.67-1.36-1.32-.73-2.83-1.15-4.44-1.15-5.05,0-9.15,4.1-9.15,9.15,0,.11.01.22.02.33.12,3.33,2.01,6.21,4.76,7.71.02,0,.04.02.06.03,7.98,4.23,17.05,6.88,26.89,7.84l.26.04h.26c.61,0,1.5.05,2.68.16l.25.02h3.5c6.48,0,11.55-.84,15.48-2.52,8.53-3.63,13.58-10.54,14.63-20.01.16-.88.24-1.84.24-3.02,0-8.96-4.17-16.36-12.04-21.38Z"/>
        <g>
          <path class="cls-1" d="m130.77,99.57c-.99,1.71-1.49,3.44-1.49,5.24,0,2.29.82,4.35,2.5,6.31,1.63,1.88,3.41,2.94,5.54,3.26h24.12v-19.47h-23.49c-3.25.43-5.53,1.91-7.17,4.66Z"/>
          <path class="cls-3" d="m178.16,60c-1.82-5.82-5.28-10.9-10.32-15.02-5.17-4.27-10.97-6.43-17.2-6.43h-24.29c-.52,0-1.02.05-1.52.14-.81.14-1.59.38-2.31.71-2.56,1.18-4.49,3.51-5.12,6.33-.01.07-.03.14-.05.21-.04.18-.06.36-.08.54-.06.41-.1.83-.1,1.25,0,.01,0,.02,0,.03,0,.02,0,.04,0,.07,0,.14.02.28.03.42.01.17.01.34.04.52,0,.06.02.12.03.18.15,1.13.52,2.2,1.04,3.16,0,.02.01.03.02.05.04.08.09.17.14.25,1.6,2.69,4.53,4.5,7.88,4.5h23.07c2.71,0,5.44,1.3,8.41,3.99,2.39,2.14,3.6,6.15,3.6,11.89v3.77h-21.9c-10.82,0-19.44,4.79-24.88,13.88-2.6,4.31-3.91,9.08-3.91,14.22,0,7.1,2.45,13.44,7.28,18.85,4.78,5.35,10.82,8.45,17.88,9.18.23.02.52.04.87.06l34.79.18s.01,0,.02,0c0,0,.01,0,.02,0h.16s.04-.01.04-.01c4-.11,7.27-3.08,7.86-6.94.06-.4.1-.81.1-1.23v-52.88c0-4.46-.54-8.47-1.62-11.84Zm-16.72,54.37h-24.12c-2.13-.32-3.91-1.38-5.54-3.26-1.67-1.95-2.5-4.02-2.5-6.31,0-1.8.5-3.54,1.49-5.24,1.64-2.75,3.93-4.23,7.17-4.66h23.49v19.47Z"/>
        </g>
      </g>
      <g>
        <path class="cls-2" d="m119.82,152.68c.43.22.69.56.76,1.02.08.47-.05.89-.36,1.27-.22.3-.5.46-.83.5-.34.03-.69-.03-1.04-.2-.4-.18-.82-.32-1.26-.42-.44-.1-.9-.15-1.38-.15-.9,0-1.7.14-2.41.42-.71.28-1.31.69-1.81,1.21-.5.52-.88,1.14-1.13,1.86-.26.72-.39,1.5-.39,2.37,0,1.01.15,1.9.44,2.64.29.75.69,1.37,1.21,1.87.51.5,1.12.87,1.82,1.11s1.45.36,2.27.36c.45,0,.9-.04,1.35-.12.45-.08.88-.23,1.3-.45.35-.17.69-.22,1.04-.17.34.05.63.22.86.52.33.42.45.84.36,1.28-.09.44-.35.76-.76.96-.43.22-.88.39-1.33.54-.46.14-.92.25-1.38.32-.47.08-.94.11-1.42.11-1.2,0-2.33-.19-3.4-.57s-2.03-.95-2.87-1.7c-.84-.75-1.5-1.68-1.98-2.81-.48-1.12-.72-2.42-.72-3.9,0-1.28.22-2.46.66-3.54.44-1.08,1.06-2.01,1.87-2.8.81-.79,1.76-1.4,2.86-1.85,1.1-.44,2.29-.66,3.59-.66.73,0,1.45.08,2.14.25s1.36.41,1.97.72Z"/>
        <path class="cls-2" d="m125.11,169.29c-.43,0-.79-.15-1.07-.44-.28-.29-.42-.65-.42-1.08v-10.3c0-.43.14-.79.42-1.08.28-.29.64-.44,1.07-.44s.79.15,1.07.44c.28.29.42.65.42,1.08v2.34l-.17-1.67c.18-.4.42-.75.71-1.06.29-.31.62-.56.98-.77.37-.21.76-.36,1.17-.46.42-.1.83-.15,1.25-.15.5,0,.92.14,1.26.42.34.28.51.62.51,1,0,.55-.14.94-.42,1.18-.28.24-.59.36-.92.36s-.6-.06-.86-.17-.55-.17-.88-.17c-.3,0-.6.07-.91.21-.31.14-.59.36-.85.66-.26.3-.47.67-.62,1.11s-.24.96-.24,1.56v5.91c0,.43-.14.79-.42,1.08-.28.29-.64.44-1.07.44Z"/>
        <path class="cls-2" d="m140.67,169.54c-1.41,0-2.64-.29-3.68-.88s-1.84-1.39-2.39-2.41-.83-2.16-.83-3.44c0-1.5.3-2.77.91-3.83.61-1.06,1.4-1.87,2.38-2.43.98-.56,2.02-.85,3.12-.85.85,0,1.65.17,2.41.52.76.35,1.42.83,2.01,1.43.58.61,1.04,1.31,1.38,2.11s.51,1.65.51,2.54c-.02.4-.17.72-.47.97-.3.25-.65.37-1.05.37h-9.53l-.75-2.49h9.15l-.55.5v-.67c-.03-.48-.2-.91-.51-1.3-.31-.38-.69-.69-1.15-.91-.46-.22-.94-.34-1.46-.34s-.96.07-1.4.2c-.43.13-.81.36-1.12.67s-.57.74-.75,1.27c-.18.53-.27,1.21-.27,2.02,0,.9.19,1.66.56,2.28.37.62.86,1.1,1.45,1.42.59.32,1.22.49,1.88.49.62,0,1.11-.05,1.47-.15.37-.1.66-.22.88-.36.22-.14.43-.26.61-.36.3-.15.58-.22.85-.22.37,0,.67.12.91.37s.36.54.36.87c0,.45-.23.86-.7,1.22-.43.37-1.04.69-1.82.96s-1.59.41-2.42.41Z"/>
        <path class="cls-2" d="m160.49,155.7c.43,0,.79.14,1.07.42.28.28.42.65.42,1.1v10.55c0,.43-.14.79-.42,1.08-.28.29-.64.44-1.07.44s-.79-.15-1.07-.44c-.28-.29-.42-.65-.42-1.08v-1.22l.55.22c0,.22-.12.48-.35.79-.23.31-.55.61-.95.91-.4.3-.87.55-1.41.76-.54.21-1.13.31-1.76.31-1.15,0-2.19-.29-3.12-.88s-1.67-1.4-2.21-2.44c-.54-1.04-.81-2.23-.81-3.58s.27-2.56.81-3.6c.54-1.04,1.27-1.85,2.18-2.44.91-.59,1.93-.89,3.04-.89.71,0,1.37.11,1.97.32s1.12.49,1.56.82c.44.33.78.67,1.02,1.01.24.34.36.63.36.86l-.9.32v-1.82c0-.43.14-.79.42-1.08.28-.29.64-.44,1.07-.44Zm-5.04,11.1c.73,0,1.37-.18,1.92-.55.55-.37.98-.86,1.28-1.5s.46-1.34.46-2.12-.15-1.51-.46-2.14-.74-1.13-1.28-1.5c-.55-.37-1.19-.55-1.92-.55s-1.35.18-1.9.55c-.55.37-.98.86-1.28,1.5s-.46,1.35-.46,2.14.15,1.49.46,2.12.74,1.13,1.28,1.5c.55.37,1.18.55,1.9.55Z"/>
        <path class="cls-2" d="m166,156.2h5.91c.4,0,.73.13,1,.4.27.27.4.6.4,1s-.13.7-.4.96c-.27.26-.6.39-1,.39h-5.91c-.4,0-.73-.13-1-.4-.27-.27-.4-.6-.4-1s.13-.7.4-.96c.27-.26.6-.39,1-.39Zm2.67-3.12c.43,0,.79.15,1.06.44s.41.65.41,1.08v11.1c0,.23.04.42.14.57.09.15.22.26.37.32.16.07.33.1.51.1.2,0,.38-.04.55-.11.17-.08.36-.11.57-.11.23,0,.45.11.64.32.19.22.29.51.29.9,0,.47-.25.85-.76,1.15-.51.3-1.05.45-1.63.45-.35,0-.74-.03-1.16-.09-.42-.06-.82-.2-1.2-.42-.37-.22-.69-.57-.94-1.04-.25-.46-.37-1.11-.37-1.92v-11.22c0-.43.15-.79.44-1.08s.65-.44,1.08-.44Z"/>
        <path class="cls-2" d="m177.97,154.33c-.56,0-.96-.09-1.2-.27-.23-.18-.35-.51-.35-.97v-.47c0-.48.13-.81.39-.99.26-.17.65-.26,1.18-.26.58,0,.99.09,1.22.27.23.18.35.51.35.97v.47c0,.48-.12.81-.37.99-.25.17-.66.26-1.22.26Zm1.52,13.44c0,.43-.14.79-.42,1.08-.28.29-.64.44-1.07.44s-.79-.15-1.07-.44c-.28-.29-.42-.65-.42-1.08v-10.3c0-.43.14-.79.42-1.08.28-.29.64-.44,1.07-.44s.79.15,1.07.44c.28.29.42.65.42,1.08v10.3Z"/>
        <path class="cls-2" d="m183.78,155.95c.32,0,.61.08.87.24s.47.4.6.71l3.67,8.38-.55.25,3.74-8.6c.28-.66.72-.98,1.32-.95.42,0,.75.13,1.01.39s.39.58.39.96c0,.12-.02.24-.06.37-.04.13-.09.26-.14.37l-4.66,10.27c-.27.6-.69.91-1.27.95-.32.05-.62,0-.91-.17-.29-.17-.51-.42-.66-.77l-4.64-10.27c-.03-.08-.07-.19-.11-.32-.04-.13-.06-.29-.06-.47,0-.3.13-.59.4-.89.27-.29.62-.44,1.07-.44Z"/>
        <path class="cls-2" d="m203.85,169.54c-1.41,0-2.64-.29-3.68-.88s-1.84-1.39-2.39-2.41-.83-2.16-.83-3.44c0-1.5.3-2.77.91-3.83.61-1.06,1.4-1.87,2.38-2.43.98-.56,2.02-.85,3.12-.85.85,0,1.65.17,2.41.52.76.35,1.42.83,2.01,1.43.58.61,1.04,1.31,1.38,2.11s.51,1.65.51,2.54c-.02.4-.17.72-.47.97-.3.25-.65.37-1.05.37h-9.53l-.75-2.49h9.15l-.55.5v-.67c-.03-.48-.2-.91-.51-1.3-.31-.38-.69-.69-1.15-.91-.46-.22-.94-.34-1.46-.34s-.96.07-1.4.2c-.43.13-.81.36-1.12.67s-.57.74-.75,1.27c-.18.53-.27,1.21-.27,2.02,0,.9.19,1.66.56,2.28.37.62.86,1.1,1.45,1.42.59.32,1.22.49,1.88.49.62,0,1.11-.05,1.47-.15.37-.1.66-.22.88-.36.22-.14.43-.26.61-.36.3-.15.58-.22.85-.22.37,0,.67.12.91.37s.36.54.36.87c0,.45-.23.86-.7,1.22-.43.37-1.04.69-1.82.96s-1.59.41-2.42.41Z"/>
        <path class="cls-2" d="m227.29,155.7c1.16,0,2.21.3,3.13.89s1.65,1.4,2.19,2.43c.54,1.03.81,2.23.81,3.59s-.27,2.56-.81,3.6-1.26,1.85-2.17,2.44c-.91.59-1.92.88-3.05.88-.67,0-1.29-.11-1.87-.32-.58-.22-1.09-.49-1.53-.82s-.78-.67-1.02-1.01-.36-.63-.36-.86l.77-.32v6.56c0,.43-.14.79-.42,1.08-.28.29-.64.44-1.07.44s-.79-.14-1.07-.42-.42-.65-.42-1.1v-15.29c0-.43.14-.79.42-1.08.28-.29.64-.44,1.07-.44s.79.15,1.07.44c.28.29.42.65.42,1.08v1.22l-.42-.22c0-.22.12-.48.35-.79s.55-.62.95-.92c.4-.31.86-.56,1.38-.76.52-.2,1.08-.3,1.66-.3Zm-.37,2.74c-.73,0-1.37.18-1.92.55-.55.37-.98.86-1.28,1.48-.31.62-.46,1.33-.46,2.13s.15,1.49.46,2.13c.31.64.74,1.14,1.28,1.51.55.37,1.19.55,1.92.55s1.37-.18,1.91-.55c.54-.37.96-.87,1.27-1.51.31-.64.46-1.35.46-2.13s-.15-1.51-.46-2.13c-.31-.62-.73-1.12-1.27-1.48-.54-.37-1.18-.55-1.91-.55Z"/>
        <path class="cls-2" d="m242.7,169.54c-1.41,0-2.64-.29-3.68-.88s-1.84-1.39-2.39-2.41-.83-2.16-.83-3.44c0-1.5.3-2.77.91-3.83.61-1.06,1.4-1.87,2.38-2.43.98-.56,2.02-.85,3.12-.85.85,0,1.65.17,2.41.52.76.35,1.42.83,2.01,1.43.58.61,1.04,1.31,1.38,2.11s.51,1.65.51,2.54c-.02.4-.17.72-.47.97-.3.25-.65.37-1.05.37h-9.53l-.75-2.49h9.15l-.55.5v-.67c-.03-.48-.2-.91-.51-1.3-.31-.38-.69-.69-1.15-.91-.46-.22-.94-.34-1.46-.34s-.96.07-1.4.2c-.43.13-.81.36-1.12.67s-.57.74-.75,1.27c-.18.53-.27,1.21-.27,2.02,0,.9.19,1.66.56,2.28.37.62.86,1.1,1.45,1.42.59.32,1.22.49,1.88.49.62,0,1.11-.05,1.47-.15.37-.1.66-.22.88-.36.22-.14.43-.26.61-.36.3-.15.58-.22.85-.22.37,0,.67.12.91.37s.36.54.36.87c0,.45-.23.86-.7,1.22-.43.37-1.04.69-1.82.96s-1.59.41-2.42.41Z"/>
        <path class="cls-2" d="m253.12,169.29c-.43,0-.79-.15-1.07-.44-.28-.29-.42-.65-.42-1.08v-10.3c0-.43.14-.79.42-1.08.28-.29.64-.44,1.07-.44s.79.15,1.07.44c.28.29.42.65.42,1.08v2.34l-.17-1.67c.18-.4.42-.75.71-1.06.29-.31.62-.56.98-.77.37-.21.76-.36,1.17-.46.42-.1.83-.15,1.25-.15.5,0,.92.14,1.26.42.34.28.51.62.51,1,0,.55-.14.94-.42,1.18-.28.24-.59.36-.92.36s-.6-.06-.86-.17-.55-.17-.88-.17c-.3,0-.6.07-.91.21-.31.14-.59.36-.85.66-.26.3-.47.67-.62,1.11s-.24.96-.24,1.56v5.91c0,.43-.14.79-.42,1.08-.28.29-.64.44-1.07.44Z"/>
        <path class="cls-2" d="m262.3,167.22c-.17-.23-.24-.53-.22-.9.02-.37.23-.68.65-.95.27-.17.55-.24.85-.21.3.03.59.18.87.46.48.48.99.86,1.52,1.12.53.27,1.2.4,1.99.4.25-.02.52-.05.82-.11.3-.06.56-.19.79-.4s.34-.53.34-.96c0-.37-.12-.66-.37-.87s-.58-.4-.99-.55-.86-.29-1.36-.42c-.52-.15-1.04-.32-1.58-.5-.54-.18-1.03-.42-1.48-.71-.45-.29-.81-.68-1.1-1.16-.28-.48-.42-1.09-.42-1.82,0-.83.23-1.54.7-2.12.47-.58,1.07-1.03,1.81-1.35.74-.32,1.52-.47,2.33-.47.52,0,1.06.06,1.62.19.56.12,1.11.32,1.62.6.52.27.95.64,1.3,1.08.18.25.29.55.32.9.03.35-.12.67-.47.95-.25.2-.54.29-.87.26-.33-.03-.61-.14-.82-.34-.28-.37-.66-.66-1.13-.87-.47-.22-1.02-.32-1.63-.32-.25,0-.52.03-.81.09-.29.06-.54.18-.76.37-.22.19-.32.49-.32.91,0,.38.12.69.37.91s.59.41,1.01.55c.42.14.88.28,1.36.41.5.13,1,.29,1.52.47s.99.42,1.42.72c.43.3.78.69,1.05,1.16s.4,1.08.4,1.81c0,.85-.25,1.57-.75,2.17-.5.6-1.12,1.05-1.87,1.36s-1.51.46-2.29.46c-.98,0-1.96-.17-2.94-.51-.98-.34-1.79-.94-2.44-1.81Z"/>
        <path class="cls-2" d="m288.53,162.63c0,1.36-.3,2.56-.91,3.6-.61,1.04-1.42,1.85-2.44,2.43s-2.17.87-3.43.87-2.41-.29-3.43-.87-1.84-1.39-2.44-2.43c-.61-1.04-.91-2.24-.91-3.6s.3-2.56.91-3.6c.61-1.04,1.42-1.85,2.44-2.44s2.17-.89,3.43-.89,2.41.3,3.43.89,1.84,1.4,2.44,2.44c.61,1.04.91,2.24.91,3.6Zm-2.99,0c0-.85-.17-1.58-.51-2.21-.34-.62-.8-1.11-1.37-1.46s-1.21-.52-1.91-.52-1.33.17-1.91.52c-.57.35-1.03.83-1.37,1.46-.34.62-.51,1.36-.51,2.21s.17,1.56.51,2.18c.34.62.8,1.11,1.37,1.46.57.35,1.21.52,1.91.52s1.33-.17,1.91-.52c.57-.35,1.03-.83,1.37-1.46.34-.62.51-1.35.51-2.18Z"/>
        <path class="cls-2" d="m298.78,155.7c1.23,0,2.17.26,2.81.77.64.51,1.08,1.2,1.32,2.06.24.86.36,1.81.36,2.86v6.38c0,.43-.14.79-.42,1.08-.28.29-.64.44-1.07.44s-.79-.15-1.07-.44c-.28-.29-.42-.65-.42-1.08v-6.38c0-.55-.07-1.04-.21-1.48s-.39-.79-.76-1.06c-.37-.27-.89-.4-1.57-.4s-1.23.13-1.68.4c-.46.27-.8.62-1.05,1.06-.24.44-.36.93-.36,1.48v6.38c0,.43-.14.79-.42,1.08-.28.29-.64.44-1.07.44s-.79-.15-1.07-.44c-.28-.29-.42-.65-.42-1.08v-10.3c0-.43.14-.79.42-1.08.28-.29.64-.44,1.07-.44s.79.15,1.07.44c.28.29.42.65.42,1.08v1.07l-.37-.08c.15-.28.37-.59.65-.91.28-.32.61-.63,1-.91.38-.28.81-.51,1.3-.69s1.01-.26,1.57-.26Z"/>
        <path class="cls-2" d="m317.93,155.7c.43,0,.79.14,1.07.42.28.28.42.65.42,1.1v10.55c0,.43-.14.79-.42,1.08-.28.29-.64.44-1.07.44s-.79-.15-1.07-.44c-.28-.29-.42-.65-.42-1.08v-1.22l.55.22c0,.22-.12.48-.35.79-.23.31-.55.61-.95.91-.4.3-.87.55-1.41.76-.54.21-1.12.31-1.76.31-1.15,0-2.19-.29-3.12-.88-.93-.59-1.67-1.4-2.21-2.44-.54-1.04-.81-2.23-.81-3.58s.27-2.56.81-3.6c.54-1.04,1.27-1.85,2.18-2.44.91-.59,1.93-.89,3.04-.89.71,0,1.37.11,1.97.32.6.22,1.12.49,1.56.82.44.33.78.67,1.02,1.01s.36.63.36.86l-.9.32v-1.82c0-.43.14-.79.42-1.08.28-.29.64-.44,1.07-.44Zm-5.04,11.1c.73,0,1.37-.18,1.92-.55.55-.37.98-.86,1.28-1.5.31-.63.46-1.34.46-2.12s-.15-1.51-.46-2.14c-.31-.63-.73-1.13-1.28-1.5-.55-.37-1.19-.55-1.92-.55s-1.35.18-1.9.55c-.55.37-.98.86-1.28,1.5-.31.63-.46,1.35-.46,2.14s.15,1.49.46,2.12c.31.63.74,1.13,1.28,1.5.55.37,1.18.55,1.9.55Z"/>
        <path class="cls-2" d="m326.53,167.77c0,.43-.14.79-.44,1.08-.29.29-.65.44-1.08.44s-.77-.15-1.05-.44c-.28-.29-.42-.65-.42-1.08v-15.41c0-.43.15-.79.44-1.08.29-.29.65-.44,1.08-.44s.79.15,1.06.44c.27.29.41.65.41,1.08v15.41Z"/>
        <path class="cls-2" d="m344.06,155.7c.95,0,1.78.1,2.48.3.71.2,1.25.48,1.64.84s.59.79.59,1.28c0,.33-.1.64-.3.93-.2.29-.49.44-.87.44-.27,0-.49-.04-.66-.11-.18-.07-.33-.17-.46-.29-.13-.12-.29-.22-.47-.32-.17-.1-.42-.18-.76-.24-.34-.06-.6-.09-.76-.09-.85,0-1.57.18-2.16.55-.59.37-1.04.86-1.36,1.48-.32.62-.47,1.34-.47,2.16s.16,1.51.49,2.13c.32.62.77,1.12,1.35,1.48.57.37,1.23.55,1.98.55.42,0,.77-.03,1.07-.08s.55-.12.75-.22c.23-.13.44-.27.62-.42s.46-.22.82-.22c.43,0,.77.14,1,.41s.35.61.35,1.01-.23.79-.7,1.13c-.46.34-1.08.62-1.83.82-.76.21-1.58.31-2.46.31-1.31,0-2.45-.3-3.42-.91-.96-.61-1.71-1.43-2.23-2.48-.52-1.05-.79-2.22-.79-3.52,0-1.36.28-2.56.83-3.6s1.33-1.85,2.32-2.44c.99-.59,2.12-.89,3.4-.89Z"/>
        <path class="cls-2" d="m362.52,155.7c.43,0,.79.14,1.07.42.28.28.42.65.42,1.1v10.55c0,.43-.14.79-.42,1.08-.28.29-.64.44-1.07.44s-.79-.15-1.07-.44c-.28-.29-.42-.65-.42-1.08v-1.22l.55.22c0,.22-.12.48-.35.79-.23.31-.55.61-.95.91-.4.3-.87.55-1.41.76-.54.21-1.12.31-1.76.31-1.15,0-2.19-.29-3.12-.88-.93-.59-1.67-1.4-2.21-2.44-.54-1.04-.81-2.23-.81-3.58s.27-2.56.81-3.6c.54-1.04,1.27-1.85,2.18-2.44.91-.59,1.93-.89,3.04-.89.71,0,1.37.11,1.97.32.6.22,1.12.49,1.56.82.44.33.78.67,1.02,1.01s.36.63.36.86l-.9.32v-1.82c0-.43.14-.79.42-1.08.28-.29.64-.44,1.07-.44Zm-5.04,11.1c.73,0,1.37-.18,1.92-.55.55-.37.98-.86,1.28-1.5.31-.63.46-1.34.46-2.12s-.15-1.51-.46-2.14c-.31-.63-.73-1.13-1.28-1.5-.55-.37-1.19-.55-1.92-.55s-1.35.18-1.9.55c-.55.37-.98.86-1.28,1.5-.31.63-.46,1.35-.46,2.14s.15,1.49.46,2.12c.31.63.74,1.13,1.28,1.5.55.37,1.18.55,1.9.55Z"/>
        <path class="cls-2" d="m369.37,169.29c-.43,0-.79-.15-1.07-.44-.28-.29-.42-.65-.42-1.08v-10.3c0-.43.14-.79.42-1.08.28-.29.64-.44,1.07-.44s.79.15,1.07.44c.28.29.42.65.42,1.08v2.34l-.18-1.67c.18-.4.42-.75.71-1.06s.62-.56.98-.77c.37-.21.76-.36,1.17-.46.42-.1.83-.15,1.25-.15.5,0,.92.14,1.26.42.34.28.51.62.51,1,0,.55-.14.94-.42,1.18-.28.24-.59.36-.92.36s-.6-.06-.86-.17-.55-.17-.88-.17c-.3,0-.6.07-.91.21-.31.14-.59.36-.85.66-.26.3-.46.67-.62,1.11s-.24.96-.24,1.56v5.91c0,.43-.14.79-.42,1.08-.28.29-.64.44-1.07.44Z"/>
        <path class="cls-2" d="m384.93,169.54c-1.41,0-2.64-.29-3.68-.88s-1.84-1.39-2.39-2.41-.83-2.16-.83-3.44c0-1.5.3-2.77.91-3.83.61-1.06,1.4-1.87,2.38-2.43.98-.56,2.02-.85,3.12-.85.85,0,1.65.17,2.41.52.76.35,1.42.83,2.01,1.43.58.61,1.04,1.31,1.38,2.11.34.8.51,1.65.51,2.54-.02.4-.18.72-.47.97-.3.25-.65.37-1.05.37h-9.53l-.75-2.49h9.15l-.55.5v-.67c-.04-.48-.21-.91-.51-1.3-.31-.38-.69-.69-1.15-.91-.46-.22-.95-.34-1.46-.34s-.96.07-1.4.2c-.43.13-.81.36-1.12.67-.32.32-.56.74-.75,1.27s-.27,1.21-.27,2.02c0,.9.19,1.66.56,2.28.38.62.86,1.1,1.45,1.42.59.32,1.22.49,1.88.49.62,0,1.11-.05,1.47-.15.37-.1.66-.22.88-.36.22-.14.43-.26.61-.36.3-.15.58-.22.85-.22.37,0,.67.12.91.37.24.25.36.54.36.87,0,.45-.23.86-.7,1.22-.43.37-1.04.69-1.82.96s-1.59.41-2.42.41Z"/>
        <path class="cls-2" d="m408.37,155.7c1.16,0,2.21.3,3.13.89.92.59,1.65,1.4,2.2,2.43.54,1.03.81,2.23.81,3.59s-.27,2.56-.81,3.6c-.54,1.04-1.26,1.85-2.17,2.44s-1.92.88-3.05.88c-.66,0-1.29-.11-1.87-.32-.58-.22-1.09-.49-1.54-.82-.44-.33-.78-.67-1.02-1.01-.24-.34-.36-.63-.36-.86l.77-.32v1.82c0,.43-.14.79-.42,1.08-.28.29-.64.44-1.07.44s-.79-.14-1.07-.42c-.28-.28-.42-.65-.42-1.1v-15.66c0-.43.14-.79.42-1.08.28-.29.64-.44,1.07-.44s.79.15,1.07.44c.28.29.42.65.42,1.08v6.33l-.42-.22c0-.22.12-.48.35-.79s.55-.62.95-.92c.4-.31.86-.56,1.38-.76.52-.2,1.08-.3,1.66-.3Zm-.37,2.74c-.73,0-1.37.18-1.92.55-.55.37-.98.86-1.28,1.48-.31.62-.46,1.33-.46,2.13s.15,1.49.46,2.13c.31.64.74,1.14,1.28,1.51.55.37,1.19.55,1.92.55s1.37-.18,1.91-.55c.54-.37.96-.87,1.27-1.51.31-.64.46-1.35.46-2.13s-.15-1.51-.46-2.13c-.31-.62-.73-1.12-1.27-1.48-.54-.37-1.18-.55-1.91-.55Z"/>
        <path class="cls-2" d="m427.52,155.95c.43,0,.79.15,1.07.44.28.29.42.65.42,1.08v10.6c0,1.53-.29,2.75-.86,3.65-.57.91-1.34,1.56-2.31,1.96-.96.4-2.04.6-3.24.6-.53,0-1.1-.04-1.7-.12-.6-.08-1.09-.21-1.47-.37-.5-.22-.84-.49-1.04-.81s-.23-.67-.11-1.03c.15-.48.39-.81.72-.99.33-.17.68-.2,1.05-.06.27.08.62.21,1.05.39s.93.26,1.5.26c.76,0,1.4-.1,1.91-.31.51-.21.89-.56,1.15-1.05s.39-1.16.39-2.01v-1.67l.52.6c-.28.55-.64,1-1.06,1.36s-.93.63-1.51.81c-.58.18-1.25.27-1.99.27-.88,0-1.65-.2-2.31-.61-.66-.41-1.17-.97-1.54-1.7-.37-.72-.55-1.55-.55-2.48v-7.28c0-.43.14-.79.42-1.08.28-.29.64-.44,1.07-.44s.79.15,1.07.44c.28.29.42.65.42,1.08v6.38c0,1.08.24,1.84.71,2.28.47.44,1.13.66,1.98.66.58,0,1.07-.11,1.47-.34.4-.22.71-.56.92-1s.32-.98.32-1.61v-6.38c0-.43.14-.79.42-1.08.28-.29.64-.44,1.07-.44Z"/>
        <path class="cls-2" d="m441.34,169.41c-.37,0-.68-.14-.95-.41-.27-.27-.4-.58-.4-.91,0-.37.12-.71.38-1.02l5.06-6.86,1.65,2.42-4.49,6.08c-.33.46-.75.7-1.25.7Zm.22-17.65c.48,0,.89.22,1.22.65l10.97,14.59c.2.27.3.57.3.92,0,.46-.17.83-.5,1.1-.33.27-.66.4-1,.4-.48,0-.89-.22-1.22-.65l-10.97-14.59c-.22-.27-.32-.57-.32-.9,0-.43.16-.79.49-1.08s.67-.44,1.04-.44Zm11.12.05c.38,0,.71.15.98.45.27.3.41.62.41.95,0,.32-.11.62-.32.9l-5.01,6.61-1.7-2.32,4.41-5.86c.35-.48.76-.72,1.22-.72Z"/>
        <path class="cls-2" d="m465.95,160.44l-.05-.57c.63.28,1.18.65,1.65,1.1.46.45.82.94,1.07,1.47.25.53.37,1.08.37,1.65,0,.95-.26,1.82-.79,2.61-.52.79-1.23,1.42-2.11,1.89s-1.86.71-2.94.71-2.06-.24-2.94-.71-1.58-1.11-2.11-1.89c-.52-.79-.79-1.66-.79-2.61,0-.76.16-1.42.49-1.98.32-.56.73-1.03,1.22-1.41s.98-.7,1.46-.95l-.2.7c-.42-.17-.82-.4-1.21-.71s-.71-.7-.96-1.18c-.25-.48-.38-1.05-.38-1.7,0-.93.24-1.77.72-2.53.48-.76,1.13-1.36,1.96-1.81.82-.45,1.73-.67,2.73-.67s1.92.22,2.73.67c.8.45,1.45,1.05,1.93,1.81.48.76.72,1.6.72,2.53,0,.71-.14,1.31-.42,1.79-.28.48-.62.86-1.02,1.15-.4.28-.78.5-1.15.65Zm-2.79,6.11c.8,0,1.47-.25,2.02-.74s.82-1.08.82-1.78c0-.48-.12-.91-.37-1.3-.25-.38-.59-.69-1.02-.91-.43-.22-.91-.34-1.45-.34s-1.02.11-1.45.34c-.43.22-.77.53-1.02.91-.25.38-.38.81-.38,1.3,0,.7.28,1.29.82,1.78.55.49,1.22.74,2.02.74Zm-2.42-9.65c0,.45.1.85.31,1.2.21.35.49.63.86.84s.78.31,1.25.31.88-.1,1.23-.31.64-.49.85-.84c.21-.35.31-.75.31-1.2,0-.67-.23-1.22-.69-1.66s-1.03-.66-1.71-.66-1.28.22-1.73.66-.69.99-.69,1.66Z"/>
      </g>
    </g>
  </g>
</svg>
