<?xml version="1.0" encoding="utf-8"?>
<svg viewBox="-0.001 0.029 332.69 390.871" preserveAspectRatio="none" xmlns="http://www.w3.org/2000/svg">
  <defs>
    <style>
      .cls-1 {
        fill: #f5e6cf;
      }

      .cls-2 {
        fill: #fdfcfc;
      }

      .cls-3 {
        fill: #3f2b1e;
      }
    </style>
  </defs>
  <g id="Layer_1-2" data-name="Layer 1">
    <g>
      <path class="cls-3" d="m264.97,216.34c-5.18,0-10.44-.56-15.52.15-5.73.79-11.69.64-17.12,3.25-4.34,2.09-6.97,5.72-8.97,9.82-2.96,6.07-3.16,12.74-4.06,19.32-1.47,10.78-.37,21.59-1.11,32.36-.58,8.46-3.1,15.88-10.94,20.58-1.97,1.18-1.31,3.93-1.96,5.9-.86,2.6-1.59,5.24-2.61,7.81-.46,1.17-.95,2.39-2.13,1.83-.82-.39-1.83-1.82-1.2-3.06,1.38-2.68.5-5.56.99-8.31.26-1.49-1.06-2.23-1.94-3.03-4.8-4.31-7.96-9.5-6.52-16.04.72-3.29.56-6.7,1.88-9.93,1.58-3.87-1.28-8.15-5.77-9.54-3.09-.95-6.11-2.1-8.94-3.67-4.07-2.25-4.17-3.96-1.21-7.55,4.74-5.75,9.55-11.57,12.2-18.62,1.21-3.22,1.89-6.55-.56-10.28-4.49-6.82-4.75-14.48-3.04-22.55,2.51-11.85,10-19.63,19.28-26.38,3.36-2.45,6.07-.33,8.78.82,3.02,1.29,5.47,3.58,7.76,6.02,3.5,3.72,6.33,3.95,10.59,1.14,7.13-4.71,14.28-9.42,20.91-14.83,3.99-3.25,8.87-5.12,13.54-4.81,9.94.67,18.97,4.24,25.81,12.14,3.75,4.33,7.87,8.34,11.84,12.49.39.41.79.98,1.28,1.1,3.69.88,1.88,3.39,1.01,4.75-2.89,4.52-6.47,8.46-10.76,11.8-3.87,3.02-8.07,5.19-12.7,6.72-1.6.53-3.2.42-4.8.45-4.67.07-9.34.03-14.01.03v.12Zm-47.7-5.03v-8.92c-.84.85-1.91.22-2.77,1.14-2.92,3.16-1.88,8.33,2.65,11.5-.04.83.21,1.42,1.18,1.17,1.27-.31.05-.82.06-1.23l-.05-1.19c.02-.99.34-2.11-1.08-2.48Zm1.7,9.33c-.59-.53-.87-.78-1.15-1.04-.35-.33-.65-.72-1.03-1.01-5.64-4.36-8.21-9.68-5.73-16.87,1-2.89,3.89-4.48,6.85-4.07,3.57.49,5.24,3.3,7.6,5.27.73.61.71,1.45,1.8.21,3.23-3.68,6.7-7.15,10.07-10.71.42-.44.94-1,.49-1.58-.57-.74-1.51-.3-1.89.1-1.54,1.62-3.67,2.37-5.32,3.77-1.82,1.55-2.91,2.06-5.14-.2-5.25-5.34-12.31-5.69-17.35,1.15-2.87,3.89-3.79,8.54-3.59,13.35.36,8.76,8.11,13.04,14.41,11.64Z"/>
      <path class="cls-3" d="m224.65,143.1c6.37-.82,11.13-4.7,15.62-8.73,4.41-3.95,8.33-8.45,11.61-13.44,1-1.53,2.21-3.12-1.13-3.61-2.17-.32-3.67-2.28-5.08-3.77-2.32-2.45-5.44-4.03-6.78-7.7-1.09-2.98-.24-5.23.99-7.27,3.48-5.75,1.04-8.43-4.11-10.47-1.68-.66-3.3-1.48-4.9-2.33-2.64-1.41-5.36-1.62-8.35-1.35-4.41.4-7.86-2.73-11.82-4.05-1.58-.53-3.05-.68-4.61-.87-5.71-.71-11.5-1.65-16.71-3.91-5.07-2.2-6.39-7.19-3.46-13.28,3.61-7.5,7.07-15.07,10.49-22.66.34-.74.87-1.27,1.21-1.95,1.26-2.52,1.93-4.9.12-7.65-3.08-4.69-.22-9.08,1.59-13.22,1.21-2.77,2.21-5.77,4.45-8.08,2.75-2.83,5.83-4.7,9.91-4.86,5.49-.22,10.72.74,16.01,2.24,2.69.77,5.73,1.07,8.39,1.9,6.39,2,8.24,7.65,5.47,13.77-.93,2.05-1.5,4.37-3.12,6.07-1.53,1.59-3.03,3.21-5.61,3.08-1.62-.08-4.3,3.49-4.18,5.14.07.96.71.84,1.28.81,6.74-.35,12.28,3.16,18.16,5.58,4.39,1.8,8.77,3.62,13.12,5.51,2.2.95,4.17,2.28,5.2,4.57.29.65.34,1.39,1.28,1.42,4.59.16,7.44,3.58,10.89,5.86,3.29,2.17,6.91,4.09,7.56,8.6.01.07.13.13.2.19,3.14,2.39,6.08,6.17,9.31,7.06,7.6,2.11,11.44,7.86,16.08,13.04,1,1.11,1.92,2.05,3.61,1.84,1.98-.25,3.33,1.1,4.55,2.34,2.8,2.84,5.54,5.75,8.19,8.73,4.6,5.18,2.74,11.19-2.63,14.48-2.67,1.64-5.04,3.25-7.03,6.06-3.11,4.4-7.69,7.6-13.67,7.47-1.3-.03-2.35.18-3.49,1.07-2.96,2.33-9.37,2.47-12.68-1.44-1.23-1.45-2.71-2.67-3.78-4.28-2.43-3.66-5.41-6.03-10.29-5.17-2.11.37-3.68-1.41-5.04-2.99-4.95-5.78-7.07-5.86-12.28-.49-.85.87-.46,1.94-.35,2.84.69,5.58.03,11.07-1.55,16.35-2.12,7.1-5.58,13.63-9.92,19.65-4.48,6.21-10.14,11.36-15.62,16.66-1.9,1.84-4.39,2.96-6.27,4.92-.95.99-2.96,1.02-3.98.15-1.3-1.11-1.03-3.15-.52-4.59,2.08-5.97,4.17-11.93,5.15-18.21,0-.06.17-.1.25-.16,1.6-.46,3.32-.72,4.28-2.36.4-.06.79-.13,1.19-.19,1.2-.79,2.83-.9,3.63-2.32,6.76-3.64,12.32-8.73,16.8-14.85,1.26-1.73,2.56-4.42,1.09-7.12-.35.22-.56.28-.66.42-5.13,7.34-11.61,13.17-19.45,17.52-.88.49-2.36.1-2.61,1.61-.42.07-.83.13-1.25.2-.75-.12-1.35-.03-1.32.94l-.28-.02s-.26.11-.26.11c-1.5.13-3.23-.58-4.27,1.19-.4.02-.8.04-1.2.06-2.45-.31-5.1.61-7.28-1.26,0,0-.01-.01-.01-.01.03-.77.07-1.55.1-2.32,0,0-.01.02-.01.02,1.02.18,1.57-.35,1.87-1.25.57-.04,1.14-.07,1.71-.11,2.08-.22,4.44,1.01,6.17-1.13Zm31.6-45.2c2.94.46,4.76,2.83,7.14,4.25,1.17.7,1.83,1.12,2.98-.14,1.91-2.09,4.12-3.9,6.2-5.84,5.03-4.69,10.02-9.42,15.1-14.06,1.61-1.47,1.41-2.46-.33-3.53-2.14-1.32-4.4-2.52-6.26-4.16-1.3-1.15-1.8-.8-2.8.18-3.71,3.68-7.44,7.33-11.3,10.85-1.21,1.1-2.43,2.18-3.57,3.36-.98,1.02-2.26.97-3.24.17-.43-.35-.03-1.26.63-1.79,5.89-4.75,10.96-10.37,16.5-15.49,1.34-1.24,1.85-1.86-.03-3.4-1.77-1.45-3.91-2.37-5.51-4.14-.73-.82-2.18-.88-3.64.45-6.29,5.74-12.51,11.56-18.65,17.45-2.37,2.27-2.51,3.95-.16,6.07.97.88,1.74,1.98,3.03,2.58,3.04,1.41,4.81,3.65,3.97,7.25-1.75-.6-3.36-3.29-5.32-.23-1.15,1.8-1.11,4.28-3.19,5.58-.25.16.29.56.54.85,4.5,5.33,6.12,5.49,11.26,1.03.21-.18.27-.62.49-.72,1.93-.85,1.01-1.81.08-2.66-1.37-1.24-3.15-2.07-3.92-3.92Zm-19.59-32.49c-.73-.75-1.88-.79-2.65-1.03-2.86-.89-2.38-2.13-1-3.92,1.3-1.69,2.66-3.37,3.65-5.24.7-1.33,1.72-1.6,2.68-1.1,1.55.81,3.25,1.17,4.81,2.02,1.65.9,1.4,1.59.65,2.7-3.53,5.19-6.84,10.56-10.72,15.46-2.03,2.57-.57,3.16,1.19,3.97,1.56.72,3.46.87,4.81,1.83,2.38,1.7,3.8.97,5.23-1.13,4.52-6.65,8.92-13.39,13.73-19.82,1.76-2.36.63-3.15-1.1-3.79-7.45-2.77-14.41-6.71-22.09-8.95-4.23-1.23-6.52-.59-8.97,3.02-3.93,5.79-7.96,11.5-12.08,17.16-3.24,4.45-3.33,4.39,1.24,6.66,6.07,3.02,6.01,2.98,9.93-2.79.79-1.17,1.66-2.83,3.9-1.04,2.11,1.69,4.26.76,5.58-1.64.42-.75.79-1.53,1.22-2.36Zm-20.02-52.99c-4.44-.35-6.16,1.54-7.67,4.67-.6,1.26-1.15,2.71-1.67,4.07-1.9,4.95-2.09,5.04,1.9,8.32,1.44,1.18.81,2.33.43,3.16-5.12,11.11-10.32,22.19-15.65,33.2-.78,1.61-.42,2.47.96,2.51,3.04.09,5.76,1.68,8.79,1.66.98,0,1.97.24,2.45-1.1.76-2.09,1.62-4.16,2.58-6.17,4.47-9.39,8.41-19.01,13.05-28.33.77-1.55,1.92-3.18,1.77-5.23-.18-2.33-1.96-2.95-3.54-3.8-1.6-.86-.55-1.97-.31-2.93.31-1.3.77-2.88,2.49-2.59,2.89.48,5.75,1.22,8.6,1.95,1.25.32,2.56,1.08,3.38-.49,2.06-3.96,1.97-4.07-2.28-5.31-.29-.08-.54-.3-.83-.37-4.79-1.16-9.52-2.65-14.44-3.22Zm96.07,104.82c.58-.57-2.31-1.08-.59-2.14,3.36-2.06,6.63-4.28,10.1-6.13,1.53-.82,1.38-1.46.5-2.39-2.07-2.19-4.27-4.27-6.31-6.49-.71-.77-.84-1.04-2.02-.33-3.2,1.93-6.5,3.72-9.51,5.95-1.12.82-2.71,1.27-3.18.27-1.03-2.14-4.16-2.74-3.95-5.61.05-.65.59-.9,1.16-1.22,2.15-1.19,4.23-2.53,6.36-3.78,1.17-.69,1.51-1.41.37-2.47-.63-.58-1.12-1.31-1.7-1.95-1.58-1.73-2.9-4.29-4.84-4.92-2.07-.67-3.99,1.82-5.87,3.11-.08.06-.2.05-.28.11-6.72,4.09-13.4,8.23-20.17,12.23-1.91,1.13-1.76,2.2-.44,3.54,1.74,1.76,3.55,3.45,5.24,5.25.96,1.02,1.66,1.3,2.98.37,3.07-2.17,6.35-4.02,9.62-5.88,1.1-.63,1.93-.93,2.41-.05,1.1,2.03,4.32,2.61,3.84,5.66-.1.6-.58.7-1.03.93-1.54.78-2.99,1.74-4.56,2.45-1.75.78-1.5,1.68-.21,2.5,1.85,1.17,3.02,2.97,4.41,4.54,2.82,3.17,2.75,3.22,6.32.7.78-.55,1.58-1.09,2.4-1.57,1.18-.68,2.37-1.07,3.47.21.38.45.59,1.39,1.53.38,1.06-1.13,3.01-1.19,3.96-3.28Z"/>
      <path class="cls-3" d="m112.25,274.71c0-8.35.51-16.51-.16-24.57-.53-6.33-1.28-12.81-4.39-18.68-2.98-5.65-7.83-7.78-13.52-5.06-2.15,1.03-4.43,1.17-6.55,1.72-8.47,2.2-17.17,1.9-25.7.11-7.58-1.59-14.56-4.78-20.1-10.33-4.31-4.33-7.48-9.52-10-15.13-2.26-5.04-3.1-10.45-4.59-15.7-.29-1.01-.17-1.93.95-2.82,6.34-5.02,13.02-9.35,20.71-12.08,4.07-1.45,8.08-2.51,12.44-2.33,10.81.46,20.24,4.6,29.05,10.54,2.68,1.81,5.15,3.84,7.62,5.94,3.09,2.64,9.81.21,11.75-3.99.68-1.47,1.37-2.9,2.23-4.29,2.77-4.49,4.36-5.6,9.25-4.35,4.76,1.22,9.22,3.31,12.72,7.06,1.95,2.09,2.13,4.61,1.38,6.88-.92,2.79-2.22,5.6-4.31,7.79-2.15,2.26-3.21,4.76-2.9,7.9.15,1.51.09,3.05-.02,4.57-.19,2.51,1.1,3.44,3.39,3.43,4-.02,7.91.42,11.42,2.55,3.42,2.07,4.99,5.39,6.1,9.08,2.69,8.98-2.62,15.2-7.64,21.24-8.79,10.57-18.31,20.5-28.02,30.24-.11.11-.36.1-1.1.28Zm-3.57-57.32c3.31-3.99,5.78-8.25,4.98-13.77-.44-3.01-3.68-5.34-6.46-4.16-2.44,1.03-5.05,1.87-7.04,3.72-1.09,1.01-1.61.95-2.82-.11-4.51-3.94-9.29-7.57-13.86-11.44-.82-.7-1.56-1.85-2.5-1.08-.79.65-.37,1.73.38,2.82,4.78,7,11.72,12.1,16.6,19.01.34.48.89,1.94,1.97,1.27.66-.41,1.21-1.42,1.3-2.22.37-3.18,2.6-4.84,4.86-6.61,1.71-1.34,3.01-.7,4.45.38,1.5,1.13,1.59,2.62.51,3.76-2.34,2.48-2.25,5.46-2.31,8.48-2.04.32-1.37-2.69-3.22-2.62-1.32,4.58-.47,5.56,4.1,4.68.13-.9-1.72-.96-.95-2.12Z"/>
      <path class="cls-3" d="m138.03,25.88c3.17.75,6.44-.91,9.86-.87,1.43.02,2.11-1.14,3.06-1.75,1.86-1.18,3.67-1.98,5.9-2.13,3.3-.23,6.59.12,9.91-.87,4.16-1.24,9.99,3.26,10.18,7.61.13,2.99.43,6.08-.78,8.98-.21.5-.16.79.12,1.32,3.58,6.74,2.28,13.02-2,18.92-.57.78-.83,1.47-.89,2.41-.36,5.54-3.89,8.83-9.42,9.1-3.33.16-6.68-.2-9.99.89-1.4.46-2.12.75-2.98,2.18-1.47,2.44-3.94,4.37-7.1,4.24-3.97-.17-7.82.6-11.61,1.38-2.62.54-4.92,2.36-7.74,2.88-3.48.64-6.85,1.87-10.26,2.83-.19.05-.44.08-.6,0-4.4-2.39-7.61.88-11.36,2.12-2.64.87-3.73,2.58-5.15,4.53-2.3,3.13-6.14,4.18-9.48,5.57-2.75,1.14-4.77,2.98-6.99,4.66-2.65,2.01-4.85,5.1-7.8,6.15-4.63,1.65-7.06,5.52-10.54,8.28-2.11,1.67-4.69,2.84-6.5,4.6-1.77,1.73-2.26,4.72-4.13,6.81-2.47,2.77-4.91,5.56-7.6,8.11-3.53,3.35-9.52,2.71-12.61-1.1-6.88-8.48-13.27-17.31-19.89-25.99-2.74-3.6-3.04-7.4-.56-10.87,3.13-4.39,6.57-8.63,11.13-11.74,1.2-.82,2.22-1.58,2.86-3.16,1.68-4.12,5.87-5.88,9.08-8.55,1.88-1.57,3.56-3.59,6.28-4,.59-.09,1.18-.83,1.1-1.66-.37-4.01,2.33-6.13,5.05-8.25,2.65-2.07,5.28-4.15,7.91-6.24,3.37-2.68,6.88-2.25,10.23-.18,1.28.79,1.72,1,2.65-.37,3.02-4.49,7.86-6.48,12.52-8.66,5.2-2.44,10.39-4.91,15.62-7.27.88-.39.87-.64.71-1.51-1.17-6.41-3.33-12.83-.81-19.34,1.9-4.93,5.8-7.98,10.63-9.61,5.38-1.82,10.9-3.26,16.38-4.78,5.61-1.56,10.81.47,12.83,4.9,2.71,5.92,1.32,12.53-3.6,17.2-.69.65-1.31,1.43-.63,2.37.49.67.88,1.56,2.13,1.32,1.48-.29,3.03-.29,4.86-.44Zm-79.28,58.7c.27-.05.54-.11.81-.16,1.61,4.92,5.09,8.91,6.72,13.84.38,1.16,1.28,1.03,2.24.01,1.31-1.39,2.87-2.6,4.46-3.68,3.55-2.41,3.47-2.31,1.81-6.09-.43-.97-1.02-1.83-1.48-2.76-4.03-8.11-8.16-16.18-12.36-24.2-.63-1.2-1.67-2.17-3.27-.72-1.99,1.81-4.1,3.51-6.31,5.04-.97.67-1.23,1.34-1.22,2.41.02,3.35-.04,6.71-.05,10.06-.01,3.57,0,7.15,0,10.76-.97-.76-1.82-1.11-2.14-1.73-1.41-2.71-2.6-5.54-4.04-8.23-.4-.76-.71-2.59-2.31-1.39-2.36,1.76-4.67,3.59-6.87,5.54-.67.6-1.68.99-.71,2.76,4.04,7.36,7.5,15.03,11.43,22.45.8,1.51,2.22,3.45,4.63,2.81,3.05-.81,5.55-2.56,7.85-4.73,1.58-1.5.73-3.21.76-4.77.14-5.73.06-11.47.06-17.21Zm21.01,4.16c3-.81,5.68-2.49,8.55-3.72,1.92-.82,2.17-1.23,1.21-3.35-2.04-4.51-1.23-6.62,2.03-8.03,2.08-.9,2.71-3.11,1.14-5.63-.84-1.34-2.34-.75-3.56.1-1.34.93-1.94.72-2.78-.99-.88-1.8-.57-3.68-1.3-5.4-1.48-3.47-1.22-3.83,2.18-5.49.98-.48,2.21-.66,2.93-1.29,1.77-1.56,2.22-.45,2.54.98.94,4.16,1.42,8.48,2.82,12.47.88,2.53.51,5.31,2.04,7.66.47.73.36,1.43,1.58.81,2.51-1.27,5.18-2.22,7.71-3.46,1.13-.55,2.48-1.52,1.55-2.98-1.39-2.18-1.23-4.71-1.93-7.03-1.72-5.76-2.62-11.75-4.11-17.59-.18-.7.22-3.43-2.71-1.98-6.55,3.26-13.32,6.09-20.04,8.99-4.19,1.8-6.99,5.62-6.19,9.62.78,3.89,1.74,7.76,2.69,11.61,1.2,4.86,2.44,9.71,3.65,14.71Zm78.24-28.64c.41,0,.83.07,1.22-.01,1.53-.33,3.16.34,4.63-.81,1.82-1.43.82-3.34,1.06-5.01.27-1.83.22-3.39,2.54-4.12,2.21-.69.95-3.33,1.89-4.96.62-1.09-1.15-.86-1.9-1.05-1.03-.27-.91-1.21-.74-1.71,1.17-3.46-.14-7.22,1.38-10.63.68-1.52.07-2.29-1.61-2.23-2.64.09-5.28.14-7.92.22-1.26.04-2.26.61-2.32,1.9-.15,3.22-1.4,6.25-1.28,9.55.16,4.19-.05,4.25-4.15,4.23-1.5,0-3.3.85-4.44-.18-1.21-1.11.16-2.76.2-4.19.2-6.88.27-6.88-6.73-6.56-4.32.2-5.29.73-5.29,5.12,0,5.97-1.75,11.74-1.59,17.7.03,1.15-.06,2.31-.56,3.53-.8,1.95-1.17,4.46-.27,6.19.75,1.45,3.16.22,4.83.38,1.11.11,2.23-.06,3.35-.02,2.46.08,3.72-.97,3.7-3.53-.02-3.53.33-7.02,1.19-10.47.29-1.16.68-1.83,1.94-1.8,1.12.02,2.24-.03,3.35-.05,3.51-.05,3.73.2,3.13,3.53q-.91,5.08,4.38,5Zm-54.24-36.51c0,.86,0,1.17,0,1.47.1,6.03.09,6.07,5.9,7.12,1.25.22,1.45.93,1.46,1.89.04,3.62.84,7.25.89,10.78.12,8.9,1.52,17.7,1.51,26.57,0,2.02.86,2.86,2.4,1.98,1.99-1.14,4.18-1.21,6.23-1.66,3.7-.83,4.32-2.46,2.69-5.57-.21-.41-.04-1-.09-1.51-.57-5.67-.02-11.36-1.06-17.09-1.1-6.09-.21-12.43-1.27-18.65-.76-4.42-.56-4.84-5.27-5.25-1.19-.1-2.26-.12-2.2-1.76.06-1.62-.76-3.94,1.56-4.22,2.12-.25,3.88-1.41,6.01-1.55,4.18-.28,4.71-1.19,4.58-5.33-.06-1.96-.91-2.28-2.43-1.71-2.68,1.01-5.4,1.75-8.22,2.3-2.93.57-5.94,1.28-8.59,2.6-4.13,2.05-5.01,5.84-4.11,9.6Zm-57.46,94.52c-.32-.4-.68-.83-1.02-1.27-6.11-7.98-12.26-15.94-18.27-23.99-.75-1-.64-1.01-1.51-.12-1.61,1.65-3.06,3.52-4.79,4.98-2.74,2.3-2.16,3.92-.13,6.37,4.99,6.05,9.72,12.32,14.42,18.6,3.92,5.25,3.89,5.3,7.77-.18,1.06-1.5,2.3-2.88,3.53-4.4Z"/>
      <path class="cls-3" d="m67.85,327.13c.58.1,1.17.2,1.75.29.06.28.07.76.2.8,7.56,2.28,15.1,4.62,22.52,7.36,1.16.43,2.79,1.2,3.95-.68-3.43-1.97-7.11-3.19-10.67-4.68-5.47-2.3-10.91-4.68-16.55-6.58-.22-.03-.43-.06-.65-.09-.51-1.59-1.86-1.12-2.98-1.22-1.18-.47-2.81-.35-2.94-2.22.96-.08,1.93-.17,2.89-.25.52.13,1,.53,1.57.19-.07,1.2.72,1.06,1.49.95,4.99,1.7,10.1,3.03,15.13,4.61,3.44,1.08,7.04,1.91,10.55,2.9,7.1,1.99,14.37,3.77,19.55,9.66,1.79,2.03,3.43,4.27,3.59,7.07.14,2.49,2.24,3.06,3.71,3.66,6.76,2.74,13.68,5.09,20.5,7.68,4.59,1.74,9.13,3.63,13.66,5.53.89.37,1.69.56,2.59.21,9.95-3.91,19.82-8.02,29.88-11.61,3.71-1.33,7.33-2.97,11.14-4.03,3.01-.84,4.17-3.35,4.9-5.92,2.51-8.91,9-14.24,16.67-18.22,7.66-3.98,15.96-6,24.68-4.92,4.67.58,9.24,1.82,13.04,4.9,4.01,3.26,4.04,8.73,2.39,13.05-4.04,10.56-12.57,16.47-22.46,20.59-6.36,2.65-13.18,3.55-20.05,2.61-3.54-.48-6.91-2.02-9.99-3.83-2.07-1.21-3.63-.97-5.69-.09-5.51,2.36-11.29,4.14-16.69,6.71-4.54,2.16-9.52,3.45-14.31,6.62,6.33,2.36,12.13,4.48,17.89,6.69,4.43,1.7,8.82,3.51,13.35,4.96,2.73.87,3.12,4.29,1.06,8.07-2,3.68-3.02,3.8-8.65,1.31-8.39-3.7-16.79-7.39-25.27-10.87-3.3-1.35-6.53-2.88-9.73-4.47-2.4-1.19-4.34.39-6.18,1.14-7.93,3.23-15.67,6.93-23.57,10.23-4.04,1.68-7.99,3.52-12,5.26-2.51,1.09-4.83-.15-5.82-2.78-.45-1.19-1.06-2.29-1.4-3.57-.72-2.73.43-4.64,2.7-5.36,7.1-2.25,13.9-5.29,20.92-7.74,2.27-.79,4.52-1.63,6.77-2.47.7-.26,1.29-.8,1.36-1.49.11-1.15-.99-.65-1.55-.89-5.15-2.18-10.31-4.33-15.46-6.53-3.2-1.37-6.35-2.85-9.56-4.2-.83-.35-1.58-.14-2.45.47-5.04,3.52-10.44,3.71-16.29,2-9.54-2.79-17.62-8.51-26.43-12.75-4.6-2.21-9.14-4.66-13.63-7.14-1.25-.69-2.06-1.55.07-2.22-.09,1.05.55,1.11,1.32.98.63.1,1.25.19,1.88.29.3.87.87,1.26,1.8.99.39.04.79.09,1.18.13.05.79.41,1.2,1.25,1.01.42.06.85.11,1.27.17.46,1.08,1.33,1.31,2.39,1.12.4.06.81.12,1.21.18.05.2.04.53.15.57,6.33,2.6,12.67,5.19,19.02,7.74.51.21,1.34.37,1.52-.42.15-.68.44-1.44-.76-1.91-2.24-.88-4.32-2.17-6.53-3.14-4.88-2.15-9.42-5.07-14.6-6.55-.33-.06-.65-.12-.98-.18.13-.7-.01-1.16-.87-.96-.36.07-.72.14-1.08.21h-.13c-.08-.15-.18-.29-.31-.41-.8-1.65-2.58-1.62-3.95-2.28-.34-.06-.68-.12-1.03-.18-.05-.93-1.71-2.54.99-2.29.23.05.46.11.7.16,1.62,1.73,3.96,1.72,5.97,2.53,7.4,2.99,14.77,6.03,22.41,8.36.87.27,1.83,1.49,2.5-.05.77-1.77-1.2-1.86-1.95-2.28-2.46-1.34-5.1-2.34-7.69-3.45-6.89-2.95-13.78-5.9-20.67-8.85-.46-.47-1.63.21-1.63-.73,0-.94,1.11-.41,1.63-.76.4.01.81.02,1.21.03.79.11,1.58.22,2.37.33,0,1.63,1.19.8,1.91.93Z"/>
      <path class="cls-3" d="m324.49,210.16c0-5.18.54-10.43-.14-15.51-.82-6.15-1.65-12.31-3.04-18.42-1.74-7.65-3.98-15.11-6.62-22.45-2.1-5.85-4.78-11.49-7.79-16.95-1.23-2.23-.86-4.4,1.04-5.24,2.28-1,3.46.32,4.47,2.16,4.32,7.88,7.63,16.23,10.58,24.66,1.72,4.92,3,10.06,4.14,15.22,2.31,10.47,3.39,21.01,3.84,31.73.38,9.15-.41,18.11-1.26,27.16-.52,5.58-1.6,11.04-2.9,16.43-1.66,6.9-3.68,13.76-6.2,20.39-3.26,8.57-7.21,16.9-11.94,24.78-5.77,9.61-12.29,18.7-19.84,27.01-1.26,1.39-3.09,2-4.5.87-1.56-1.25-1.36-3.09-.09-4.81,3.25-4.38,6.89-8.46,10.14-12.85,6.05-8.17,11.08-16.89,15.55-25.97,3.38-6.88,6.16-14.04,8.31-21.33,1.73-5.87,3.08-11.91,4.23-17.99,1.8-9.58,2.43-19.18,2.03-28.88Z"/>
      <path class="cls-3" d="m.3,210.2c-.91-7.23.45-14.37,1.34-21.45,1.08-8.53,3-16.96,5.5-25.28,2.45-8.17,5.66-15.98,8.93-23.79.98-2.33,2.3-4.53,3.64-6.68.92-1.47,2.1-2.63,4.05-1.12,1.54,1.19,2.23,1.92,1.04,4.19-4.36,8.29-8.15,16.92-10.92,25.85-1.7,5.48-3.18,11.11-4.21,16.83-1.17,6.51-1.74,13.07-2.65,19.59-.99,7.1-1.14,14.19-.46,21.14.73,7.42,1.37,14.89,2.97,22.27,1.75,8.08,3.8,16.05,6.62,23.76,4.33,11.86,10.05,23.11,17.15,33.56,4.13,6.08,8.5,12.04,13.69,17.33,1.61,1.64,1.33,4.35.3,5.49-1.19,1.33-3.33.64-4.88-1.13-9.46-10.86-17.72-22.46-24.18-35.41-3.51-7.03-6.71-14.16-9.26-21.53-2.29-6.61-4.06-13.43-5.34-20.38-1.08-5.84-1.74-11.71-2.57-17.57-.75-5.26-.55-10.46-.76-15.68Z"/>
      <path class="cls-3" d="m193.66,318.18c.41,3.21-1.61,6.22-4.27,6.59-4.47.62-8.74-.38-12.94-1.77-6.92-2.29-13.83-4.58-20.75-6.88-4.08-1.35-8.24-2.38-12.56-2.19-5.22.24-10.28,1.2-14.9,3.93-3.68,2.18-7.66,3.51-12.03,3.23-7.07-.45-9.8-8.08-8.25-13.21,1.17-3.88,3.17-7.33,5.19-11.44.54,2.08.42,3.65-.14,5.25-1.13,3.27-.83,6.67-.47,9.96.43,3.92,3.96,5.94,7.72,4.36,5.55-2.33,10.16-5.74,10.57-12.51.25-4.13,3.2-5.65,6.53-6.56,3.37-.92,6.24-2.86,9.33-4.29,3-1.39,5.52-1.14,7.64.72,4.25,3.71,9.06,6.46,13.99,9.01,3.09,1.6,3.05,4.62,3.52,7.22.39,2.17,1.28,4.14,1.87,6.19.93,3.21,4.2,3.52,7.01,4.01,2.06.36,4.13.39,6.22.95,2.3.61,4.68-.53,6.71-2.59Z"/>
      <path class="cls-3" d="m76.98,131.15c.31-2.37-.43-4.39.48-6.16,1.05-2.04,3.19-2.08,4.41,0,3.44,5.8,7.16,11.39,11.55,16.52,3.99,4.67,8.57,8.86,14.31,10.91,3.98,1.42,8.53.95,12.5-1.29,1.84-1.04,3.82-2,5.33-3.43,1.21-1.14,2.54-1.29,3.36-.5,1.15,1.1,1.11,3.18-.06,4.1-6.15,4.85-13.17,7.84-21.04,6.13-6.11-1.33-10.86-5.5-15.18-9.97-2.93-3.02-5.78-6.1-8.23-9.54-.26-.36-.17-1.07-.93-.89-.72.17-.52.75-.52,1.22,0,3,.6,5.89,2.68,8.12,5.26,5.62,10.34,11.48,17.01,15.54,2.54,1.55,5.07,3.32,8.33,3.14,2.19-.12,1.74,1.3.89,2.21-2.6,2.77-4.76,5.89-7.17,8.8-1.23,1.49-2.72,1.63-4.39.29-8.1-6.5-14.32-14.45-18.4-24-2.95-6.91-4.55-14.16-4.93-21.21Z"/>
      <path class="cls-3" d="m167.31,143.07c-6.84.62-12.73-1.69-18.8-3.28-4.91-1.29-9.95-3.18-14.9.37-1.11.79-3.32,1.29-4.05-.1-.8-1.51-.16-3.49,1.81-4.33,5.39-2.29,11.06-2.72,16.74-1.84,1.46.23,2.95.47,4.4.5,7.31.13,14.61.57,21.93.18,4.34-.23,8.3-1.9,12.4-2.98,8.68-2.28,19.28-.05,21.66,10.93.34,1.56-.13,2.65-1.36,3.57-1.45,1.09-2.29-.43-3.09-.93-1.15-.72-1.82-2.17-2.79-3.23-3.87-4.22-7.6-4.68-13.33-2.97-6.84,2.04-13.54,5.17-20.62,4.1Z"/>
      <path class="cls-3" d="m154.21,279.36c-5.8-1.24-11.19-3.49-16.22-6.66-1.92-1.21-3.92-2.28-5.55-3.93-.65-.66-1.23-1.79-.93-2.12.85-.95,1.35.22,2.06.68,5.88,3.9,11.88,7.52,19.42,6.22,3.72-.64,6.78-2.92,10.22-4.27,3.07-1.21,5.9-3.13,9.35-3.23,1.11-.03,2.52-.2,3.05.8.55,1.03.18,2.17-.94,3.15-4.69,4.12-9.86,7.29-16.06,8.4-1.48.26-2.76,1.42-4.4.96Z"/>
      <path class="cls-3" d="m164.88,288.31c0-5.32,3.21-8.35,6.56-10.91,2.87-2.2,6.42-3.49,9.54-5.39,1.21-.74,2.23-.77,2.91.19.66.93,1.66,1.85,1,3.42-1.66,3.95-4.18,6.61-8.52,7.81-3.81,1.05-7.76,2.01-11.49,4.89Z"/>
      <path class="cls-3" d="m125.04,271.7c3.08,3.91,5.35,8.37,8.97,11.85,1.06,1.02.9,3.36,1.18,5.11.11.69-.1,1.46-.81,1.85-.78.43-1.27-.14-1.82-.61-1.83-1.57-3.85-2.94-5.53-4.65-2.95-3.01-3.85-6.67-2.69-10.78.24-.85-.08-1.83.71-2.77Z"/>
      <path class="cls-2" d="m218.98,220.65c-6.3,1.4-14.05-2.88-14.41-11.64-.2-4.82.73-9.47,3.59-13.35,5.04-6.83,12.11-6.48,17.35-1.15,2.22,2.26,3.31,1.75,5.14.2,1.66-1.41,3.78-2.15,5.32-3.77.39-.41,1.32-.84,1.89-.1.45.59-.07,1.14-.49,1.58-3.37,3.56-6.84,7.03-10.07,10.71-1.09,1.24-1.07.41-1.8-.21-2.35-1.97-4.02-4.78-7.6-5.27-2.95-.41-5.85,1.18-6.85,4.07-2.48,7.19.09,12.51,5.73,16.87.38.29.68.68,1.03,1.01.27.26.56.51,1.15,1.04Z"/>
      <path class="cls-2" d="m217.16,215.05c-4.53-3.18-5.57-8.34-2.65-11.5.86-.93,1.92-.29,2.77-1.14,0,2.97,0,5.94,0,8.92-.05,1-.5,2.18,1.08,2.48.02.4.03.8.05,1.19-.41.02-.83.04-1.24.06Z"/>
      <path class="cls-1" d="m218.35,213.8c-1.57-.3-1.12-1.48-1.08-2.48,1.41.37,1.1,1.49,1.08,2.48Z"/>
      <path class="cls-1" d="m217.16,215.05c.41-.02.83-.04,1.24-.06,0,.41,1.2.92-.06,1.23-.97.24-1.22-.35-1.18-1.17Z"/>
      <path class="cls-1" d="m236.66,65.41c-.43.84-.8,1.61-1.22,2.36-1.33,2.4-3.48,3.33-5.58,1.64-2.23-1.79-3.1-.13-3.9,1.04-3.92,5.77-3.86,5.81-9.93,2.79-4.57-2.27-4.48-2.21-1.24-6.66,4.12-5.66,8.15-11.37,12.08-17.16,2.45-3.61,4.74-4.25,8.97-3.02,7.68,2.23,14.64,6.17,22.09,8.95,1.73.65,2.87,1.43,1.1,3.79-4.81,6.44-9.21,13.17-13.73,19.82-1.43,2.11-2.85,2.84-5.23,1.13-1.35-.96-3.25-1.11-4.81-1.83-1.76-.81-3.22-1.4-1.19-3.97,3.89-4.91,7.19-10.27,10.72-15.46.75-1.11,1-1.8-.65-2.7-1.56-.85-3.26-1.22-4.81-2.02-.96-.5-1.97-.23-2.68,1.1-.99,1.87-2.35,3.56-3.65,5.24-1.39,1.8-1.86,3.03,1,3.92.77.24,1.92.28,2.65,1.03Z"/>
      <path class="cls-1" d="m216.64,12.41c4.92.57,9.65,2.06,14.44,3.22.29.07.54.29.83.37,4.25,1.24,4.34,1.35,2.28,5.31-.82,1.57-2.13.81-3.38.49-2.84-.74-5.7-1.48-8.6-1.95-1.73-.28-2.18,1.29-2.49,2.59-.23.96-1.28,2.07.31,2.93,1.59.85,3.37,1.47,3.54,3.8.15,2.05-.99,3.68-1.77,5.23-4.64,9.31-8.58,18.94-13.05,28.33-.96,2.01-1.81,4.08-2.58,6.17-.49,1.33-1.47,1.09-2.45,1.1-3.03.02-5.74-1.57-8.79-1.66-1.38-.04-1.74-.9-.96-2.51,5.34-11.01,10.53-22.09,15.65-33.2.38-.83,1-1.98-.43-3.16-3.99-3.27-3.8-3.37-1.9-8.32.52-1.37,1.07-2.82,1.67-4.07,1.5-3.13,3.23-5.01,7.67-4.67Z"/>
      <path class="cls-1" d="m312.71,117.23c-.94,2.09-2.9,2.15-3.96,3.28-.94,1.01-1.15.07-1.53-.38-1.1-1.28-2.29-.9-3.47-.21-.83.48-1.62,1.02-2.4,1.57-3.57,2.52-3.5,2.47-6.32-.7-1.4-1.57-2.56-3.37-4.41-4.54-1.29-.82-1.53-1.71.21-2.5,1.57-.7,3.02-1.67,4.56-2.45.46-.23.94-.33,1.03-.93.48-3.05-2.74-3.63-3.84-5.66-.48-.88-1.31-.57-2.41.05-3.27,1.86-6.55,3.72-9.62,5.88-1.32.93-2.02.65-2.98-.37-1.69-1.81-3.5-3.49-5.24-5.25-1.32-1.34-1.47-2.41.44-3.54,6.76-4.01,13.45-8.15,20.17-12.23.08-.05.2-.05.28-.11,1.88-1.29,3.8-3.78,5.87-3.11,1.94.63,3.26,3.2,4.84,4.92.58.64,1.07,1.37,1.7,1.95,1.14,1.06.8,1.78-.37,2.47-2.12,1.25-4.2,2.58-6.36,3.78-.57.32-1.11.57-1.16,1.22-.21,2.87,2.92,3.47,3.95,5.61.48.99,2.06.55,3.18-.27,3.02-2.23,6.31-4.02,9.51-5.95,1.18-.71,1.31-.44,2.02.33,2.04,2.22,4.24,4.3,6.31,6.49.88.93,1.03,1.58-.5,2.39-3.47,1.85-6.74,4.07-10.1,6.13-1.72,1.05,1.17,1.57.59,2.14Z"/>
      <path class="cls-1" d="m256.31,97.96c.85-3.6-.93-5.84-3.97-7.25-1.3-.6-2.06-1.71-3.03-2.58-2.34-2.12-2.2-3.8.16-6.07,6.14-5.89,12.36-11.71,18.65-17.45,1.46-1.33,2.91-1.27,3.64-.45,1.59,1.77,3.74,2.69,5.51,4.14,1.88,1.54,1.37,2.17.03,3.4-5.54,5.12-10.61,10.74-16.5,15.49-.66.53-1.06,1.44-.63,1.79.97.8,2.26.85,3.24-.17,1.14-1.18,2.36-2.26,3.57-3.36,3.86-3.52,7.59-7.17,11.3-10.85.99-.99,1.49-1.33,2.8-.18,1.86,1.64,4.13,2.84,6.26,4.16,1.74,1.07,1.94,2.06.33,3.53-5.08,4.64-10.07,9.37-15.1,14.06-2.08,1.94-4.29,3.75-6.2,5.84-1.15,1.26-1.81.84-2.98.14-2.38-1.42-4.19-3.8-7.14-4.25l.06.06Z"/>
      <path class="cls-1" d="m256.25,97.9c.77,1.85,2.55,2.67,3.92,3.92.93.85,1.85,1.81-.08,2.66-.22.1-.28.53-.49.72-5.14,4.47-6.75,4.3-11.26-1.03-.25-.29-.79-.69-.54-.85,2.08-1.31,2.03-3.78,3.19-5.58,1.96-3.06,3.57-.36,5.32.23,0,0-.06-.06-.06-.06Z"/>
      <path class="cls-1" d="m108.67,217.39c-.77,1.16,1.08,1.22.95,2.12-4.57.88-5.42-.1-4.1-4.68,1.85-.08,1.18,2.93,3.22,2.62,0,0-.06-.06-.06-.06Z"/>
      <path class="cls-1" d="m58.75,84.58c0,5.74.09,11.47-.06,17.21-.04,1.57.82,3.28-.76,4.77-2.3,2.17-4.79,3.92-7.85,4.73-2.41.64-3.82-1.3-4.63-2.81-3.94-7.42-7.4-15.09-11.43-22.45-.97-1.77.03-2.17.71-2.76,2.2-1.95,4.51-3.79,6.87-5.54,1.61-1.19,1.91.64,2.31,1.39,1.44,2.69,2.63,5.52,4.04,8.23.33.62,1.17.97,2.14,1.73,0-3.61,0-7.18,0-10.76.01-3.35.07-6.71.05-10.06,0-1.06.25-1.73,1.22-2.41,2.21-1.53,4.32-3.23,6.31-5.04,1.6-1.45,2.64-.48,3.27.72,4.2,8.02,8.33,16.09,12.36,24.2.46.93,1.06,1.78,1.48,2.76,1.66,3.78,1.74,3.68-1.81,6.09-1.59,1.08-3.15,2.29-4.46,3.68-.96,1.01-1.86,1.15-2.24-.01-1.63-4.93-5.11-8.92-6.72-13.84-.27.05-.54.11-.81.16Z"/>
      <path class="cls-1" d="m79.77,88.74c-1.21-5-2.45-9.85-3.65-14.71-.95-3.85-1.91-7.72-2.69-11.61-.8-4,2.01-7.82,6.19-9.62,6.73-2.89,13.49-5.73,20.04-8.99,2.92-1.45,2.53,1.28,2.71,1.98,1.48,5.84,2.38,11.83,4.11,17.59.69,2.32.53,4.85,1.93,7.03.93,1.46-.42,2.43-1.55,2.98-2.53,1.24-5.2,2.2-7.71,3.46-1.22.62-1.11-.08-1.58-.81-1.52-2.35-1.15-5.13-2.04-7.66-1.4-4-1.88-8.31-2.82-12.47-.32-1.43-.77-2.55-2.54-.98-.71.63-1.94.81-2.93,1.29-3.4,1.67-3.65,2.02-2.18,5.49.73,1.73.42,3.6,1.3,5.4.84,1.71,1.44,1.92,2.78.99,1.22-.85,2.72-1.44,3.56-.1,1.57,2.52.93,4.74-1.14,5.63-3.26,1.4-4.07,3.52-2.03,8.03.96,2.12.7,2.53-1.21,3.35-2.87,1.23-5.55,2.91-8.55,3.72Z"/>
      <path class="cls-1" d="m158,60.11q-5.3.08-4.38-5c.6-3.32.37-3.58-3.13-3.53-1.12.02-2.24.07-3.35.05-1.26-.02-1.65.64-1.94,1.8-.86,3.45-1.21,6.94-1.19,10.47.02,2.56-1.25,3.61-3.7,3.53-1.12-.04-2.24.13-3.35.02-1.67-.16-4.07,1.08-4.83-.38-.9-1.74-.54-4.24.27-6.19.5-1.21.59-2.38.56-3.53-.15-5.96,1.6-11.73,1.59-17.7,0-4.39.97-4.93,5.29-5.12,7-.32,6.93-.32,6.73,6.56-.04,1.44-1.41,3.09-.2,4.19,1.13,1.03,2.94.17,4.44.18,4.1.02,4.31-.04,4.15-4.23-.12-3.3,1.13-6.33,1.28-9.55.06-1.29,1.06-1.86,2.32-1.9,2.64-.08,5.28-.13,7.92-.22,1.68-.06,2.29.71,1.61,2.23-1.52,3.41-.21,7.17-1.38,10.63-.17.5-.29,1.44.74,1.71.76.2,2.53-.03,1.9,1.05-.94,1.63.32,4.27-1.89,4.96-2.33.73-2.28,2.3-2.54,4.12-.24,1.66.76,3.57-1.06,5.01-1.47,1.16-3.1.48-4.63.81-.39.08-.81.01-1.22.02Z"/>
      <path class="cls-1" d="m103.76,23.6c-.9-3.75-.02-7.54,4.11-9.6,2.65-1.32,5.66-2.03,8.59-2.6,2.82-.55,5.54-1.29,8.22-2.3,1.51-.57,2.37-.25,2.43,1.71.13,4.15-.4,5.06-4.58,5.33-2.14.14-3.89,1.3-6.01,1.55-2.32.27-1.5,2.59-1.56,4.22-.06,1.64,1.01,1.66,2.2,1.76,4.71.41,4.51.83,5.27,5.25,1.07,6.23.18,12.56,1.27,18.65,1.03,5.73.49,11.41,1.06,17.09.05.5-.12,1.1.09,1.51,1.63,3.11,1.01,4.75-2.69,5.57-2.04.46-4.24.52-6.23,1.66-1.54.88-2.41.04-2.4-1.98.02-8.88-1.39-17.67-1.51-26.57-.05-3.53-.85-7.15-.89-10.78-.01-.96-.21-1.66-1.46-1.89-5.81-1.05-5.8-1.09-5.9-7.12,0-.3,0-.61,0-1.47Z"/>
      <path class="cls-1" d="m46.31,118.12c-1.23,1.52-2.47,2.9-3.53,4.4-3.88,5.48-3.85,5.43-7.77.18-4.69-6.29-9.43-12.55-14.42-18.6-2.03-2.46-2.61-4.08.13-6.37,1.73-1.45,3.18-3.33,4.79-4.98.87-.89.75-.88,1.51.12,6.02,8.05,12.16,16.01,18.27,23.99.34.44.69.86,1.02,1.27Z"/>
    </g>
  </g>
</svg>
