<svg width="1440" height="1446" viewBox="0 0 1440 1446" fill="none" xmlns="http://www.w3.org/2000/svg">
<rect x="-2.98023e-08" y="0.5" width="402.914" height="411.697" rx="17.3362" transform="matrix(0.866025 0.5 -0.866025 0.5 344.934 203.6)" fill="#151719" stroke="#525252"/>
<mask id="path-2-inside-1_288_9388" fill="white">
<path fill-rule="evenodd" clip-rule="evenodd" d="M-3.20987 410.587V1095.04L-8.6018 1098.15C-17.1327 1103.08 -17.1327 1111.07 -8.60181 1115.99L324.315 1308.2C332.846 1313.13 346.677 1313.13 355.208 1308.2L688.125 1115.99C696.656 1111.07 696.656 1103.08 688.125 1098.15L682.733 1095.04V410.743L355.344 599.761C346.813 604.687 332.981 604.687 324.45 599.761L-3.20987 410.587Z"/>
</mask>
<path fill-rule="evenodd" clip-rule="evenodd" d="M-3.20987 410.587V1095.04L-8.6018 1098.15C-17.1327 1103.08 -17.1327 1111.07 -8.60181 1115.99L324.315 1308.2C332.846 1313.13 346.677 1313.13 355.208 1308.2L688.125 1115.99C696.656 1111.07 696.656 1103.08 688.125 1098.15L682.733 1095.04V410.743L355.344 599.761C346.813 604.687 332.981 604.687 324.45 599.761L-3.20987 410.587Z" fill="url(#paint0_linear_288_9388)"/>
<path d="M-3.20987 410.587L-2.70987 409.721L-4.20987 408.854V410.587H-3.20987ZM-3.20987 1095.04L-2.70987 1095.91L-2.20987 1095.62V1095.04H-3.20987ZM-8.6018 1098.15L-9.1018 1097.29H-9.1018L-8.6018 1098.15ZM-8.60181 1115.99L-9.10181 1116.86H-9.10181L-8.60181 1115.99ZM324.315 1308.2L323.815 1309.07L324.315 1308.2ZM355.208 1308.2L355.708 1309.07L355.208 1308.2ZM688.125 1115.99L688.625 1116.86L688.125 1115.99ZM688.125 1098.15L688.625 1097.29L688.125 1098.15ZM682.733 1095.04H681.733V1095.62L682.233 1095.91L682.733 1095.04ZM682.733 410.743H683.733V409.011L682.233 409.877L682.733 410.743ZM355.344 599.761L355.844 600.627L355.344 599.761ZM324.45 599.761L323.95 600.627L324.45 599.761ZM-4.20987 410.587V1095.04H-2.20987V410.587H-4.20987ZM-3.70987 1094.18L-9.1018 1097.29L-8.1018 1099.02L-2.70987 1095.91L-3.70987 1094.18ZM-9.1018 1097.29C-13.5494 1099.86 -16 1103.36 -16 1107.07C-16 1110.78 -13.5495 1114.29 -9.10181 1116.86L-8.10181 1115.13C-12.1851 1112.77 -14 1109.82 -14 1107.07C-14 1104.33 -12.1851 1101.38 -8.1018 1099.02L-9.1018 1097.29ZM-9.10181 1116.86L323.815 1309.07L324.815 1307.33L-8.10181 1115.13L-9.10181 1116.86ZM323.815 1309.07C328.268 1311.64 334.042 1312.89 339.762 1312.89C345.481 1312.89 351.255 1311.64 355.708 1309.07L354.708 1307.33C350.631 1309.69 345.223 1310.89 339.762 1310.89C334.3 1310.89 328.893 1309.69 324.815 1307.33L323.815 1309.07ZM355.708 1309.07L688.625 1116.86L687.625 1115.13L354.708 1307.33L355.708 1309.07ZM688.625 1116.86C693.073 1114.29 695.523 1110.78 695.523 1107.07C695.523 1103.36 693.073 1099.86 688.625 1097.29L687.625 1099.02C691.708 1101.38 693.523 1104.33 693.523 1107.07C693.523 1109.82 691.708 1112.77 687.625 1115.13L688.625 1116.86ZM688.625 1097.29L683.233 1094.18L682.233 1095.91L687.625 1099.02L688.625 1097.29ZM683.733 1095.04V410.743H681.733V1095.04H683.733ZM682.233 409.877L354.844 598.895L355.844 600.627L683.233 411.609L682.233 409.877ZM354.844 598.895C350.766 601.25 345.359 602.455 339.897 602.455C334.435 602.455 329.028 601.25 324.95 598.895L323.95 600.627C328.404 603.198 334.177 604.455 339.897 604.455C345.617 604.455 351.39 603.198 355.844 600.627L354.844 598.895ZM324.95 598.895L-2.70987 409.721L-3.70987 411.453L323.95 600.627L324.95 598.895Z" fill="black" mask="url(#path-2-inside-1_288_9388)"/>
<path d="M276.188 259.651L608.379 436.152L608.379 451.441L457.93 538.303L141.027 355.339L125.739 346.513L125.738 331.224L276.188 259.651Z" fill="url(#paint1_linear_288_9388)"/>
<rect width="383.581" height="173.723" transform="matrix(0.866025 0.5 -0.866025 0.5 276.188 244.363)" fill="#2F3133"/>
<path d="M526.219 472.143L205.4 286.918" stroke="#BB8F1E" stroke-width="6" stroke-dasharray="18.62 6.21"/>
<rect x="2.98023e-08" y="0.5" width="259.779" height="80.6808" rx="2.07575" transform="matrix(-0.866025 0.5 0.866025 0.5 640.074 342.183)" fill="#151719" stroke="#2D2D2D"/>
<path fill-rule="evenodd" clip-rule="evenodd" d="M706.639 380.113L706.999 380V380.321L706.639 380.113ZM706.999 385.226V402.054L709.016 403.218C710.248 403.929 710.248 405.082 709.016 405.794L487.636 533.608C486.404 534.319 484.406 534.319 483.174 533.608L416.898 495.343C416.181 494.929 415.881 494.365 415.999 493.825V472.551C416.083 472.938 416.383 473.313 416.898 473.611L483.175 511.875C484.407 512.587 486.404 512.587 487.636 511.875L706.999 385.226ZM415.999 472.095V471.2L417.338 470.781L416.898 471.035C416.383 471.332 416.083 471.707 415.999 472.095Z" fill="url(#paint2_linear_288_9388)"/>
<path d="M706.639 380.113L706.389 380.546L705.403 379.977L706.49 379.636L706.639 380.113ZM706.999 380L706.849 379.523L707.499 379.32V380H706.999ZM706.999 380.321H707.499V381.187L706.749 380.754L706.999 380.321ZM706.999 385.226L706.749 384.793L707.499 384.36V385.226H706.999ZM706.999 402.054L706.749 402.487L706.499 402.342V402.054H706.999ZM709.016 403.218L709.266 402.785H709.266L709.016 403.218ZM709.016 405.794L709.266 406.227H709.266L709.016 405.794ZM487.636 533.608L487.886 534.041L487.636 533.608ZM483.174 533.608L482.924 534.041L483.174 533.608ZM416.898 495.343L417.148 494.91L416.898 495.343ZM415.999 493.825H416.499V493.879L416.487 493.932L415.999 493.825ZM415.999 472.551H415.499L416.488 472.445L415.999 472.551ZM416.898 473.611L417.148 473.178L416.898 473.611ZM483.175 511.875L482.925 512.308L483.175 511.875ZM487.636 511.875L487.886 512.308L487.636 511.875ZM415.999 472.095L416.488 472.201L415.499 472.095H415.999ZM415.999 471.2H415.499V470.833L415.849 470.723L415.999 471.2ZM417.338 470.781L417.189 470.304L417.588 471.214L417.338 470.781ZM416.898 471.035L417.148 471.468L416.898 471.035ZM706.49 379.636L706.849 379.523L707.149 380.478L706.789 380.59L706.49 379.636ZM707.499 380V380.321H706.499V380H707.499ZM706.749 380.754L706.389 380.546L706.889 379.68L707.249 379.888L706.749 380.754ZM707.499 385.226V402.054H706.499V385.226H707.499ZM707.249 401.621L709.266 402.785L708.766 403.651L706.749 402.487L707.249 401.621ZM709.266 402.785C709.973 403.193 710.44 403.798 710.44 404.506C710.44 405.214 709.973 405.818 709.266 406.227L708.766 405.361C709.291 405.058 709.44 404.73 709.44 404.506C709.44 404.281 709.291 403.954 708.766 403.651L709.266 402.785ZM709.266 406.227L487.886 534.041L487.386 533.174L708.766 405.361L709.266 406.227ZM487.886 534.041C487.176 534.45 486.277 534.641 485.405 534.641C484.533 534.641 483.634 534.45 482.924 534.041L483.424 533.174C483.946 533.476 484.662 533.641 485.405 533.641C486.148 533.641 486.864 533.476 487.386 533.174L487.886 534.041ZM482.924 534.041L416.648 495.776L417.148 494.91L483.424 533.174L482.924 534.041ZM416.648 495.776C415.824 495.3 415.329 494.55 415.511 493.718L416.487 493.932C416.433 494.179 416.538 494.557 417.148 494.91L416.648 495.776ZM415.499 493.825V472.551H416.499V493.825H415.499ZM416.488 472.445C416.533 472.651 416.711 472.925 417.148 473.178L416.648 474.044C416.055 473.701 415.634 473.225 415.51 472.657L416.488 472.445ZM417.148 473.178L483.425 511.442L482.925 512.308L416.648 474.044L417.148 473.178ZM483.425 511.442C483.947 511.744 484.662 511.909 485.405 511.909C486.148 511.909 486.864 511.744 487.386 511.442L487.886 512.308C487.176 512.718 486.277 512.909 485.405 512.909C484.533 512.909 483.635 512.718 482.925 512.308L483.425 511.442ZM487.386 511.442L706.749 384.793L707.249 385.659L487.886 512.308L487.386 511.442ZM415.499 472.095V471.2H416.499V472.095H415.499ZM415.849 470.723L417.189 470.304L417.488 471.258L416.149 471.678L415.849 470.723ZM417.588 471.214L417.148 471.468L416.648 470.602L417.088 470.348L417.588 471.214ZM417.148 471.468C416.711 471.721 416.533 471.994 416.488 472.201L415.51 471.988C415.634 471.42 416.055 470.944 416.648 470.602L417.148 471.468Z" fill="#343434"/>
<rect x="2.98023e-08" y="0.5" width="259.779" height="80.6808" rx="2.07575" transform="matrix(-0.866025 0.5 0.866025 0.5 760.309 303.038)" fill="#151719" stroke="#353030"/>
<path fill-rule="evenodd" clip-rule="evenodd" d="M828 345.637V363.351L829.249 364.072C830.481 364.783 830.481 365.937 829.249 366.648L607.869 494.462C606.637 495.173 604.64 495.173 603.408 494.462L537.132 456.197C536.926 456.078 536.755 455.947 536.617 455.808L536 456V433.4L536.219 433.332C536.279 433.746 536.583 434.149 537.131 434.465L603.408 472.73C604.64 473.441 606.637 473.441 607.869 472.73L828 345.637Z" fill="url(#paint3_linear_288_9388)"/>
<path d="M828 345.637L827.75 345.204L828.5 344.771V345.637H828ZM828 363.351L827.75 363.784L827.5 363.64V363.351H828ZM829.249 364.072L829.499 363.639H829.499L829.249 364.072ZM829.249 366.648L829.499 367.081H829.499L829.249 366.648ZM607.869 494.462L608.119 494.895L607.869 494.462ZM603.408 494.462L603.158 494.895L603.408 494.462ZM537.132 456.197L536.882 456.63L537.132 456.197ZM536.617 455.808L536.469 455.33L536.76 455.24L536.974 455.457L536.617 455.808ZM536 456L536.148 456.477L535.5 456.679V456H536ZM536 433.4H535.5V433.031L535.852 432.922L536 433.4ZM536.219 433.332L536.071 432.855L536.629 432.682L536.713 433.26L536.219 433.332ZM537.131 434.465L537.381 434.032L537.131 434.465ZM603.408 472.73L603.158 473.163L603.408 472.73ZM607.869 472.73L608.119 473.163L607.869 472.73ZM828.5 345.637V363.351H827.5V345.637H828.5ZM828.25 362.918L829.499 363.639L828.999 364.505L827.75 363.784L828.25 362.918ZM829.499 363.639C830.206 364.047 830.673 364.652 830.673 365.36C830.673 366.068 830.206 366.673 829.499 367.081L828.999 366.215C829.524 365.912 829.673 365.585 829.673 365.36C829.673 365.136 829.524 364.808 828.999 364.505L829.499 363.639ZM829.499 367.081L608.119 494.895L607.619 494.029L828.999 366.215L829.499 367.081ZM608.119 494.895C607.409 495.305 606.51 495.495 605.639 495.495C604.767 495.495 603.868 495.305 603.158 494.895L603.658 494.029C604.18 494.33 604.896 494.495 605.639 494.495C606.381 494.495 607.097 494.33 607.619 494.029L608.119 494.895ZM603.158 494.895L536.882 456.63L537.382 455.764L603.658 494.029L603.158 494.895ZM536.882 456.63C536.643 456.492 536.434 456.334 536.261 456.159L536.974 455.457C537.075 455.56 537.209 455.665 537.382 455.764L536.882 456.63ZM536.766 456.285L536.148 456.477L535.852 455.522L536.469 455.33L536.766 456.285ZM535.5 456V433.4H536.5V456H535.5ZM535.852 432.922L536.071 432.855L536.367 433.81L536.148 433.878L535.852 432.922ZM536.713 433.26C536.745 433.472 536.915 433.763 537.381 434.032L536.881 434.898C536.252 434.535 535.814 434.019 535.724 433.405L536.713 433.26ZM537.381 434.032L603.658 472.297L603.158 473.163L536.881 434.898L537.381 434.032ZM603.658 472.297C604.18 472.599 604.895 472.764 605.638 472.764C606.381 472.764 607.097 472.599 607.619 472.297L608.119 473.163C607.409 473.573 606.51 473.764 605.638 473.764C604.766 473.764 603.868 473.573 603.158 473.163L603.658 472.297ZM607.619 472.297L827.75 345.204L828.25 346.07L608.119 473.163L607.619 472.297Z" fill="#2B2929"/>
<rect width="468.719" height="468.719" rx="15.3121" transform="matrix(0.866025 0.5 -0.866025 0.5 1047.97 200.778)" fill="#151719"/>
<mask id="path-14-inside-2_288_9388" fill="white">
<path fill-rule="evenodd" clip-rule="evenodd" d="M652.218 438.27V1201.67L641.411 1207.66C634.016 1211.76 634.016 1218.41 641.411 1222.51L1037.08 1441.93C1044.48 1446.04 1056.47 1446.04 1063.86 1441.93L1459.54 1222.51C1466.93 1218.41 1466.93 1211.76 1459.54 1207.66L1448.73 1201.67V438.445L1064.02 651.785C1056.63 655.886 1044.64 655.886 1037.24 651.785L652.218 438.27Z"/>
</mask>
<path fill-rule="evenodd" clip-rule="evenodd" d="M652.218 438.27V1201.67L641.411 1207.66C634.016 1211.76 634.016 1218.41 641.411 1222.51L1037.08 1441.93C1044.48 1446.04 1056.47 1446.04 1063.86 1441.93L1459.54 1222.51C1466.93 1218.41 1466.93 1211.76 1459.54 1207.66L1448.73 1201.67V438.445L1064.02 651.785C1056.63 655.886 1044.64 655.886 1037.24 651.785L652.218 438.27Z" fill="url(#paint4_linear_288_9388)"/>
<path d="M652.218 438.27L652.703 437.396L651.218 436.572V438.27H652.218ZM652.218 1201.67L652.703 1202.54L653.218 1202.26V1201.67H652.218ZM641.411 1207.66L640.926 1206.79H640.926L641.411 1207.66ZM641.411 1222.51L641.896 1221.64H641.896L641.411 1222.51ZM1037.08 1441.93L1037.57 1441.06L1037.08 1441.93ZM1063.86 1441.93L1063.38 1441.06L1063.86 1441.93ZM1459.54 1222.51L1460.02 1223.39L1459.54 1222.51ZM1459.54 1207.66L1459.05 1208.54H1459.05L1459.54 1207.66ZM1448.73 1201.67H1447.73V1202.26L1448.24 1202.54L1448.73 1201.67ZM1448.73 438.445H1449.73V436.747L1448.24 437.57L1448.73 438.445ZM1064.02 651.785L1064.51 652.66L1064.02 651.785ZM1037.24 651.785L1037.72 650.91L1037.24 651.785ZM651.218 438.27V1201.67H653.218V438.27H651.218ZM651.733 1200.8L640.926 1206.79L641.896 1208.54L652.703 1202.54L651.733 1200.8ZM640.926 1206.79C637.056 1208.93 634.865 1211.9 634.865 1215.09C634.865 1218.28 637.056 1221.24 640.926 1223.39L641.896 1221.64C638.371 1219.68 636.865 1217.27 636.865 1215.09C636.865 1212.9 638.371 1210.49 641.896 1208.54L640.926 1206.79ZM640.926 1223.39L1036.6 1442.81L1037.57 1441.06L641.896 1221.64L640.926 1223.39ZM1036.6 1442.81C1040.48 1444.96 1045.5 1446.01 1050.47 1446.01C1055.44 1446.01 1060.47 1444.96 1064.35 1442.81L1063.38 1441.06C1059.87 1443.01 1055.2 1444.01 1050.47 1444.01C1045.75 1444.01 1041.08 1443.01 1037.57 1441.06L1036.6 1442.81ZM1064.35 1442.81L1460.02 1223.39L1459.05 1221.64L1063.38 1441.06L1064.35 1442.81ZM1460.02 1223.39C1463.89 1221.24 1466.08 1218.28 1466.08 1215.09C1466.08 1211.9 1463.89 1208.93 1460.02 1206.79L1459.05 1208.54C1462.58 1210.49 1464.08 1212.9 1464.08 1215.09C1464.08 1217.27 1462.58 1219.68 1459.05 1221.64L1460.02 1223.39ZM1460.02 1206.79L1449.21 1200.79L1448.24 1202.54L1459.05 1208.54L1460.02 1206.79ZM1449.73 1201.67V438.445H1447.73V1201.67H1449.73ZM1448.24 437.57L1063.54 650.91L1064.51 652.66L1449.21 439.319L1448.24 437.57ZM1063.54 650.91C1060.02 652.859 1055.35 653.861 1050.63 653.861C1045.91 653.861 1041.24 652.859 1037.72 650.91L1036.75 652.66C1040.64 654.812 1045.66 655.861 1050.63 655.861C1055.6 655.861 1060.62 654.812 1064.51 652.66L1063.54 650.91ZM1037.72 650.91L652.703 437.396L651.733 439.145L1036.75 652.66L1037.72 650.91Z" fill="#3A3A3A" mask="url(#path-14-inside-2_288_9388)"/>
<mask id="path-16-inside-3_288_9388" fill="white">
<path fill-rule="evenodd" clip-rule="evenodd" d="M582.779 1009.03L582.778 1009.03L297.557 827.922V1190.13L288.044 1196.17C281.461 1200.35 281.461 1207.13 288.044 1211.31L638.543 1433.86C645.127 1438.04 655.801 1438.04 662.384 1433.86L1012.88 1211.31C1019.47 1207.13 1019.47 1200.35 1012.88 1196.17L1004.88 1191.09V827.923L663.139 1044.91C656.556 1049.09 645.882 1049.09 639.298 1044.91L582.779 1009.03Z"/>
</mask>
<path fill-rule="evenodd" clip-rule="evenodd" d="M582.779 1009.03L582.778 1009.03L297.557 827.922V1190.13L288.044 1196.17C281.461 1200.35 281.461 1207.13 288.044 1211.31L638.543 1433.86C645.127 1438.04 655.801 1438.04 662.384 1433.86L1012.88 1211.31C1019.47 1207.13 1019.47 1200.35 1012.88 1196.17L1004.88 1191.09V827.923L663.139 1044.91C656.556 1049.09 645.882 1049.09 639.298 1044.91L582.779 1009.03Z" fill="url(#paint5_linear_288_9388)"/>
<path d="M582.778 1009.03L582.242 1009.87L582.774 1010.21L583.308 1009.87L582.778 1009.03ZM582.779 1009.03L583.315 1008.18L582.784 1007.84L582.249 1008.18L582.779 1009.03ZM297.557 827.922L298.093 827.078L296.557 826.102V827.922H297.557ZM297.557 1190.13L298.093 1190.98L298.557 1190.68V1190.13H297.557ZM288.044 1196.17L288.58 1197.02H288.58L288.044 1196.17ZM288.044 1211.31L287.508 1212.15H287.508L288.044 1211.31ZM638.543 1433.86L638.007 1434.71H638.007L638.543 1433.86ZM662.384 1433.86L661.848 1433.02L662.384 1433.86ZM1012.88 1211.31L1013.42 1212.15H1013.42L1012.88 1211.31ZM1012.88 1196.17L1013.42 1195.33H1013.42L1012.88 1196.17ZM1004.88 1191.09H1003.88V1191.64L1004.34 1191.93L1004.88 1191.09ZM1004.88 827.923H1005.88V826.103L1004.34 827.079L1004.88 827.923ZM663.139 1044.91L662.603 1044.07L663.139 1044.91ZM639.298 1044.91L638.762 1045.76L639.298 1044.91ZM583.308 1009.87L583.309 1009.87L582.249 1008.18L582.248 1008.18L583.308 1009.87ZM297.021 828.766L582.242 1009.87L583.314 1008.18L298.093 827.078L297.021 828.766ZM298.557 1190.13V827.922H296.557V1190.13H298.557ZM288.58 1197.02L298.093 1190.98L297.021 1189.29L287.508 1195.33L288.58 1197.02ZM288.58 1210.47C285.488 1208.5 284.107 1206.04 284.107 1203.74C284.107 1201.44 285.488 1198.98 288.58 1197.02L287.508 1195.33C284.017 1197.54 282.107 1200.57 282.107 1203.74C282.107 1206.92 284.017 1209.94 287.508 1212.15L288.58 1210.47ZM639.079 1433.02L288.58 1210.47L287.508 1212.15L638.007 1434.71L639.079 1433.02ZM661.848 1433.02C658.751 1434.99 654.633 1436 650.464 1436C646.294 1436 642.176 1434.99 639.079 1433.02L638.007 1434.71C641.493 1436.92 646.005 1438 650.464 1438C654.923 1438 659.434 1436.92 662.92 1434.71L661.848 1433.02ZM1012.35 1210.47L661.848 1433.02L662.92 1434.71L1013.42 1212.15L1012.35 1210.47ZM1012.35 1197.02C1015.44 1198.98 1016.82 1201.44 1016.82 1203.74C1016.82 1206.04 1015.44 1208.5 1012.35 1210.47L1013.42 1212.15C1016.91 1209.94 1018.82 1206.92 1018.82 1203.74C1018.82 1200.57 1016.91 1197.54 1013.42 1195.33L1012.35 1197.02ZM1004.34 1191.93L1012.35 1197.02L1013.42 1195.33L1005.41 1190.24L1004.34 1191.93ZM1003.88 827.923V1191.09H1005.88V827.923H1003.88ZM1004.34 827.079L662.603 1044.07L663.675 1045.76L1005.41 828.767L1004.34 827.079ZM662.603 1044.07C659.506 1046.04 655.388 1047.05 651.219 1047.05C647.049 1047.05 642.931 1046.04 639.834 1044.07L638.762 1045.76C642.248 1047.97 646.76 1049.05 651.219 1049.05C655.678 1049.05 660.189 1047.97 663.675 1045.76L662.603 1044.07ZM639.834 1044.07L583.315 1008.18L582.243 1009.87L638.762 1045.76L639.834 1044.07Z" fill="#343131" mask="url(#path-16-inside-3_288_9388)"/>
<rect y="0.536034" width="442.428" height="442.428" rx="13.6207" transform="matrix(0.844196 0.536034 -0.844196 0.536034 651.67 577.346)" fill="#151719" stroke="#3A3A3A"/>
<path fill-rule="evenodd" clip-rule="evenodd" d="M117.77 23.6432C121.752 26.339 128.208 26.339 132.191 23.6432C134.182 22.2953 135.177 20.5286 135.177 18.762H135.178V587.259C135.72 589.394 134.774 591.668 132.34 593.316C128.357 596.012 121.901 596.012 117.919 593.316C115.927 591.968 114.931 590.2 114.932 588.433H114.904V19.8266C115.225 21.2236 116.18 22.5669 117.77 23.6432Z" fill="url(#paint6_linear_288_9388)"/>
<path d="M131.92 192.521L226.92 256.832L241.499 281.346L238.901 282.938L226.92 286.122L131.92 221.811L129.205 194.431L131.92 192.521Z" fill="#440202"/>
<path d="M129.385 194.219L224.385 258.53L238.964 283.045L224.385 287.82L129.385 223.51L129.385 194.219Z" fill="#5D0505"/>
<path d="M132.454 82.1528L227.147 146.464L241.679 170.978L239.09 172.57L227.147 175.754L132.454 111.443L129.747 84.0625L132.454 82.1528Z" fill="#991616"/>
<path d="M129.927 83.8508L224.621 148.162L239.153 172.676L224.621 177.452L129.927 113.141L129.927 83.8508Z" fill="#C12121"/>
<path d="M120.579 139.46L25.5792 203.771L11.0001 228.285L13.5981 229.877L25.5792 233.061L120.579 168.75L123.294 141.37L120.579 139.46Z" fill="#680505"/>
<path d="M123.113 141.156L28.1131 205.467L13.534 229.982L28.1131 234.757L123.113 170.446L123.113 141.156Z" fill="#8F0202"/>
<circle r="8.70735" transform="matrix(0.828096 0.560587 -0.828096 0.560587 124.98 18.7624)" fill="#414141"/>
<rect x="-2.98023e-08" y="0.5" width="259.779" height="80.6808" rx="2.07575" transform="matrix(0.866025 0.5 -0.866025 0.5 765.513 628.781)" fill="#151719" stroke="#393939"/>
<path fill-rule="evenodd" clip-rule="evenodd" d="M696 670.209L696 690.266C695.385 690.952 695.576 691.816 696.572 692.391L917.952 820.205C919.184 820.916 921.182 820.916 922.414 820.205L988.69 781.94C989.922 781.229 989.922 780.076 988.69 779.364L987 778.389V761.183L922.412 798.473C921.18 799.184 919.183 799.184 917.951 798.473L696.571 670.659C696.336 670.523 696.145 670.371 696 670.209Z" fill="url(#paint7_linear_288_9388)"/>
<path d="M696 670.209L696.372 669.875L695.5 668.905V670.209L696 670.209ZM696 690.266L696.372 690.6L696.5 690.457V690.266H696ZM696.572 692.391L696.822 691.958H696.822L696.572 692.391ZM917.952 820.205L917.702 820.638L917.952 820.205ZM922.414 820.205L922.664 820.638L922.414 820.205ZM988.69 781.94L988.44 781.507L988.69 781.94ZM988.69 779.364L988.44 779.797L988.69 779.364ZM987 778.389H986.5V778.677L986.75 778.822L987 778.389ZM987 761.183H987.5V760.317L986.75 760.75L987 761.183ZM922.412 798.473L922.662 798.906L922.412 798.473ZM917.951 798.473L917.701 798.906L917.951 798.473ZM696.571 670.659L696.821 670.226L696.821 670.226L696.571 670.659ZM695.5 670.209L695.5 690.266H696.5L696.5 670.209L695.5 670.209ZM695.628 689.932C695.228 690.378 695.054 690.933 695.198 691.494C695.336 692.038 695.749 692.493 696.322 692.824L696.822 691.958C696.399 691.714 696.218 691.449 696.167 691.246C696.119 691.06 696.157 690.84 696.372 690.6L695.628 689.932ZM696.322 692.824L917.702 820.638L918.202 819.772L696.822 691.958L696.322 692.824ZM917.702 820.638C918.412 821.048 919.311 821.238 920.183 821.238C921.055 821.238 921.954 821.048 922.664 820.638L922.164 819.772C921.641 820.073 920.926 820.238 920.183 820.238C919.44 820.238 918.724 820.073 918.202 819.772L917.702 820.638ZM922.664 820.638L988.94 782.373L988.44 781.507L922.164 819.772L922.664 820.638ZM988.94 782.373C989.647 781.965 990.114 781.36 990.114 780.652C990.114 779.944 989.647 779.339 988.94 778.931L988.44 779.797C988.965 780.1 989.114 780.428 989.114 780.652C989.114 780.877 988.965 781.204 988.44 781.507L988.94 782.373ZM988.94 778.931L987.25 777.956L986.75 778.822L988.44 779.797L988.94 778.931ZM987.5 778.389V761.183H986.5V778.389H987.5ZM986.75 760.75L922.162 798.04L922.662 798.906L987.25 761.616L986.75 760.75ZM922.162 798.04C921.64 798.341 920.924 798.506 920.182 798.506C919.439 798.506 918.723 798.341 918.201 798.04L917.701 798.906C918.411 799.316 919.31 799.506 920.182 799.506C921.053 799.506 921.952 799.316 922.662 798.906L922.162 798.04ZM918.201 798.04L696.821 670.226L696.321 671.092L917.701 798.906L918.201 798.04ZM696.821 670.226C696.624 670.112 696.477 669.992 696.372 669.875L695.628 670.544C695.814 670.751 696.048 670.934 696.321 671.092L696.821 670.226Z" fill="#272727"/>
<rect width="316.752" height="316.752" rx="9.82628" transform="matrix(0.866025 0.5 -0.866025 0.5 1116.66 260.466)" fill="#121416"/>
<rect width="316.752" height="316.752" rx="9.82628" transform="matrix(0.866025 0.5 -0.866025 0.5 1116.66 260.466)" fill="url(#paint8_linear_288_9388)"/>
<path fill-rule="evenodd" clip-rule="evenodd" d="M1356.25 438.89L1125.17 572.305C1120.47 575.018 1112.85 575.018 1108.15 572.305L876.945 438.817L1108.03 305.402C1112.73 302.689 1120.35 302.689 1125.05 305.402L1356.25 438.89Z" fill="url(#paint9_radial_288_9388)"/>
<path d="M728.631 78.4915L872.744 437.305L1117.3 552.534L1357.49 437.305L1514.7 78.4915H728.631Z" fill="url(#paint10_linear_288_9388)"/>
<mask id="path-33-inside-4_288_9388" fill="white">
<path fill-rule="evenodd" clip-rule="evenodd" d="M864.042 285H859L859 318.094C858.399 320.225 859.522 322.486 862.368 324.129L1119.66 472.679C1124.36 475.393 1131.98 475.393 1136.68 472.679L1393.98 324.129C1395.98 322.972 1397.13 321.509 1397.43 320H1398V285H1392.56L1136.81 432.657C1132.11 435.37 1124.49 435.37 1119.79 432.657L864.042 285Z"/>
</mask>
<path fill-rule="evenodd" clip-rule="evenodd" d="M864.042 285H859L859 318.094C858.399 320.225 859.522 322.486 862.368 324.129L1119.66 472.679C1124.36 475.393 1131.98 475.393 1136.68 472.679L1393.98 324.129C1395.98 322.972 1397.13 321.509 1397.43 320H1398V285H1392.56L1136.81 432.657C1132.11 435.37 1124.49 435.37 1119.79 432.657L864.042 285Z" fill="url(#paint11_linear_288_9388)"/>
<path d="M864.042 285L864.542 284.134L864.31 284H864.042V285ZM859 285V284H858V285L859 285ZM859 318.094L859.962 318.366L860 318.233V318.094H859ZM862.368 324.129L861.868 324.995H861.868L862.368 324.129ZM1119.66 472.679L1119.16 473.545L1119.66 472.679ZM1136.68 472.679L1136.18 471.813L1136.68 472.679ZM1393.98 324.129L1393.48 323.263V323.263L1393.98 324.129ZM1397.43 320V319H1396.6L1396.45 319.808L1397.43 320ZM1398 320V321H1399V320H1398ZM1398 285H1399V284H1398V285ZM1392.56 285V284H1392.29L1392.06 284.134L1392.56 285ZM1136.81 432.657L1136.31 431.79L1136.81 432.657ZM1119.79 432.657L1120.29 431.79L1119.79 432.657ZM864.042 284H859V286H864.042V284ZM858 285L858 318.094H860V285L858 285ZM858.037 317.823C857.266 320.56 858.798 323.223 861.868 324.995L862.868 323.263C860.246 321.75 859.533 319.891 859.962 318.366L858.037 317.823ZM861.868 324.995L1119.16 473.545L1120.16 471.813L862.868 323.263L861.868 324.995ZM1119.16 473.545C1121.7 475.01 1124.96 475.714 1128.17 475.714C1131.38 475.714 1134.65 475.01 1137.18 473.545L1136.18 471.813C1134.02 473.061 1131.12 473.714 1128.17 473.714C1125.22 473.714 1122.33 473.061 1120.16 471.813L1119.16 473.545ZM1137.18 473.545L1394.48 324.995L1393.48 323.263L1136.18 471.813L1137.18 473.545ZM1394.48 324.995C1396.64 323.747 1398.04 322.075 1398.41 320.192L1396.45 319.808C1396.22 320.943 1395.33 322.197 1393.48 323.263L1394.48 324.995ZM1397.43 321H1398V319H1397.43V321ZM1399 320V285H1397V320H1399ZM1398 284H1392.56V286H1398V284ZM1392.06 284.134L1136.31 431.79L1137.31 433.523L1393.06 285.866L1392.06 284.134ZM1136.31 431.79C1134.15 433.039 1131.25 433.692 1128.3 433.692C1125.35 433.692 1122.45 433.039 1120.29 431.79L1119.29 433.523C1121.83 434.988 1125.09 435.692 1128.3 435.692C1131.51 435.692 1134.77 434.988 1137.31 433.523L1136.31 431.79ZM1120.29 431.79L864.542 284.134L863.542 285.866L1119.29 433.523L1120.29 431.79Z" fill="#BD3232" mask="url(#path-33-inside-4_288_9388)"/>
<rect x="-2.98023e-08" y="0.5" width="315.752" height="315.752" rx="9.32628" transform="matrix(0.866025 0.5 -0.866025 0.5 1128.73 126.888)" fill="#151719" stroke="#736767"/>
<path fill-rule="evenodd" clip-rule="evenodd" d="M1253.26 94.397H1240.63V265.335C1240.36 266.009 1240.36 266.718 1240.63 267.392V267.428H1240.65C1240.94 268.111 1241.5 268.756 1242.35 269.291C1244.9 270.909 1249.04 270.909 1251.6 269.291C1253.34 268.188 1253.9 266.617 1253.26 265.216V94.397Z" fill="url(#paint12_linear_288_9388)"/>
<rect width="180.559" height="95.6655" rx="7.72475" transform="matrix(0.866025 0.5 -2.20305e-08 1 1170 0.731934)" fill="#ABABAB"/>
<rect width="181.133" height="95.6655" rx="7.72475" transform="matrix(0.866025 0.5 -2.20305e-08 1 1168 2)" fill="#D9D9D9"/>
<rect x="0.692051" y="1.19867" width="166.909" height="81.4414" rx="6.92564" transform="matrix(0.866025 0.5 -2.20305e-08 1 1173.14 10.8808)" stroke="black" stroke-width="1.59822"/>
<path d="M1205.42 85.6319L1205.42 61.6905L1209.25 63.8995L1209.25 73.6612L1216.31 67.9776L1221.05 70.7139L1213.53 76.6495L1221.01 94.6319L1216.4 91.9659L1210.87 78.5479L1209.33 79.626L1209.33 87.8878L1205.42 85.6319ZM1222.47 71.5342L1228.8 75.1846L1232.41 94.2159L1232.49 94.2628L1236.11 79.4092L1242.43 83.0538L1242.43 106.995L1238.6 104.786L1238.6 87.1846L1238.65 84.1085L1238.21 86.3526L1234.11 102.196L1230.79 100.274L1226.74 79.7725L1226.24 76.8135L1226.3 80.0245L1226.3 97.6846L1222.47 95.4757L1222.47 71.5342ZM1245.98 85.1046L1249.8 87.3135L1249.8 104.399C1249.8 104.642 1249.82 104.903 1249.85 105.185C1249.87 105.466 1249.93 105.761 1250.02 106.069C1250.11 106.378 1250.23 106.694 1250.38 107.019C1250.55 107.339 1250.76 107.663 1251.01 107.991C1251.28 108.315 1251.6 108.642 1251.98 108.97C1252.36 109.29 1252.81 109.603 1253.34 109.907C1253.87 110.216 1254.33 110.429 1254.71 110.546C1255.09 110.659 1255.42 110.706 1255.68 110.687C1255.94 110.659 1256.16 110.579 1256.32 110.446C1256.48 110.306 1256.61 110.132 1256.7 109.925C1256.78 109.718 1256.84 109.489 1256.87 109.239C1256.9 108.989 1256.91 108.743 1256.91 108.501L1256.91 91.4151L1260.69 93.6007L1260.69 110.78C1260.69 112.015 1260.52 112.978 1260.16 113.669C1259.8 114.36 1259.29 114.812 1258.64 115.023C1258 115.23 1257.23 115.212 1256.32 114.97C1255.42 114.732 1254.43 114.298 1253.34 113.669C1252.25 113.04 1251.25 112.323 1250.34 111.519C1249.44 110.718 1248.67 109.841 1248.02 108.888C1247.38 107.931 1246.88 106.899 1246.52 105.794C1246.16 104.689 1245.98 103.519 1245.98 102.284L1245.98 85.1046ZM1262.75 94.7901L1277.01 103.023L1277.01 106.831L1271.86 103.855L1271.86 123.987L1267.99 121.755L1267.99 101.622L1262.75 98.5987L1262.75 94.7901ZM1278.22 103.72L1292.48 111.952L1292.48 115.761L1287.32 112.784L1287.32 132.917L1283.46 130.685L1283.46 110.552L1278.22 107.528L1278.22 103.72Z" fill="black"/>
<path d="M1199.02 52.4436L1186.08 59.9099L1199.02 82.3087" stroke="black" stroke-width="1.86459"/>
<rect x="-2.98023e-08" y="0.5" width="259.779" height="80.6808" rx="2.07575" transform="matrix(0.866025 0.5 -0.866025 0.5 734.653 497.626)" fill="#151719" stroke="#242424"/>
<path fill-rule="evenodd" clip-rule="evenodd" d="M665 538.876L665 559.289C664.562 559.941 664.799 560.71 665.711 561.236L887.091 689.05C888.323 689.761 890.321 689.761 891.552 689.05L957.829 650.785C958.266 650.533 958.548 650.225 958.675 649.901L959 650V627.6L958.723 627.516C958.854 628.061 958.555 628.634 957.829 629.054L891.553 667.318C890.321 668.03 888.323 668.03 887.091 667.318L665.711 539.505C665.391 539.32 665.154 539.105 665 538.876Z" fill="url(#paint13_linear_288_9388)"/>
<path d="M665 538.876L665.415 538.597L664.5 537.233V538.876L665 538.876ZM665 559.289L665.415 559.568L665.5 559.441V559.289H665ZM665.711 561.236L665.461 561.669H665.461L665.711 561.236ZM887.091 689.05L886.841 689.483L887.091 689.05ZM891.552 689.05L891.802 689.483L891.552 689.05ZM957.829 650.785L957.579 650.352L957.829 650.785ZM958.675 649.901L958.821 649.422L958.378 649.287L958.209 649.718L958.675 649.901ZM959 650L958.854 650.478L959.5 650.676V650H959ZM959 627.6H959.5V627.23L959.146 627.122L959 627.6ZM958.723 627.516L958.869 627.037L958.034 626.783L958.237 627.632L958.723 627.516ZM957.829 629.054L958.079 629.487L957.829 629.054ZM891.553 667.318L891.803 667.751L891.553 667.318ZM887.091 667.318L886.841 667.751L887.091 667.318ZM665.711 539.505L665.961 539.072L665.711 539.505ZM664.5 538.876L664.5 559.289H665.5V538.876L664.5 538.876ZM664.585 559.011C664.286 559.457 664.203 559.975 664.378 560.475C664.547 560.96 664.935 561.366 665.461 561.669L665.961 560.803C665.575 560.58 665.389 560.339 665.322 560.145C665.259 559.966 665.277 559.774 665.415 559.568L664.585 559.011ZM665.461 561.669L886.841 689.483L887.341 688.617L665.961 560.803L665.461 561.669ZM886.841 689.483C887.551 689.893 888.45 690.083 889.322 690.083C890.194 690.083 891.093 689.893 891.802 689.483L891.302 688.617C890.78 688.918 890.065 689.083 889.322 689.083C888.579 689.083 887.863 688.918 887.341 688.617L886.841 689.483ZM891.802 689.483L958.079 651.218L957.579 650.352L891.302 688.617L891.802 689.483ZM958.079 651.218C958.583 650.927 958.961 650.542 959.141 650.083L958.209 649.718C958.135 649.908 957.949 650.139 957.579 650.352L958.079 651.218ZM958.529 650.379L958.854 650.478L959.146 649.522L958.821 649.422L958.529 650.379ZM959.5 650V627.6H958.5V650H959.5ZM959.146 627.122L958.869 627.037L958.577 627.994L958.854 628.078L959.146 627.122ZM958.237 627.632C958.297 627.882 958.197 628.264 957.579 628.621L958.079 629.487C958.914 629.005 959.411 628.241 959.209 627.399L958.237 627.632ZM957.579 628.621L891.303 666.885L891.803 667.751L958.079 629.487L957.579 628.621ZM891.303 666.885C890.781 667.187 890.065 667.352 889.322 667.352C888.579 667.352 887.863 667.187 887.341 666.885L886.841 667.751C887.551 668.161 888.45 668.352 889.322 668.352C890.194 668.352 891.093 668.161 891.803 667.751L891.303 666.885ZM887.341 666.885L665.961 539.072L665.461 539.938L886.841 667.751L887.341 666.885ZM665.961 539.072C665.692 538.916 665.518 538.75 665.415 538.597L664.585 539.154C664.79 539.46 665.09 539.723 665.461 539.938L665.961 539.072Z" fill="#282828"/>
<defs>
<linearGradient id="paint0_linear_288_9388" x1="-14.4058" y1="742.519" x2="694.523" y2="742.519" gradientUnits="userSpaceOnUse">
<stop offset="0.355456" stop-color="#121416"/>
<stop offset="0.505623" stop-color="#1F2326"/>
<stop offset="0.649117" stop-color="#1C1F22"/>
</linearGradient>
<linearGradient id="paint1_linear_288_9388" x1="606.604" y1="573.741" x2="235.531" y2="787.98" gradientUnits="userSpaceOnUse">
<stop offset="0.183056" stop-color="#42484E"/>
<stop offset="0.223252" stop-color="#6D7782"/>
<stop offset="0.255717" stop-color="#292B2D"/>
</linearGradient>
<linearGradient id="paint2_linear_288_9388" x1="709.704" y1="439.853" x2="415.984" y2="439.853" gradientUnits="userSpaceOnUse">
<stop offset="0.707213" stop-color="#121416"/>
<stop offset="0.78842" stop-color="#1F2326"/>
<stop offset="0.891775" stop-color="#1C1F22"/>
</linearGradient>
<linearGradient id="paint3_linear_288_9388" x1="829.927" y1="400.712" x2="536.208" y2="400.712" gradientUnits="userSpaceOnUse">
<stop offset="0.707213" stop-color="#121416"/>
<stop offset="0.78842" stop-color="#1F2326"/>
<stop offset="0.891775" stop-color="#1C1F22"/>
</linearGradient>
<linearGradient id="paint4_linear_288_9388" x1="636.559" y1="809.031" x2="1465.08" y2="809.031" gradientUnits="userSpaceOnUse">
<stop offset="0.355456" stop-color="#121416"/>
<stop offset="0.505623" stop-color="#1F2326"/>
<stop offset="0.649117" stop-color="#1C1F22"/>
</linearGradient>
<linearGradient id="paint5_linear_288_9388" x1="283.722" y1="1052.23" x2="1017.82" y2="1052.23" gradientUnits="userSpaceOnUse">
<stop offset="0.355456" stop-color="#121416"/>
<stop offset="0.505623" stop-color="#1F2326"/>
<stop offset="0.649117" stop-color="#1C1F22"/>
</linearGradient>
<linearGradient id="paint6_linear_288_9388" x1="114.904" y1="323.549" x2="135.177" y2="323.549" gradientUnits="userSpaceOnUse">
<stop stop-color="#343434"/>
<stop offset="0.495567" stop-color="#929292"/>
<stop offset="1" stop-color="#525252"/>
</linearGradient>
<linearGradient id="paint7_linear_288_9388" x1="695.894" y1="726.455" x2="989.614" y2="726.455" gradientUnits="userSpaceOnUse">
<stop offset="0.707213" stop-color="#121416"/>
<stop offset="0.78842" stop-color="#1F2326"/>
<stop offset="0.891775" stop-color="#1C1F22"/>
</linearGradient>
<linearGradient id="paint8_linear_288_9388" x1="-119.374" y1="143.388" x2="231.987" y2="-32.2929" gradientUnits="userSpaceOnUse">
<stop offset="0.370226" stop-color="#1C1F22"/>
<stop offset="0.444252" stop-color="#1F2326"/>
<stop offset="0.534285" stop-color="#121416"/>
</linearGradient>
<radialGradient id="paint9_radial_288_9388" cx="0" cy="0" r="1" gradientUnits="userSpaceOnUse" gradientTransform="translate(1116.6 438.854) rotate(90) scale(135.486 239.654)">
<stop stop-color="#C0571B"/>
<stop offset="0.614583" stop-color="#8F0202"/>
</radialGradient>
<linearGradient id="paint10_linear_288_9388" x1="1115.12" y1="78.4915" x2="1115.12" y2="552.534" gradientUnits="userSpaceOnUse">
<stop offset="0.539079" stop-color="#D61313" stop-opacity="0"/>
<stop offset="1" stop-color="#8F0202"/>
</linearGradient>
<linearGradient id="paint11_linear_288_9388" x1="859.294" y1="356.575" x2="1397.5" y2="356.575" gradientUnits="userSpaceOnUse">
<stop offset="0.416179" stop-color="#573531"/>
<stop offset="0.505623" stop-color="#7D5D58"/>
<stop offset="0.604612" stop-color="#6F4D42"/>
</linearGradient>
<linearGradient id="paint12_linear_288_9388" x1="1240.63" y1="214.188" x2="1253.75" y2="214.188" gradientUnits="userSpaceOnUse">
<stop offset="0.1875" stop-color="#514F4F"/>
<stop offset="0.489583" stop-color="#8C8C8C"/>
<stop offset="0.796875" stop-color="#828282"/>
</linearGradient>
<linearGradient id="paint13_linear_288_9388" x1="665.033" y1="595.3" x2="958.753" y2="595.3" gradientUnits="userSpaceOnUse">
<stop offset="0.707213" stop-color="#121416"/>
<stop offset="0.78842" stop-color="#1F2326"/>
<stop offset="0.891775" stop-color="#1C1F22"/>
</linearGradient>
</defs>
</svg>
