<svg viewBox="0 0 1318 668" preserveAspectRatio="none" fill="none" xmlns="http://www.w3.org/2000/svg">
<!-- <path d="M-1 2H1317V668H-1V2Z" fill="white"/>
<mask id="mask0_611_2" style="mask-type:alpha" maskUnits="userSpaceOnUse" x="0" y="0" width="1318" height="666">
<rect width="1318" height="666" fill="white"/>
</mask>
<g mask="url(#mask0_611_2)">
<path d="M162.5 10C117.5 61.5 131 70.5 63 74.5C-5 78.5 -41 98.5 -51 108.5" stroke="#ECD0D0" stroke-width="4"/>
<path d="M89.5 80C147.5 80.8 178.333 30.3333 186.5 5H203.5C200 74.5 110.5 87 71 93C39.4 97.8 11.8333 124.333 2 137L-16.5 118C-5.33333 105 31.5 79.2 89.5 80Z" fill="#ECD0D0"/>
<path d="M2.15571 198.015C1.62512 204.449 2.26859 209.079 1.90843 211C-0.186359 207.579 0.048579 203.084 2.15571 198.015C3.83491 177.655 17.2734 139.236 111.5 111.5C164.158 95.9999 202.908 49 207.408 25H235.908C207.408 90 186 118.5 81.4084 143C44.7215 151.594 10.1075 178.888 2.15571 198.015Z" fill="#ECD0D0"/>
<path d="M206.856 91.2182C219.266 78.7767 232.511 74.5554 237.582 74C220.578 90.9405 226.082 87.5 213.582 101C205.587 109.634 189.495 109.299 183.668 108.832C183.249 108.821 182.827 108.78 182.395 108.714C182.387 108.713 182.379 108.712 182.371 108.71C181.28 108.591 181.141 108.525 182.371 108.71C182.714 108.748 183.15 108.79 183.668 108.832C188.29 108.957 192.636 105.476 206.856 91.2182Z" fill="#ECD0D0"/>
</g>
<g clip-path="url(#clip0_611_2)">
<path d="M109.5 412.7C64.7999 409.7 44.1999 446.9 47.8999 478.6C51.5999 510.3 74.6999 522.8 96.3999 524.7C118.2 526.6 154.9 512.9 160.5 478.6C164.9 452.2 147.5 415.2 109.5 412.7Z" stroke="#5D0505" stroke-miterlimit="10" stroke-linecap="round" stroke-linejoin="round"/>
<path d="M127.7 462.8C119.6 462.1 110.4 467 111.1 471.3C111.8 475.5 119.6 475.2 126.7 471.3C133.8 467.4 127.7 462.8 127.7 462.8Z" stroke="#5D0505" stroke-miterlimit="10" stroke-linecap="round" stroke-linejoin="round"/>
<path d="M81.3998 438.4C74.1998 438.4 71.2998 439.4 73.2998 443C75.2998 446.6 74.5998 450.5 79.4998 449.8C84.3998 449.1 87.5998 446.9 87.2998 443.6C86.9998 440.3 81.3998 438.4 81.3998 438.4Z" stroke="#5D0505" stroke-miterlimit="10" stroke-linecap="round" stroke-linejoin="round"/>
<path d="M77.5 505.4C82.1 503.1 84.7 503.8 87.3 505.4C89.9 507 90.6 509.6 89.9 511.6C89.2 513.6 82.7 509.6 80.1 509C77.5 508.4 77.5 505.4 77.5 505.4Z" stroke="#5D0505" stroke-miterlimit="10" stroke-linecap="round" stroke-linejoin="round"/>
<path d="M62.6 432.7C63.2 432.7 63.2 431.7 62.6 431.7C61.9 431.7 61.9 432.7 62.6 432.7Z" fill="#5D0505"/>
<path d="M61.5999 431.9C62.7999 434 65.0999 435 67.3999 435.3C70.3999 435.7 73.3999 434.7 76.3999 434.4C82.0999 434 86.5999 437.8 91.3999 440.3C93.9999 441.6 96.6999 442.4 99.6999 442.5C102.9 442.7 106.2 442.5 109.4 442.1C115.8 441.3 122 439.6 127.9 437.1C131 435.8 134.1 434.2 137.3 433.2C140.5 432.2 143.9 431.6 147.2 432.5C147.8 432.7 148.1 431.7 147.5 431.5C141.8 429.8 135.9 432.4 130.8 434.7C128 436 125.1 437.2 122.2 438.2C119.1 439.2 116 440 112.8 440.6C109.7 441.1 106.5 441.5 103.3 441.6C100.2 441.7 97.0999 441.6 94.1999 440.5C89.2999 438.6 85.2999 434.7 80.0999 433.7C76.5999 433 73.2999 434.2 69.7999 434.4C67.1999 434.6 63.9999 433.9 62.5999 431.4C62.1999 430.9 61.2999 431.4 61.5999 431.9Z" fill="#5D0505"/>
<path d="M58.3 436.8C61.6 438 64.6 439.9 67 442.4C68.2 443.7 69.3 445.1 70.2 446.6C71.1 448.1 71.9 449.6 73.2 450.8C75.6 453.2 78.8999 453.7 82.0999 453.1C85.6999 452.5 88.7999 450.7 92 449.1C95.2999 447.5 98.9 446.1 102.7 446.8C106 447.4 109.1 449 112.2 450.3C115.4 451.5 118.7 452.3 122.1 451.3C125.6 450.3 128.5 448 131.2 445.6C133.9 443.2 136.5 440.4 139.9 438.9C142.7 437.6 146.3 437.1 149.3 437.9C150 438.1 150.6 438.3 151.2 438.7C151.8 439 152.3 438.2 151.7 437.8C149.1 436.2 145.7 436.3 142.8 436.9C139.4 437.6 136.6 439.4 134.1 441.6C131.3 444 128.7 446.8 125.4 448.7C123.8 449.6 122 450.4 120.2 450.6C118.5 450.8 116.8 450.6 115.2 450.1C111.9 449.2 108.9 447.5 105.7 446.4C104.1 445.9 102.5 445.5 100.8 445.5C99 445.5 97.1 445.9 95.4 446.5C91.9 447.8 88.8 449.9 85.4 451.1C82.3 452.2 78.5 452.8 75.5 451.1C74 450.2 72.9 448.7 72 447.2C70.9 446 70 444.5 69 443.1C66.8 440.4 64 438.2 60.9 436.8C60.1 436.4 59.4 436.1 58.6 435.9C58 435.7 57.7 436.6 58.3 436.8Z" fill="#5D0505"/>
<path d="M55.9998 440C59.4998 440.2 62.2998 442.6 64.3998 445.1C66.5998 447.7 68.1998 450.8 70.4998 453.3C72.7998 455.8 75.7998 457.5 79.1998 458.1C82.5998 458.7 86.0998 458.5 89.4998 457.8C93.3998 457.1 97.1998 455.9 101.2 455.3C105.3 454.7 109.2 455 113.3 455.7C117.1 456.3 120.9 456.9 124.7 456.4C128.3 455.9 131.4 454.2 134.4 452.2C137.3 450.2 140 448 143.2 446.5C146.2 445.1 149.8 444.2 153.1 444.9C153.9 445.1 154.7 445.4 155.4 445.8C156 446.1 156.5 445.2 155.9 444.9C153 443.3 149.6 443.3 146.4 444.2C143 445.1 140 446.9 137.2 448.9C134.3 450.9 131.4 453.2 128.1 454.4C124.4 455.8 120.4 455.7 116.5 455.1C112.6 454.6 108.7 453.7 104.8 453.9C100.8 454.1 96.7998 455.1 92.8998 456C86.0998 457.6 77.9998 458.8 72.2998 453.6C67.3998 449.1 65.0998 441.5 58.2998 439.3C57.5998 439.2 56.7998 439 55.9998 439C55.3998 439 55.3998 440 55.9998 440Z" fill="#5D0505"/>
<path d="M158.4 452.2C155.2 449.9 151.1 450.2 147.6 451.4C143.7 452.7 140.5 455.2 136.9 457.2C135.1 458.2 133.1 459.2 131.1 459.7C128.9 460.2 126.6 460.1 124.4 459.9C122.2 459.7 120 459.5 117.7 459.9C115.8 460.2 114.1 461.1 112.5 462.2C109.4 464.4 106.9 467.5 103.4 469.3C99.9998 471.1 95.9998 471.7 92.1998 471.4C88.2998 471.1 84.4998 469.9 81.0998 467.9C77.7998 466 74.7998 462.7 70.7998 462.4C68.5998 462.2 66.4998 463.5 64.2998 462.9C62.6998 462.5 61.5998 461.1 60.7998 459.8C59.8998 458.4 59.0998 456.9 58.0998 455.6C56.8998 454.1 55.2998 453 53.4998 452.2C52.5998 451.8 51.5998 451.6 50.6998 451.4C50.0998 451.3 49.7998 452.3 50.3998 452.4C52.3998 452.7 54.2998 453.5 55.7998 454.7C57.1998 455.9 58.0998 457.4 59.0998 458.9C59.8998 460.3 60.7998 461.7 61.9998 462.7C63.3998 463.9 65.0998 464.1 66.8998 463.8C68.0998 463.6 69.1998 463.2 70.3998 463.3C71.3998 463.3 72.3998 463.6 73.2998 464C75.0998 464.8 76.6998 466.1 78.3998 467.3C81.5998 469.5 85.1998 471.1 88.9998 471.8C92.6998 472.5 96.5998 472.6 100.2 471.5C102 471 103.7 470.2 105.3 469.2C106.9 468.2 108.3 466.9 109.7 465.7C111.1 464.4 112.6 463.1 114.3 462.1C116.2 461 118.2 460.5 120.3 460.5C122.6 460.5 124.8 460.9 127.1 460.9C129.2 461 131.3 460.6 133.3 459.9C137.2 458.5 140.5 455.9 144.1 453.9C147.4 452.1 151.6 450.6 155.4 451.7C156.3 452 157.2 452.4 157.9 452.9C158.4 453.4 158.9 452.5 158.4 452.2Z" fill="#5D0505"/>
<path d="M48.7999 458.3C51.4999 460.6 50.9999 464.8 52.6999 467.7C54.8999 471.4 59.1999 471 62.8999 470.7C65.0999 470.5 67.2999 470.5 69.4999 471.1C71.7999 471.7 73.8999 472.7 75.6999 474.2C77.4999 475.6 78.9999 477.3 80.9999 478.5C82.5999 479.5 84.4999 480.1 86.2999 480.3C90.5999 480.9 94.9999 479.7 98.2999 476.8C97.9999 476.6 97.6999 476.5 97.4999 476.3C97.4999 476.4 97.3999 476.5 97.3999 476.6C97.2999 477.1 97.8999 477.4 98.1999 477.1C99.9999 475.5 102.6 475.4 104.9 475.8C107.5 476.3 109.8 477.5 112.2 478.4C114.7 479.3 117.2 479.8 119.9 479.4C122.6 479 125.1 477.9 127.4 476.6C129.6 475.4 131.8 474.1 133 471.9C133.6 470.8 134 469.6 134.5 468.4C134.9 467.5 135.4 466.6 136 465.7C138.3 462.4 141.8 460 145.6 458.7C149.9 457.2 154.7 456.9 159.1 458.4C159.7 458.6 160 457.6 159.4 457.4C151.7 454.8 142.3 457.3 136.8 463.2C135.4 464.7 134.3 466.4 133.5 468.3C133 469.6 132.5 470.9 131.7 472C130.9 473.1 129.9 473.8 128.8 474.5C126.6 476 124 477.3 121.3 478C118.5 478.7 115.8 478.5 113.1 477.6C110.3 476.6 107.7 475.2 104.8 474.8C102.3 474.4 99.5999 474.7 97.5999 476.4C97.8999 476.6 98.1999 476.7 98.3999 476.9C98.3999 476.8 98.4999 476.7 98.4999 476.6C98.5999 476.1 97.9999 475.8 97.6999 476.1C94.7999 478.6 90.9999 479.7 87.1999 479.4C85.2999 479.2 83.4999 478.7 81.7999 477.8C79.7999 476.7 78.2999 475 76.4999 473.6C73.1999 470.9 68.9999 469.4 64.5999 469.6C61.2999 469.7 56.3999 471 53.9999 467.7C51.7999 464.7 52.5999 460.2 49.5999 457.6C49.0999 457.1 48.3999 457.8 48.7999 458.3Z" fill="#5D0505"/>
<path d="M47.7999 469.9C51.6999 471.3 54.8999 474.2 58.0999 476.7C59.6999 478 61.2999 479.2 63.0999 480.2C64.9999 481.3 66.9999 481.8 69.1999 482.1C70.4999 482.3 71.7999 482.4 72.9999 482.9C74.0999 483.3 75.1999 483.9 76.1999 484.6C78.1999 486 80.0999 487.5 82.2999 488.6C84.4999 489.8 86.7999 490.8 89.1999 491.5C91.3999 492.1 93.7999 492.4 95.8999 491.4C99.3999 489.9 100.4 485.9 102.7 483.2C104.2 481.5 106.1 480.8 108.3 480.9C110.7 481 113.1 481.9 115.4 482.4C119.8 483.3 124.7 483.6 128.8 481.5C132.1 479.8 134.3 476.7 136.5 473.7C138.6 470.8 140.7 467.7 144.1 466.2C146.3 465.2 148.8 465.2 151.1 465.5C153.3 465.7 155.4 466.2 157.5 466.8C158.5 467.1 159.4 467.4 160.3 467.9C160.9 468.2 161.4 467.3 160.8 467C158.9 466.1 156.9 465.5 154.9 465.1C152.8 464.7 150.6 464.3 148.5 464.4C146.3 464.4 144.1 464.9 142.3 466.1C140.8 467 139.5 468.3 138.4 469.6C136 472.4 134.2 475.7 131.6 478.3C130.1 479.7 128.4 480.9 126.4 481.5C124.2 482.2 121.8 482.3 119.5 482.1C117.1 481.9 114.8 481.3 112.5 480.7C110.3 480.1 107.9 479.6 105.6 480.3C101.7 481.4 100.5 485.3 98.2999 488.2C96.9999 489.9 95.3999 491 93.1999 491.1C90.6999 491.2 88.2999 490.3 85.9999 489.3C83.6999 488.3 81.4999 487 79.3999 485.6C77.4999 484.2 75.5999 482.7 73.2999 481.9C70.9999 481 68.3999 481.1 65.9999 480.3C64.0999 479.6 62.3999 478.6 60.6999 477.4C57.2999 475 54.3999 472 50.6999 470.1C49.7999 469.6 48.9999 469.2 47.9999 468.9C47.4999 468.7 47.1999 469.6 47.7999 469.9Z" fill="#5D0505"/>
<path d="M57.9999 504.1C59.2999 501 61.7999 498.6 64.5999 497C67.5999 495.3 70.8999 494.5 74.2999 494.7C82.8999 495.2 90.3999 499.9 98.4999 502.1C102.4 503.2 106.6 503.8 110.6 503C112.4 502.6 114.1 501.8 115.5 500.5C116.9 499.3 118.1 497.8 119.4 496.5C124.7 491.3 132 488.3 139.4 488.3C143 488.3 146.8 489.3 150.2 487.9C153.1 486.8 154.7 483.8 157.4 482.3C158.1 481.9 158.8 481.6 159.6 481.5C160.2 481.4 160.2 480.4 159.6 480.5C156.4 480.9 154.4 483.5 152.1 485.5C150.7 486.7 149.2 487.3 147.4 487.5C145.5 487.7 143.6 487.5 141.7 487.3C134.3 486.8 126.9 489.1 121 493.7C119.5 494.9 118.2 496.2 117 497.5C115.7 498.9 114.4 500.3 112.6 501.1C110.7 502 108.5 502.2 106.4 502.2C104.3 502.2 102.1 501.8 99.9999 501.3C91.6999 499.3 84.1999 494.6 75.6999 493.7C72.0999 493.3 68.6999 493.7 65.4999 495.3C62.5999 496.7 59.8999 498.9 58.0999 501.7C57.6999 502.4 57.2999 503.1 56.9999 503.8C56.7999 504.4 57.6999 504.7 57.9999 504.1Z" fill="#5D0505"/>
<path d="M63.4999 510.8C64.5999 507.9 66.8999 505.7 69.6999 504.3C72.8999 502.7 76.5999 502.2 80.1999 502.2C81.9999 502.2 83.8999 502.3 85.6999 502.4C87.4999 502.6 89.2999 502.8 90.8999 503.7C93.6999 505.1 95.3999 507.9 97.8999 509.7C100.7 511.7 104.2 511.8 107.5 511.8C109.3 511.8 111.1 511.8 112.8 511.4C114.2 511 115.5 510.3 116.6 509.3C118.9 507.4 120.4 504.8 122.3 502.6C124.4 500.1 127.1 498.3 130 497.1C137.8 493.9 146.5 495 154.6 496.1C155.2 496.2 155.5 495.2 154.9 495.1C147.4 494.1 139.6 493 132.2 495.2C129.1 496.1 126.2 497.6 123.7 499.6C121.3 501.6 119.7 504.2 117.8 506.6C116.8 507.7 115.7 508.8 114.4 509.6C112.8 510.5 110.9 510.7 109.1 510.8C105.7 510.9 101.7 511 98.7999 509C96.1999 507.3 94.4999 504.5 91.6999 502.9C88.5999 501.2 84.6999 501.2 81.2999 501.2C77.2999 501.1 73.2999 501.5 69.6999 503.3C66.5999 504.8 63.9999 507.3 62.7999 510.5C62.2999 511.2 63.1999 511.4 63.4999 510.8Z" fill="#5D0505"/>
<path d="M66.4 512.7C67.3 510.6 69.6 509.9 71.8 510C74.4 510.1 76.5 511.4 78.5 512.9C80.8 514.5 83 516.3 85.8 517C88.8 517.8 91.8 517.2 94.8 516.6C96.3 516.3 97.9 516 99.5 515.9C101 515.8 102.6 515.9 104.1 516.2C107 516.7 110 517.7 113 517.5C114.4 517.4 115.7 517 116.9 516.2C118.1 515.4 119.1 514.4 120.1 513.4C122.2 511.3 124.4 509.3 126.9 507.7C132.6 504.1 140 502.7 146.2 505.9C146.8 506.2 147.3 505.3 146.7 505C141.2 502.2 134.8 502.7 129.3 505.2C126.6 506.5 124.1 508.2 121.9 510.2C120.8 511.2 119.7 512.3 118.6 513.4C117.5 514.5 116.3 515.5 114.8 516C111.9 517 108.7 516.1 105.8 515.5C104.3 515.2 102.8 514.9 101.2 514.8C99.6 514.7 98 515 96.5 515.2C93.4 515.7 90.2 516.6 87 516.1C84 515.6 81.6 513.7 79.2 512C76.9 510.3 74.5 508.9 71.5 508.9C69.1 508.8 66.6 509.8 65.6 512.1C65.2 512.8 66.1 513.3 66.4 512.7Z" fill="#5D0505"/>
<path d="M72.6998 428.4C78.3998 427.1 84.4998 427.8 89.5998 430.5C92.0998 431.8 94.4998 433.6 97.1998 434.6C99.8998 435.6 102.8 435.9 105.6 435.6C108.9 435.3 112 434.5 115.1 433.3C115.7 433.1 115.4 432.1 114.8 432.3C109.4 434.5 103.3 435.6 97.5998 433.7C94.7998 432.7 92.4998 430.9 89.8998 429.6C87.3998 428.3 84.5998 427.4 81.7998 427C78.6998 426.6 75.4998 426.7 72.3998 427.4C71.7998 427.6 72.0998 428.6 72.6998 428.4Z" fill="#5D0505"/>
<path d="M120.7 430.3C123.4 428.5 126 426.6 128.4 424.5C128.9 424.1 128.2 423.4 127.7 423.8C125.3 425.8 122.8 427.7 120.2 429.4C119.7 429.8 120.2 430.7 120.7 430.3Z" fill="#5D0505"/>
<path d="M120.5 414.9C117.5 418.3 113.7 420.9 109.3 422.3C108.7 422.5 108.9 423.5 109.6 423.3C114.1 421.9 118.1 419.2 121.2 415.7C121.6 415.1 120.9 414.4 120.5 414.9Z" fill="#5D0505"/>
<path d="M124.7 416.2C123.3 417.6 121.7 418.8 119.9 419.7C119.3 420 119.8 420.9 120.4 420.6C122.2 419.6 123.9 418.4 125.4 416.9C125.8 416.5 125.1 415.8 124.7 416.2Z" fill="#5D0505"/>
<path d="M79.7999 418.6C85.8999 421.3 92.7999 421.9 99.1999 420.1C99.7999 419.9 99.5999 419 98.8999 419.1C92.6999 420.7 86.0999 420.2 80.2999 417.7C79.6999 417.4 79.1999 418.3 79.7999 418.6Z" fill="#5D0505"/>
<path d="M48.2999 480.2C52.9999 483.2 58.2999 485 63.7999 485.5C64.3999 485.6 64.3999 484.6 63.7999 484.5C58.3999 484 53.2999 482.2 48.7999 479.3C48.2999 478.9 47.7999 479.8 48.2999 480.2Z" fill="#5D0505"/>
<path d="M49.4 487.6C53.1 489.1 57.2 489.8 61.2 489.7C61.8 489.7 61.8 488.7 61.2 488.7C57.2 488.8 53.3 488.1 49.6 486.7C49.1 486.4 48.8 487.4 49.4 487.6Z" fill="#5D0505"/>
<path d="M160.3 471.6C156.8 474 152.7 475.6 148.5 476C147.9 476.1 147.9 477.1 148.5 477C152.9 476.6 157.2 475 160.8 472.5C161.4 472.1 160.9 471.2 160.3 471.6Z" fill="#5D0505"/>
</g>
<path d="M795.5 565C796.957 568.938 800.062 572.043 804 573.5C800.062 574.957 796.957 578.062 795.5 582C794.043 578.062 790.938 574.957 787 573.5C790.938 572.043 794.043 568.938 795.5 565Z" fill="#E76363"/>
<path d="M902.5 556C903.957 559.938 907.062 563.043 911 564.5C907.062 565.957 903.957 569.062 902.5 573C901.043 569.062 897.938 565.957 894 564.5C897.938 563.043 901.043 559.938 902.5 556Z" fill="#E76363"/>
<path d="M722.5 359C723.957 362.938 727.062 366.043 731 367.5C727.062 368.957 723.957 372.062 722.5 376C721.043 372.062 717.938 368.957 714 367.5C717.938 366.043 721.043 362.938 722.5 359Z" fill="#E76363"/>
<path d="M1005.5 136C1006.96 139.938 1010.06 143.043 1014 144.5C1010.06 145.957 1006.96 149.062 1005.5 153C1004.04 149.062 1000.94 145.957 997 144.5C1000.94 143.043 1004.04 139.938 1005.5 136Z" fill="#E76363"/>
<path d="M990.5 92C991.957 95.938 995.062 99.0428 999 100.5C995.062 101.957 991.957 105.062 990.5 109C989.043 105.062 985.938 101.957 982 100.5C985.938 99.0428 989.043 95.938 990.5 92Z" fill="#E76363"/>
<path d="M890.5 153C891.957 156.938 895.062 160.043 899 161.5C895.062 162.957 891.957 166.062 890.5 170C889.043 166.062 885.938 162.957 882 161.5C885.938 160.043 889.043 156.938 890.5 153Z" fill="#E76363"/>
<path d="M468.5 523C469.957 526.938 473.062 530.043 477 531.5C473.062 532.957 469.957 536.062 468.5 540C467.043 536.062 463.938 532.957 460 531.5C463.938 530.043 467.043 526.938 468.5 523Z" fill="#E76363"/>
<path d="M384.5 509C385.957 512.938 389.062 516.043 393 517.5C389.062 518.957 385.957 522.062 384.5 526C383.043 522.062 379.938 518.957 376 517.5C379.938 516.043 383.043 512.938 384.5 509Z" fill="#E76363"/>
<circle cx="725.5" cy="560.5" r="3.5" fill="#E76363"/>
<circle cx="418.5" cy="531.5" r="3.5" fill="#E76363"/>
<circle cx="330.5" cy="536.5" r="3.5" fill="#E76363"/>
<circle cx="707.5" cy="426.5" r="3.5" fill="#E76363"/>
<circle cx="938.5" cy="170.5" r="3.5" fill="#E76363"/>
<circle cx="914.5" cy="125.5" r="3.5" fill="#E76363"/>
<path fill-rule="evenodd" clip-rule="evenodd" d="M1173.94 175.061C1209.27 181.665 1240.26 197.372 1262.32 223.968C1283.94 250.02 1295.18 281.894 1289.57 314.431C1283.44 349.986 1265.14 383.85 1231.67 401.734C1195.29 421.17 1149.48 427.367 1112.42 409.075C1076.59 391.385 1069.3 350.663 1055.88 314.949C1038.74 269.316 994.26 217.83 1026.31 179.848C1058.38 141.854 1123.14 165.565 1173.94 175.061Z" fill="url(#paint0_linear_611_2)"/>
<mask id="mask1_611_2" style="mask-type:alpha" maskUnits="userSpaceOnUse" x="1015" y="159" width="276" height="261">
<path fill-rule="evenodd" clip-rule="evenodd" d="M1173.94 175.061C1209.27 181.665 1240.26 197.372 1262.32 223.968C1283.94 250.02 1295.18 281.894 1289.57 314.431C1283.44 349.986 1265.14 383.85 1231.67 401.734C1195.29 421.17 1149.48 427.367 1112.42 409.075C1076.59 391.385 1069.3 350.663 1055.88 314.949C1038.74 269.316 994.26 217.83 1026.31 179.848C1058.38 141.854 1123.14 165.565 1173.94 175.061Z" fill="url(#paint1_linear_611_2)"/>
</mask>
<g mask="url(#mask1_611_2)">
<path opacity="0.6" d="M1058.5 204.5C1114.9 136.9 1203.67 116 1241 114L1267.08 121.159C1276.93 122.665 1285.42 125.175 1292 128L1267.08 121.159C1227.53 115.111 1166.03 125.228 1118 196C1058 284.4 979.667 289.5 948 281C961.333 283.667 1002.1 272.1 1058.5 204.5Z" fill="#D25757"/>
<path opacity="0.6" d="M1057.11 273.022C1151.11 262.522 1135.11 202.022 1189.11 144.522C1202.28 140.355 1223.81 134.522 1204.61 144.522C1180.61 157.022 1172.61 174.022 1155.61 228.522C1142.01 272.122 1090.95 286.188 1062.61 284.522C1029.45 284.188 981.915 281.422 1057.11 273.022Z" fill="#D25757"/>
<path d="M1168.5 155.5C1155.33 166.167 1144.23 196.938 1109.5 233C1083.5 260 1046 282.833 1028 272.5" stroke="#B53434" stroke-width="4"/>
</g>
<path fill-rule="evenodd" clip-rule="evenodd" d="M828.971 403.003C858.317 403.028 889.828 404.762 909.085 424.016C929.122 444.049 933.592 473.174 924.505 498.519C916.152 521.814 892.228 538.055 865.514 545.536C842.849 551.883 819.744 543.834 799.002 533.666C780.347 524.52 767.115 510.706 759.184 493.41C748.708 470.564 732.895 444.301 748.659 423.879C765.041 402.657 799.574 402.978 828.971 403.003Z" fill="url(#paint2_linear_611_2)"/>
<mask id="mask2_611_2" style="mask-type:alpha" maskUnits="userSpaceOnUse" x="742" y="403" width="187" height="145">
<path fill-rule="evenodd" clip-rule="evenodd" d="M828.971 403.003C858.317 403.028 889.828 404.762 909.085 424.016C929.122 444.049 933.592 473.174 924.505 498.519C916.152 521.814 892.228 538.055 865.514 545.536C842.849 551.883 819.744 543.834 799.002 533.666C780.347 524.52 767.115 510.706 759.184 493.41C748.708 470.564 732.895 444.301 748.659 423.879C765.041 402.657 799.574 402.978 828.971 403.003Z" fill="url(#paint3_linear_611_2)"/>
</mask>
<g mask="url(#mask2_611_2)">
<path d="M731 530.75C749.4 469.708 845.833 382.19 883 362.536L878.5 404.156C796.5 441.152 746 503.967 731 530.75Z" fill="#B63434"/>
</g>
<defs>
<linearGradient id="paint0_linear_611_2" x1="1153" y1="159" x2="1345" y2="477" gradientUnits="userSpaceOnUse">
<stop stop-color="#8F0202"/>
<stop offset="1"/>
</linearGradient>
<linearGradient id="paint1_linear_611_2" x1="1153" y1="159" x2="1345" y2="477" gradientUnits="userSpaceOnUse">
<stop stop-color="#8F0202"/>
<stop offset="1"/>
</linearGradient>
<linearGradient id="paint2_linear_611_2" x1="835.5" y1="403" x2="950.635" y2="748.092" gradientUnits="userSpaceOnUse">
<stop stop-color="#8F0202"/>
<stop offset="1"/>
</linearGradient>
<linearGradient id="paint3_linear_611_2" x1="835.5" y1="403" x2="950.635" y2="748.092" gradientUnits="userSpaceOnUse">
<stop stop-color="#8F0202"/>
<stop offset="1"/>
</linearGradient>
<clipPath id="clip0_611_2">
<rect width="114.7" height="113.4" fill="white" transform="translate(47 412)"/>
</clipPath>
</defs> -->
</svg>
