<svg width="18" height="18" viewBox="0 0 18 18" fill="none" xmlns="http://www.w3.org/2000/svg">
<path d="M0.547852 17.938H17.4479C17.5805 17.938 17.7076 17.8853 17.8014 17.7915C17.8952 17.6978 17.9479 17.5706 17.9479 17.438C17.9479 17.3054 17.8952 17.1782 17.8014 17.0844C17.7076 16.9907 17.5805 16.938 17.4479 16.938H0.547852C0.415243 16.938 0.288066 16.9907 0.194298 17.0844C0.10053 17.1782 0.0478516 17.3054 0.0478516 17.438C0.0478516 17.5706 0.10053 17.6978 0.194298 17.7915C0.288066 17.8853 0.415243 17.938 0.547852 17.938Z" fill="black"/>
<path d="M6.70971 14.18C7.13211 14.0618 7.51752 13.8381 7.82971 13.53L17.3697 3.99002C17.6964 3.66203 17.8798 3.21796 17.8798 2.75502C17.8798 2.29209 17.6964 1.84801 17.3697 1.52002L16.4297 0.590021C16.0971 0.272276 15.6547 0.0949707 15.1947 0.0949707C14.7347 0.0949707 14.2924 0.272276 13.9597 0.590021L4.41971 10.12C4.11105 10.4302 3.8902 10.8166 3.77971 11.24L3.03971 14C3.0046 14.1261 3.0037 14.2592 3.03709 14.3858C3.07048 14.5123 3.13697 14.6277 3.22971 14.72C3.37126 14.8592 3.56123 14.938 3.75971 14.94L6.70971 14.18ZM7.11971 12.82C6.93536 13.0077 6.70395 13.1424 6.44971 13.21L5.47971 13.47L4.47971 12.47L4.73971 11.5C4.80966 11.2468 4.94402 11.0159 5.12971 10.83L5.50971 10.46L7.49971 12.45L7.11971 12.82ZM8.20971 11.74L6.21971 9.75002L12.9497 3.02002L14.9397 5.01002L8.20971 11.74ZM16.6597 3.29002L15.6497 4.30002L13.6597 2.31002L14.6697 1.29002C14.7392 1.22024 14.8218 1.16487 14.9128 1.12708C15.0037 1.0893 15.1012 1.06985 15.1997 1.06985C15.2982 1.06985 15.3957 1.0893 15.4867 1.12708C15.5776 1.16487 15.6602 1.22024 15.7297 1.29002L16.6597 2.23002C16.7992 2.37116 16.8774 2.56159 16.8774 2.76002C16.8774 2.95845 16.7992 3.14888 16.6597 3.29002Z" fill="black"/>
</svg>
