<svg width="173" height="100" viewBox="0 0 173 100" fill="none" xmlns="http://www.w3.org/2000/svg">
<g filter="url(#filter0_d_1220_3)">
<circle cx="39" cy="6" r="6" fill="#8C2B0C"/>
<circle cx="38.9999" cy="5.99985" r="5.15" fill="#8C2B0C" stroke="white" stroke-width="0.5" stroke-dasharray="1 1"/>
</g>
<g filter="url(#filter1_d_1220_3)">
<circle cx="34" cy="73" r="9" fill="#D7560D"/>
<circle cx="33.9999" cy="72.9999" r="7.6" fill="#D7560D" stroke="white" stroke-dasharray="2 2"/>
</g>
<g filter="url(#filter2_d_1220_3)">
<circle cx="154" cy="39" r="15" fill="#8C2B0C"/>
<circle cx="154" cy="38.9998" r="13" fill="#8C2B0C" stroke="white" stroke-dasharray="2 2"/>
</g>
<g filter="url(#filter3_d_1220_3)">
<circle cx="19" cy="28" r="15" fill="#E46E18"/>
<circle cx="18.9998" cy="27.9998" r="13" fill="#E46E18" stroke="white" stroke-dasharray="2 2"/>
</g>
<g filter="url(#filter4_d_1220_3)">
<circle cx="88.1786" cy="46.1786" r="43.6786" fill="#E46E18" stroke="#8C2B0C" stroke-width="3"/>
<circle cx="88.179" cy="46.1788" r="37.3333" fill="#E46E18" stroke="#8C2B0C" stroke-width="2" stroke-dasharray="3 3"/>
<mask id="mask0_1220_3" style="mask-type:alpha" maskUnits="userSpaceOnUse" x="67" y="35" width="41" height="40">
<path d="M106.562 51.4822L104.839 50.8569C104.761 50.8569 104.683 50.7788 104.604 50.6225C103.821 48.8249 103.43 47.8089 102.647 45.9332C102.647 45.8551 102.647 45.7769 102.647 45.6206L103.43 43.9794C103.508 43.9012 103.508 43.7449 103.43 43.6667C102.803 42.7289 102.099 41.8692 101.237 41.0876C100.454 40.3061 99.5927 39.6027 98.653 38.8993C98.5747 38.8212 98.418 38.8212 98.3397 38.8993L96.6953 39.6809C96.6169 39.759 96.4603 39.759 96.382 39.6809C94.5809 38.8993 93.5629 38.5086 91.6835 37.727C91.6052 37.727 91.5269 37.6489 91.4486 37.4925C91.292 37.1018 90.9787 36.1639 90.8221 35.7732C90.8221 35.695 90.6655 35.6168 90.5872 35.5387C89.4909 35.3824 88.3946 35.2261 87.2199 35.2261C86.0453 35.2261 84.949 35.3042 83.8527 35.5387C83.7744 35.5387 83.6177 35.6168 83.6177 35.7732L82.9913 37.4925C82.9913 37.5707 82.913 37.6489 82.7564 37.727C80.9553 38.5086 79.9372 38.8993 78.0578 39.6809C77.9795 39.6809 77.9012 39.6809 77.7446 39.6809C77.4314 39.5246 76.4917 39.0556 76.1001 38.8993C76.0218 38.8212 75.8652 38.8993 75.7869 38.8993C74.8472 39.5246 73.9858 40.2279 73.2027 41.0876C72.4196 41.8692 71.7149 42.7289 71.0101 43.6667C70.9318 43.7449 70.9318 43.9012 71.0101 43.9794L71.7932 45.6206C71.8715 45.6988 71.8715 45.7769 71.7932 45.9332C71.0101 47.7308 70.6185 48.7468 69.8355 50.6225C69.8355 50.7006 69.7572 50.7788 69.6005 50.8569L67.8777 51.4822C67.7994 51.5603 67.7211 51.6385 67.6428 51.7166C67.9561 52.8108 67.8777 53.905 67.8777 55.0773C67.8777 56.2496 67.9561 57.3437 68.191 58.4379C68.191 58.5161 68.2693 58.6724 68.4259 58.6724L70.1487 59.2976C70.227 59.2976 70.3053 59.3758 70.3836 59.5321C71.1667 61.3296 71.5582 62.3456 72.3413 64.2213C72.3413 64.2995 72.3413 64.3776 72.3413 64.5339L71.5582 66.1752C71.4799 66.2533 71.4799 66.4096 71.5582 66.4878C72.1847 67.4256 72.8895 68.2853 73.7509 69.0669C74.534 69.8484 75.3954 70.5518 76.3351 71.2552C76.4134 71.3334 76.57 71.3334 76.6483 71.2552L78.2928 70.4737C78.3711 70.3955 78.4494 70.3955 78.606 70.4737C80.4071 71.2552 81.4251 71.646 83.3045 72.4275C83.3828 72.4275 83.4611 72.5057 83.5394 72.662C83.6961 73.0528 84.0093 73.9906 84.1659 74.3814C84.1659 74.4595 84.3225 74.5377 84.4008 74.6158C85.4971 74.7721 86.5935 74.9285 87.7681 74.9285C88.8644 74.9285 90.039 74.8503 91.1354 74.6158C91.2137 74.6158 91.3703 74.5377 91.3703 74.3814L91.9967 72.662C91.9967 72.5838 92.0751 72.5057 92.2317 72.4275C94.0328 71.646 95.0508 71.2552 96.9302 70.4737C97.0085 70.4737 97.0868 70.4737 97.1651 70.4737C97.4783 70.63 98.418 71.0989 98.8096 71.2552C98.8879 71.3334 99.0445 71.3334 99.1228 71.2552C99.9842 70.7081 100.767 70.0047 101.472 69.3013C101.55 69.2232 101.629 69.145 101.707 69.0669C102.49 68.2853 103.195 67.4256 103.821 66.4878C103.9 66.4096 103.9 66.2533 103.821 66.1752L103.038 64.5339C103.038 64.4558 102.96 64.3776 103.038 64.2995C103.117 63.9869 103.273 63.7524 103.351 63.5179C103.43 63.2835 103.273 63.049 103.038 63.049H96.6169C96.5386 63.049 96.4603 63.049 96.382 63.1272C94.2677 65.4718 91.1354 66.9567 87.6898 66.9567C82.7564 66.9567 78.5277 63.9087 76.8049 59.6102C76.7266 59.3758 76.8832 59.1413 77.1181 59.1413C80.7203 59.1413 104.683 59.1413 105.857 59.1413H105.936L106.797 58.8287C106.875 58.8287 106.954 58.6724 107.032 58.5942C107.189 57.5 107.345 56.4059 107.345 55.2336C107.345 54.0613 107.267 52.9671 107.032 51.8729C106.719 51.6385 106.64 51.5603 106.562 51.4822ZM87.9247 56.953C86.4368 57.2656 85.1839 56.0151 85.5755 54.6083C85.7321 53.905 86.2802 53.3579 86.985 53.2016C88.4729 52.8889 89.7258 54.1394 89.3343 55.5462C89.1776 56.2496 88.6295 56.7967 87.9247 56.953ZM76.8049 51.1696C76.57 51.1696 76.4134 50.9351 76.4917 50.7006C78.2145 46.4021 82.4431 43.3541 87.3765 43.3541C92.31 43.3541 96.5386 46.4021 98.2614 50.7006C98.3397 50.9351 98.1831 51.1696 97.9482 51.1696C95.2074 51.1696 79.7023 51.1696 76.8049 51.1696Z" fill="white"/>
</mask>
<g mask="url(#mask0_1220_3)">
<rect x="67.8572" y="35.0139" width="41.8343" height="42.688" fill="white"/>
</g>
<path d="M68.4466 24.8906L67.1966 30H65.599L63.6458 22.0195H65.263L66.431 27.2305L67.6771 22.0195H69.2786L70.431 27.293L71.6927 22.0195H73.2943L71.181 30H69.5833L68.4466 24.8906ZM75.9622 23.8555C76.3815 23.8555 76.7422 23.9284 77.0443 24.0742C77.349 24.2174 77.599 24.4258 77.7943 24.6992C77.9896 24.9701 78.1328 25.2995 78.224 25.6875C78.3177 26.0729 78.3646 26.5078 78.3646 26.9922C78.3646 27.5521 78.3073 28.0299 78.1927 28.4258C78.0781 28.819 77.9154 29.1406 77.7044 29.3906C77.4935 29.6406 77.2396 29.8242 76.9427 29.9414C76.6484 30.056 76.3216 30.1133 75.9622 30.1133C75.6107 30.1133 75.2878 30.0573 74.9935 29.9453C74.6992 29.8307 74.4466 29.6484 74.2357 29.3984C74.0247 29.1484 73.8594 28.8255 73.7396 28.4297C73.6224 28.0339 73.5638 27.5547 73.5638 26.9922C73.5638 26.5052 73.6094 26.0677 73.7005 25.6797C73.7917 25.2917 73.9336 24.9622 74.1263 24.6914C74.3216 24.4206 74.5703 24.2135 74.8724 24.0703C75.1745 23.9271 75.5378 23.8555 75.9622 23.8555ZM75.9622 28.9453C76.1211 28.9453 76.2591 28.9023 76.3763 28.8164C76.4961 28.7279 76.5951 28.6016 76.6732 28.4375C76.7513 28.2708 76.8099 28.0664 76.849 27.8242C76.888 27.582 76.9076 27.3047 76.9076 26.9922C76.9076 26.6693 76.8893 26.3828 76.8529 26.1328C76.819 25.8828 76.763 25.6745 76.6849 25.5078C76.6068 25.3385 76.5065 25.2109 76.3841 25.125C76.2643 25.0365 76.1185 24.9922 75.9466 24.9922C75.6263 24.9922 75.3919 25.1615 75.2435 25.5C75.0951 25.8385 75.0208 26.3359 75.0208 26.9922C75.0208 27.2995 75.0391 27.5742 75.0755 27.8164C75.1146 28.0586 75.1732 28.263 75.2513 28.4297C75.3294 28.5964 75.4271 28.724 75.5443 28.8125C75.6615 28.901 75.8008 28.9453 75.9622 28.9453ZM80.8802 24.5977C80.9766 24.4727 81.0794 24.3633 81.1888 24.2695C81.3008 24.1758 81.4284 24.1003 81.5716 24.043C81.7148 23.9831 81.8763 23.944 82.056 23.9258C82.2357 23.9049 82.4414 23.9089 82.6732 23.9375V25.2148C82.3893 25.168 82.1367 25.1745 81.9154 25.2344C81.694 25.2917 81.5078 25.3867 81.3568 25.5195C81.2057 25.6523 81.0911 25.8138 81.013 26.0039C80.9349 26.194 80.8958 26.3971 80.8958 26.6133V30H79.5365V23.9531H80.8802V24.5977ZM83.4115 30V21.8398H84.8216V26L86.5482 23.9531H88.1341L86.099 26.3672L88.0677 30H86.5951L85.1576 27.457L84.8216 27.8242V30H83.4115ZM91.0599 25.9531C91.0859 25.6302 91.0495 25.3893 90.9505 25.2305C90.8516 25.0716 90.6862 24.9922 90.4544 24.9922C90.3711 24.9922 90.2917 25.0039 90.2161 25.0273C90.1432 25.0508 90.0794 25.0859 90.0247 25.1328C89.9701 25.1797 89.9258 25.2383 89.8919 25.3086C89.8607 25.3789 89.8451 25.4596 89.8451 25.5508C89.8451 25.6523 89.8646 25.7409 89.9036 25.8164C89.9453 25.8893 90.0013 25.9544 90.0716 26.0117C90.1419 26.0664 90.224 26.1146 90.3177 26.1562C90.4115 26.1979 90.5104 26.237 90.6146 26.2734C90.7604 26.3229 90.9128 26.3763 91.0716 26.4336C91.2305 26.4909 91.3867 26.556 91.5404 26.6289C91.694 26.7018 91.8385 26.7852 91.974 26.8789C92.112 26.9701 92.2331 27.0768 92.3372 27.1992C92.4414 27.3216 92.5234 27.4609 92.5833 27.6172C92.6458 27.7708 92.6771 27.9466 92.6771 28.1445C92.6771 28.4492 92.6276 28.7227 92.5286 28.9648C92.4323 29.207 92.2891 29.4141 92.099 29.5859C91.9115 29.7552 91.681 29.8854 91.4076 29.9766C91.1341 30.0677 90.8216 30.1133 90.4701 30.1133C90.1107 30.1133 89.7943 30.0729 89.5208 29.9922C89.2474 29.9115 89.0169 29.7812 88.8294 29.6016C88.6445 29.4219 88.5039 29.1888 88.4076 28.9023C88.3138 28.6159 88.2643 28.2669 88.2591 27.8555H89.6693C89.6536 28.1914 89.7109 28.457 89.8411 28.6523C89.9714 28.8477 90.181 28.9453 90.4701 28.9453C90.7201 28.9453 90.9128 28.8867 91.0482 28.7695C91.1836 28.6523 91.2513 28.4818 91.2513 28.2578C91.2513 28.1458 91.2279 28.0508 91.181 27.9727C91.1341 27.8919 91.0703 27.8229 90.9896 27.7656C90.9089 27.7057 90.8138 27.6536 90.7044 27.6094C90.5977 27.5625 90.4818 27.5169 90.3568 27.4727C90.2109 27.4206 90.0612 27.3646 89.9076 27.3047C89.7565 27.2448 89.6081 27.1784 89.4622 27.1055C89.319 27.0299 89.1836 26.9466 89.056 26.8555C88.931 26.7617 88.8203 26.6536 88.724 26.5312C88.6302 26.4089 88.556 26.2708 88.5013 26.1172C88.4466 25.9609 88.4193 25.7839 88.4193 25.5859C88.4193 25.3125 88.4661 25.069 88.5599 24.8555C88.6536 24.6419 88.7865 24.4609 88.9583 24.3125C89.1302 24.1641 89.3359 24.0508 89.5755 23.9727C89.8151 23.8945 90.0807 23.8555 90.3724 23.8555C90.7083 23.8555 91.0078 23.8971 91.2708 23.9805C91.5339 24.0612 91.7565 24.1875 91.9388 24.3594C92.1211 24.5286 92.2578 24.7461 92.349 25.0117C92.4427 25.2747 92.4883 25.5885 92.4857 25.9531H91.0599ZM95.2279 24.6406C95.3086 24.5208 95.3984 24.4128 95.4974 24.3164C95.599 24.2201 95.707 24.138 95.8216 24.0703C95.9362 24 96.056 23.9466 96.181 23.9102C96.3086 23.8737 96.4388 23.8555 96.5716 23.8555C97.082 23.8555 97.4727 24.0026 97.7435 24.2969C98.0169 24.5885 98.1536 25.0182 98.1536 25.5859V30H96.7318V25.8242C96.7318 25.7044 96.7174 25.5938 96.6888 25.4922C96.6602 25.3906 96.6185 25.3034 96.5638 25.2305C96.5091 25.1549 96.4401 25.0964 96.3568 25.0547C96.276 25.013 96.1823 24.9922 96.0755 24.9922C95.9635 24.9922 95.8568 25.0156 95.7552 25.0625C95.6536 25.1094 95.5651 25.1771 95.4896 25.2656C95.4141 25.3516 95.3529 25.4557 95.306 25.5781C95.2617 25.7005 95.2396 25.8372 95.2396 25.9883L95.2435 30H93.8177V21.8398H95.2279V24.6406ZM101.712 23.8555C102.132 23.8555 102.492 23.9284 102.794 24.0742C103.099 24.2174 103.349 24.4258 103.544 24.6992C103.74 24.9701 103.883 25.2995 103.974 25.6875C104.068 26.0729 104.115 26.5078 104.115 26.9922C104.115 27.5521 104.057 28.0299 103.943 28.4258C103.828 28.819 103.665 29.1406 103.454 29.3906C103.243 29.6406 102.99 29.8242 102.693 29.9414C102.398 30.056 102.072 30.1133 101.712 30.1133C101.361 30.1133 101.038 30.0573 100.743 29.9453C100.449 29.8307 100.197 29.6484 99.9857 29.3984C99.7747 29.1484 99.6094 28.8255 99.4896 28.4297C99.3724 28.0339 99.3138 27.5547 99.3138 26.9922C99.3138 26.5052 99.3594 26.0677 99.4505 25.6797C99.5417 25.2917 99.6836 24.9622 99.8763 24.6914C100.072 24.4206 100.32 24.2135 100.622 24.0703C100.924 23.9271 101.288 23.8555 101.712 23.8555ZM101.712 28.9453C101.871 28.9453 102.009 28.9023 102.126 28.8164C102.246 28.7279 102.345 28.6016 102.423 28.4375C102.501 28.2708 102.56 28.0664 102.599 27.8242C102.638 27.582 102.658 27.3047 102.658 26.9922C102.658 26.6693 102.639 26.3828 102.603 26.1328C102.569 25.8828 102.513 25.6745 102.435 25.5078C102.357 25.3385 102.257 25.2109 102.134 25.125C102.014 25.0365 101.868 24.9922 101.697 24.9922C101.376 24.9922 101.142 25.1615 100.993 25.5C100.845 25.8385 100.771 26.3359 100.771 26.9922C100.771 27.2995 100.789 27.5742 100.826 27.8164C100.865 28.0586 100.923 28.263 101.001 28.4297C101.079 28.5964 101.177 28.724 101.294 28.8125C101.411 28.901 101.551 28.9453 101.712 28.9453ZM106.552 26.8633C106.552 26.9883 106.553 27.1276 106.556 27.2812C106.559 27.4349 106.569 27.5898 106.587 27.7461C106.605 27.9023 106.634 28.0547 106.673 28.2031C106.712 28.3516 106.768 28.4831 106.841 28.5977C106.914 28.7122 107.005 28.8047 107.115 28.875C107.227 28.9427 107.365 28.9766 107.529 28.9766C107.674 28.9766 107.799 28.944 107.904 28.8789C108.01 28.8138 108.1 28.7292 108.173 28.625C108.246 28.5182 108.303 28.3971 108.345 28.2617C108.389 28.1263 108.423 27.9883 108.447 27.8477C108.47 27.7044 108.486 27.5638 108.493 27.4258C108.501 27.2878 108.505 27.1641 108.505 27.0547C108.505 26.3828 108.431 25.8815 108.283 25.5508C108.134 25.2201 107.888 25.0547 107.544 25.0547C107.388 25.0547 107.255 25.0833 107.146 25.1406C107.039 25.1953 106.948 25.2695 106.872 25.3633C106.799 25.457 106.741 25.5664 106.697 25.6914C106.655 25.8138 106.624 25.9427 106.603 26.0781C106.582 26.2109 106.568 26.3451 106.56 26.4805C106.555 26.6159 106.552 26.7435 106.552 26.8633ZM106.665 24.4961C106.741 24.3789 106.824 24.2799 106.915 24.1992C107.009 24.1185 107.105 24.0534 107.204 24.0039C107.306 23.9518 107.408 23.9141 107.509 23.8906C107.611 23.8672 107.707 23.8555 107.798 23.8555C108.061 23.8555 108.297 23.8984 108.505 23.9844C108.716 24.0677 108.901 24.1849 109.06 24.3359C109.219 24.487 109.354 24.6654 109.466 24.8711C109.578 25.0768 109.669 25.3008 109.74 25.543C109.81 25.7852 109.861 26.0404 109.892 26.3086C109.926 26.5768 109.943 26.8477 109.943 27.1211C109.943 27.3945 109.926 27.6589 109.892 27.9141C109.861 28.1667 109.81 28.4049 109.74 28.6289C109.669 28.8529 109.578 29.0586 109.466 29.2461C109.357 29.431 109.224 29.5898 109.068 29.7227C108.911 29.8555 108.73 29.9583 108.525 30.0312C108.322 30.1068 108.091 30.1445 107.833 30.1445C107.599 30.1445 107.391 30.0911 107.208 29.9844C107.026 29.875 106.866 29.7357 106.728 29.5664V32.1133H105.286V23.9531H106.665V24.4961Z" fill="white"/>
</g>
<defs>
<filter id="filter0_d_1220_3" x="29" y="0" width="20" height="20" filterUnits="userSpaceOnUse" color-interpolation-filters="sRGB">
<feFlood flood-opacity="0" result="BackgroundImageFix"/>
<feColorMatrix in="SourceAlpha" type="matrix" values="0 0 0 0 0 0 0 0 0 0 0 0 0 0 0 0 0 0 127 0" result="hardAlpha"/>
<feOffset dy="4"/>
<feGaussianBlur stdDeviation="2"/>
<feComposite in2="hardAlpha" operator="out"/>
<feColorMatrix type="matrix" values="0 0 0 0 0 0 0 0 0 0 0 0 0 0 0 0 0 0 0.25 0"/>
<feBlend mode="normal" in2="BackgroundImageFix" result="effect1_dropShadow_1220_3"/>
<feBlend mode="normal" in="SourceGraphic" in2="effect1_dropShadow_1220_3" result="shape"/>
</filter>
<filter id="filter1_d_1220_3" x="21" y="64" width="26" height="26" filterUnits="userSpaceOnUse" color-interpolation-filters="sRGB">
<feFlood flood-opacity="0" result="BackgroundImageFix"/>
<feColorMatrix in="SourceAlpha" type="matrix" values="0 0 0 0 0 0 0 0 0 0 0 0 0 0 0 0 0 0 127 0" result="hardAlpha"/>
<feOffset dy="4"/>
<feGaussianBlur stdDeviation="2"/>
<feComposite in2="hardAlpha" operator="out"/>
<feColorMatrix type="matrix" values="0 0 0 0 0 0 0 0 0 0 0 0 0 0 0 0 0 0 0.25 0"/>
<feBlend mode="normal" in2="BackgroundImageFix" result="effect1_dropShadow_1220_3"/>
<feBlend mode="normal" in="SourceGraphic" in2="effect1_dropShadow_1220_3" result="shape"/>
</filter>
<filter id="filter2_d_1220_3" x="135" y="24" width="38" height="38" filterUnits="userSpaceOnUse" color-interpolation-filters="sRGB">
<feFlood flood-opacity="0" result="BackgroundImageFix"/>
<feColorMatrix in="SourceAlpha" type="matrix" values="0 0 0 0 0 0 0 0 0 0 0 0 0 0 0 0 0 0 127 0" result="hardAlpha"/>
<feOffset dy="4"/>
<feGaussianBlur stdDeviation="2"/>
<feComposite in2="hardAlpha" operator="out"/>
<feColorMatrix type="matrix" values="0 0 0 0 0 0 0 0 0 0 0 0 0 0 0 0 0 0 0.25 0"/>
<feBlend mode="normal" in2="BackgroundImageFix" result="effect1_dropShadow_1220_3"/>
<feBlend mode="normal" in="SourceGraphic" in2="effect1_dropShadow_1220_3" result="shape"/>
</filter>
<filter id="filter3_d_1220_3" x="0" y="13" width="38" height="38" filterUnits="userSpaceOnUse" color-interpolation-filters="sRGB">
<feFlood flood-opacity="0" result="BackgroundImageFix"/>
<feColorMatrix in="SourceAlpha" type="matrix" values="0 0 0 0 0 0 0 0 0 0 0 0 0 0 0 0 0 0 127 0" result="hardAlpha"/>
<feOffset dy="4"/>
<feGaussianBlur stdDeviation="2"/>
<feComposite in2="hardAlpha" operator="out"/>
<feColorMatrix type="matrix" values="0 0 0 0 0 0 0 0 0 0 0 0 0 0 0 0 0 0 0.25 0"/>
<feBlend mode="normal" in2="BackgroundImageFix" result="effect1_dropShadow_1220_3"/>
<feBlend mode="normal" in="SourceGraphic" in2="effect1_dropShadow_1220_3" result="shape"/>
</filter>
<filter id="filter4_d_1220_3" x="39" y="1" width="98.3572" height="98.3572" filterUnits="userSpaceOnUse" color-interpolation-filters="sRGB">
<feFlood flood-opacity="0" result="BackgroundImageFix"/>
<feColorMatrix in="SourceAlpha" type="matrix" values="0 0 0 0 0 0 0 0 0 0 0 0 0 0 0 0 0 0 127 0" result="hardAlpha"/>
<feOffset dy="4"/>
<feGaussianBlur stdDeviation="2"/>
<feComposite in2="hardAlpha" operator="out"/>
<feColorMatrix type="matrix" values="0 0 0 0 0 0 0 0 0 0 0 0 0 0 0 0 0 0 0.25 0"/>
<feBlend mode="normal" in2="BackgroundImageFix" result="effect1_dropShadow_1220_3"/>
<feBlend mode="normal" in="SourceGraphic" in2="effect1_dropShadow_1220_3" result="shape"/>
</filter>
</defs>
</svg>
