<svg width="737" height="279" viewBox="0 0 737 279" fill="none" xmlns="http://www.w3.org/2000/svg">
<mask id="mask0_590_384" style="mask-type:alpha" maskUnits="userSpaceOnUse" x="188" y="233" width="543" height="46">
<path d="M229.305 256.481C229.305 263.138 227.393 268.499 223.57 272.561C219.644 276.461 214.334 278.649 208.8 278.649C203.266 278.649 197.956 276.461 194.03 272.561C190.832 269.113 188.872 264.699 188.46 260.014C188.412 259.666 188.456 259.312 188.589 258.987C188.722 258.662 188.939 258.377 189.217 258.163C189.495 257.949 189.825 257.812 190.173 257.766C190.522 257.72 190.876 257.768 191.2 257.903L193.116 258.682C193.459 258.81 193.761 259.03 193.988 259.318C194.215 259.605 194.359 259.95 194.404 260.314C194.744 263.632 196.092 266.767 198.267 269.297C199.617 270.736 201.247 271.882 203.058 272.666C204.868 273.45 206.82 273.855 208.793 273.855C210.765 273.855 212.717 273.45 214.528 272.666C216.338 271.882 217.968 270.736 219.318 269.297C221.754 266.391 223.15 262.755 223.286 258.966V258.322V257.963C223.286 257.813 223.286 257.663 223.286 257.514C223.293 257.449 223.293 257.384 223.286 257.319C223.301 257.19 223.301 257.059 223.286 256.93C223.294 256.8 223.294 256.67 223.286 256.54C223.286 256.016 223.286 255.492 223.286 255.043C223.286 254.789 223.286 254.534 223.286 254.28C223.293 254.235 223.293 254.189 223.286 254.145C223.286 253.995 223.286 253.845 223.286 253.696C223.293 253.586 223.293 253.476 223.286 253.366C223.272 253.115 223.242 252.865 223.196 252.618C223.196 252.618 223.196 252.513 223.196 252.468C223.196 252.423 223.196 252.468 223.196 252.468V252.198C223.203 252.114 223.203 252.029 223.196 251.944L223.106 251.45C223.106 251.45 223.106 251.375 223.106 251.33C223.106 250.971 222.942 250.611 222.852 250.252C222.762 249.893 222.642 249.503 222.507 249.144L222.328 248.65C222.272 248.477 222.207 248.307 222.133 248.141C222.093 248.076 222.063 248.005 222.043 247.931C221.997 247.844 221.957 247.754 221.923 247.662C221.819 247.467 221.729 247.272 221.639 247.078L221.504 246.808C221.46 246.71 221.41 246.615 221.355 246.524L221.265 246.374V246.254L220.786 245.805L220.426 245.251L220.172 244.892L220.097 244.802L219.872 244.503L219.782 244.383L219.288 243.799C219.12 243.603 218.94 243.418 218.749 243.245V243.17L218.57 242.99L218.39 242.826C218.186 242.624 217.971 242.434 217.746 242.257C217.537 242.077 217.312 241.912 217.087 241.748C216.863 241.583 216.578 241.388 216.309 241.224H216.204L215.964 241.074L215.41 240.774L214.572 240.4L214.168 240.25C214.076 240.211 213.981 240.181 213.883 240.16H213.748L212.91 239.906L212.536 239.831L212.206 239.756C210.687 239.47 209.134 239.4 207.595 239.547H207.475H207.265C206.786 239.547 206.287 239.547 205.768 239.547C204.766 239.549 203.764 239.474 202.774 239.322C202.334 239.255 201.93 239.042 201.626 238.716C201.323 238.391 201.138 237.973 201.102 237.53C201.065 237.086 201.179 236.644 201.426 236.274C201.672 235.903 202.036 235.627 202.459 235.489C204.592 234.856 206.807 234.543 209.032 234.561C212.314 234.504 215.562 235.227 218.51 236.672C218.914 236.881 219.318 237.091 219.693 237.331C220.084 237.561 220.464 237.811 220.83 238.079L221.459 238.543C222.016 238.964 222.546 239.42 223.046 239.906L223.78 240.64C224.757 241.681 225.625 242.82 226.37 244.038C226.52 244.293 226.67 244.562 226.805 244.832C226.939 245.101 227.119 245.416 227.254 245.73C227.668 246.727 228.009 247.753 228.272 248.8C228.377 249.204 228.481 249.638 228.586 250.072C228.803 251.015 228.963 251.97 229.065 252.932C229.125 253.411 229.17 253.91 229.2 254.429V254.504C229.29 255.133 229.305 255.807 229.305 256.481Z" fill="#ED1C24"/>
<path d="M306.773 277.92H278.774C278.247 277.916 277.743 277.705 277.37 277.333C276.998 276.96 276.787 276.456 276.783 275.929V237C276.787 236.473 276.998 235.969 277.37 235.596C277.743 235.224 278.247 235.013 278.774 235.009H305.725C306.252 235.013 306.756 235.224 307.128 235.596C307.501 235.969 307.712 236.473 307.716 237V238.123C307.712 238.649 307.501 239.151 307.128 239.522C306.754 239.892 306.25 240.099 305.725 240.099H284.449C283.921 240.099 283.414 240.309 283.041 240.683C282.667 241.056 282.457 241.563 282.457 242.091V251.224C282.461 251.75 282.673 252.252 283.046 252.623C283.419 252.993 283.923 253.2 284.449 253.2H304.138C304.398 253.2 304.657 253.252 304.897 253.352C305.138 253.453 305.357 253.6 305.54 253.785C305.724 253.97 305.869 254.189 305.968 254.431C306.066 254.672 306.116 254.931 306.114 255.192V256.285C306.114 256.809 305.906 257.312 305.535 257.682C305.164 258.053 304.662 258.261 304.138 258.261H284.449C283.923 258.261 283.419 258.469 283.046 258.839C282.673 259.209 282.461 259.712 282.457 260.238V270.718C282.457 271.247 282.667 271.753 283.041 272.126C283.414 272.5 283.921 272.71 284.449 272.71H306.773C307.297 272.71 307.8 272.918 308.17 273.289C308.541 273.659 308.749 274.162 308.749 274.686V275.809C308.765 276.079 308.726 276.35 308.635 276.604C308.543 276.859 308.4 277.092 308.215 277.29C308.03 277.487 307.807 277.645 307.559 277.754C307.311 277.862 307.043 277.919 306.773 277.92Z" fill="#ED1C24"/>
<path d="M348.412 277.92H345.642C345.312 277.918 344.988 277.836 344.698 277.679C344.409 277.522 344.162 277.297 343.98 277.022L323.482 246.148C323.392 246.018 323.262 245.921 323.112 245.869C322.962 245.817 322.8 245.815 322.648 245.861C322.497 245.908 322.364 246.001 322.269 246.128C322.174 246.255 322.122 246.409 322.12 246.568V275.929C322.116 276.456 321.905 276.96 321.532 277.333C321.16 277.705 320.655 277.916 320.129 277.92H318.721C318.194 277.916 317.69 277.705 317.317 277.333C316.945 276.96 316.734 276.456 316.73 275.929V237C316.734 236.473 316.945 235.969 317.317 235.596C317.69 235.224 318.194 235.013 318.721 235.009H321.461C321.789 235.01 322.11 235.093 322.398 235.25C322.685 235.407 322.929 235.633 323.108 235.907L343.561 266.766C343.649 266.902 343.779 267.007 343.932 267.063C344.085 267.119 344.252 267.123 344.408 267.076C344.563 267.028 344.699 266.932 344.795 266.8C344.891 266.668 344.941 266.509 344.938 266.346V237.03C344.938 236.505 345.146 236 345.516 235.627C345.886 235.254 346.389 235.043 346.914 235.039H348.412C348.937 235.043 349.44 235.254 349.81 235.627C350.18 236 350.388 236.505 350.388 237.03V275.959C350.38 276.479 350.169 276.976 349.8 277.342C349.43 277.709 348.932 277.916 348.412 277.92Z" fill="#ED1C24"/>
<path d="M407.568 277.92H405.832C405.306 277.916 404.803 277.705 404.433 277.332C404.063 276.959 403.855 276.454 403.855 275.929V259.714C403.851 259.188 403.64 258.685 403.267 258.315C402.894 257.945 402.389 257.737 401.864 257.737H383.552C383.027 257.737 382.523 257.945 382.15 258.315C381.776 258.685 381.565 259.188 381.561 259.714V275.929C381.561 276.454 381.353 276.959 380.983 277.332C380.613 277.705 380.11 277.916 379.585 277.92H377.878C377.352 277.916 376.85 277.705 376.479 277.332C376.109 276.959 375.901 276.454 375.901 275.929V237C375.901 236.475 376.109 235.97 376.479 235.597C376.85 235.224 377.352 235.013 377.878 235.009H379.585C380.11 235.013 380.613 235.224 380.983 235.597C381.353 235.97 381.561 236.475 381.561 237V250.64C381.565 251.166 381.776 251.668 382.15 252.039C382.523 252.409 383.027 252.617 383.552 252.617H401.864C402.389 252.617 402.894 252.409 403.267 252.039C403.64 251.668 403.851 251.166 403.855 250.64V237C403.855 236.475 404.063 235.97 404.433 235.597C404.803 235.224 405.306 235.013 405.832 235.009H407.568C408.095 235.013 408.599 235.224 408.972 235.596C409.345 235.969 409.556 236.473 409.56 237V275.929C409.556 276.456 409.345 276.96 408.972 277.333C408.599 277.705 408.095 277.916 407.568 277.92Z" fill="#ED1C24"/>
<path d="M437.708 234.321C440.457 234.226 443.195 234.72 445.738 235.768C448.281 236.816 450.572 238.396 452.456 240.4C456.269 244.452 458.18 249.813 458.19 256.48C458.2 263.148 456.289 268.508 452.456 272.561C448.529 276.46 443.219 278.649 437.685 278.649C432.151 278.649 426.842 276.46 422.915 272.561C419.082 268.498 417.16 263.143 417.15 256.495C417.14 249.848 419.062 244.482 422.915 240.4C424.809 238.397 427.108 236.819 429.658 235.771C432.208 234.723 434.952 234.229 437.708 234.321ZM437.708 273.789C439.676 273.847 441.634 273.475 443.444 272.699C445.254 271.923 446.873 270.762 448.189 269.297C450.929 266.302 452.291 262.005 452.291 256.54C452.291 251.075 450.929 246.838 448.204 243.784C446.891 242.314 445.273 241.151 443.462 240.375C441.651 239.598 439.692 239.229 437.723 239.292C435.736 239.227 433.758 239.595 431.928 240.37C430.097 241.146 428.457 242.311 427.122 243.784C424.367 246.778 422.99 251.075 422.99 256.54C422.99 262.005 424.367 266.228 427.107 269.282C428.43 270.759 430.061 271.928 431.885 272.707C433.709 273.485 435.681 273.855 437.663 273.789H437.708Z" fill="#ED1C24"/>
<path d="M482.551 278.639C477.56 278.639 473.837 277.676 471.381 275.749C469.096 274.074 467.449 271.672 466.71 268.937C466.015 265.959 465.688 262.906 465.737 259.849V237.03C465.737 236.505 465.944 236.001 466.314 235.628C466.685 235.255 467.187 235.043 467.713 235.039H469.42C469.945 235.043 470.448 235.255 470.818 235.628C471.188 236.001 471.396 236.505 471.396 237.03V259.759C471.396 265.388 472.354 269.087 474.241 270.868C476.663 272.601 479.566 273.532 482.543 273.532C485.521 273.532 488.424 272.601 490.846 270.868C492.742 269.092 493.69 265.388 493.69 259.759V237.03C493.69 236.505 493.898 236.001 494.268 235.628C494.638 235.255 495.141 235.043 495.667 235.039H497.404C497.93 235.043 498.435 235.254 498.807 235.627C499.18 235.999 499.391 236.503 499.395 237.03V259.849C499.395 265.029 498.766 268.832 497.538 271.303C496.344 273.717 494.371 275.658 491.939 276.813C488.989 278.127 485.778 278.752 482.551 278.639Z" fill="#ED1C24"/>
<path d="M525.148 278.639C519.159 278.639 514.667 277.286 511.673 274.581C509.287 272.461 507.701 269.585 507.181 266.436C507.138 266.152 507.156 265.862 507.236 265.586C507.316 265.309 507.454 265.054 507.642 264.836C507.83 264.618 508.062 264.444 508.324 264.325C508.585 264.205 508.87 264.144 509.157 264.145H510.729C511.171 264.147 511.6 264.295 511.949 264.566C512.299 264.837 512.549 265.215 512.661 265.643C512.877 266.77 513.32 267.841 513.963 268.791C514.607 269.74 515.437 270.549 516.404 271.168C518.981 272.762 521.969 273.564 524.998 273.473C527.692 273.601 530.363 272.918 532.664 271.512C533.574 270.956 534.322 270.171 534.834 269.236C535.346 268.301 535.605 267.248 535.584 266.182C535.641 265.127 535.388 264.078 534.856 263.165C534.324 262.252 533.536 261.516 532.589 261.046C529.279 259.552 525.793 258.485 522.213 257.872C517.322 256.874 513.804 255.426 511.658 253.53C510.604 252.616 509.768 251.476 509.214 250.196C508.659 248.916 508.399 247.528 508.454 246.133C508.426 244.48 508.79 242.843 509.516 241.357C510.242 239.871 511.309 238.578 512.631 237.584C515.825 235.233 519.734 234.058 523.696 234.26C527.857 234.055 531.969 235.235 535.389 237.614C537.753 239.358 539.36 241.94 539.881 244.831C539.927 245.114 539.91 245.404 539.832 245.68C539.755 245.957 539.618 246.213 539.431 246.431C539.244 246.649 539.012 246.823 538.751 246.943C538.49 247.062 538.207 247.123 537.92 247.122H536.258C535.818 247.119 535.391 246.97 535.044 246.7C534.698 246.429 534.45 246.051 534.341 245.624C533.278 241.462 529.849 239.366 523.965 239.366C521.395 239.213 518.838 239.839 516.629 241.163C515.822 241.658 515.157 242.354 514.701 243.184C514.244 244.013 514.011 244.947 514.023 245.894C513.983 246.691 514.157 247.484 514.525 248.192C514.893 248.9 515.444 249.497 516.119 249.921C518.568 251.191 521.2 252.07 523.92 252.527C526.998 253.166 530.034 253.996 533.009 255.012C535.207 255.806 537.184 257.115 538.773 258.83C540.436 260.751 541.294 263.24 541.169 265.777C541.194 267.543 540.81 269.291 540.046 270.884C539.283 272.476 538.16 273.87 536.767 274.956C533.466 277.547 529.339 278.855 525.148 278.639Z" fill="#ED1C24"/>
<path d="M578.914 277.92H550.916C550.388 277.92 549.881 277.71 549.508 277.337C549.134 276.963 548.924 276.457 548.924 275.929V237C548.924 236.472 549.134 235.966 549.508 235.592C549.881 235.219 550.388 235.009 550.916 235.009H577.866C578.393 235.013 578.897 235.224 579.27 235.596C579.643 235.969 579.854 236.473 579.858 237V238.123C579.854 238.649 579.642 239.151 579.269 239.522C578.896 239.892 578.392 240.099 577.866 240.099H556.575C556.314 240.099 556.056 240.151 555.815 240.251C555.575 240.352 555.356 240.499 555.172 240.684C554.989 240.869 554.843 241.088 554.745 241.33C554.647 241.571 554.597 241.83 554.599 242.091V251.224C554.599 251.748 554.807 252.251 555.178 252.622C555.548 252.992 556.051 253.2 556.575 253.2H576.279C576.54 253.2 576.798 253.252 577.039 253.352C577.28 253.453 577.498 253.6 577.682 253.785C577.866 253.97 578.011 254.189 578.109 254.431C578.208 254.672 578.258 254.931 578.256 255.192V256.285C578.256 256.809 578.047 257.312 577.677 257.682C577.306 258.053 576.803 258.261 576.279 258.261H556.575C556.051 258.261 555.548 258.469 555.178 258.84C554.807 259.211 554.599 259.713 554.599 260.238V270.718C554.597 270.979 554.647 271.238 554.745 271.479C554.843 271.721 554.989 271.94 555.172 272.126C555.356 272.311 555.575 272.458 555.815 272.558C556.056 272.658 556.314 272.71 556.575 272.71H578.914C579.439 272.71 579.941 272.918 580.312 273.289C580.683 273.659 580.891 274.162 580.891 274.686V275.809C580.907 276.079 580.868 276.35 580.776 276.604C580.684 276.859 580.542 277.092 580.357 277.29C580.172 277.487 579.948 277.645 579.7 277.754C579.452 277.862 579.185 277.919 578.914 277.92Z" fill="#ED1C24"/>
<path d="M605.176 248.35H604.967C604.681 248.353 604.399 248.295 604.138 248.178C603.878 248.061 603.646 247.89 603.458 247.675C603.27 247.46 603.131 247.207 603.051 246.933C602.97 246.66 602.949 246.372 602.99 246.09C603.409 242.989 604.835 240.111 607.048 237.9C608.359 236.566 609.93 235.515 611.663 234.812C613.396 234.109 615.255 233.769 617.124 233.812C618.85 233.754 620.57 234.044 622.181 234.665C623.792 235.286 625.261 236.226 626.501 237.428C627.741 238.63 628.725 240.07 629.396 241.661C630.067 243.252 630.41 244.962 630.405 246.688C630.417 249.086 629.814 251.447 628.653 253.546C626.715 256.682 624.435 259.595 621.856 262.23L612.303 272.501C612.204 272.608 612.138 272.742 612.114 272.886C612.09 273.03 612.108 273.178 612.167 273.312C612.226 273.446 612.323 273.559 612.445 273.639C612.568 273.718 612.711 273.76 612.857 273.759H628.998C629.262 273.755 629.525 273.803 629.771 273.901C630.017 274 630.241 274.145 630.43 274.331C630.62 274.516 630.771 274.736 630.874 274.98C630.978 275.224 631.032 275.485 631.034 275.75V275.93C631.03 276.457 630.819 276.961 630.446 277.334C630.074 277.706 629.57 277.917 629.043 277.921H606.299C605.91 277.927 605.527 277.819 605.199 277.61C604.87 277.401 604.61 277.1 604.451 276.745C604.292 276.39 604.24 275.995 604.302 275.611C604.365 275.227 604.538 274.869 604.802 274.582L618.158 260.149C620.581 257.721 622.763 255.064 624.671 252.213C625.65 250.559 626.167 248.671 626.168 246.748C626.18 245.577 625.946 244.416 625.482 243.341C625.018 242.266 624.333 241.3 623.473 240.505C622.598 239.647 621.561 238.973 620.422 238.523C619.282 238.073 618.065 237.856 616.84 237.885C615.571 237.85 614.307 238.075 613.128 238.546C611.949 239.017 610.878 239.724 609.983 240.625C608.394 242.297 607.377 244.431 607.078 246.718C606.998 247.168 606.765 247.577 606.419 247.874C606.072 248.172 605.633 248.34 605.176 248.35Z" fill="#ED1C24"/>
<path d="M635.077 256.42C634.896 251.959 635.515 247.502 636.903 243.259C637.904 240.457 639.699 238.006 642.069 236.207C644.242 234.626 646.867 233.786 649.555 233.812C652.272 233.792 654.925 234.636 657.131 236.222C659.572 238.078 661.432 240.592 662.492 243.469C665.107 251.885 665.107 260.896 662.492 269.312C661.44 272.193 659.578 274.709 657.131 276.558C654.921 278.162 652.256 279.017 649.525 278.999C646.84 279.037 644.215 278.207 642.039 276.633C639.671 274.825 637.877 272.371 636.874 269.566C635.484 265.329 634.876 260.875 635.077 256.42ZM639.149 256.42C639.006 260.138 639.44 263.856 640.437 267.44C641.129 269.667 642.469 271.637 644.285 273.1C645.816 274.327 647.713 275.007 649.675 275.031C651.617 275.017 653.499 274.353 655.02 273.145C656.821 271.683 658.137 269.71 658.793 267.485C659.943 263.912 660.484 260.172 660.395 256.42C660.503 252.818 660.023 249.222 658.973 245.775C658.27 243.431 656.889 241.347 655.005 239.786C653.493 238.547 651.599 237.871 649.645 237.871C647.691 237.871 645.797 238.547 644.285 239.786C642.48 241.249 641.147 243.213 640.452 245.43C639.438 249.027 638.998 252.761 639.149 256.495V256.42Z" fill="#ED1C24"/>
<path d="M671.55 248.35H671.34C671.056 248.35 670.775 248.29 670.516 248.172C670.258 248.055 670.028 247.883 669.841 247.668C669.655 247.454 669.518 247.202 669.438 246.929C669.358 246.657 669.338 246.37 669.378 246.089C669.791 242.986 671.218 240.107 673.436 237.899C674.739 236.576 676.298 235.532 678.017 234.832C679.737 234.132 681.581 233.789 683.438 233.826C685.165 233.764 686.886 234.051 688.499 234.671C690.112 235.29 691.583 236.23 692.824 237.433C694.064 238.636 695.049 240.077 695.718 241.67C696.387 243.263 696.728 244.975 696.718 246.703C696.73 249.101 696.127 251.462 694.967 253.56C693.033 256.7 690.753 259.613 688.169 262.244L678.632 272.515C678.533 272.622 678.467 272.754 678.443 272.897C678.418 273.04 678.435 273.186 678.492 273.319C678.549 273.453 678.644 273.566 678.764 273.647C678.885 273.727 679.026 273.771 679.171 273.773H695.416C695.934 273.785 696.426 273.998 696.79 274.367C697.153 274.736 697.358 275.232 697.362 275.749V275.929C697.362 276.455 697.155 276.959 696.784 277.332C696.414 277.705 695.911 277.917 695.386 277.921H672.687C672.298 277.927 671.915 277.818 671.587 277.609C671.258 277.4 670.998 277.1 670.839 276.744C670.68 276.389 670.628 275.995 670.691 275.61C670.753 275.226 670.927 274.868 671.19 274.582L684.546 260.148C686.961 257.718 689.137 255.06 691.044 252.213C692.023 250.558 692.54 248.67 692.541 246.748C692.554 245.575 692.319 244.413 691.852 243.337C691.385 242.261 690.696 241.296 689.831 240.504C688.959 239.647 687.925 238.973 686.788 238.523C685.651 238.073 684.435 237.855 683.213 237.884C681.943 237.847 680.68 238.071 679.5 238.543C678.321 239.014 677.25 239.722 676.356 240.624C674.768 242.299 673.747 244.431 673.436 246.718C673.357 247.165 673.126 247.572 672.783 247.869C672.439 248.166 672.004 248.336 671.55 248.35Z" fill="#ED1C24"/>
<path d="M706.151 244.877H705.761C705.435 244.874 705.114 244.791 704.827 244.635C704.54 244.48 704.295 244.257 704.113 243.986C703.932 243.714 703.819 243.403 703.786 243.078C703.752 242.753 703.798 242.425 703.92 242.122C704.69 240.016 705.989 238.145 707.693 236.687C709.921 234.78 712.771 233.758 715.703 233.812C717.885 233.79 720.04 234.304 721.977 235.309C723.823 236.251 725.376 237.681 726.469 239.442C727.499 241.073 728.049 242.962 728.056 244.892C728.066 246.504 727.667 248.092 726.894 249.506C726.121 250.921 725.001 252.115 723.639 252.977C723.53 253.042 723.44 253.134 723.378 253.245C723.316 253.355 723.283 253.479 723.283 253.606C723.283 253.732 723.316 253.857 723.378 253.967C723.44 254.077 723.53 254.17 723.639 254.235C725.146 255 726.477 256.071 727.547 257.379C729.365 259.513 730.358 262.227 730.346 265.03C730.341 267.487 729.674 269.897 728.415 272.007C727.173 274.173 725.353 275.951 723.16 277.143C720.859 278.373 718.282 278.997 715.673 278.954C712.293 279.074 708.99 277.932 706.405 275.75C704.353 273.913 702.877 271.521 702.153 268.863C702.069 268.568 702.056 268.257 702.113 267.956C702.17 267.654 702.296 267.37 702.482 267.126C702.668 266.882 702.909 266.685 703.184 266.549C703.46 266.414 703.763 266.345 704.07 266.348H704.399C704.809 266.346 705.21 266.472 705.545 266.708C705.88 266.944 706.134 267.278 706.271 267.665C706.774 269.457 707.733 271.087 709.055 272.396C710.938 274.022 713.367 274.873 715.853 274.777C717.226 274.833 718.596 274.613 719.882 274.129C721.168 273.646 722.344 272.909 723.339 271.962C724.236 271.119 724.95 270.1 725.437 268.97C725.924 267.839 726.173 266.62 726.169 265.389C726.166 263.712 725.672 262.072 724.747 260.673C723.825 259.229 722.504 258.085 720.944 257.379C719.164 256.655 717.277 256.23 715.359 256.121C714.869 256.077 714.413 255.851 714.081 255.488C713.749 255.125 713.564 254.652 713.562 254.16V253.905C713.566 253.419 713.748 252.951 714.074 252.59C714.399 252.228 714.846 251.999 715.329 251.944C716.576 251.818 717.798 251.505 718.952 251.016C720.356 250.489 721.578 249.569 722.471 248.365C723.187 247.338 723.568 246.114 723.564 244.862C723.565 243.938 723.366 243.025 722.981 242.185C722.596 241.345 722.034 240.598 721.333 239.996C719.778 238.614 717.752 237.885 715.673 237.96C713.952 237.892 712.259 238.421 710.882 239.457C709.555 240.575 708.526 242.005 707.888 243.619C707.751 243.975 707.515 244.283 707.206 244.506C706.898 244.73 706.531 244.858 706.151 244.877Z" fill="#ED1C24"/>
<path d="M267.201 240.265C267.051 240.025 266.886 239.801 266.721 239.576C266.557 239.351 266.422 239.187 266.272 239.007C266.084 238.787 265.884 238.577 265.673 238.378C265.46 238.166 265.235 237.966 265 237.779C264.82 237.622 264.63 237.477 264.431 237.345C264.282 237.237 264.127 237.137 263.967 237.046L263.338 236.701C263.05 236.556 262.755 236.426 262.454 236.312C262.17 236.202 261.88 236.107 261.586 236.028C258.708 235.308 255.748 234.976 252.782 235.039H238.753C238.229 235.039 237.726 235.248 237.355 235.618C236.985 235.989 236.776 236.492 236.776 237.016V275.944C236.776 276.469 236.985 276.971 237.355 277.342C237.726 277.713 238.229 277.921 238.753 277.921H240.43C240.955 277.921 241.459 277.713 241.833 277.343C242.206 276.973 242.417 276.47 242.421 275.944V262.754C242.421 262.229 242.629 261.727 243 261.356C243.371 260.985 243.873 260.777 244.397 260.777H253.246C256.564 260.899 259.865 260.248 262.889 258.876C263.294 258.672 263.689 258.447 264.071 258.202C264.446 257.962 264.805 257.693 265.149 257.423C265.488 257.156 265.804 256.861 266.093 256.54C266.242 256.39 266.377 256.226 266.527 256.061C266.796 255.731 267.051 255.402 267.29 255.043C267.781 254.311 268.169 253.515 268.443 252.677C268.981 251.034 269.244 249.315 269.222 247.586C269.271 245.002 268.569 242.458 267.201 240.265ZM261.092 253.65C260.624 254.061 260.093 254.395 259.52 254.638L258.876 254.893C257.08 255.479 255.195 255.748 253.306 255.687H244.323C243.798 255.687 243.296 255.478 242.925 255.108C242.554 254.737 242.346 254.234 242.346 253.71V242.106C242.346 241.582 242.554 241.08 242.925 240.709C243.296 240.338 243.798 240.13 244.323 240.13H253.111C255.022 240.076 256.932 240.252 258.801 240.654L259.25 240.804L259.61 240.954H259.714C259.825 240.997 259.93 241.052 260.029 241.118L260.433 241.373C260.62 241.508 260.8 241.653 260.972 241.807C261.104 241.924 261.229 242.049 261.346 242.181L261.616 242.496C261.766 242.69 261.915 242.885 262.065 243.11C262.913 244.453 263.355 246.013 263.338 247.601C263.442 248.711 263.297 249.83 262.914 250.876C262.53 251.923 261.918 252.871 261.122 253.65H261.092Z" fill="#ED1C24"/>
</mask>
<g mask="url(#mask0_590_384)">
<rect x="164.3" y="209.767" width="575.564" height="115.733" fill="white"/>
</g>
<mask id="mask1_590_384" style="mask-type:alpha" maskUnits="userSpaceOnUse" x="0" y="0" width="771" height="279">
<g clip-path="url(#clip0_590_384)">
<path d="M73.9045 138.511L70.6854 137.374C70.5044 137.302 70.359 137.162 70.2811 136.984L66.5829 128.001C66.5462 127.918 66.5272 127.829 66.5272 127.739C66.5272 127.648 66.5462 127.559 66.5829 127.477L68.0801 124.362C68.1385 124.268 68.1693 124.159 68.1693 124.048C68.1693 123.937 68.1385 123.828 68.0801 123.734C65.6235 120.246 62.5846 117.207 59.0966 114.75C59.001 114.695 58.8926 114.666 58.7822 114.666C58.6718 114.666 58.5634 114.695 58.4678 114.75L55.3684 116.247C55.2807 116.284 55.1865 116.303 55.0914 116.303C54.9964 116.303 54.9022 116.284 54.8145 116.247L45.8309 112.564C45.7441 112.53 45.6656 112.478 45.601 112.41C45.5363 112.343 45.4871 112.263 45.4566 112.175C45.2021 111.486 44.5732 109.689 44.3037 108.941C44.269 108.836 44.2058 108.742 44.1213 108.671C44.0367 108.599 43.934 108.553 43.8246 108.536C39.6045 107.798 35.2881 107.798 31.068 108.536C30.9586 108.553 30.8559 108.599 30.7713 108.671C30.6867 108.742 30.6236 108.836 30.5889 108.941L29.4509 112.16C29.3799 112.341 29.2399 112.486 29.0616 112.564L20.153 116.202C20.068 116.239 19.9762 116.259 19.8835 116.259C19.7907 116.259 19.699 116.239 19.614 116.202L16.4997 114.705C16.4041 114.65 16.2956 114.621 16.1852 114.621C16.0749 114.621 15.9664 114.65 15.8708 114.705C12.3828 117.162 9.34393 120.201 6.88728 123.689C6.83209 123.784 6.80303 123.893 6.80303 124.003C6.80303 124.113 6.83209 124.222 6.88728 124.317L8.38454 127.432C8.42128 127.514 8.44027 127.603 8.44027 127.694C8.44027 127.784 8.42128 127.873 8.38454 127.956L4.68631 136.939C4.60848 137.118 4.46308 137.258 4.28206 137.329L1.06295 138.467C0.957885 138.501 0.864492 138.564 0.793133 138.649C0.721773 138.734 0.675237 138.836 0.658694 138.946C-0.0799161 143.166 -0.0799161 147.482 0.658694 151.702C0.675237 151.812 0.721773 151.914 0.793133 151.999C0.864492 152.084 0.957885 152.147 1.06295 152.181L4.28206 153.319C4.46308 153.39 4.60848 153.53 4.68631 153.709L8.38454 162.692C8.42164 162.777 8.44078 162.869 8.44078 162.962C8.44078 163.054 8.42164 163.146 8.38454 163.231L6.88728 166.33C6.83209 166.426 6.80303 166.535 6.80303 166.645C6.80303 166.755 6.83209 166.864 6.88728 166.959C9.34393 170.447 12.3828 173.486 15.8708 175.943C15.9664 175.998 16.0749 176.027 16.1852 176.027C16.2956 176.027 16.4041 175.998 16.4997 175.943L19.599 174.446C19.684 174.409 19.7757 174.389 19.8685 174.389C19.9612 174.389 20.053 174.409 20.138 174.446L29.1215 178.144C29.2084 178.178 29.2869 178.23 29.3515 178.297C29.4161 178.365 29.4654 178.445 29.4959 178.533C29.7354 179.222 30.3792 181.019 30.6487 181.767C30.6835 181.872 30.7466 181.966 30.8312 182.037C30.9158 182.108 31.0185 182.155 31.1279 182.171C35.343 182.91 39.6544 182.91 43.8695 182.171C43.9789 182.155 44.0816 182.108 44.1662 182.037C44.2508 181.966 44.3139 181.872 44.3486 181.767L45.5015 178.548C45.5726 178.367 45.7126 178.222 45.8908 178.144L54.8743 174.431C54.955 174.397 55.0415 174.379 55.1289 174.379C55.2163 174.379 55.3028 174.397 55.3834 174.431L58.5127 175.928C58.6083 175.983 58.7167 176.012 58.8271 176.012C58.9375 176.012 59.0459 175.983 59.1415 175.928C60.7319 174.824 62.2337 173.597 63.6333 172.26L64.0675 171.825C65.5379 170.316 66.8754 168.683 68.0652 166.944C68.1204 166.849 68.1494 166.74 68.1494 166.63C68.1494 166.52 68.1204 166.411 68.0652 166.316L66.5679 163.201C66.5014 163.038 66.5014 162.855 66.5679 162.692L67.1968 161.195C67.2365 161.101 67.2523 160.999 67.2428 160.898C67.2333 160.797 67.1988 160.699 67.1423 160.615C67.0859 160.53 67.0094 160.461 66.9196 160.413C66.8298 160.365 66.7295 160.341 66.6278 160.341H54.4252C54.3411 160.342 54.258 160.36 54.1809 160.393C54.1037 160.427 54.034 160.475 53.976 160.536C51.4078 163.341 48.1691 165.449 44.5638 166.66C40.9584 167.872 37.1045 168.148 33.3633 167.462C29.6221 166.777 26.1163 165.152 23.1745 162.742C20.2328 160.331 17.9515 157.212 16.5446 153.679C16.5073 153.587 16.4935 153.487 16.5044 153.388C16.5153 153.29 16.5506 153.195 16.607 153.113C16.6634 153.032 16.7392 152.965 16.8277 152.92C16.9161 152.875 17.0143 152.853 17.1135 152.855H72.0329H72.2126L73.9045 152.256C74.0095 152.222 74.1029 152.158 74.1743 152.074C74.2457 151.989 74.2922 151.887 74.3087 151.777C75.0473 147.557 75.0473 143.241 74.3087 139.021C74.2975 138.906 74.2534 138.797 74.1817 138.706C74.11 138.616 74.0137 138.548 73.9045 138.511ZM38.3596 148.992C37.7411 149.131 37.0974 149.112 36.4885 148.936C35.8795 148.759 35.3251 148.432 34.8768 147.983C34.4285 147.535 34.1009 146.981 33.9245 146.372C33.7481 145.763 33.7286 145.119 33.8678 144.5C34.0286 143.848 34.3646 143.252 34.8397 142.777C35.3147 142.302 35.9106 141.966 36.5629 141.805C37.5259 141.559 38.5472 141.706 39.4022 142.212C40.2572 142.719 40.8758 143.545 41.122 144.508C41.3682 145.471 41.2218 146.492 40.715 147.347C40.2082 148.202 39.3825 148.821 38.4195 149.067L38.3596 148.992ZM17.1585 137.883C17.0586 137.882 16.9604 137.858 16.8723 137.811C16.7842 137.764 16.7089 137.696 16.6528 137.613C16.5968 137.531 16.5617 137.436 16.5507 137.337C16.5397 137.237 16.553 137.137 16.5895 137.044C18.2551 132.874 21.1326 129.299 24.8505 126.78C28.5683 124.262 32.9557 122.916 37.4463 122.916C41.9368 122.916 46.3243 124.262 50.0421 126.78C53.7599 129.299 56.6375 132.874 58.3031 137.044C58.3396 137.137 58.3529 137.237 58.3419 137.337C58.3308 137.436 58.2958 137.531 58.2397 137.613C58.1837 137.696 58.1083 137.764 58.0202 137.811C57.9321 137.858 57.8339 137.882 57.7341 137.883H17.1585Z" fill="#ED1C24"/>
<path d="M157.092 145.997V181.303C157.092 181.7 156.934 182.081 156.654 182.361C156.373 182.642 155.992 182.8 155.595 182.8H143.617C143.22 182.8 142.839 182.642 142.558 182.361C142.277 182.081 142.12 181.7 142.12 181.303V152.196C142.118 151.803 141.962 151.427 141.685 151.148L120.724 130.186C120.585 130.046 120.419 129.935 120.237 129.859C120.054 129.783 119.858 129.744 119.661 129.744C119.463 129.744 119.267 129.783 119.085 129.859C118.902 129.935 118.737 130.046 118.598 130.186L97.6361 151.148C97.354 151.424 97.1925 151.801 97.1869 152.196V181.318C97.1869 181.715 97.0292 182.096 96.7484 182.376C96.4676 182.657 96.0868 182.815 95.6897 182.815H83.7116C83.3145 182.815 82.9337 182.657 82.6529 182.376C82.3721 182.096 82.2144 181.715 82.2144 181.318V109.449C82.2144 109.052 82.3721 108.671 82.6529 108.391C82.9337 108.11 83.3145 107.952 83.7116 107.952H95.6897C96.0868 107.952 96.4676 108.11 96.7484 108.391C97.0292 108.671 97.1869 109.052 97.1869 109.449V126.773C97.1852 127.07 97.2721 127.361 97.4365 127.609C97.6009 127.857 97.8354 128.05 98.11 128.164C98.3847 128.278 98.6871 128.308 98.9787 128.249C99.2703 128.191 99.5378 128.047 99.7472 127.836L118.583 109C118.722 108.86 118.888 108.749 119.07 108.672C119.252 108.596 119.448 108.557 119.646 108.557C119.843 108.557 120.039 108.596 120.222 108.672C120.404 108.749 120.57 108.86 120.709 109L142.105 130.396L156.643 144.949C156.925 145.226 157.087 145.603 157.092 145.997Z" fill="#ED1C24"/>
<path d="M119.661 149.112C121.728 149.112 123.404 147.436 123.404 145.369C123.404 143.301 121.728 141.625 119.661 141.625C117.593 141.625 115.917 143.301 115.917 145.369C115.917 147.436 117.593 149.112 119.661 149.112Z" fill="#ED1C24"/>
<path d="M344.249 146.357V181.423C344.249 181.82 344.092 182.201 343.811 182.481C343.53 182.762 343.149 182.92 342.752 182.92H330.774C330.377 182.92 329.996 182.762 329.715 182.481C329.434 182.201 329.277 181.82 329.277 181.423V146.162C329.359 140.305 327.189 134.641 323.217 130.336C319.244 126.032 313.771 123.417 307.926 123.03C304.885 122.879 301.845 123.349 298.991 124.41C296.137 125.472 293.528 127.102 291.324 129.203C289.12 131.303 287.365 133.83 286.168 136.63C284.971 139.43 284.355 142.444 284.359 145.489V181.423C284.359 181.82 284.201 182.201 283.921 182.481C283.64 182.762 283.259 182.92 282.862 182.92H270.884C270.487 182.92 270.106 182.762 269.825 182.481C269.544 182.201 269.386 181.82 269.386 181.423V145.489C269.385 135.679 273.234 126.261 280.105 119.261C286.977 112.261 296.322 108.238 306.129 108.057C327.091 107.698 344.249 125.365 344.249 146.357Z" fill="#ED1C24"/>
<path d="M294.091 157.347C296.158 157.347 297.834 155.671 297.834 153.603C297.834 151.536 296.158 149.86 294.091 149.86C292.024 149.86 290.348 151.536 290.348 153.603C290.348 155.671 292.024 157.347 294.091 157.347Z" fill="#ED1C24"/>
<path d="M423.589 131.519L420.205 131.04C420.111 131.024 420.022 130.989 419.942 130.938C419.862 130.886 419.794 130.819 419.741 130.741L414.366 122.715C414.315 122.639 414.281 122.553 414.265 122.463C414.25 122.372 414.254 122.28 414.276 122.191L415.114 118.852C415.145 118.745 415.147 118.631 415.118 118.522C415.089 118.414 415.03 118.316 414.95 118.238C413.4 116.766 411.727 115.428 409.949 114.241C408.175 113.053 406.301 112.021 404.349 111.156C404.247 111.112 404.135 111.096 404.024 111.109C403.914 111.122 403.809 111.164 403.72 111.231L400.965 113.268C400.89 113.327 400.803 113.369 400.71 113.39C400.616 113.411 400.519 113.41 400.426 113.387L390.964 111.516C390.873 111.496 390.789 111.458 390.714 111.404C390.639 111.349 390.576 111.281 390.529 111.201L388.763 108.207C388.707 108.114 388.628 108.037 388.533 107.984C388.439 107.932 388.332 107.905 388.224 107.907C386.081 107.958 383.947 108.194 381.845 108.611C379.75 109.023 377.696 109.619 375.706 110.393C375.604 110.434 375.514 110.501 375.446 110.588C375.377 110.674 375.333 110.778 375.317 110.887L374.823 114.271C374.807 114.364 374.772 114.454 374.721 114.533C374.669 114.613 374.602 114.682 374.524 114.735L366.498 120.095C366.423 120.148 366.338 120.185 366.247 120.203C366.157 120.221 366.064 120.22 365.974 120.2L362.62 119.361C362.515 119.331 362.404 119.331 362.298 119.36C362.192 119.389 362.097 119.446 362.022 119.526C360.549 121.076 359.212 122.749 358.024 124.527C356.836 126.301 355.804 128.174 354.94 130.127C354.884 130.222 354.855 130.331 354.855 130.441C354.855 130.551 354.884 130.66 354.94 130.755L357.036 133.51C357.089 133.586 357.126 133.671 357.144 133.761C357.162 133.852 357.161 133.945 357.141 134.034C356.392 137.763 356.003 139.784 355.254 143.512C355.234 143.604 355.196 143.691 355.142 143.769C355.088 143.846 355.019 143.911 354.94 143.961L351.945 145.713C351.85 145.771 351.771 145.853 351.716 145.95C351.661 146.046 351.632 146.156 351.631 146.267C351.682 148.404 351.918 150.533 352.334 152.63C352.76 154.727 353.356 156.785 354.116 158.784C354.159 158.885 354.227 158.974 354.314 159.042C354.4 159.11 354.502 159.155 354.61 159.173L357.994 159.653C358.088 159.669 358.177 159.703 358.257 159.755C358.336 159.806 358.405 159.873 358.458 159.952C360.584 163.111 361.722 164.833 363.833 167.977C363.887 168.055 363.924 168.143 363.942 168.236C363.96 168.329 363.958 168.424 363.938 168.516L363.085 171.84C363.057 171.948 363.057 172.061 363.086 172.169C363.115 172.276 363.171 172.375 363.249 172.454C364.799 173.927 366.472 175.264 368.25 176.452C370.024 177.64 371.898 178.672 373.85 179.536C373.952 179.58 374.064 179.597 374.174 179.584C374.285 179.57 374.39 179.528 374.479 179.461L377.234 177.395C377.311 177.341 377.399 177.303 377.492 177.285C377.585 177.267 377.681 177.269 377.773 177.29L387.235 179.177C387.42 179.22 387.581 179.332 387.685 179.491C388.059 180.105 389.032 181.752 389.436 182.486C389.495 182.579 389.577 182.655 389.674 182.708C389.771 182.76 389.88 182.787 389.99 182.785C392.128 182.733 394.257 182.498 396.354 182.081C398.448 181.67 400.503 181.073 402.492 180.3C402.596 180.26 402.687 180.193 402.755 180.106C402.824 180.019 402.867 179.915 402.882 179.806L403.376 176.422C403.392 176.328 403.427 176.239 403.478 176.159C403.53 176.079 403.597 176.011 403.675 175.958L411.715 170.583C411.788 170.529 411.87 170.492 411.958 170.474C412.046 170.455 412.137 170.457 412.225 170.478L415.578 171.316C415.684 171.346 415.795 171.347 415.901 171.318C416.006 171.289 416.102 171.231 416.177 171.151C417.505 169.747 418.727 168.246 419.831 166.66L420.175 166.151C421.358 164.376 422.385 162.502 423.244 160.551C423.289 160.449 423.305 160.337 423.292 160.226C423.279 160.116 423.237 160.011 423.17 159.922L421.118 157.152C421.065 157.083 421.028 157.003 421.01 156.917C420.992 156.831 420.993 156.743 421.013 156.658C421.118 156.089 421.223 155.565 421.328 155.071C421.35 154.971 421.346 154.868 421.318 154.77C421.29 154.672 421.238 154.583 421.167 154.51C421.095 154.437 421.007 154.383 420.91 154.353C420.812 154.323 420.709 154.318 420.609 154.337L408.631 156.718C408.551 156.737 408.475 156.773 408.408 156.821C408.341 156.87 408.285 156.932 408.242 157.002C406.269 160.25 403.503 162.944 400.205 164.832C396.907 166.72 393.184 167.74 389.384 167.797C385.584 167.854 381.832 166.946 378.479 165.157C375.126 163.369 372.281 160.759 370.212 157.571C370.162 157.488 370.133 157.395 370.126 157.298C370.119 157.201 370.136 157.105 370.174 157.016C370.212 156.927 370.27 156.848 370.344 156.786C370.419 156.723 370.506 156.68 370.601 156.658L424.502 145.953H424.667L426.164 145.039C426.259 144.983 426.337 144.901 426.39 144.804C426.443 144.706 426.468 144.596 426.463 144.485C426.469 142.312 426.284 140.143 425.909 138.002C425.498 135.907 424.901 133.853 424.128 131.863C424.075 131.765 423.997 131.682 423.903 131.621C423.809 131.561 423.7 131.526 423.589 131.519ZM390.769 148.752C390.029 149.106 389.193 149.206 388.39 149.038C387.587 148.87 386.862 148.442 386.326 147.822C385.789 147.201 385.472 146.422 385.421 145.603C385.371 144.785 385.591 143.972 386.047 143.291C386.504 142.61 387.171 142.097 387.948 141.832C388.724 141.567 389.565 141.564 390.343 141.824C391.121 142.084 391.792 142.592 392.253 143.27C392.714 143.948 392.94 144.759 392.895 145.578C392.857 146.249 392.639 146.897 392.265 147.456C391.891 148.014 391.375 148.462 390.769 148.752ZM367.801 141.985C367.703 142.006 367.601 142.003 367.505 141.975C367.408 141.948 367.32 141.897 367.247 141.828C367.175 141.758 367.121 141.672 367.089 141.577C367.058 141.482 367.05 141.38 367.067 141.281C367.894 136.875 370.019 132.818 373.171 129.63C376.323 126.443 380.356 124.271 384.752 123.395C389.148 122.519 393.706 122.979 397.839 124.715C401.972 126.451 405.49 129.384 407.942 133.136C407.995 133.221 408.027 133.317 408.034 133.416C408.042 133.516 408.025 133.615 407.985 133.707C407.945 133.798 407.884 133.878 407.806 133.941C407.728 134.003 407.636 134.046 407.538 134.064L367.801 141.985Z" fill="#ED1C24"/>
<path d="M496.7 131.519L493.316 131.04C493.125 131.004 492.954 130.897 492.837 130.74C490.726 127.581 489.588 125.859 487.477 122.715C487.424 122.64 487.387 122.555 487.369 122.464C487.351 122.374 487.352 122.281 487.372 122.191L488.225 118.852C488.255 118.743 488.254 118.628 488.222 118.52C488.19 118.412 488.129 118.314 488.046 118.238C484.95 115.281 481.363 112.885 477.445 111.156C477.345 111.113 477.236 111.098 477.128 111.111C477.02 111.124 476.918 111.166 476.831 111.231L474.076 113.267C474.001 113.326 473.914 113.367 473.82 113.388C473.727 113.409 473.63 113.409 473.537 113.387L464.075 111.516C463.983 111.496 463.895 111.458 463.818 111.404C463.741 111.35 463.676 111.281 463.626 111.201C463.251 110.587 462.278 108.94 461.874 108.207C461.815 108.114 461.733 108.037 461.636 107.985C461.539 107.932 461.43 107.906 461.32 107.907C459.182 107.959 457.053 108.194 454.956 108.611C452.856 109.021 450.797 109.617 448.803 110.393C448.7 110.434 448.61 110.501 448.542 110.588C448.474 110.674 448.429 110.778 448.413 110.887L447.919 114.271C447.909 114.364 447.878 114.454 447.829 114.534C447.779 114.614 447.713 114.683 447.635 114.735L439.61 120.095C439.531 120.148 439.443 120.184 439.351 120.202C439.258 120.22 439.163 120.219 439.071 120.2L435.732 119.361C435.626 119.33 435.514 119.328 435.408 119.357C435.303 119.387 435.207 119.445 435.133 119.526C433.66 121.076 432.323 122.749 431.135 124.527C429.947 126.301 428.915 128.174 428.051 130.127C428.006 130.229 427.99 130.341 428.003 130.451C428.016 130.562 428.059 130.667 428.126 130.755L430.177 133.51C430.233 133.584 430.272 133.669 430.293 133.76C430.313 133.85 430.315 133.944 430.297 134.034L428.395 143.512C428.379 143.605 428.342 143.694 428.288 143.772C428.234 143.849 428.163 143.914 428.081 143.961L425.086 145.713C424.991 145.77 424.913 145.851 424.86 145.949C424.807 146.046 424.782 146.156 424.787 146.267C424.831 148.405 425.066 150.535 425.49 152.63C425.902 154.73 426.499 156.789 427.272 158.784C427.313 158.887 427.38 158.977 427.467 159.045C427.554 159.113 427.657 159.158 427.766 159.173L431.15 159.653C431.337 159.69 431.503 159.797 431.614 159.952L436.989 167.977C437.041 168.056 437.076 168.144 437.091 168.237C437.107 168.33 437.103 168.425 437.079 168.516L436.226 171.84C436.201 171.949 436.205 172.063 436.236 172.17C436.268 172.278 436.326 172.375 436.405 172.454C437.955 173.927 439.628 175.264 441.406 176.452C443.18 177.64 445.054 178.672 447.006 179.536C447.108 179.58 447.22 179.597 447.331 179.584C447.441 179.57 447.546 179.528 447.635 179.461L450.39 177.395C450.465 177.342 450.55 177.305 450.641 177.287C450.731 177.269 450.824 177.27 450.914 177.29L460.391 179.177C460.481 179.197 460.566 179.235 460.641 179.289C460.716 179.343 460.779 179.412 460.826 179.491L462.592 182.486C462.647 182.58 462.725 182.657 462.82 182.71C462.915 182.763 463.023 182.789 463.131 182.785C465.269 182.735 467.398 182.5 469.495 182.081C471.59 181.67 473.644 181.073 475.634 180.3C475.737 180.26 475.828 180.193 475.896 180.106C475.965 180.019 476.009 179.915 476.023 179.806L476.532 176.422C476.545 176.327 476.579 176.237 476.631 176.157C476.682 176.077 476.751 176.009 476.831 175.958L484.857 170.582C484.929 170.53 485.012 170.493 485.1 170.475C485.188 170.457 485.278 170.458 485.366 170.478L488.72 171.316C488.825 171.348 488.937 171.349 489.043 171.32C489.149 171.291 489.244 171.232 489.318 171.151C490.651 169.747 491.877 168.246 492.987 166.66L493.331 166.151C494.502 164.369 495.529 162.497 496.4 160.551C496.445 160.449 496.461 160.337 496.448 160.226C496.435 160.116 496.393 160.011 496.326 159.922L494.259 157.152C494.21 157.081 494.175 157.001 494.157 156.916C494.139 156.831 494.138 156.743 494.155 156.658L494.484 155.071C494.502 154.972 494.496 154.87 494.467 154.774C494.437 154.678 494.385 154.59 494.315 154.518C494.244 154.446 494.158 154.392 494.062 154.361C493.966 154.329 493.865 154.321 493.765 154.337L481.787 156.718C481.621 156.757 481.476 156.859 481.383 157.002C479.409 160.247 476.644 162.938 473.348 164.824C470.051 166.709 466.33 167.728 462.532 167.785C458.735 167.842 454.985 166.935 451.633 165.149C448.282 163.362 445.438 160.755 443.368 157.571C443.314 157.489 443.282 157.395 443.274 157.297C443.265 157.2 443.281 157.101 443.32 157.011C443.358 156.921 443.418 156.842 443.494 156.78C443.57 156.719 443.661 156.677 443.757 156.658L497.658 145.953H497.823L499.32 145.039C499.415 144.981 499.494 144.9 499.549 144.803C499.604 144.706 499.633 144.597 499.635 144.485C499.576 142.348 499.341 140.22 498.931 138.122C498.505 136.031 497.909 133.978 497.149 131.983C497.117 131.876 497.059 131.777 496.981 131.697C496.903 131.616 496.806 131.555 496.7 131.519ZM463.88 148.752C463.137 149.109 462.297 149.211 461.49 149.044C460.683 148.876 459.954 148.448 459.414 147.825C458.874 147.203 458.554 146.419 458.503 145.597C458.452 144.774 458.673 143.958 459.132 143.273C459.59 142.588 460.261 142.073 461.042 141.807C461.822 141.541 462.668 141.539 463.449 141.801C464.231 142.063 464.904 142.575 465.366 143.257C465.828 143.94 466.053 144.755 466.006 145.578C465.968 146.249 465.751 146.897 465.377 147.456C465.003 148.014 464.486 148.462 463.88 148.752ZM440.882 141.985C440.785 142.003 440.685 141.998 440.591 141.969C440.496 141.94 440.41 141.889 440.34 141.82C440.269 141.751 440.216 141.666 440.186 141.572C440.155 141.478 440.147 141.379 440.164 141.281C440.981 136.863 443.104 132.792 446.26 129.594C449.415 126.396 453.457 124.218 457.863 123.341C462.269 122.464 466.837 122.928 470.977 124.674C475.116 126.421 478.637 129.368 481.084 133.136C481.136 133.221 481.168 133.317 481.175 133.416C481.183 133.516 481.166 133.615 481.126 133.707C481.086 133.798 481.025 133.878 480.947 133.941C480.869 134.003 480.777 134.046 480.679 134.064L440.882 141.985Z" fill="#ED1C24"/>
<path d="M244.292 214.138C242.707 209.325 240.194 204.869 236.896 201.022C233.867 197.907 230.462 195.181 226.76 192.907C223.051 190.558 219.545 187.904 216.279 184.971C216.09 184.776 215.958 184.534 215.896 184.27C215.834 184.005 215.845 183.729 215.928 183.471C216.011 183.213 216.163 182.982 216.367 182.803C216.571 182.624 216.82 182.504 217.087 182.456C222.333 181.328 227.109 178.625 230.775 174.707C234.441 170.789 236.822 165.845 237.6 160.536L239.292 146.387C239.366 145.811 239.396 145.231 239.381 144.65C239.381 134.723 235.438 125.202 228.418 118.182C221.398 111.162 211.877 107.219 201.95 107.219C192.023 107.219 182.502 111.162 175.482 118.182C168.462 125.202 164.519 134.723 164.519 144.65C164.504 145.231 164.534 145.811 164.608 146.387L166.315 160.536C167.047 166.585 169.925 172.17 174.425 176.278C178.926 180.385 184.75 182.742 190.84 182.92H193.191C193.955 185.186 194.996 187.348 196.29 189.358C199.165 193.64 203.208 196.41 206.771 199.285C209.564 201.637 212.172 204.2 214.572 206.951C217.896 210.904 219.992 213.404 221.624 217.312C224.304 223.69 224.753 230.578 219.663 235.279C221.566 236.333 223.293 237.677 224.783 239.262C225.783 240.321 226.671 241.48 227.433 242.721C229.384 246.005 230.533 249.704 230.787 253.516C232.45 252.46 234.023 251.268 235.489 249.952V236.911C235.489 235.99 235.855 235.106 236.506 234.455C237.157 233.803 238.041 233.438 238.962 233.438H245.535C246.973 227.018 246.542 220.32 244.292 214.138ZM212.85 166.465C212.589 166.013 212.214 165.636 211.762 165.374C211.31 165.111 210.797 164.971 210.275 164.968H193.835C193.312 164.971 192.8 165.111 192.348 165.374C191.896 165.636 191.521 166.013 191.26 166.465C191.08 166.775 190.796 167.01 190.458 167.128C190.12 167.246 189.751 167.24 189.418 167.109C187.584 166.363 185.963 165.174 184.701 163.648C183.439 162.122 182.575 160.307 182.186 158.365L179.88 146.881C179.686 145.976 179.61 145.05 179.656 144.126C180.017 138.427 182.535 133.079 186.699 129.171C190.863 125.262 196.359 123.087 202.07 123.087C207.78 123.087 213.277 125.262 217.44 129.171C221.604 133.079 224.123 138.427 224.484 144.126C224.529 145.035 224.454 145.947 224.259 146.836L221.968 158.32C221.578 160.263 220.712 162.079 219.447 163.606C218.182 165.132 216.559 166.32 214.722 167.064C214.385 167.214 214.004 167.234 213.653 167.121C213.303 167.007 213.006 166.769 212.82 166.45L212.85 166.465Z" fill="#ED1C24"/>
<path d="M246.927 109.584V181.452C246.927 182.279 247.598 182.95 248.425 182.95H260.403C261.23 182.95 261.9 182.279 261.9 181.452V109.584C261.9 108.757 261.23 108.087 260.403 108.087H248.425C247.598 108.087 246.927 108.757 246.927 109.584Z" fill="#ED1C24"/>
<path d="M246.927 87.1253V99.1033C246.927 99.9302 247.598 100.601 248.425 100.601H260.403C261.23 100.601 261.9 99.9302 261.9 99.1033V87.1253C261.9 86.2984 261.23 85.628 260.403 85.628H248.425C247.598 85.628 246.927 86.2984 246.927 87.1253Z" fill="#ED1C24"/>
<path d="M552.068 109.09V180.958C552.068 181.785 552.739 182.456 553.566 182.456H565.544C566.371 182.456 567.041 181.785 567.041 180.958V109.09C567.041 108.263 566.371 107.593 565.544 107.593H553.566C552.739 107.593 552.068 108.263 552.068 109.09Z" fill="#ED1C24"/>
<path d="M552.068 86.9456V98.9236C552.068 99.7506 552.739 100.421 553.566 100.421H565.544C566.371 100.421 567.041 99.7506 567.041 98.9236V86.9456C567.041 86.1187 566.371 85.4483 565.544 85.4483H553.566C552.739 85.4483 552.068 86.1187 552.068 86.9456Z" fill="#ED1C24"/>
<path d="M544.582 109.554V121.532C544.582 121.93 544.425 122.31 544.144 122.591C543.863 122.872 543.482 123.03 543.085 123.03C537.392 123.41 532.057 125.943 528.164 130.115C524.27 134.286 522.111 139.783 522.123 145.489V181.423C522.123 181.82 521.966 182.201 521.685 182.481C521.404 182.762 521.023 182.92 520.626 182.92H508.648C508.251 182.92 507.87 182.762 507.589 182.481C507.309 182.201 507.151 181.82 507.151 181.423V145.489C507.143 135.815 510.881 126.514 517.58 119.536C524.279 112.558 533.419 108.444 543.085 108.057C543.482 108.057 543.863 108.215 544.144 108.496C544.425 108.776 544.582 109.157 544.582 109.554Z" fill="#ED1C24"/>
<path d="M508.663 107.937H520.641C521.038 107.937 521.419 108.095 521.7 108.376C521.981 108.656 522.138 109.037 522.138 109.434V181.303C522.138 181.7 521.981 182.081 521.7 182.361C521.419 182.642 521.038 182.8 520.641 182.8H508.663C508.266 182.8 507.885 182.642 507.604 182.361C507.323 182.081 507.166 181.7 507.166 181.303V109.434C507.166 109.037 507.323 108.656 507.604 108.376C507.885 108.095 508.266 107.937 508.663 107.937Z" fill="#ED1C24"/>
<path d="M729.119 188.624V192.966L717.89 186.483V182.141L729.119 188.624Z" fill="#ED1C24"/>
<path d="M729.119 197.263V201.605L717.89 195.107V190.78L729.119 197.263Z" fill="#ED1C24"/>
<path d="M729.119 162.707V167.034L717.89 160.551V156.224L729.119 162.707Z" fill="#ED1C24"/>
<path d="M729.119 154.083V158.38L717.89 151.897V147.6L729.119 154.083Z" fill="#ED1C24"/>
<path d="M730.991 137.628V141.371H729.119V149.771L717.89 143.273V141.371H716.018V137.628H730.991Z" fill="#ED1C24"/>
<path d="M767.224 212.73H273.129V216.474H767.224V212.73Z" fill="#ED1C24"/>
<path d="M273.13 218.345C275.197 218.345 276.873 216.669 276.873 214.602C276.873 212.535 275.197 210.859 273.13 210.859C271.062 210.859 269.386 212.535 269.386 214.602C269.386 216.669 271.062 218.345 273.13 218.345Z" fill="#ED1C24"/>
<path d="M767.224 218.345C769.291 218.345 770.967 216.669 770.967 214.602C770.967 212.535 769.291 210.859 767.224 210.859C765.157 210.859 763.481 212.535 763.481 214.602C763.481 216.669 765.157 218.345 767.224 218.345Z" fill="#ED1C24"/>
<path d="M729.493 207.116H717.515C716.688 207.116 716.018 207.786 716.018 208.613V220.591C716.018 221.418 716.688 222.088 717.515 222.088H729.493C730.32 222.088 730.991 221.418 730.991 220.591V208.613C730.991 207.786 730.32 207.116 729.493 207.116Z" fill="#ED1C24"/>
<path d="M729.119 205.918V210.245L717.89 203.762V199.435L729.119 205.918Z" fill="#ED1C24"/>
<path d="M213.479 239.816L212.595 239.576L213.479 239.816Z" fill="#ED1C24"/>
<path d="M214.019 240.055H213.869H213.719C213.816 240.076 213.912 240.106 214.004 240.145L214.019 240.055Z" fill="#ED1C24"/>
<path d="M221.923 256.48C221.923 256.929 221.923 257.363 221.923 257.798C217.618 259.238 213.108 259.971 208.568 259.969C205.62 259.971 202.68 259.67 199.794 259.07C198.431 258.771 197.069 258.411 195.736 257.977L194.239 257.453C192.224 256.718 190.267 255.832 188.385 254.803L186.888 253.98C178.353 248.874 171.646 240.774 170.208 230.712C169.923 224.514 168.102 218.484 164.908 213.164C162.841 210.41 160.917 207.552 159.143 204.6C158.05 201.875 160.551 201.111 162.752 201.111C163.198 201.109 163.643 201.14 164.084 201.201C171.945 202.174 177.859 209.197 181.453 215.665C182.504 217.692 183.366 219.812 184.028 221.998C185.121 225.532 185.241 228.242 186.888 230.877C188.796 233.817 191.411 236.231 194.494 237.899C194.978 238.177 195.478 238.427 195.991 238.648C198.045 239.608 200.23 240.259 202.474 240.579C203.519 240.741 204.576 240.821 205.633 240.819C206.157 240.819 206.696 240.819 207.22 240.819H207.55C207.999 240.819 208.478 240.819 208.957 240.819C210.716 240.761 212.465 241.095 214.078 241.796C215.692 242.498 217.129 243.55 218.285 244.876C219.032 245.702 219.657 246.629 220.142 247.631C221.415 250.402 222.025 253.432 221.923 256.48Z" fill="#ED1C24"/>
<path d="M716.018 164.863V165.612C716.018 166.009 715.86 166.39 715.579 166.67C715.299 166.951 714.918 167.109 714.521 167.109H692.421C686.962 167.105 681.728 164.935 677.868 161.075C674.008 157.215 671.838 151.981 671.834 146.522V143.527C671.838 138.068 674.008 132.834 677.868 128.974C681.728 125.114 686.962 122.944 692.421 122.94H710.388C711.682 122.939 712.936 123.385 713.938 124.204C714.94 125.023 715.627 126.163 715.883 127.432H730.946C730.877 126.17 730.691 124.916 730.392 123.689C729.779 121.197 728.708 118.841 727.232 116.741C725.868 114.778 724.165 113.075 722.202 111.71C718.747 109.269 714.619 107.961 710.388 107.967H692.421C682.99 107.967 673.945 111.714 667.277 118.383C660.608 125.051 656.861 134.096 656.861 143.527V146.522C656.861 151.191 657.781 155.816 659.568 160.13C661.355 164.444 663.975 168.364 667.277 171.666C670.579 174.968 674.499 177.588 678.813 179.375C683.127 181.162 687.751 182.082 692.421 182.082H714.506C714.903 182.082 715.284 182.239 715.564 182.52C715.845 182.801 716.003 183.182 716.003 183.579V184.327C716.003 184.725 716.161 185.105 716.442 185.386C716.722 185.667 717.103 185.825 717.5 185.825H729.478C729.875 185.825 730.256 185.667 730.537 185.386C730.818 185.105 730.976 184.725 730.976 184.327V164.863C730.976 164.466 730.818 164.085 730.537 163.804C730.256 163.524 729.875 163.366 729.478 163.366H717.5C717.106 163.37 716.729 163.529 716.451 163.81C716.174 164.09 716.018 164.469 716.018 164.863ZM716.018 175.344C716.018 176.138 715.702 176.9 715.141 177.461C714.579 178.023 713.818 178.338 713.023 178.338H692.421C688.242 178.34 684.104 177.519 680.243 175.92C676.382 174.322 672.874 171.979 669.919 169.024C666.964 166.069 664.621 162.561 663.022 158.7C661.424 154.839 660.603 150.7 660.604 146.522V143.527C660.603 139.348 661.424 135.21 663.022 131.349C664.621 127.488 666.964 123.98 669.919 121.025C672.874 118.07 676.382 115.727 680.243 114.128C684.104 112.53 688.242 111.708 692.421 111.71H710.388C713.157 111.713 715.883 112.397 718.324 113.703C720.766 115.008 722.848 116.895 724.388 119.197C724.676 119.639 724.839 120.151 724.858 120.679C724.877 121.206 724.752 121.729 724.497 122.191C724.241 122.652 723.865 123.036 723.407 123.3C722.95 123.564 722.43 123.698 721.902 123.689H719.716C719.307 123.672 718.905 123.569 718.539 123.386C718.172 123.202 717.849 122.943 717.59 122.625C716.716 121.552 715.613 120.686 714.362 120.093C713.111 119.5 711.743 119.194 710.358 119.197H692.421C685.97 119.201 679.783 121.765 675.221 126.327C670.659 130.889 668.095 137.076 668.091 143.527V146.522C668.091 152.974 670.654 159.163 675.217 163.726C679.78 168.289 685.968 170.852 692.421 170.852H713.053C713.848 170.852 714.609 171.168 715.171 171.729C715.732 172.291 716.048 173.052 716.048 173.847L716.018 175.344Z" fill="#ED1C24"/>
<path d="M721.947 123.689H719.761C719.352 123.672 718.95 123.569 718.584 123.386C718.217 123.202 717.894 122.943 717.635 122.625C716.761 121.552 715.658 120.686 714.407 120.093C713.156 119.5 711.788 119.194 710.403 119.197H692.421C685.971 119.205 679.787 121.771 675.226 126.332C670.665 130.893 668.099 137.077 668.091 143.527V146.522C668.099 152.972 670.665 159.156 675.226 163.717C679.787 168.278 685.971 170.844 692.421 170.852H713.053C713.848 170.852 714.609 171.168 715.171 171.729C715.732 172.291 716.048 173.052 716.048 173.847V175.434C716.048 176.228 715.732 176.99 715.171 177.551C714.609 178.113 713.848 178.428 713.053 178.428H692.421C683.985 178.42 675.897 175.066 669.932 169.101C663.967 163.135 660.612 155.047 660.605 146.611V143.617C660.597 139.432 661.414 135.287 663.009 131.418C664.604 127.55 666.946 124.033 669.9 121.07C672.855 118.107 676.365 115.755 680.229 114.149C684.094 112.543 688.237 111.714 692.421 111.71H710.388C713.157 111.713 715.883 112.397 718.324 113.703C720.766 115.008 722.848 116.895 724.388 119.197C724.674 119.636 724.836 120.144 724.857 120.667C724.878 121.191 724.757 121.71 724.507 122.171C724.257 122.631 723.887 123.015 723.436 123.282C722.986 123.55 722.471 123.69 721.947 123.689Z" fill="#ED1C24"/>
<path d="M119.391 190.406C119.391 188.759 121.847 186.977 124.452 185.555C124.756 185.384 124.992 185.113 125.117 184.788C125.243 184.463 125.251 184.104 125.141 183.773C125.098 183.602 125.016 183.443 124.901 183.309C124.712 183.058 124.442 182.878 124.138 182.8L123.224 183.309H122.79C123.299 183.129 123.763 182.965 124.138 182.8C124.013 182.784 123.888 182.784 123.763 182.8H121.278L120.559 182.89C117.999 183.489 103.64 187.037 103.416 191.214C103.161 195.796 111.321 196.694 110.902 205.738C110.363 220.111 35.7995 257.348 14.0743 267.904C13.7845 268.06 13.5542 268.307 13.4189 268.607C13.2837 268.907 13.251 269.243 13.326 269.564C13.401 269.884 13.5795 270.171 13.8338 270.38C14.0882 270.588 14.4042 270.708 14.7331 270.719H52.434C52.7093 270.717 52.9787 270.639 53.2126 270.494C60.2497 266.182 67.2419 261.825 74.1742 257.363L74.3239 257.258H95.8245C96.1257 257.256 96.4204 257.345 96.6703 257.513C96.9202 257.682 97.1135 257.921 97.2251 258.201C97.3367 258.481 97.3613 258.788 97.2957 259.082C97.2302 259.375 97.0775 259.643 96.8576 259.849C93.8631 262.649 90.8686 265.389 87.7393 268.099C87.5114 268.3 87.35 268.565 87.2767 268.86C87.2033 269.155 87.2215 269.465 87.3287 269.75C87.436 270.034 87.6273 270.279 87.8771 270.452C88.127 270.625 88.4236 270.718 88.7275 270.719H124.168C124.388 270.719 124.605 270.671 124.804 270.578C125.003 270.485 125.18 270.349 125.32 270.18C132.642 261.091 147.704 237.525 148.453 221.669C149.142 205.483 119.391 193.954 119.391 190.406ZM120.095 197.263C121.592 198.386 123.239 199.524 124.692 200.782C124.92 200.983 125.081 201.249 125.154 201.544C125.228 201.839 125.209 202.149 125.102 202.433C124.995 202.718 124.804 202.963 124.554 203.136C124.304 203.309 124.007 203.402 123.703 203.402H120.469C120.268 203.401 120.068 203.36 119.883 203.28C119.698 203.2 119.53 203.084 119.391 202.938C118.313 201.785 117.145 200.677 115.993 199.554C115.782 199.346 115.639 199.079 115.58 198.789C115.521 198.499 115.549 198.198 115.661 197.924C115.773 197.65 115.964 197.415 116.21 197.25C116.455 197.084 116.745 196.995 117.041 196.994H119.182C119.513 196.995 119.834 197.105 120.095 197.308V197.263ZM121.383 183.788H122.356L121.368 184.342H119.706L121.383 183.788ZM118.089 184.896C118.257 184.835 118.434 184.805 118.613 184.806H120.469L118.972 185.645C118.745 185.779 118.487 185.852 118.223 185.854H115.558C116.442 185.54 117.28 185.225 118.089 184.926V184.896ZM113.387 186.992C113.618 186.855 113.882 186.783 114.151 186.783H117.145C116.711 187.037 116.307 187.307 115.888 187.576C115.469 187.846 114.915 188.235 114.39 188.624C114.125 188.844 113.792 188.966 113.447 188.969H110.887C111.592 188.169 112.44 187.509 113.387 187.022V186.992ZM110.393 192.652C110.138 192.079 110.039 191.448 110.108 190.825H111.725C111.971 190.825 112.212 190.885 112.429 191C112.646 191.114 112.831 191.281 112.968 191.484C113.346 192.03 113.783 192.532 114.271 192.981C114.765 193.415 115.274 193.85 115.768 194.269H112.085C111.836 194.27 111.59 194.209 111.37 194.091C111.151 193.974 110.964 193.803 110.827 193.595C110.767 193.266 110.602 192.981 110.453 192.682L110.393 192.652ZM118.388 237.15H106.575C106.272 237.147 105.978 237.052 105.73 236.878C105.483 236.703 105.294 236.458 105.188 236.174C105.083 235.891 105.066 235.582 105.14 235.288C105.214 234.995 105.375 234.73 105.602 234.53C109.905 230.873 113.938 226.91 117.669 222.672C119.465 220.552 121.017 218.236 122.296 215.769C122.413 215.509 122.602 215.288 122.841 215.131C123.08 214.974 123.358 214.89 123.644 214.886H129.303C129.534 214.879 129.763 214.926 129.973 215.023C130.183 215.119 130.368 215.263 130.513 215.443C130.658 215.623 130.759 215.833 130.809 216.059C130.859 216.284 130.856 216.518 130.8 216.743C129.198 223.81 124.437 230.682 119.586 236.611C119.45 236.784 119.277 236.924 119.08 237.023C118.884 237.121 118.668 237.175 118.448 237.18L118.388 237.15Z" fill="#ED1C24"/>
<path d="M256.809 78.1419H246.927V78.127L256.809 78.1419Z" fill="#ED1C24"/>
<path d="M567.041 60.4293V76.7943C567.041 77.1914 566.883 77.5723 566.602 77.8531C566.322 78.1338 565.941 78.2916 565.544 78.2916H553.566C553.168 78.2916 552.788 78.1338 552.507 77.8531C552.226 77.5723 552.068 77.1914 552.068 76.7943V74.803C552.066 74.4835 551.962 74.1731 551.77 73.9172C551.579 73.6613 551.311 73.4732 551.005 73.3806L407.433 29.5559C407.15 29.4701 406.848 29.4701 406.565 29.5559L261.9 73.695V76.7943C261.9 77.1914 261.742 77.5723 261.461 77.8531C261.181 78.1338 260.8 78.2916 260.403 78.2916H226.625C226.281 78.3008 225.944 78.1912 225.671 77.9812C225.398 77.7712 225.206 77.4737 225.127 77.1387L222.852 67.3317C222.764 66.9549 222.826 66.559 223.024 66.2268C223.223 65.8947 223.542 65.6521 223.915 65.5499L241.522 60.7587L243.888 60.1149L383.313 22.2343L406.939 15.826L464.883 0.0898772C465.258 -0.0129382 465.659 0.0342693 466 0.221506C466.34 0.408743 466.595 0.721309 466.71 1.09304L469.105 8.93867C469.217 9.31789 469.174 9.72591 468.986 10.0737C468.799 10.4216 468.481 10.6809 468.102 10.7953L435.552 20.737C435.241 20.8278 434.968 21.0169 434.773 21.2761C434.579 21.5352 434.474 21.8505 434.474 22.1744C434.474 22.4984 434.579 22.8136 434.773 23.0728C434.968 23.3319 435.241 23.5211 435.552 23.6118L551.978 55.2338L565.843 59.0069C566.174 59.0743 566.472 59.2514 566.69 59.5096C566.907 59.7678 567.031 60.0919 567.041 60.4293Z" fill="#ED1C24"/>
<path d="M321.491 100.226H315.831V100.211L321.491 100.226Z" fill="#ED1C24"/>
<path d="M498.856 90.584V98.804C498.856 99.2011 498.698 99.5819 498.417 99.8627C498.136 100.143 497.756 100.301 497.359 100.301H491.789C491.392 100.301 491.011 100.143 490.73 99.8627C490.449 99.5819 490.291 99.2011 490.291 98.804C490.306 98.4718 490.209 98.1444 490.016 97.8733C489.824 97.6022 489.547 97.4029 489.228 97.3067L408.242 72.6319C407.659 72.4675 407.043 72.4675 406.46 72.6319L325.459 97.3517C325.14 97.4478 324.863 97.6471 324.671 97.9182C324.478 98.1893 324.381 98.5167 324.395 98.8489C324.395 99.246 324.238 99.6268 323.957 99.9076C323.676 100.188 323.295 100.346 322.898 100.346H305.934C305.246 100.365 304.573 100.145 304.027 99.7254C303.482 99.3054 303.098 98.7103 302.94 98.0404L302.491 96.0939C302.312 95.3382 302.434 94.5426 302.83 93.8749C303.227 93.2073 303.867 92.7198 304.617 92.5155L312.702 90.3295L314.049 89.9552L393.763 68.3049L407.239 64.6366L439.774 55.8028C440.149 55.7 440.55 55.7472 440.891 55.9344C441.232 56.1216 441.486 56.4342 441.601 56.8059L442.589 60.0849C442.706 60.4642 442.667 60.8743 442.482 61.2252C442.297 61.5762 441.98 61.8392 441.601 61.9565L425.909 66.7327C425.598 66.8235 425.325 67.0126 425.131 67.2718C424.937 67.5309 424.831 67.8461 424.831 68.1701C424.831 68.4941 424.937 68.8093 425.131 69.0685C425.325 69.3276 425.598 69.5168 425.909 69.6075L490.291 87.0954L497.778 89.1167C498.094 89.2088 498.371 89.4025 498.565 89.6677C498.76 89.9329 498.862 90.255 498.856 90.584Z" fill="#ED1C24"/>
<path d="M645.692 129.782C645.17 128.67 644.59 127.585 643.955 126.533C639.897 119.691 633.812 114.281 626.542 111.052C625.419 110.573 624.281 110.138 623.113 109.749L622.859 109.659H622.634C622.215 109.524 621.796 109.405 621.361 109.3L620.223 109.015L619.086 108.761C618.621 108.656 618.172 108.581 617.708 108.506L616.301 108.312C615.835 108.237 615.365 108.192 614.893 108.177C614.489 108.177 614.085 108.177 613.665 108.102C613.556 108.087 613.445 108.087 613.336 108.102H612.048H610.761H610.431C610.012 108.102 609.608 108.102 609.204 108.177C608.799 108.252 608.26 108.252 607.796 108.312L606.389 108.506L605.011 108.761C604.637 108.836 604.248 108.911 603.873 109.015L602.736 109.3C602.301 109.405 601.882 109.524 601.463 109.659H601.238L600.984 109.749C599.816 110.138 598.678 110.573 597.555 111.052C590.255 114.286 584.146 119.72 580.082 126.593C579.447 127.645 578.867 128.73 578.345 129.842C575.905 134.99 574.642 140.616 574.647 146.312V181.408C574.647 181.805 574.805 182.186 575.086 182.466C575.366 182.747 575.747 182.905 576.144 182.905H588.122C588.519 182.905 588.9 182.747 589.181 182.466C589.462 182.186 589.62 181.805 589.62 181.408V145.474C589.612 145.344 589.612 145.214 589.62 145.084C589.634 143.321 589.866 141.566 590.308 139.859C590.503 139.14 590.713 138.436 590.967 137.748C592.098 134.686 593.879 131.906 596.187 129.598C598.495 127.29 601.276 125.509 604.338 124.377C605.026 124.123 605.73 123.913 606.449 123.718C606.868 123.606 607.293 123.516 607.721 123.449C608.051 123.374 608.395 123.314 608.74 123.269L609.503 123.164L610.342 123.09H610.851H610.97H612.063H613.276C613.446 123.074 613.616 123.074 613.785 123.09C614.066 123.099 614.346 123.124 614.624 123.164C614.88 123.185 615.135 123.22 615.387 123.269C615.732 123.269 616.076 123.374 616.405 123.449C616.834 123.516 617.259 123.606 617.678 123.718C618.397 123.913 619.101 124.123 619.789 124.377C622.851 125.509 625.631 127.29 627.939 129.598C630.247 131.906 632.028 134.686 633.16 137.748C633.414 138.436 633.624 139.14 633.819 139.859C634.261 141.566 634.492 143.321 634.507 145.084C634.515 145.214 634.515 145.344 634.507 145.474V181.408C634.507 181.805 634.665 182.186 634.946 182.466C635.227 182.747 635.607 182.905 636.005 182.905H647.983C648.38 182.905 648.761 182.747 649.041 182.466C649.322 182.186 649.48 181.805 649.48 181.408V146.207C649.45 140.519 648.156 134.909 645.692 129.782ZM585.802 179.057H578.315V163.336H585.802V179.057ZM645.692 179.057H638.206V163.336H645.692V179.057Z" fill="#ED1C24"/>
<path d="M721.947 123.689H719.761C719.352 123.672 718.95 123.569 718.584 123.386C718.217 123.202 717.894 122.943 717.635 122.625C716.761 121.552 715.658 120.686 714.407 120.093C713.156 119.5 711.788 119.194 710.403 119.197H692.421C685.971 119.205 679.787 121.771 675.226 126.332C670.665 130.893 668.099 137.077 668.091 143.527V146.522C668.099 152.972 670.665 159.156 675.226 163.717C679.787 168.278 685.971 170.844 692.421 170.852H713.053C713.848 170.852 714.609 171.168 715.171 171.729C715.732 172.291 716.048 173.052 716.048 173.847V175.434C716.048 176.228 715.732 176.99 715.171 177.551C714.609 178.113 713.848 178.428 713.053 178.428H692.421C683.985 178.42 675.897 175.066 669.932 169.101C663.967 163.135 660.612 155.047 660.605 146.611V143.617C660.597 139.432 661.414 135.287 663.009 131.418C664.604 127.55 666.946 124.033 669.9 121.07C672.855 118.107 676.365 115.755 680.229 114.149C684.094 112.543 688.237 111.714 692.421 111.71H710.388C713.157 111.713 715.883 112.397 718.324 113.703C720.766 115.008 722.848 116.895 724.388 119.197C724.674 119.636 724.836 120.144 724.857 120.667C724.878 121.191 724.757 121.71 724.507 122.171C724.257 122.631 723.887 123.015 723.436 123.282C722.986 123.55 722.471 123.69 721.947 123.689Z" fill="#ED1C24"/>
<path d="M713.068 179.087H692.421C683.788 179.075 675.512 175.64 669.407 169.536C663.303 163.431 659.868 155.155 659.856 146.522V143.527C659.868 134.894 663.303 126.618 669.407 120.513C675.512 114.409 683.788 110.974 692.421 110.962H710.388C713.281 110.963 716.129 111.676 718.68 113.04C721.232 114.403 723.408 116.373 725.017 118.778L725.136 119.017C725.438 119.543 725.597 120.14 725.597 120.746C725.597 121.353 725.438 121.95 725.136 122.476C724.82 123.067 724.35 123.561 723.775 123.907C723.2 124.252 722.543 124.435 721.872 124.437H719.686C719.165 124.423 718.654 124.297 718.186 124.067C717.718 123.837 717.306 123.509 716.976 123.105C716.174 122.115 715.161 121.318 714.01 120.772C712.86 120.225 711.602 119.943 710.329 119.945H692.421C686.169 119.953 680.176 122.44 675.755 126.861C671.334 131.282 668.847 137.275 668.839 143.527V146.522C668.847 152.774 671.334 158.767 675.755 163.188C680.176 167.609 686.169 170.096 692.421 170.104H713.054C714.033 170.107 714.971 170.498 715.664 171.191C716.357 171.884 716.748 172.822 716.752 173.802V175.434C716.74 176.404 716.347 177.331 715.658 178.015C714.969 178.698 714.039 179.083 713.068 179.087ZM692.421 112.459C684.185 112.471 676.29 115.748 670.466 121.572C664.642 127.396 661.365 135.291 661.353 143.527V146.522C661.365 154.758 664.642 162.653 670.466 168.477C676.29 174.301 684.185 177.578 692.421 177.59H713.054C713.342 177.592 713.628 177.537 713.895 177.428C714.162 177.319 714.404 177.158 714.609 176.955C714.813 176.752 714.976 176.51 715.087 176.244C715.197 175.978 715.254 175.692 715.254 175.404V173.802C715.254 173.218 715.023 172.658 714.61 172.245C714.197 171.833 713.637 171.601 713.054 171.601H692.421C685.771 171.597 679.394 168.953 674.692 164.251C669.99 159.549 667.346 153.172 667.342 146.522V143.527C667.346 136.877 669.99 130.5 674.692 125.798C679.394 121.096 685.771 118.452 692.421 118.448H710.388C711.886 118.442 713.366 118.773 714.719 119.416C716.071 120.059 717.262 120.997 718.204 122.161C718.388 122.386 718.615 122.571 718.873 122.704C719.13 122.838 719.412 122.918 719.701 122.94H721.857C722.258 122.942 722.651 122.834 722.994 122.628C723.337 122.423 723.617 122.126 723.804 121.772C723.982 121.445 724.067 121.076 724.052 120.704C724.036 120.332 723.919 119.972 723.714 119.661V119.556C722.241 117.372 720.254 115.582 717.928 114.345C715.602 113.107 713.008 112.46 710.373 112.459H692.421Z" fill="#ED1C24"/>
</g>
</mask>
<g mask="url(#mask1_590_384)">
<rect x="-7.23315" y="-67.1665" width="736.763" height="371.998" fill="white"/>
</g>
<defs>
<clipPath id="clip0_590_384">
<rect width="770.967" height="278.999" fill="white"/>
</clipPath>
</defs>
</svg>
