<svg width="31" height="37" viewBox="0 0 31 37" fill="none" xmlns="http://www.w3.org/2000/svg">
<path fill-rule="evenodd" clip-rule="evenodd" d="M30.875 33.8801C30.875 34.5584 30.6056 35.2089 30.126 35.6885C29.6464 36.1681 28.9959 36.4375 28.3176 36.4375H2.69006C2.35312 36.4378 2.01942 36.3717 1.70806 36.2429C1.3967 36.1142 1.11379 35.9252 0.875539 35.687C0.637284 35.4487 0.448355 35.1658 0.319568 34.8544C0.190781 34.5431 0.124664 34.2094 0.125001 33.8724V31.3125C0.125001 24.5654 10.375 21.0625 10.375 21.0625C10.375 21.0625 11.9868 20.0144 11.4 18.5C9.24494 16.9113 7.956 14.4256 7.8125 8.25C8.25581 2.06669 12.5967 0.5625 15.5 0.5625C18.4033 0.5625 22.7442 2.06412 23.1875 8.25C23.044 14.4256 21.7551 16.9113 19.6 18.5C19.0132 20.0119 20.625 21.0625 20.625 21.0625C20.625 21.0625 30.875 24.5654 30.875 31.3125V33.8801Z" fill="#D7560D"/>
</svg>
