<svg width="22" height="34" viewBox="0 0 22 34" fill="none" xmlns="http://www.w3.org/2000/svg">
<path fill-rule="evenodd" clip-rule="evenodd" d="M19.5415 0H2.62484C1.46182 0 0.510254 0.951562 0.510254 2.11458V31.7187C0.510254 32.8818 1.46182 33.8333 2.62484 33.8333H19.5415C20.7045 33.8333 21.6561 32.8818 21.6561 31.7187V2.11458C21.6561 0.951562 20.7045 0 19.5415 0ZM11.0832 32.3531C9.56067 32.3531 8.33421 31.1267 8.33421 29.6042C8.33421 28.0817 9.56067 26.8552 11.0832 26.8552C12.6057 26.8552 13.8321 28.0817 13.8321 29.6042C13.8321 31.1267 12.6057 32.3531 11.0832 32.3531ZM19.5415 25.375H2.62484V4.22917H19.5415V25.375Z" fill="#D7560D"/>
</svg>
