<svg width="329" height="132" viewBox="0 0 329 132" fill="none" xmlns="http://www.w3.org/2000/svg">
<g clip-path="url(#clip0_185_7027)">
<path d="M73.2342 59.1964C72.4152 60.1888 71.3458 60.9307 70.1318 61.3449L69.5537 61.5473L68.8696 60.8247C68.4264 60.3526 68.2241 59.6974 68.3204 59.0519L68.359 58.8303C68.465 58.1655 68.8407 57.5777 69.3899 57.202L71.8564 55.5352L72.7428 57.2502" fill="#F7A9AA"/>
<path d="M70.0548 59.4275C70.2379 59.1289 70.4498 58.7916 70.7967 58.7242C71.1821 58.6471 71.5193 58.9554 71.8854 59.1096C72.3575 59.3216 72.8971 59.2927 73.4173 59.2638C73.5137 59.5046 73.3788 59.7648 73.2536 59.9864C73.109 60.2369 72.9645 60.4874 72.7622 60.6993C72.5309 60.9498 72.2419 61.1329 71.9529 61.316C71.4133 61.6628 70.8448 62.0193 70.1993 62.106C69.8525 62.1446 69.4767 62.0964 69.1877 61.8941C69.0239 61.7784 68.8986 61.605 68.8408 61.4123C68.7926 61.2678 68.7734 61.104 68.8504 60.9691C68.9275 60.8342 69.0528 60.7379 69.1588 60.6319C69.3129 60.4585 69.4574 60.2658 69.602 60.0827C69.7561 59.8707 69.9103 59.6491 70.0548 59.4275Z" fill="#F48E8A"/>
<path d="M77.0014 52.1918L71.4036 55.8241L73.2342 59.1963L79.4583 56.7201L77.0014 52.1918Z" fill="#F7A9AA"/>
<path d="M70.7579 51.7871H69.5439V63.7632H70.7579V51.7871Z" fill="#4A87C7"/>
<path d="M69.5439 63.7633L70.1509 66.6248L70.7676 63.7633H69.5439Z" fill="#FFF7EF"/>
<path d="M70.7869 65.3338C71.153 65.5843 71.259 66.1142 71.0952 66.5285C70.9314 66.9428 70.546 67.2415 70.1317 67.3956C70.0739 67.4149 70.0161 67.4342 69.9486 67.4245C69.8908 67.4053 69.8523 67.3667 69.8137 67.3185C69.4572 66.9042 69.2164 66.3647 69.1489 65.8155C69.1008 65.3627 69.3802 65.1411 69.8137 65.1025C70.1317 65.0833 70.5267 65.1507 70.7869 65.3338Z" fill="#341F58"/>
<path d="M70.7677 51.7872H69.5537V50.9393C69.5537 50.631 69.8042 50.3708 70.1222 50.3708H70.2089C70.5172 50.3708 70.7773 50.6214 70.7773 50.9393V51.7872H70.7677Z" fill="#FFF7EF"/>
<path d="M70.7579 51.4017H69.5439V51.7871H70.7579V51.4017Z" fill="#341F58"/>
<path d="M71.4035 55.8241C71.4035 55.8241 69.544 56.961 69.2164 58.0883C68.9467 59.0036 69.3609 60.2657 69.5247 60.6993C69.5536 60.786 69.6596 60.8149 69.7367 60.7668L69.7463 60.7571C70.3822 60.3428 70.758 59.6202 70.758 58.8494V58.676L72.7428 57.7703L71.4035 55.8241Z" fill="#F7A9AA"/>
<path d="M69.3996 60.3525C69.2647 60.1695 69.1683 59.9575 69.0913 59.7552C69.0142 59.5432 68.9564 59.3216 68.9371 59.1C68.9082 58.8784 68.9082 58.6472 68.9467 58.4159C68.9853 58.1943 69.072 57.9631 69.2165 57.7897C69.178 58.0113 69.1683 58.2232 69.1683 58.4352C69.1683 58.6472 69.1973 58.8591 69.2165 59.0711C69.2454 59.2831 69.2743 59.495 69.3032 59.707C69.3514 59.9093 69.3803 60.1213 69.3996 60.3525Z" fill="#F48E8A"/>
<path d="M92.2052 29.4921C92.2052 29.4921 90.4806 31.7659 90.3939 42.5088C90.3939 42.5088 79.9208 47.9235 75.0071 52.5386L78.1962 58.0883C78.1962 58.0883 93.188 53.1649 99.3832 49.3977C105.578 45.6304 97.9765 27.4014 97.9765 27.4014L92.2052 29.4921Z" fill="#DC3967"/>
<path d="M80.3929 58.8398L79.4198 59.3986C78.9862 59.6491 78.4274 59.5046 78.1769 59.0614L74.1881 52.1532C73.9376 51.7197 74.0821 51.1609 74.5253 50.9104L75.4984 50.3515C75.932 50.101 76.4908 50.2456 76.7413 50.6888L80.7301 57.5969C80.9806 58.0305 80.8265 58.5893 80.3929 58.8398Z" fill="#DC3967"/>
<path d="M90.5386 12.2555C89.5943 12.4 88.5923 12.5349 87.7348 12.1303C87.0411 11.8123 86.5208 11.1571 86.357 10.4153C86.1932 9.67338 86.4052 8.85442 86.9062 8.27633C85.673 7.94875 84.9118 6.41681 85.4128 5.24137C85.7982 4.32606 86.8002 3.74797 87.7926 3.74797C88.785 3.74797 89.7389 4.26825 90.3844 5.01977C90.3844 4.00811 91.2997 3.07353 92.3114 3.05426C93.323 3.03499 94.2769 3.9214 94.3154 4.94269C95.2596 3.97921 96.5314 3.20842 97.8803 3.32404C99.2292 3.43002 100.501 4.68255 100.26 6.01215C101.831 5.54968 103.497 6.61915 104.393 7.98729C105.453 9.60594 105.771 11.6774 105.241 13.5369C104.711 15.3965 103.353 16.9958 101.609 17.8148C100.125 16.5912 98.6414 15.223 97.1673 13.9994C96.464 13.4213 95.7606 12.8336 94.9513 12.4289C93.5639 11.7449 92.0801 12.0146 90.5386 12.2555Z" fill="#1F1C3F"/>
<path d="M93.5155 56.595L95.7893 50.0722L101.859 50.024V49.9951L103.786 50.0144L105.713 49.9951V50.024L111.783 50.0722L114.057 56.595C115.3 60.1598 115.936 63.9656 115.936 67.8195V121.331H106.628L103.786 70.4498L100.944 121.331H91.6367V67.8099C91.6367 63.9656 92.2726 60.1502 93.5155 56.595Z" fill="#1F1C3F"/>
<path d="M103.574 21.1484C103.574 21.1484 112.361 23.2392 114.972 29.6656C116.918 34.4637 114.423 57.78 114.423 57.78H93.1205C93.1205 57.78 90.2204 32.7584 92.5231 28.7214C94.8259 24.6844 98.7761 21.1292 98.7761 21.1292L103.574 21.1484Z" fill="#F0677A"/>
<path d="M104.461 21.3988C104.461 21.3988 103.459 25.8598 100.298 26.1103C97.986 26.2933 96.3096 25.4551 96.3096 23.6534C96.3096 21.8517 96.3096 23.6534 96.3096 23.6534L97.2056 21.5337L103.391 19.549L104.461 21.3988Z" fill="#DC3967"/>
<path d="M89.8928 10.8198L91.6656 17.9207C92.2052 20.0885 94.0743 21.6686 96.3 21.8517L96.9359 23.2295C97.408 24.0099 98.2173 24.4531 99.0941 24.5591C100.568 24.7421 101.975 23.8943 102.601 22.5454L103.247 21.1291L98.41 8.14136L89.8928 10.8198Z" fill="#F7A9AA"/>
<path d="M99.7204 13.4405C99.3158 14.8665 99.7012 16.2154 100.578 16.4659C101.455 16.7164 102.486 15.7625 102.89 14.3366C103.295 12.9106 102.91 11.5618 102.033 11.3113C101.156 11.0607 100.115 12.0242 99.7204 13.4405Z" fill="#F7A9AA"/>
<path d="M100.761 14.0573C100.915 13.5851 101.021 13.1323 101.185 12.7084C101.262 12.4964 101.358 12.2941 101.493 12.1399C101.561 12.0628 101.638 11.9954 101.744 11.9569C101.84 11.9087 101.956 11.8991 102.081 11.8894C101.975 11.822 101.84 11.7931 101.705 11.8027C101.57 11.8123 101.435 11.8702 101.32 11.9569C101.098 12.1207 100.963 12.3615 100.877 12.6024C100.79 12.8433 100.742 13.0841 100.722 13.3346C100.703 13.5659 100.703 13.8164 100.761 14.0573Z" fill="#1F1C3F"/>
<path d="M96.3 21.8517C96.3 21.8517 97.8802 21.2351 98.7762 21.1291C99.2772 21.0713 96.9359 23.2295 96.9359 23.2295L96.3 21.8517Z" fill="#F48E8A"/>
<path d="M105.549 27.1414C105.549 27.1414 103.044 44.0312 84.7478 43.7229V51.8547C84.7478 51.8547 105.231 53.7334 110.396 39.5028L105.549 27.1414Z" fill="#F0677A"/>
<path d="M85.7884 52.6929H84.6612C84.1601 52.6929 83.7458 52.2882 83.7458 51.7776V43.8C83.7458 43.2989 84.1505 42.8846 84.6612 42.8846H85.7884C86.2894 42.8846 86.7037 43.2893 86.7037 43.8V51.7776C86.6941 52.2882 86.2894 52.6929 85.7884 52.6929Z" fill="#DC3967"/>
<path d="M67.9448 39.5798L70.2765 34.0784L76.0284 42.769L73.3596 47.413L67.9448 39.5798Z" fill="#4A87C7"/>
<path d="M73.3596 47.4129L67.9448 39.5798L71.3845 33.5966L76.7896 41.4297L73.3596 47.4129Z" fill="#FFF7EF"/>
<path d="M67.9448 39.5798H73.427L77.7916 46.6036L73.3596 47.4129L67.9448 39.5798Z" fill="#4A87C7"/>
<path d="M76.0765 43.4048L75.6526 43.1832L76.2885 46.883L78.7839 45.9581L77.5796 44.5706C77.1653 44.0985 76.6546 43.7035 76.0765 43.4048Z" fill="#F7A9AA"/>
<path d="M83.7556 44.8403L77.0979 45.351V49.1856L83.7556 49.9853V44.8403Z" fill="#F7A9AA"/>
<path d="M77.0979 45.3512L70.7678 43.8192C70.7678 43.8192 72.2612 48.3379 73.9377 48.6463C75.6045 48.9449 77.7916 49.2725 77.7916 49.2725L77.0979 45.3512Z" fill="#F7A9AA"/>
<path d="M91.7139 51.9316C94.5272 51.5077 97.331 51.0356 100.106 50.4768C101.493 50.1877 102.881 49.8794 104.239 49.5133C105.598 49.1472 106.956 48.7425 108.247 48.2029C108.893 47.9428 109.529 47.6441 110.116 47.2876C110.405 47.1046 110.685 46.9119 110.945 46.6999C111.07 46.5939 111.195 46.4783 111.301 46.3627C111.359 46.3049 111.398 46.2374 111.456 46.1796L111.533 46.0833L111.6 45.9773C111.648 45.9099 111.687 45.8424 111.735 45.775L111.851 45.5534C111.889 45.4859 111.928 45.3992 111.957 45.3221L112.063 45.0909C112.12 44.9271 112.188 44.7729 112.246 44.6091C112.294 44.4454 112.361 44.2816 112.4 44.1178C112.448 43.954 112.496 43.7806 112.535 43.6168C112.573 43.4433 112.621 43.2795 112.65 43.1061C112.689 42.9327 112.727 42.7689 112.756 42.5955C112.785 42.422 112.824 42.2486 112.853 42.0752C112.968 41.3815 113.055 40.6781 113.122 39.9748C113.199 39.2715 113.248 38.5681 113.286 37.8551C113.373 36.4388 113.411 35.0225 113.421 33.5966C113.566 35.0129 113.614 36.4388 113.623 37.8648C113.614 39.2907 113.556 40.7167 113.373 42.1426C113.277 42.8556 113.161 43.5686 112.968 44.2719C112.93 44.4454 112.872 44.6188 112.814 44.8018C112.756 44.9753 112.689 45.1487 112.631 45.3221L112.525 45.5823C112.487 45.669 112.458 45.7557 112.409 45.8328L112.284 46.0833C112.236 46.17 112.188 46.2471 112.14 46.3241L112.063 46.4494L111.976 46.565C111.918 46.6421 111.86 46.7192 111.793 46.7963C111.658 46.9408 111.523 47.0757 111.379 47.1913C111.089 47.4418 110.791 47.6538 110.473 47.8464C109.847 48.2318 109.191 48.5498 108.517 48.8196C107.843 49.0893 107.168 49.3302 106.484 49.5422C105.8 49.7541 105.106 49.9468 104.413 50.1203C103.719 50.2937 103.016 50.4478 102.322 50.5924C101.618 50.7369 100.925 50.8621 100.221 50.9874C98.8147 51.2283 97.3984 51.421 95.9917 51.5848C94.5561 51.7389 93.1302 51.8642 91.7139 51.9316Z" fill="#DC3967"/>
<path d="M107.245 25.8599C107.053 26.0911 106.889 26.3512 106.715 26.6017C106.552 26.8619 106.397 27.1124 106.263 27.3822C106.108 27.6423 105.993 27.9217 105.858 28.1915C105.733 28.4613 105.617 28.7407 105.492 29.0201C105.376 29.2995 105.28 29.5789 105.164 29.8583C105.058 30.1377 104.981 30.4268 104.875 30.7158L104.808 30.9278C104.788 30.9952 104.769 31.0723 104.75 31.1397L104.625 31.5733L104.499 32.0069C104.461 32.1514 104.432 32.2959 104.393 32.4501L104.191 33.3268L104.027 34.2132L103.95 34.6565L103.892 35.0996L103.767 35.9957C103.738 36.1402 103.729 36.2944 103.719 36.4389L103.68 36.8917L103.594 37.7878L103.497 39.5895L103.488 39.8014L103.314 39.8785C102.871 40.0808 102.428 40.2735 101.985 40.4566C101.763 40.5433 101.532 40.63 101.31 40.7167L100.636 40.9673C100.183 41.131 99.7301 41.2948 99.2677 41.4394C99.0364 41.5164 98.8052 41.5839 98.5739 41.6513C98.3427 41.7188 98.1115 41.7958 97.8802 41.8537C97.649 41.9211 97.4178 41.9885 97.1865 42.0464L96.4832 42.2198C96.252 42.2776 96.0111 42.3258 95.7799 42.3739C95.5486 42.4221 95.3077 42.4799 95.0765 42.5185L94.3635 42.6437C94.1227 42.6823 93.8914 42.7112 93.6506 42.7497L93.2941 42.7979C93.1785 42.8075 93.0532 42.8268 92.9376 42.8364L92.2246 42.8942C93.1592 42.6919 94.0938 42.4896 95.0091 42.2294C95.2403 42.1716 95.4715 42.0945 95.6931 42.0367C95.9244 41.9693 96.1556 41.9115 96.3772 41.8344L97.0613 41.6224L97.7357 41.4008C97.9573 41.3237 98.1886 41.2467 98.4102 41.1696C98.6318 41.0925 98.863 41.0154 99.0846 40.9287L99.7494 40.6782L100.414 40.4181L101.079 40.1483L101.734 39.8689C102.168 39.6858 102.611 39.4931 103.035 39.2908L102.842 39.5798C102.871 38.9728 102.89 38.3562 102.929 37.7492L103.025 36.8339L103.073 36.3811C103.093 36.2269 103.102 36.0728 103.131 35.9282L103.276 35.0226L103.353 34.5697L103.449 34.1169L103.642 33.2209C103.719 32.9222 103.796 32.6235 103.883 32.3345C103.921 32.1899 103.96 32.0358 104.008 31.8913L104.153 31.4577L104.297 31.0241C104.326 30.947 104.345 30.8796 104.374 30.8025L104.461 30.5906L104.634 30.1666C104.692 30.0221 104.74 29.8776 104.808 29.7427C104.933 29.4633 105.058 29.1839 105.193 28.9045L105.405 28.4998C105.482 28.3649 105.54 28.23 105.627 28.0951C105.79 27.835 105.935 27.5652 106.108 27.3147C106.436 26.7655 106.802 26.2742 107.245 25.8599Z" fill="#DC3967"/>
<path d="M93.1206 18.8265C93.1206 18.8265 95.0765 18.7976 95.7509 18.2098C95.7509 18.2098 95.0379 20.4355 94.113 19.9152C93.188 19.3853 93.1206 18.8265 93.1206 18.8265Z" fill="white"/>
<path d="M94.3154 15.5313C94.3828 15.9359 94.643 16.225 94.9031 16.1864C95.1633 16.1479 95.3174 15.7818 95.25 15.3771C95.1825 14.9725 94.9224 14.6834 94.6622 14.722C94.4021 14.7605 94.2479 15.1266 94.3154 15.5313Z" fill="#1F1C3F"/>
<path d="M91.7333 15.7433C91.8007 16.148 92.0608 16.437 92.321 16.3985C92.5811 16.3599 92.7353 15.9938 92.6678 15.5892C92.6004 15.1845 92.3402 14.8954 92.0801 14.934C91.8296 14.9822 91.6658 15.3386 91.7333 15.7433Z" fill="#1F1C3F"/>
<path d="M93.5928 15.0881C93.4964 15.3964 93.4386 15.7144 93.4001 16.0323C93.3616 16.3503 93.3423 16.6682 93.3423 16.9958C93.3519 17.1596 93.3519 17.3234 93.3808 17.4872C93.4001 17.5739 93.4097 17.651 93.4483 17.7473C93.4675 17.7955 93.4868 17.8437 93.535 17.9015C93.5446 17.9111 93.5639 17.9304 93.5832 17.94C93.6024 17.9497 93.6217 17.9593 93.6506 17.9689C93.718 17.9786 93.718 17.9689 93.7469 17.9689C93.93 17.94 94.0745 17.8726 94.2287 17.8052C94.3732 17.7281 94.5081 17.6414 94.6334 17.5354C94.4792 17.5739 94.325 17.6221 94.1709 17.651C94.0167 17.6895 93.8626 17.7088 93.7277 17.7088C93.718 17.7088 93.6795 17.7088 93.7084 17.7088C93.718 17.7088 93.718 17.7184 93.7277 17.7088C93.7277 17.7088 93.7373 17.7184 93.7373 17.7088C93.7373 17.6992 93.718 17.6799 93.718 17.651C93.6988 17.5932 93.6891 17.5161 93.6891 17.4487C93.6795 17.3041 93.6699 17.15 93.6699 16.9862L93.6602 16.042C93.641 15.724 93.6313 15.4061 93.5928 15.0881Z" fill="#1F1C3F"/>
<path d="M98.622 124.915L94.373 123.798L93.6408 124.636C92.7544 125.648 91.5597 126.361 90.2397 126.611C88.5633 126.929 86.328 127.902 86.2991 130.841H99.5758C99.5758 130.841 99.836 127.796 98.622 124.915Z" fill="#F0677A"/>
<path d="M95.0088 125.474C95.0667 125.474 95.1148 125.445 95.1534 125.406C95.2112 125.329 95.2015 125.214 95.1245 125.156L94.055 124.327C93.9779 124.27 93.8623 124.279 93.8045 124.356C93.7467 124.433 93.7563 124.549 93.8334 124.607L94.9029 125.435C94.9318 125.464 94.9703 125.474 95.0088 125.474Z" fill="white"/>
<path d="M94.2093 126.168C94.2671 126.168 94.3153 126.139 94.3538 126.1C94.4116 126.023 94.402 125.907 94.3249 125.85L93.2554 125.021C93.1784 124.963 93.0627 124.973 93.0049 125.05C92.9471 125.127 92.9568 125.243 93.0338 125.3L94.1033 126.129C94.1322 126.158 94.1707 126.168 94.2093 126.168Z" fill="white"/>
<path d="M93.3421 126.861C93.3999 126.861 93.4481 126.832 93.4866 126.794C93.5444 126.717 93.5348 126.601 93.4577 126.543L92.3883 125.715C92.3112 125.657 92.1956 125.667 92.1377 125.744C92.0799 125.821 92.0896 125.936 92.1667 125.994L93.2361 126.823C93.265 126.842 93.3036 126.861 93.3421 126.861Z" fill="white"/>
<path d="M114.144 124.915L109.895 123.798L109.163 124.636C108.276 125.648 107.081 126.361 105.761 126.611C104.085 126.929 101.85 127.902 101.821 130.841H115.098C115.098 130.841 115.348 127.796 114.144 124.915Z" fill="#F0677A"/>
<path d="M110.531 125.474C110.588 125.474 110.637 125.445 110.675 125.406C110.733 125.329 110.723 125.214 110.646 125.156L109.577 124.327C109.5 124.27 109.384 124.279 109.326 124.356C109.268 124.433 109.278 124.549 109.355 124.607L110.425 125.435C110.453 125.464 110.492 125.474 110.531 125.474Z" fill="white"/>
<path d="M109.731 126.168C109.789 126.168 109.837 126.139 109.876 126.1C109.933 126.023 109.924 125.907 109.847 125.85L108.777 125.021C108.7 124.963 108.584 124.973 108.527 125.05C108.469 125.127 108.478 125.243 108.556 125.3L109.625 126.129C109.654 126.158 109.692 126.168 109.731 126.168Z" fill="white"/>
<path d="M108.864 126.861C108.922 126.861 108.97 126.832 109.008 126.794C109.066 126.717 109.057 126.601 108.979 126.543L107.91 125.715C107.833 125.657 107.717 125.667 107.659 125.744C107.602 125.821 107.611 125.936 107.688 125.994L108.758 126.823C108.787 126.842 108.825 126.861 108.864 126.861Z" fill="white"/>
<path d="M114.009 121.322L114.144 124.915L109.895 123.798L109.471 121.322H114.009Z" fill="#F7A9AA"/>
<path d="M94.3731 123.798L94.1226 121.322H98.7376L98.622 124.915L94.3731 123.798Z" fill="#F7A9AA"/>
<path d="M99.6048 130.841H86.2991V131.833H99.6048V130.841Z" fill="#EEF2F9"/>
<path d="M115.126 130.841H101.821V131.833H115.126V130.841Z" fill="#EEF2F9"/>
<path d="M88.3996 12.3423C88.3996 12.3423 92.0801 12.718 97.5719 10.4442C97.5719 10.4442 99.0653 12.7758 100.193 12.3615C100.193 12.3615 100.838 7.64048 98.8437 5.99292C96.859 4.34537 87.783 10.1841 87.783 10.1841L88.3996 12.3423Z" fill="#1F1C3F"/>
<path d="M93.718 14.1632L96.3001 13.9705C96.3001 13.9705 95.2307 12.6505 93.718 14.1632Z" fill="#1F1C3F"/>
<path d="M92.8797 14.2692L90.9239 14.934L90.8179 14.5197C90.8179 14.51 91.1166 13.7971 92.8797 14.2692Z" fill="#1F1C3F"/>
<path d="M63.1753 47.0853C61.9999 46.565 60.2078 46.9311 58.7819 47.4032C59.3021 46.7577 59.7261 45.9484 59.3696 45.9484C58.8975 45.9484 56.4599 48.3378 56.4599 48.3378C47.75 50.6212 45.4376 51.2957 45.4376 51.2957L45.8423 44.7344H40.0711L38.4331 52.0472C38.4331 52.0472 38.3753 58.965 43.6648 58.2231C48.9447 57.4812 57.3848 50.8139 57.3848 50.8139C57.3848 50.8139 65.4202 48.0777 63.1753 47.0853Z" fill="#F7A9AA"/>
<path d="M45.7362 46.4109L41.0344 47.9429V43.8962H47.114L45.7362 46.4109Z" fill="#F48E8A"/>
<path d="M24.9156 16.9766C24.8385 17.1114 24.7711 17.256 24.7036 17.4005C23.8172 19.3756 23.1139 21.4471 22.0059 23.3066C20.4739 25.8984 17.9882 27.9024 16.9283 30.7736C15.724 34.0205 16.3888 37.8841 17.9882 40.8805C20.5703 45.6979 25.8502 48.9545 31.3131 49.099C31.6889 49.1087 32.0743 49.099 32.4115 48.9545C32.6716 48.8485 32.8836 48.6655 33.1052 48.4824C35.1381 46.7963 37.1711 45.1102 39.1944 43.4145C41.5164 41.4875 44.1659 39.0788 44.5802 35.8993C45.0427 32.4308 42.6726 29.2995 42.1426 25.9755C41.6705 23.0369 42.8749 19.7514 41.0346 17.1018C39.1558 14.3848 35.1863 13.402 32.0743 13.402C29.3572 13.3924 26.2934 14.4811 24.9156 16.9766Z" fill="#1F1C3F"/>
<path d="M33.0183 20.6668C33.0183 20.6668 32.6618 28.1434 29.7232 28.3554C26.7846 28.577 25.773 21.8615 27.4109 18.8073C29.0488 15.753 36.4098 14.4909 39.1075 19.2697L33.0183 20.6668Z" fill="#1F1C3F"/>
<path d="M25.0313 55.5159L23.0368 60.2369C20.5222 66.2009 19.4045 72.7526 19.7899 79.3042L22.3142 122.179H29.3766L32.3055 70.5558L36.6701 122.179H43.3181L44.8212 81.6069C45.1102 73.8124 43.6746 66.0564 40.63 58.994L39.127 55.5159H25.0313Z" fill="#4A87C7"/>
<path d="M40.4855 33.3846C38.8958 32.6909 37.1615 32.1995 35.5911 31.6022H29.3862L23.7691 34.3866C21.9289 35.3019 20.474 36.8339 19.6647 38.7223C18.9132 40.4662 18.1135 42.9134 17.6799 46.064H22.5841L23.7595 56.3251H41.0347L41.7959 44.7248H46.6036C46.7096 44.7248 46.2953 41.3333 46.2375 41.0443C46.0063 39.7629 45.6498 38.4911 45.0717 37.3253C44.0986 35.3501 42.3932 34.2228 40.4855 33.3846Z" fill="#F0677A"/>
<path d="M38.2599 19.1637L38.6549 25.6768C38.7705 27.6712 37.6144 29.5115 35.7645 30.2534L35.5911 31.6022C34.3867 33.876 31.2168 34.1073 29.6945 32.0262L29.3862 31.6022L30.3015 19.1541H38.2599V19.1637Z" fill="#F7A9AA"/>
<path d="M30.6098 24.0196C31.3324 25.1276 31.3709 26.3801 30.6965 26.8233C30.0221 27.2665 28.8852 26.7269 28.1625 25.6286C27.4399 24.5206 27.4014 23.268 28.0758 22.8248C28.7503 22.3816 29.8872 22.9212 30.6098 24.0196Z" fill="#F7A9AA"/>
<path d="M34.3095 24.1642C34.3095 24.5303 34.1168 24.829 33.8856 24.829C33.6544 24.829 33.4617 24.5303 33.4617 24.1642C33.4617 23.7981 33.6544 23.4994 33.8856 23.4994C34.1168 23.4994 34.3095 23.7981 34.3095 24.1642Z" fill="#1F1C3F"/>
<path d="M36.2653 24.1642C36.2653 24.5303 36.0726 24.829 35.8414 24.829C35.6102 24.829 35.4175 24.5303 35.4175 24.1642C35.4175 23.7981 35.6102 23.4994 35.8414 23.4994C36.0726 23.4994 36.2653 23.7981 36.2653 24.1642Z" fill="#1F1C3F"/>
<path d="M34.8782 23.6727C35.0034 23.9329 35.1094 24.2026 35.1865 24.4724C35.2732 24.7422 35.331 25.0216 35.3792 25.3106C35.3984 25.4552 35.4177 25.5997 35.4177 25.7538C35.4177 25.8309 35.4177 25.908 35.3984 25.9947C35.3888 26.0333 35.3792 26.0814 35.3406 26.1392C35.331 26.1489 35.3117 26.1681 35.3021 26.1778C35.2925 26.1874 35.2732 26.2067 35.2443 26.2163C35.1865 26.2356 35.1865 26.226 35.1576 26.226C34.9938 26.226 34.8492 26.1971 34.7144 26.1489C34.5795 26.1007 34.4446 26.0429 34.3193 25.9755C34.4639 25.9851 34.6084 26.0044 34.7433 26.014C34.8782 26.0236 35.0227 26.0236 35.1383 26.0044C35.1479 26.0044 35.1865 25.9947 35.1576 25.9947C35.1479 25.9947 35.1479 26.0044 35.1479 26.0044C35.1479 26.0044 35.1383 26.014 35.1383 26.0044C35.1383 25.9947 35.1479 25.9754 35.1479 25.9465C35.1576 25.8887 35.1479 25.8213 35.1479 25.7635C35.1383 25.6286 35.119 25.4937 35.0998 25.3588L34.9745 24.5302C34.9263 24.2412 34.8974 23.9618 34.8782 23.6727Z" fill="#1F1C3F"/>
<path d="M35.7547 30.2629C35.7547 30.2629 34.242 30.1666 33.452 30.3111C33.0088 30.3978 35.5813 31.6118 35.5813 31.6118L35.7547 30.2629Z" fill="#F48E8A"/>
<path d="M29.8775 24.8193C29.6173 24.4628 29.4054 24.0967 29.1549 23.7788C29.0296 23.6246 28.8947 23.4704 28.7406 23.3741C28.6635 23.3259 28.5768 23.297 28.4804 23.2874C28.3841 23.2777 28.2781 23.297 28.1721 23.3259C28.2492 23.2392 28.3455 23.1814 28.4708 23.1525C28.5864 23.1236 28.7213 23.1332 28.8369 23.1814C29.0682 23.2681 29.2416 23.4319 29.3861 23.6053C29.521 23.7884 29.6366 23.9811 29.7137 24.1834C29.8004 24.3857 29.8582 24.5977 29.8775 24.8193Z" fill="#1F1C3F"/>
<path d="M35.2922 22.8057C35.2922 22.8057 36.3039 23.5476 37.4023 23.3067C37.3926 23.3067 36.6893 22.1023 35.2922 22.8057Z" fill="#1F1C3F"/>
<path d="M32.6814 23.2199C32.6814 23.2199 33.905 23.4801 34.8107 22.8249C34.8107 22.8249 33.6738 22.0156 32.6814 23.2199Z" fill="#1F1C3F"/>
<path d="M33.6063 18.9517C33.6063 18.9517 33.009 22.4588 30.0511 23.3549L29.0298 21.7458C29.0298 21.7458 28.7697 15.8204 33.6063 18.9517Z" fill="#1F1C3F"/>
<path d="M34.5408 27.3436C34.5408 27.3436 33.0859 26.6596 32.7776 26.833C32.4693 27.0064 33.2593 27.8254 34.0397 27.8254C34.8105 27.8254 34.5408 27.3436 34.5408 27.3436Z" fill="white"/>
<path d="M32.3152 18.9998C32.3152 18.9998 33.4617 21.9288 36.2655 22.0444C39.0596 22.1601 41.0443 19.9055 41.0443 19.9055C41.0443 19.9055 36.9399 14.2017 32.3152 18.9998Z" fill="#1F1C3F"/>
<path d="M41.7957 44.7248L42.2292 38.9054L43.106 44.7248H41.7957Z" fill="#DC3967"/>
<path d="M37.5564 59.1866L26.2162 56.8646C25.8116 56.7779 25.5514 56.3829 25.6285 55.9782L28.7695 40.6492C28.8562 40.2446 29.2512 39.9844 29.6559 40.0615L40.996 42.3835C41.4007 42.4702 41.6608 42.8652 41.5838 43.2699L38.4428 58.5989C38.3657 59.0035 37.9611 59.2637 37.5564 59.1866Z" fill="#EEF2F9"/>
<path d="M40.1579 45.3318C39.9941 44.7537 38.3369 45.3607 36.911 46.0159C37.1518 45.4282 37.412 44.6863 37.1807 44.7056C36.6123 44.7634 35.379 46.382 34.9358 46.989C34.8395 47.0468 34.7817 47.0757 34.7817 47.0757L25.6093 52.1244L25.5804 46.0737H19.2407C19.2407 46.0737 20.6185 60.5548 24.7807 59.1C27.3725 58.1943 35.7644 50.1878 35.7644 50.1878C38.4622 49.1472 40.7456 47.3648 40.1579 45.3318Z" fill="#F7A9AA"/>
<path d="M19.5779 48.704C19.5779 48.704 24.1834 50.4961 25.5997 49.8409C27.016 49.1858 25.5997 49.8409 25.5997 49.8409V46.0641H19.2407L19.5779 48.704Z" fill="#F48E8A"/>
<path d="M42.6916 122.189L42.364 127.16H38.4234L37.6912 122.189H42.6916Z" fill="#F7A9AA"/>
<path d="M28.4129 122.189L28.0757 127.16H24.1351L23.4028 122.189H28.4129Z" fill="#F7A9AA"/>
<path d="M38.3946 127.17H42.4509C42.4509 127.17 49.2049 127.95 48.8195 131.64H38.3946C38.3946 131.64 37.0843 131.294 38.3946 127.17Z" fill="#1F1C3F"/>
<path d="M43.3276 128.374C43.289 128.374 43.2408 128.365 43.2119 128.336C43.1252 128.268 43.1156 128.153 43.1734 128.066L43.9538 127.054C44.0213 126.968 44.1369 126.958 44.2236 127.016C44.3103 127.083 44.3199 127.199 44.2621 127.285L43.4817 128.297C43.4432 128.355 43.3854 128.374 43.3276 128.374Z" fill="#EEF2F9"/>
<path d="M44.4645 128.644C44.426 128.644 44.3778 128.634 44.3489 128.605C44.2622 128.538 44.2526 128.422 44.3104 128.336L45.0908 127.324C45.1582 127.237 45.2738 127.228 45.3606 127.285C45.4473 127.353 45.4569 127.469 45.3991 127.555L44.6187 128.567C44.5801 128.615 44.5223 128.644 44.4645 128.644Z" fill="#EEF2F9"/>
<path d="M45.6593 129.01C45.6208 129.01 45.5726 129.001 45.5437 128.972C45.457 128.904 45.4474 128.789 45.5052 128.702L46.2856 127.69C46.3531 127.603 46.4687 127.594 46.5554 127.652C46.6421 127.719 46.6517 127.835 46.5939 127.921L45.8135 128.933C45.775 128.981 45.7172 129.01 45.6593 129.01Z" fill="#EEF2F9"/>
<path d="M24.058 127.17H28.1142C28.1142 127.17 34.8682 127.95 34.4828 131.64H24.058C24.058 131.64 22.7476 131.294 24.058 127.17Z" fill="#1F1C3F"/>
<path d="M28.9909 128.374C28.9523 128.374 28.9042 128.365 28.8753 128.336C28.7886 128.268 28.7789 128.153 28.8367 128.066L29.6171 127.054C29.6846 126.968 29.8002 126.958 29.8869 127.016C29.9736 127.083 29.9833 127.199 29.9255 127.285L29.145 128.297C29.0969 128.355 29.0487 128.374 28.9909 128.374Z" fill="#EEF2F9"/>
<path d="M30.1279 128.644C30.0893 128.644 30.0411 128.634 30.0122 128.605C29.9255 128.538 29.9159 128.422 29.9737 128.336L30.7541 127.324C30.8216 127.237 30.9372 127.228 31.0239 127.285C31.1106 127.353 31.1202 127.469 31.0624 127.555L30.282 128.567C30.2435 128.615 30.1857 128.644 30.1279 128.644Z" fill="#EEF2F9"/>
<path d="M31.3227 129.01C31.2841 129.01 31.236 129.001 31.2071 128.972C31.1203 128.904 31.1107 128.789 31.1685 128.702L31.9489 127.69C32.0164 127.603 32.132 127.594 32.2187 127.652C32.3054 127.719 32.3151 127.835 32.2573 127.921L31.4768 128.933C31.4383 128.981 31.3805 129.01 31.3227 129.01Z" fill="#EEF2F9"/>
<path d="M25.908 122.189C25.908 119.867 25.9272 117.545 25.9369 115.213L26.0139 108.237C26.0428 105.915 26.091 103.593 26.1296 101.262L26.2741 94.2958L26.4668 87.3298L26.5728 83.842C26.6113 82.6762 26.6498 81.52 26.698 80.3542C26.7944 78.0322 26.9003 75.7102 27.0256 73.3882C27.093 72.2321 27.1701 71.0662 27.2665 69.9101C27.3146 69.332 27.3628 68.7539 27.4303 68.1758C27.4592 67.8868 27.4977 67.5977 27.5459 67.3087C27.5941 67.0196 27.6326 66.7306 27.7193 66.4512C27.6422 66.7306 27.6037 67.0196 27.5651 67.3087C27.5266 67.5977 27.4977 67.8868 27.4784 68.1758C27.4303 68.7539 27.3821 69.332 27.3532 69.9101C27.2857 71.0662 27.2279 72.2321 27.1798 73.3882C27.0738 75.7102 26.9967 78.0322 26.9292 80.3542L26.7269 87.3202L26.5631 94.2861L26.3993 101.252L26.2452 108.218L26.0814 115.184L25.908 122.189Z" fill="#27459C"/>
<path d="M40.1868 122.237L40.129 120.493L40.0712 118.749L39.9555 115.261L39.7532 108.286L39.3678 94.3442L38.9921 80.4026C38.9632 79.2368 38.9342 78.0807 38.8957 76.9148C38.8572 75.749 38.8283 74.5928 38.7801 73.427L38.7223 71.6831C38.7126 71.3941 38.703 71.105 38.6934 70.816L38.6548 69.9489L38.5681 68.205L38.4429 66.4707L38.6259 68.205C38.6741 68.7831 38.7126 69.3611 38.7608 69.9489L38.8283 70.816C38.8475 71.105 38.8668 71.3941 38.8861 71.6831L38.9921 73.427C39.0306 74.0051 39.0595 74.5929 39.0788 75.1709L39.1655 76.9148C39.2233 78.0807 39.2715 79.2368 39.3196 80.4026C39.3678 81.5685 39.416 82.7246 39.4545 83.8904L39.5798 87.3783L39.7821 94.3539L39.9459 101.329L40.0133 104.817C40.0422 105.983 40.0519 107.139 40.0712 108.305L40.1675 115.281L40.1964 118.768L40.206 120.512L40.1868 122.237Z" fill="#27459C"/>
<path d="M141.873 58.4352L140.35 61.923C139.531 63.8114 138.953 65.7962 138.635 67.8292L135.61 87.1662H151.459L152.24 65.4301L153.165 87.1662H167.55L166.152 72.2997C165.709 67.6076 164.486 63.0214 162.539 58.7243L162.299 58.1943L141.873 58.4352Z" fill="#3C62AC"/>
<path d="M168.147 36.8917L173.099 46.0159C173.099 46.0159 183.736 48.2223 191.598 51.1802L190.394 54.4849C190.394 54.4849 171.066 54.0513 168.937 53.3962C166.808 52.7506 162.289 43.7903 162.289 43.7903L168.147 36.8917Z" fill="#F7A9AA"/>
<path d="M147.798 18.6434C147.798 18.6434 142.952 14.221 143.096 10.29C143.241 6.35898 145.63 3.20839 149.215 3.24693L147.798 18.6434Z" fill="#1F1C3F"/>
<path d="M147.586 21.4375L145.563 22.4684C142.056 24.2605 139.059 26.9197 136.892 30.2148C136.872 30.2437 136.853 30.2726 136.834 30.3015C135.61 32.1514 134.733 34.2036 134.232 36.3715L132.228 45.0139H139.474L141.873 58.4352H162.299V43.7903L170.315 34.3482L167.077 30.4942C163.705 26.4765 159.37 23.3645 154.485 21.4375H147.586Z" fill="white"/>
<path d="M157.462 7.60181L157.895 14.8472C158.03 17.0632 156.73 19.1058 154.677 19.944L154.485 21.4374L151.585 26.91L147.586 21.4374L148.607 7.60181H157.462Z" fill="#F7A9AA"/>
<path d="M148.954 13.007C149.754 14.2307 149.802 15.6277 149.051 16.1191C148.299 16.6105 147.037 16.0131 146.237 14.7895C145.438 13.5659 145.389 12.1688 146.141 11.6774C146.883 11.1861 148.145 11.7834 148.954 13.007Z" fill="#F7A9AA"/>
<path d="M152.481 13.5273C152.678 13.5273 152.837 13.2814 152.837 12.9781C152.837 12.6748 152.678 12.429 152.481 12.429C152.284 12.429 152.124 12.6748 152.124 12.9781C152.124 13.2814 152.284 13.5273 152.481 13.5273Z" fill="#1F1C3F"/>
<path d="M155.805 12.9781C155.805 13.2768 155.651 13.5273 155.448 13.5273C155.246 13.5273 155.092 13.2865 155.092 12.9781C155.092 12.6795 155.246 12.429 155.448 12.429C155.651 12.429 155.805 12.6698 155.805 12.9781Z" fill="#1F1C3F"/>
<path d="M153.704 12.6119C153.849 12.901 153.955 13.1997 154.051 13.508C154.148 13.8163 154.215 14.1246 154.263 14.4426C154.282 14.6063 154.302 14.7605 154.302 14.9339C154.302 15.0206 154.302 15.1074 154.282 15.1941C154.273 15.2422 154.263 15.2904 154.225 15.3579C154.215 15.3675 154.196 15.3868 154.176 15.406C154.157 15.4253 154.138 15.4349 154.109 15.4446C154.042 15.4638 154.042 15.4542 154.013 15.4638C153.83 15.4638 153.675 15.4253 153.521 15.3771C153.367 15.329 153.213 15.2615 153.078 15.1844C153.242 15.1941 153.396 15.2133 153.55 15.223C153.704 15.2326 153.859 15.2326 153.993 15.2133C154.003 15.2133 154.042 15.2037 154.013 15.2037C154.003 15.2037 154.003 15.2133 153.993 15.2133C153.993 15.2133 153.984 15.223 153.984 15.2133C153.984 15.2037 153.993 15.1844 153.993 15.1555C154.003 15.0977 153.993 15.0206 153.993 14.9532C153.984 14.8087 153.965 14.6545 153.936 14.5004L153.801 13.5754C153.753 13.2478 153.714 12.9395 153.704 12.6119Z" fill="#1F1C3F"/>
<path d="M154.677 19.9442C154.677 19.9442 153.165 18.8843 152.394 19.3372C151.623 19.79 154.485 21.4472 154.485 21.4472L154.677 19.9442Z" fill="#F48E8A"/>
<path d="M148.145 13.903C147.856 13.508 147.625 13.1033 147.345 12.7468C147.21 12.5734 147.056 12.4096 146.883 12.3036C146.796 12.2555 146.7 12.2169 146.594 12.2073C146.488 12.1976 146.372 12.2169 146.257 12.2458C146.343 12.1495 146.449 12.082 146.584 12.0531C146.719 12.0242 146.864 12.0339 146.989 12.082C147.249 12.1784 147.442 12.3614 147.596 12.5541C147.75 12.7565 147.875 12.9684 147.962 13.1997C148.058 13.4213 148.126 13.6525 148.145 13.903Z" fill="#1F1C3F"/>
<path d="M153.473 11.8991L151.055 11.6871C151.055 11.6775 152.22 10.396 153.473 11.8991Z" fill="#1F1C3F"/>
<path d="M156.556 12.111L154.138 11.899C154.138 11.8894 155.304 10.608 156.556 12.111Z" fill="#1F1C3F"/>
<path d="M154.138 16.1384C154.138 16.1384 151.999 15.9746 150.852 16.6587L148.145 14.7413L147.972 16.2251C147.972 16.2251 151.016 20.1561 154.658 20.0887C154.851 20.0887 155.034 20.0212 155.188 19.9152C155.747 19.5202 157.134 18.4411 157.462 17.2657C157.462 17.256 156.556 16.2636 154.138 16.1384Z" fill="#1F1C3F"/>
<path d="M148.27 12.2073L151.055 8.78689L155.901 9.23973C155.901 9.23973 160.921 8.8447 161.547 5.46288C161.547 5.46288 154.215 2.08106 149.87 3.03491C145.515 3.98875 148.27 12.2073 148.27 12.2073Z" fill="#1F1C3F"/>
<path d="M153.068 17.4101C153.068 17.4101 154.34 17.0922 155.4 17.545C155.4 17.545 154.832 17.7955 153.068 17.4101Z" fill="white"/>
<path d="M161.923 59.0228H142.2C141.497 59.0228 140.928 58.4544 140.928 57.751C140.928 57.0477 141.497 56.4792 142.2 56.4792H161.923C162.626 56.4792 163.195 57.0477 163.195 57.751C163.195 58.4544 162.626 59.0228 161.923 59.0228Z" fill="#1F1C3F"/>
<path d="M153.078 59.0228H151.334C150.631 59.0228 150.062 58.4544 150.062 57.751C150.062 57.0477 150.631 56.4792 151.334 56.4792H153.078C153.781 56.4792 154.35 57.0477 154.35 57.751C154.35 58.4544 153.781 59.0228 153.078 59.0228Z" fill="#EEF2F9"/>
<path d="M142.576 45.0139C142.557 43.9733 142.567 42.9424 142.595 41.9018C142.605 41.3816 142.624 40.8709 142.634 40.3506L142.692 38.7994L142.759 37.2482C142.788 36.7279 142.817 36.2173 142.846 35.697C142.913 34.6661 142.981 33.6255 143.087 32.5946C143.106 33.6352 143.096 34.6661 143.068 35.7067C143.058 36.2269 143.039 36.7376 143.029 37.2579L142.971 38.8091L142.894 40.3603C142.865 40.8805 142.836 41.3912 142.807 41.9115C142.75 42.9424 142.673 43.983 142.576 45.0139Z" fill="#1F1C3F"/>
<path d="M151.585 27.5845C151.72 28.7792 151.826 29.9835 151.932 31.1879C152.038 32.3922 152.124 33.5966 152.211 34.7913C152.384 37.2 152.51 39.6087 152.606 42.0174C152.654 43.2218 152.673 44.4261 152.702 45.6401C152.712 46.8445 152.731 48.0488 152.702 49.2628C152.664 51.6715 152.577 54.0898 152.25 56.4889L152.404 54.6872C152.442 54.0898 152.461 53.4829 152.49 52.8855C152.51 52.5868 152.51 52.2881 152.519 51.9798L152.539 51.0741C152.548 50.7755 152.558 50.4672 152.558 50.1685V49.2628V48.3571C152.558 48.0585 152.558 47.7501 152.548 47.4515L152.519 45.6401C152.481 44.4358 152.461 43.2314 152.404 42.0271C152.365 40.8227 152.307 39.6184 152.25 38.414L152.153 36.6123L152.047 34.8106C151.98 33.6062 151.903 32.4019 151.816 31.1975C151.768 29.9932 151.671 28.7888 151.585 27.5845Z" fill="#1F1C3F"/>
<path d="M180.614 63.8596L203.275 36.7183C204.75 34.9552 207.37 34.7239 209.133 36.1884C210.897 37.6625 211.128 40.2832 209.663 42.0464L187.002 69.1876C185.528 70.9508 182.907 71.1821 181.144 69.7176C179.381 68.2531 179.14 65.6228 180.614 63.8596Z" fill="#1F1C3F"/>
<path d="M199.434 41.3206L199.375 41.397L205.973 46.4724L206.032 46.396L199.434 41.3206Z" fill="white"/>
<path d="M198.936 41.9076L198.877 41.984L205.475 47.0594L205.534 46.9831L198.936 41.9076Z" fill="white"/>
<path d="M183.941 59.8764L183.882 59.9528L190.48 65.0282L190.539 64.9518L183.941 59.8764Z" fill="white"/>
<path d="M183.443 60.4628L183.384 60.5392L189.982 65.6146L190.041 65.5383L183.443 60.4628Z" fill="white"/>
<path d="M162.298 43.7903L161.99 40.264C161.884 39.0885 161.769 37.9227 161.634 36.7472C161.499 35.5814 161.345 34.4156 161.152 33.2498L161.084 32.8162C161.065 32.6717 161.027 32.5272 161.007 32.3827L160.921 31.9491C160.892 31.8046 160.863 31.6601 160.834 31.5155L160.641 30.658C160.564 30.3786 160.477 30.0896 160.4 29.8102C160.506 30.0896 160.612 30.3594 160.718 30.6388C160.805 30.9182 160.892 31.2072 160.978 31.4866C161.027 31.6312 161.056 31.7757 161.094 31.9202L161.2 32.3538C161.239 32.4983 161.268 32.6428 161.306 32.7873L161.393 33.2209C161.518 33.799 161.605 34.3867 161.701 34.9648C161.778 35.5525 161.865 36.1306 161.932 36.7183C162 37.3061 162.058 37.8938 162.106 38.4815C162.154 39.0692 162.202 39.657 162.231 40.2447C162.27 41.4298 162.318 42.6052 162.298 43.7903Z" fill="#1F1C3F"/>
<path d="M153.367 30.1667C153.367 30.369 153.203 30.5232 153.011 30.5232C152.808 30.5232 152.654 30.3594 152.654 30.1667C152.654 29.9643 152.818 29.8102 153.011 29.8102C153.213 29.8102 153.367 29.974 153.367 30.1667Z" fill="#1F1C3F"/>
<path d="M153.492 33.9049C153.492 34.1073 153.328 34.2614 153.136 34.2614C152.933 34.2614 152.779 34.0976 152.779 33.9049C152.779 33.7026 152.943 33.5485 153.136 33.5485C153.328 33.5485 153.492 33.7123 153.492 33.9049Z" fill="#1F1C3F"/>
<path d="M153.608 37.6432C153.608 37.8456 153.444 37.9997 153.252 37.9997C153.049 37.9997 152.895 37.8359 152.895 37.6432C152.895 37.4409 153.059 37.2867 153.252 37.2867C153.454 37.2867 153.608 37.4505 153.608 37.6432Z" fill="#1F1C3F"/>
<path d="M153.733 41.3815C153.733 41.5838 153.569 41.738 153.377 41.738C153.184 41.738 153.02 41.5742 153.02 41.3815C153.02 41.1792 153.184 41.025 153.377 41.025C153.569 41.025 153.733 41.1888 153.733 41.3815Z" fill="#1F1C3F"/>
<path d="M153.849 45.1198C153.849 45.3221 153.685 45.4763 153.492 45.4763C153.3 45.4763 153.136 45.3125 153.136 45.1198C153.136 44.9175 153.3 44.7633 153.492 44.7633C153.685 44.7633 153.849 44.9271 153.849 45.1198Z" fill="#1F1C3F"/>
<path d="M153.974 48.8582C153.974 49.0605 153.81 49.2147 153.617 49.2147C153.415 49.2147 153.261 49.0509 153.261 48.8582C153.261 48.6559 153.425 48.5017 153.617 48.5017C153.81 48.5017 153.974 48.6655 153.974 48.8582Z" fill="#1F1C3F"/>
<path d="M154.09 52.5965C154.09 52.7988 153.926 52.953 153.733 52.953C153.531 52.953 153.377 52.7892 153.377 52.5965C153.377 52.3941 153.54 52.24 153.733 52.24C153.936 52.24 154.09 52.4038 154.09 52.5965Z" fill="#1F1C3F"/>
<path d="M151.585 26.9197C150.862 27.0739 150.13 27.2088 149.407 27.3436C148.675 27.4785 147.952 27.6038 147.22 27.7194L147.085 27.7387L147.066 27.6038C147.027 27.3436 146.999 27.0835 146.97 26.8234C146.95 26.5632 146.921 26.3031 146.912 26.0429C146.893 25.5227 146.883 25.0024 146.912 24.4821C146.921 24.222 146.95 23.9618 146.979 23.7017C147.008 23.4415 147.047 23.1814 147.104 22.9309C147.21 22.4203 147.355 21.9096 147.586 21.4471C147.432 21.9385 147.326 22.4492 147.268 22.9598C147.239 23.2103 147.22 23.4705 147.201 23.7306C147.182 23.9907 147.182 24.2412 147.172 24.5014C147.162 25.012 147.172 25.5323 147.201 26.0429C147.23 26.5536 147.268 27.0739 147.336 27.5749L147.182 27.4593C147.914 27.3533 148.646 27.2569 149.378 27.1702C150.111 27.0642 150.852 26.9872 151.585 26.9197Z" fill="#1F1C3F"/>
<path d="M151.604 26.8715C152.144 26.9197 152.693 26.9775 153.232 27.0353C153.502 27.0642 153.772 27.1028 154.042 27.1413C154.311 27.1702 154.581 27.2184 154.851 27.2569L154.706 27.3436C154.774 27.1124 154.822 26.8619 154.87 26.621C154.889 26.4958 154.909 26.3802 154.928 26.2549C154.947 26.1297 154.957 26.0044 154.976 25.8888C155.034 25.3974 155.044 24.8964 155.024 24.3954L155.015 24.2123L154.995 24.0293C154.986 23.904 154.976 23.7788 154.967 23.6535C154.928 23.403 154.909 23.1525 154.851 22.9116C154.764 22.4203 154.62 21.9385 154.475 21.4471C154.697 21.9 154.899 22.3721 155.015 22.8731C155.15 23.3645 155.236 23.8751 155.275 24.3858C155.294 24.6459 155.304 24.8964 155.304 25.1565L155.284 25.5419C155.275 25.6672 155.265 25.8021 155.256 25.9273C155.227 26.1875 155.188 26.438 155.14 26.6885C155.092 26.939 155.034 27.1895 154.947 27.44L154.909 27.546L154.803 27.5267C154.533 27.4785 154.263 27.4304 154.003 27.3822C153.733 27.334 153.464 27.2858 153.203 27.228C152.673 27.1124 152.134 27.0064 151.604 26.8715Z" fill="#1F1C3F"/>
<path d="M191.299 51.0645L192.234 51.6041C192.61 51.816 192.908 52.1532 193.082 52.5483L193.882 54.3596C193.882 54.3596 192.918 54.5234 192.427 54.1669C191.935 53.8104 191.29 52.9626 191.29 52.9626L189.507 52.7313C189.517 52.7313 191.001 50.9585 191.299 51.0645Z" fill="#F7A9AA"/>
<path d="M168.147 36.8917L169.987 40.2735L163.696 46.4109L162.299 43.7903L168.147 36.8917Z" fill="#F48E8A"/>
<path d="M151.806 124.617L156.845 123.287L157.712 124.28C158.763 125.484 160.179 126.322 161.749 126.621C163.734 126.997 166.384 128.153 166.422 131.641H150.679C150.669 131.641 150.371 128.027 151.806 124.617Z" fill="#312E3A"/>
<path d="M156.094 125.272C156.026 125.272 155.969 125.243 155.92 125.185C155.853 125.089 155.863 124.954 155.959 124.887L157.231 123.904C157.327 123.836 157.462 123.846 157.529 123.942C157.597 124.039 157.587 124.174 157.491 124.241L156.219 125.224C156.181 125.262 156.132 125.272 156.094 125.272Z" fill="#E3EBF7"/>
<path d="M157.038 126.101C156.971 126.101 156.913 126.072 156.865 126.014C156.797 125.918 156.807 125.783 156.903 125.715L158.175 124.732C158.271 124.665 158.406 124.675 158.474 124.771C158.541 124.867 158.532 125.002 158.435 125.07L157.163 126.052C157.125 126.081 157.077 126.101 157.038 126.101Z" fill="#E3EBF7"/>
<path d="M158.069 126.91C158.002 126.91 157.944 126.881 157.896 126.823C157.828 126.727 157.838 126.592 157.934 126.524L159.206 125.542C159.302 125.474 159.437 125.484 159.505 125.58C159.572 125.677 159.562 125.811 159.466 125.879L158.194 126.862C158.156 126.9 158.107 126.91 158.069 126.91Z" fill="#E3EBF7"/>
<path d="M153.569 87.166L153.685 97.1959C153.685 97.1959 151.363 115.242 151.797 124.617L156.836 123.287C156.836 123.287 160.969 108.286 162.26 100.539C163.551 92.8024 163.985 87.1564 163.985 87.1564H153.569V87.166Z" fill="#F7A9AA"/>
<path d="M138.462 124.617L143.501 123.287L144.368 124.279C145.418 125.484 146.835 126.322 148.405 126.621C150.39 126.996 153.04 128.153 153.078 131.64H137.335C137.325 131.64 137.027 128.027 138.462 124.617Z" fill="#2A2637"/>
<path d="M142.74 125.272C142.672 125.272 142.615 125.243 142.566 125.185C142.499 125.089 142.509 124.954 142.605 124.886L143.877 123.903C143.973 123.836 144.108 123.846 144.175 123.942C144.243 124.038 144.233 124.173 144.137 124.241L142.865 125.223C142.836 125.262 142.788 125.272 142.74 125.272Z" fill="#E3EBF7"/>
<path d="M143.694 126.1C143.626 126.1 143.568 126.071 143.52 126.014C143.453 125.917 143.462 125.782 143.559 125.715L144.831 124.732C144.927 124.665 145.062 124.674 145.129 124.771C145.197 124.867 145.187 125.002 145.091 125.069L143.819 126.052C143.78 126.081 143.732 126.1 143.694 126.1Z" fill="#E3EBF7"/>
<path d="M144.715 126.91C144.648 126.91 144.59 126.881 144.542 126.823C144.474 126.727 144.484 126.592 144.58 126.524L145.852 125.542C145.948 125.474 146.083 125.484 146.151 125.58C146.218 125.676 146.208 125.811 146.112 125.879L144.84 126.861C144.811 126.9 144.763 126.91 144.715 126.91Z" fill="#E3EBF7"/>
<path d="M140.225 87.1661L140.341 97.196C140.341 97.196 138.019 115.242 138.452 124.617L143.491 123.287C143.491 123.287 147.625 108.286 148.916 100.539C150.207 92.8025 150.64 87.1565 150.64 87.1565H140.225V87.1661Z" fill="#F7A9AA"/>
<path d="M150.65 87.1663H140.225V90.6444L150.38 89.9025L150.65 87.1663Z" fill="#F48E8A"/>
<path d="M153.598 89.8158L163.869 88.5151L163.994 87.1663H153.57L153.598 89.8158Z" fill="#F48E8A"/>
<path d="M151.641 61.0258L135.139 64.0872L137.398 76.2599L153.9 73.1985L151.641 61.0258Z" fill="#F0677A"/>
<path d="M151.652 61.027L153.136 61.4413L155.246 72.9838L153.907 73.1957L151.652 61.027Z" fill="white"/>
<path d="M154.957 73.032C154.783 72.2034 154.61 71.3844 154.446 70.5559L153.964 68.0701L153.502 65.5843L153.28 64.3414L153.068 63.0985L153.329 64.3414L153.579 65.5843L154.061 68.0701L154.523 70.5559C154.668 71.3652 154.812 72.1938 154.957 73.032Z" fill="#1F1C3F"/>
<path d="M154.552 73.1957C154.35 72.2515 154.157 71.3073 153.974 70.3535L153.415 67.5112L152.885 64.6689L152.625 63.243L152.375 61.817L152.673 63.2333L152.962 64.6497L153.521 67.4919L154.051 70.3342C154.215 71.288 154.388 72.2419 154.552 73.1957Z" fill="#1F1C3F"/>
<path d="M153.136 61.4413L153.222 61.4702L155.371 72.9549L155.246 72.9838L153.136 61.4413Z" fill="#F0677A"/>
<path d="M134.04 45.0138C134.04 45.0138 134.859 53.9067 135.321 56.4889C135.783 59.0614 143.087 73.687 143.087 73.687L147.037 73.6003L141.94 54.4944L140.928 45.0234H134.04V45.0138Z" fill="#F7A9AA"/>
<path d="M141.14 46.9504L134.309 47.8079L134.04 45.0138H140.938L141.14 46.9504Z" fill="#F48E8A"/>
<path d="M146.748 72.4634L147.538 74.294C147.605 74.4578 147.548 74.6601 147.384 74.7468L145.929 75.6043C145.669 75.7585 145.37 75.8163 145.081 75.7874L143.222 75.5851C142.971 75.5561 142.778 75.3634 142.759 75.1129L142.499 72.4537H146.748V72.4634Z" fill="#F7A9AA"/>
<path d="M222.776 93.0049L223.432 125.956H227.815C227.815 125.956 233.828 108.796 231.438 93.0049H222.776Z" fill="#F7A9AA"/>
<path d="M229.299 120.908L223.335 120.83L223.441 125.956L227.97 126.563L229.299 120.908Z" fill="white"/>
<path d="M234.271 93.0049L234.926 125.956H239.31C239.31 125.956 244.985 102.206 242.383 93.0049H234.271Z" fill="#F7A9AA"/>
<path d="M240.427 120.83H234.83L234.936 125.956L239.464 126.563L240.427 120.83Z" fill="white"/>
<path d="M227.825 125.956C227.825 125.956 226.756 126.717 223.335 124.992L217.236 127.912C215.724 128.634 214.616 130.003 214.221 131.64H228.683C228.683 131.64 229.396 128.634 227.825 125.956Z" fill="#312E3A"/>
<path d="M223.2 126.611C223.162 126.611 223.133 126.602 223.104 126.573L222.237 125.638C222.189 125.59 222.188 125.503 222.246 125.455C222.294 125.407 222.381 125.407 222.429 125.465L223.297 126.399C223.345 126.448 223.345 126.534 223.287 126.582C223.258 126.602 223.229 126.611 223.2 126.611Z" fill="#E3EBF7"/>
<path d="M222.025 127.238C221.986 127.238 221.957 127.228 221.929 127.199L221.061 126.264C221.013 126.216 221.013 126.13 221.071 126.081C221.119 126.033 221.206 126.033 221.254 126.091L222.121 127.026C222.169 127.074 222.169 127.161 222.112 127.209C222.092 127.228 222.063 127.238 222.025 127.238Z" fill="#E3EBF7"/>
<path d="M220.724 127.7C220.686 127.7 220.657 127.69 220.628 127.661L219.761 126.727C219.712 126.679 219.712 126.592 219.77 126.544C219.818 126.496 219.905 126.496 219.953 126.553L220.82 127.488C220.869 127.536 220.869 127.623 220.811 127.671C220.792 127.69 220.753 127.7 220.724 127.7Z" fill="#E3EBF7"/>
<path d="M239.473 125.956C239.473 125.956 238.404 126.717 234.984 124.992L228.885 127.912C227.372 128.634 226.264 130.003 225.869 131.64H240.331C240.321 131.64 241.044 128.634 239.473 125.956Z" fill="#2A2637"/>
<path d="M234.83 126.534C234.791 126.534 234.762 126.524 234.733 126.495L233.866 125.561C233.818 125.513 233.818 125.426 233.876 125.378C233.924 125.33 234.011 125.33 234.059 125.387L234.926 126.322C234.974 126.37 234.974 126.457 234.916 126.505C234.897 126.524 234.858 126.534 234.83 126.534Z" fill="#E3EBF7"/>
<path d="M233.664 127.16C233.625 127.16 233.596 127.151 233.567 127.122L232.7 126.187C232.652 126.139 232.652 126.052 232.71 126.004C232.758 125.956 232.845 125.956 232.893 126.014L233.76 126.948C233.808 126.996 233.808 127.083 233.75 127.131C233.722 127.151 233.693 127.16 233.664 127.16Z" fill="#E3EBF7"/>
<path d="M232.363 127.623C232.324 127.623 232.296 127.613 232.267 127.584L231.4 126.65C231.351 126.601 231.351 126.515 231.409 126.467C231.457 126.418 231.544 126.418 231.592 126.476L232.459 127.411C232.508 127.459 232.508 127.546 232.45 127.594C232.421 127.613 232.392 127.623 232.363 127.623Z" fill="#E3EBF7"/>
<path d="M237.229 30.446L243.096 33.6352C243.096 33.6352 247.528 66.3261 246.044 93.5252H216.909L225.58 32.4019L230.715 30.4557H237.229V30.446Z" fill="#F0677A"/>
<path d="M227.642 22.4877C226.746 21.8325 225.802 21.1388 225.349 20.1272C225.05 19.4624 224.992 18.7108 225.012 17.9786C225.031 16.9091 225.195 15.8204 225.725 14.8955C226.312 13.8645 227.334 13.1034 228.471 12.7758C229.607 12.4482 230.86 12.5542 231.949 13.007C233.876 13.8067 236.082 13.4406 237.903 14.4619C239.724 15.4832 241.208 17.2078 241.632 19.26C241.795 20.0404 241.795 20.8498 241.757 21.6495C241.728 22.3143 241.67 22.9983 241.449 23.6246C240.755 25.6094 238.606 26.6981 236.554 27.1317C236.265 27.1895 235.976 27.2473 235.687 27.1895C235.398 27.1317 235.128 26.9775 234.878 26.8234C232.508 25.3781 229.897 24.116 227.642 22.4877Z" fill="#1F1C3F"/>
<path d="M227.902 17.3812L227.488 24.2219C227.363 26.3127 228.586 28.2493 230.523 29.0297L230.706 30.446C231.968 32.8355 235.302 33.0763 236.901 30.8892L237.229 30.446L236.265 17.3812H227.902Z" fill="#F7A9AA"/>
<path d="M238.525 24.181C239.283 23.0235 239.319 21.7072 238.607 21.2408C237.895 20.7744 236.703 21.3346 235.945 22.492C235.187 23.6495 235.15 24.9659 235.863 25.4322C236.575 25.8986 237.767 25.3384 238.525 24.181Z" fill="#F7A9AA"/>
<path d="M232.074 22.4877C231.949 22.8538 232.035 23.2103 232.276 23.2874C232.508 23.3645 232.797 23.1332 232.922 22.7767C233.047 22.4106 232.96 22.0541 232.719 21.9771C232.479 21.9 232.199 22.1216 232.074 22.4877Z" fill="#1F1C3F"/>
<path d="M229.569 22.5261C229.473 22.9018 229.588 23.2487 229.829 23.3065C230.07 23.3643 230.34 23.1138 230.436 22.7477C230.532 22.3719 230.417 22.0251 230.176 21.9673C229.935 21.8998 229.665 22.1503 229.569 22.5261Z" fill="#1F1C3F"/>
<path d="M231.457 22.1119C231.322 22.3817 231.216 22.6708 231.13 22.9502C231.043 23.2392 230.976 23.5283 230.927 23.8269C230.908 23.9811 230.889 24.1256 230.889 24.2894C230.889 24.3665 230.889 24.4532 230.908 24.5399C230.918 24.5881 230.927 24.6363 230.966 24.6941C230.976 24.7037 230.995 24.723 231.005 24.7422C231.024 24.7615 231.043 24.7711 231.062 24.7808C231.12 24.8001 231.13 24.7904 231.149 24.7904C231.323 24.7904 231.467 24.7519 231.621 24.7133C231.766 24.6652 231.91 24.6074 232.035 24.5303C231.881 24.5399 231.737 24.5592 231.592 24.5688C231.448 24.5785 231.303 24.5785 231.168 24.5592C231.159 24.5592 231.12 24.5495 231.149 24.5495C231.159 24.5495 231.159 24.5592 231.159 24.5592C231.159 24.5592 231.168 24.5688 231.168 24.5592C231.168 24.5495 231.159 24.5303 231.159 24.5014C231.149 24.4436 231.159 24.3761 231.159 24.3087C231.168 24.1738 231.188 24.0293 231.207 23.8847L231.342 23.008C231.4 22.7189 231.438 22.4203 231.457 22.1119Z" fill="#1F1C3F"/>
<path d="M230.532 29.0394C230.532 29.0394 232.122 28.9334 232.951 29.0876C233.413 29.1743 230.716 30.4461 230.716 30.4461L230.532 29.0394Z" fill="#F48E8A"/>
<path d="M236.708 23.3258C236.978 22.9501 237.2 22.5743 237.46 22.2371C237.595 22.0733 237.73 21.9191 237.893 21.8132C237.98 21.765 238.067 21.7264 238.163 21.7168C238.259 21.7072 238.375 21.7264 238.481 21.7554C238.404 21.6686 238.298 21.6012 238.173 21.5723C238.047 21.5434 237.913 21.553 237.787 21.6012C237.537 21.6879 237.354 21.871 237.209 22.054C237.065 22.2371 236.949 22.4491 236.862 22.661C236.785 22.873 236.728 23.0946 236.708 23.3258Z" fill="#5C3235"/>
<path d="M236.265 17.3812C235.302 18.9132 233.644 19.8766 231.833 19.9344L227.218 20.0886C227.218 20.0886 225.513 16.5237 228.875 15.8396C232.247 15.1652 236.265 17.3812 236.265 17.3812Z" fill="#1F1C3F"/>
<path d="M231.216 21.264H229.049L229.289 21.0713C229.607 20.8112 230.031 20.7149 230.426 20.8016L230.918 20.9076C231.091 20.9365 231.216 21.081 231.216 21.264Z" fill="#1F1C3F"/>
<path d="M231.862 21.264H234.03L233.789 21.0713C233.471 20.8112 233.047 20.7149 232.652 20.8016L232.161 20.9076C231.987 20.9365 231.862 21.081 231.862 21.264Z" fill="#1F1C3F"/>
<path d="M230.002 26.2549C230.002 26.2549 232.238 26.5151 233.298 25.3685C233.298 25.3685 232.777 26.9583 231.351 27.1221C229.868 27.2762 230.002 26.2549 230.002 26.2549Z" fill="#EEF2F9"/>
<path d="M230.716 30.446C230.716 30.446 228.557 32.6813 230.899 33.4906C232.681 34.1073 233.702 32.3826 233.702 32.3826C233.702 32.3826 234.252 33.7219 236.15 33.6255C238.048 33.5292 237.238 30.446 237.238 30.446C237.238 30.446 233.972 33.6352 230.716 30.446Z" fill="#EEF2F9"/>
<path d="M233.644 8.4787C234.714 8.12221 236.13 8.59432 236.41 9.69269C236.728 8.893 237.807 8.51724 238.549 8.94117C239.29 9.3651 239.522 10.4827 239.001 11.1668C239.772 10.9259 240.582 10.6754 241.391 10.7911C242.2 10.9067 243 11.4751 243.096 12.2748C243.193 13.036 242.653 13.7297 242.046 14.2018C241.111 14.9244 239.984 15.3194 238.818 15.4736C237.633 15.6277 236.419 15.5507 235.244 15.3387C234.271 15.1653 232.97 14.8666 232.392 13.9802C232.209 13.6911 232.132 13.3539 232.064 13.0167C231.939 12.4868 231.718 11.9665 231.669 11.4173C231.563 10.2515 232.257 9.1435 233.298 8.63286C233.404 8.56541 233.519 8.51724 233.644 8.4787Z" fill="#1F1C3F"/>
<path d="M232.055 13.007C232.055 13.007 235.986 13.4791 239.416 15.5506C239.416 15.5506 236.969 11.3787 231.862 12.3036L232.055 13.007Z" fill="white"/>
<path d="M215.753 51.662C215.753 51.662 207.64 53.4637 199.412 58.3196C199.412 58.3196 196.281 58.098 195.558 58.3485C195.153 58.4931 196.155 59.0615 197.543 59.3409C196.647 59.5336 194.951 59.9383 194.238 60.1984C193.169 60.5838 193.429 63.1081 195.288 63.1081C197.157 63.1081 200.346 61.4124 200.346 61.4124C200.346 61.4124 219.77 58.1751 222.112 56.8744L225.58 32.4116L215.753 51.662Z" fill="#F7A9AA"/>
<path d="M223.798 46.276C223.798 46.276 222.362 53.9068 219.924 55.352C217.487 56.7876 209.586 59.7647 209.586 59.7647C209.586 59.7647 224.482 59.8804 225.57 58.0016C226.678 56.1131 223.798 46.276 223.798 46.276Z" fill="#F48E8A"/>
<path d="M250.949 103.497L215.28 98.3137C214.625 98.2173 214.172 97.6103 214.269 96.9552L217.516 74.6602C217.612 74.005 218.219 73.5522 218.874 73.6485L254.542 78.8321C255.197 78.9284 255.65 79.5354 255.554 80.1906L252.307 102.486C252.211 103.141 251.604 103.594 250.949 103.497Z" fill="#1F1C3F"/>
<path d="M240.764 76.828L240.1 76.7317L240.61 73.215C240.639 72.9837 240.485 72.7814 240.263 72.7429L234.29 71.8757C234.059 71.8372 233.856 72.001 233.818 72.2226L233.307 75.7393L232.642 75.6429L233.153 72.1262C233.24 71.5289 233.798 71.1146 234.386 71.2013L240.36 72.0684C240.957 72.1551 241.371 72.714 241.285 73.3017L240.764 76.828Z" fill="#1F1C3F"/>
<path d="M249.542 55.1882C249.542 51.2957 243.096 33.6351 243.096 33.6351C240.582 38.4429 243.723 54.5619 243.723 54.5619C240.668 55.8723 235.986 69.9487 235.986 69.9487L234.724 72.0299C234.435 72.5116 234.531 73.1379 234.964 73.504C235.311 73.8027 235.774 74.111 236.284 74.2459C237.441 74.5446 238.52 75.0552 239.31 73.8701C240.1 72.685 240.398 70.1607 240.398 70.1607C242.932 66.9523 249.542 58.3292 249.542 55.1882Z" fill="#F7A9AA"/>
<path d="M243.096 33.6351C243.096 33.6351 241.622 41.5742 244.725 54.1187C244.725 54.1187 239.531 60.6704 238.558 63.0888C237.595 65.5264 240.341 35.4754 243.096 33.6351Z" fill="#F48E8A"/>
<path d="M229.983 80.2581C230.393 80.2581 230.725 79.9259 230.725 79.5162C230.725 79.1064 230.393 78.7743 229.983 78.7743C229.573 78.7743 229.241 79.1064 229.241 79.5162C229.241 79.9259 229.573 80.2581 229.983 80.2581Z" fill="#EEF2F9"/>
<path d="M241.689 82.2139C242.099 82.2139 242.431 81.8817 242.431 81.472C242.431 81.0622 242.099 80.7301 241.689 80.7301C241.28 80.7301 240.948 81.0622 240.948 81.472C240.948 81.8817 241.28 82.2139 241.689 82.2139Z" fill="#EEF2F9"/>
<path d="M294.835 124.116L289.796 122.786L288.929 123.779C287.878 124.983 286.462 125.821 284.892 126.12C282.907 126.496 280.257 127.652 280.219 131.14H295.962C295.962 131.14 296.27 127.536 294.835 124.116Z" fill="#312E3A"/>
<path d="M290.547 124.781C290.615 124.781 290.672 124.752 290.721 124.694C290.788 124.597 290.778 124.463 290.682 124.395L289.41 123.412C289.314 123.345 289.179 123.355 289.112 123.451C289.044 123.547 289.054 123.682 289.15 123.75L290.422 124.732C290.46 124.771 290.499 124.781 290.547 124.781Z" fill="#E3EBF7"/>
<path d="M289.603 125.609C289.671 125.609 289.728 125.58 289.777 125.523C289.844 125.426 289.834 125.291 289.738 125.224L288.466 124.241C288.37 124.174 288.235 124.183 288.168 124.28C288.1 124.376 288.11 124.511 288.206 124.578L289.478 125.561C289.516 125.59 289.555 125.609 289.603 125.609Z" fill="#E3EBF7"/>
<path d="M288.572 126.418C288.64 126.418 288.697 126.389 288.746 126.332C288.813 126.235 288.803 126.1 288.707 126.033L287.435 125.05C287.339 124.983 287.204 124.992 287.136 125.089C287.069 125.185 287.079 125.32 287.175 125.387L288.447 126.37C288.485 126.409 288.534 126.418 288.572 126.418Z" fill="#E3EBF7"/>
<path d="M294.767 116.755C294.893 119.443 294.931 122.006 294.835 124.125L289.796 122.796C289.796 122.796 289.141 120.426 288.273 117.092L294.767 116.755Z" fill="#F7A9AA"/>
<path d="M308.121 124.116L303.082 122.786L302.215 123.779C301.165 124.983 299.749 125.821 298.178 126.12C296.193 126.496 293.544 127.652 293.505 131.14H309.249C309.258 131.14 309.557 127.536 308.121 124.116Z" fill="#2A2637"/>
<path d="M303.844 124.781C303.911 124.781 303.969 124.752 304.017 124.694C304.084 124.597 304.075 124.463 303.978 124.395L302.707 123.412C302.61 123.345 302.475 123.355 302.408 123.451C302.341 123.547 302.35 123.682 302.447 123.75L303.718 124.732C303.747 124.771 303.795 124.781 303.844 124.781Z" fill="#E3EBF7"/>
<path d="M302.89 125.609C302.957 125.609 303.015 125.58 303.063 125.523C303.131 125.426 303.121 125.291 303.025 125.224L301.753 124.241C301.656 124.174 301.522 124.183 301.454 124.28C301.387 124.376 301.396 124.511 301.493 124.578L302.764 125.561C302.803 125.59 302.851 125.609 302.89 125.609Z" fill="#E3EBF7"/>
<path d="M301.868 126.418C301.936 126.418 301.994 126.389 302.042 126.332C302.109 126.235 302.1 126.1 302.003 126.033L300.732 125.05C300.635 124.983 300.5 124.992 300.433 125.089C300.365 125.185 300.375 125.32 300.471 125.387L301.743 126.37C301.772 126.409 301.82 126.418 301.868 126.418Z" fill="#E3EBF7"/>
<path d="M308.054 116.755C308.179 119.443 308.218 122.006 308.121 124.125L303.082 122.796C303.082 122.796 302.379 120.242 301.464 116.697L308.054 116.755Z" fill="#F7A9AA"/>
<path d="M305.857 55.9879C305.857 55.9879 313.17 63.4742 308.641 75.8164L307.013 96.9744L309.817 121.9L300.548 120.435C300.548 120.435 296.405 99.8071 296.309 95.8182C296.203 91.8294 296.155 71.4229 296.155 71.4229C296.155 71.4229 294.498 91.8294 294.787 100.665C295.076 109.5 296.309 121.9 296.309 121.9L287.011 120.792C287.011 120.792 282.811 90.654 284.237 80.8361L286.848 55.9879H304.518" fill="#4A87C7"/>
<path d="M291.019 20.0886C291.019 20.0886 300.115 24.9638 301.28 28.7792C302.446 32.5946 306.58 55.9976 306.58 55.9976L285.248 58.8591C285.248 58.8591 279.063 36.6798 279.593 31.3999C280.122 26.12 284.314 22.507 284.314 22.507L291.019 20.0886Z" fill="#F0677A"/>
<path d="M291.01 19.7032C291.01 19.7032 295.856 15.2808 295.712 11.3498C295.567 7.41879 293.178 4.26821 289.594 4.30675L291.01 19.7032Z" fill="#1F1C3F"/>
<path d="M281.346 8.66162L280.913 15.907C280.778 18.123 282.078 20.1656 284.131 21.0038L284.323 22.4972L284.487 23.0657C285.065 25.1083 287.599 25.8309 289.16 24.3953C290.461 23.2006 291.145 21.4663 291.02 19.7031L290.201 8.66162H281.346Z" fill="#F7A9AA"/>
<path d="M289.854 14.0667C289.054 15.2904 289.006 16.6874 289.757 17.1788C290.509 17.6702 291.771 17.0728 292.571 15.8492C293.371 14.6256 293.419 13.2285 292.667 12.7371C291.916 12.2458 290.653 12.8431 289.854 14.0667Z" fill="#F7A9AA"/>
<path d="M286.327 14.5871C286.524 14.5871 286.684 14.3413 286.684 14.038C286.684 13.7346 286.524 13.4888 286.327 13.4888C286.131 13.4888 285.971 13.7346 285.971 14.038C285.971 14.3413 286.131 14.5871 286.327 14.5871Z" fill="#1F1C3F"/>
<path d="M283.003 14.038C283.003 14.3366 283.158 14.5871 283.36 14.5871C283.553 14.5871 283.716 14.3463 283.716 14.038C283.716 13.7393 283.562 13.4888 283.36 13.4888C283.158 13.4888 283.003 13.7296 283.003 14.038Z" fill="#1F1C3F"/>
<path d="M285.104 13.6718C284.959 13.9608 284.853 14.2595 284.757 14.5678C284.661 14.8761 284.593 15.1844 284.545 15.5024C284.526 15.6662 284.506 15.8203 284.506 15.9937C284.506 16.0805 284.506 16.1672 284.526 16.2539C284.535 16.3021 284.545 16.3502 284.583 16.4177C284.593 16.4273 284.612 16.4466 284.632 16.4658C284.651 16.4851 284.67 16.4948 284.699 16.5044C284.766 16.5237 284.766 16.514 284.795 16.5237C284.978 16.5237 285.133 16.4851 285.287 16.4369C285.441 16.3888 285.595 16.3213 285.73 16.2442C285.566 16.2539 285.412 16.2732 285.258 16.2828C285.104 16.2924 284.95 16.2924 284.815 16.2732C284.805 16.2732 284.766 16.2635 284.795 16.2635C284.805 16.2635 284.805 16.2732 284.815 16.2732C284.815 16.2732 284.824 16.2828 284.824 16.2732C284.824 16.2635 284.815 16.2442 284.815 16.2153C284.805 16.1575 284.815 16.0805 284.815 16.013C284.824 15.8685 284.844 15.7143 284.872 15.5602L285.007 14.6352C285.046 14.3077 285.084 13.9993 285.104 13.6718Z" fill="#1F1C3F"/>
<path d="M284.121 21.0039C284.121 21.0039 284.93 21.2833 286.539 21.2351C287.435 21.2062 284.314 22.5069 284.314 22.5069L284.121 21.0039Z" fill="#F48E8A"/>
<path d="M290.663 14.9628C290.952 14.5678 291.183 14.1631 291.463 13.8066C291.598 13.6332 291.752 13.4694 291.925 13.3634C292.012 13.3153 292.108 13.2767 292.214 13.2671C292.32 13.2575 292.436 13.2767 292.551 13.3056C292.465 13.2093 292.359 13.1418 292.224 13.1129C292.089 13.084 291.945 13.0937 291.819 13.1418C291.559 13.2382 291.366 13.4213 291.212 13.6139C291.058 13.8163 290.933 14.0282 290.846 14.2595C290.75 14.4811 290.682 14.7123 290.663 14.9628Z" fill="#1F1C3F"/>
<path d="M285.335 12.9589L287.753 12.7469C287.753 12.7469 286.578 11.4558 285.335 12.9589Z" fill="#1F1C3F"/>
<path d="M282.252 13.1708L284.67 12.9588C284.67 12.9588 283.495 11.6677 282.252 13.1708Z" fill="#1F1C3F"/>
<path d="M285.73 18.4699C285.73 18.4699 284.458 18.152 283.398 18.6048C283.408 18.6048 283.977 18.8553 285.73 18.4699Z" fill="white"/>
<path d="M281.712 30.5327H263.136V131.149H281.712V30.5327Z" fill="white"/>
<path d="M266.239 34.7721H263.136V34.8684H266.239V34.7721Z" fill="#1F1C3F"/>
<path d="M266.239 36.1016H263.136V36.1979H266.239V36.1016Z" fill="#1F1C3F"/>
<path d="M267.819 37.4216H263.136V37.518H267.819V37.4216Z" fill="#1F1C3F"/>
<path d="M266.239 38.7512H263.136V38.8476H266.239V38.7512Z" fill="#1F1C3F"/>
<path d="M266.239 40.0712H263.136V40.1675H266.239V40.0712Z" fill="#1F1C3F"/>
<path d="M267.838 41.4008H263.136V41.4971H267.838V41.4008Z" fill="#1F1C3F"/>
<path d="M266.239 42.7207H263.136V42.8171H266.239V42.7207Z" fill="#1F1C3F"/>
<path d="M266.239 44.0504H263.136V44.1468H266.239V44.0504Z" fill="#1F1C3F"/>
<path d="M267.838 45.3704H263.136V45.4667H267.838V45.3704Z" fill="#1F1C3F"/>
<path d="M266.239 46.7H263.136V46.7963H266.239V46.7Z" fill="#1F1C3F"/>
<path d="M266.239 48.02H263.136V48.1164H266.239V48.02Z" fill="#1F1C3F"/>
<path d="M267.838 49.3495H263.136V49.4458H267.838V49.3495Z" fill="#1F1C3F"/>
<path d="M266.239 50.6694H263.136V50.7658H266.239V50.6694Z" fill="#1F1C3F"/>
<path d="M266.239 51.9894H263.136V52.0857H266.239V51.9894Z" fill="#1F1C3F"/>
<path d="M267.838 53.3191H263.136V53.4154H267.838V53.3191Z" fill="#1F1C3F"/>
<path d="M266.239 54.639H263.136V54.7354H266.239V54.639Z" fill="#1F1C3F"/>
<path d="M266.239 55.9686H263.136V56.065H266.239V55.9686Z" fill="#1F1C3F"/>
<path d="M267.838 57.2886H263.136V57.3849H267.838V57.2886Z" fill="#1F1C3F"/>
<path d="M266.239 58.6182H263.136V58.7145H266.239V58.6182Z" fill="#1F1C3F"/>
<path d="M266.239 59.9381H263.136V60.0345H266.239V59.9381Z" fill="#1F1C3F"/>
<path d="M267.838 61.2678H263.136V61.3642H267.838V61.2678Z" fill="#1F1C3F"/>
<path d="M266.239 62.5879H263.136V62.6842H266.239V62.5879Z" fill="#1F1C3F"/>
<path d="M266.239 63.9174H263.136V64.0137H266.239V63.9174Z" fill="#1F1C3F"/>
<path d="M267.838 65.2373H263.136V65.3337H267.838V65.2373Z" fill="#1F1C3F"/>
<path d="M266.239 66.567H263.136V66.6634H266.239V66.567Z" fill="#1F1C3F"/>
<path d="M266.239 67.8868H263.136V67.9832H266.239V67.8868Z" fill="#231F20"/>
<path d="M267.838 69.2166H263.136V69.3129H267.838V69.2166Z" fill="#231F20"/>
<path d="M266.239 70.5365H263.136V70.6328H266.239V70.5365Z" fill="#231F20"/>
<path d="M266.239 71.866H263.136V71.9623H266.239V71.866Z" fill="#231F20"/>
<path d="M267.838 73.186H263.136V73.2824H267.838V73.186Z" fill="#231F20"/>
<path d="M266.239 74.5059H263.136V74.6022H266.239V74.5059Z" fill="#231F20"/>
<path d="M266.239 75.8357H263.136V75.932H266.239V75.8357Z" fill="#231F20"/>
<path d="M267.838 77.1555H263.136V77.2519H267.838V77.1555Z" fill="#231F20"/>
<path d="M266.239 78.4851H263.136V78.5815H266.239V78.4851Z" fill="#231F20"/>
<path d="M266.239 79.8051H263.136V79.9014H266.239V79.8051Z" fill="#231F20"/>
<path d="M267.838 81.1346H263.136V81.231H267.838V81.1346Z" fill="#231F20"/>
<path d="M266.239 82.4547H263.136V82.5511H266.239V82.4547Z" fill="#231F20"/>
<path d="M266.239 83.7844H263.136V83.8808H266.239V83.7844Z" fill="#231F20"/>
<path d="M267.838 85.1044H263.136V85.2007H267.838V85.1044Z" fill="#231F20"/>
<path d="M266.239 86.4338H263.136V86.5302H266.239V86.4338Z" fill="#231F20"/>
<path d="M266.239 87.7539H263.136V87.8503H266.239V87.7539Z" fill="#231F20"/>
<path d="M267.838 89.0835H263.136V89.1798H267.838V89.0835Z" fill="#231F20"/>
<path d="M266.239 90.4036H263.136V90.4999H266.239V90.4036Z" fill="#231F20"/>
<path d="M266.239 91.733H263.136V91.8294H266.239V91.733Z" fill="#231F20"/>
<path d="M267.838 93.053H263.136V93.1493H267.838V93.053Z" fill="#231F20"/>
<path d="M266.239 94.3827H263.136V94.479H266.239V94.3827Z" fill="#231F20"/>
<path d="M266.239 95.7025H263.136V95.7989H266.239V95.7025Z" fill="#231F20"/>
<path d="M267.838 97.0226H263.136V97.1189H267.838V97.0226Z" fill="#231F20"/>
<path d="M266.239 98.3522H263.136V98.4485H266.239V98.3522Z" fill="#231F20"/>
<path d="M266.239 99.6721H263.136V99.7685H266.239V99.6721Z" fill="#231F20"/>
<path d="M267.838 101.002H263.136V101.098H267.838V101.002Z" fill="#231F20"/>
<path d="M266.239 102.322H263.136V102.418H266.239V102.322Z" fill="#231F20"/>
<path d="M266.239 103.651H263.136V103.748H266.239V103.651Z" fill="#231F20"/>
<path d="M267.838 104.971H263.136V105.068H267.838V104.971Z" fill="#231F20"/>
<path d="M266.239 106.301H263.136V106.397H266.239V106.301Z" fill="#231F20"/>
<path d="M266.239 107.621H263.136V107.717H266.239V107.621Z" fill="#231F20"/>
<path d="M267.838 108.951H263.136V109.047H267.838V108.951Z" fill="#231F20"/>
<path d="M266.239 110.27H263.136V110.367H266.239V110.27Z" fill="#231F20"/>
<path d="M266.239 111.6H263.136V111.696H266.239V111.6Z" fill="#231F20"/>
<path d="M267.838 112.92H263.136V113.016H267.838V112.92Z" fill="#231F20"/>
<path d="M266.239 114.25H263.136V114.346H266.239V114.25Z" fill="#231F20"/>
<path d="M266.239 115.57H263.136V115.666H266.239V115.57Z" fill="#231F20"/>
<path d="M267.838 116.899H263.136V116.996H267.838V116.899Z" fill="#231F20"/>
<path d="M266.239 118.219H263.136V118.316H266.239V118.219Z" fill="#231F20"/>
<path d="M266.239 119.539H263.136V119.635H266.239V119.539Z" fill="#231F20"/>
<path d="M267.838 120.869H263.136V120.965H267.838V120.869Z" fill="#231F20"/>
<path d="M266.239 122.189H263.136V122.285H266.239V122.189Z" fill="#231F20"/>
<path d="M266.239 123.518H263.136V123.615H266.239V123.518Z" fill="#231F20"/>
<path d="M267.838 124.838H263.136V124.935H267.838V124.838Z" fill="#231F20"/>
<path d="M266.239 126.168H263.136V126.264H266.239V126.168Z" fill="#231F20"/>
<path d="M290.817 8.5653C290.75 8.5653 290.49 8.98923 290.432 9.05667C290.287 9.22047 290.123 9.38426 289.95 9.52878C289.613 9.81782 289.237 10.0683 288.832 10.2707C288.428 10.473 288.004 10.6175 287.57 10.7042C287.329 10.7524 286.549 10.9644 286.395 10.6946C286.366 10.6464 286.356 10.5886 286.356 10.5404C286.337 10.1647 286.472 9.77928 286.713 9.49987C286.221 9.99125 285.518 10.3477 284.863 10.5404C284.439 10.6657 283.938 10.8487 283.485 10.7813C282.811 10.6753 283.061 9.96235 283.437 9.60586C282.974 10.0394 282.416 10.3574 281.828 10.5886C281.404 10.7524 280.826 11.0607 280.354 10.9547C279.602 10.7813 279.834 9.06631 279.978 8.55566C280.161 7.9294 280.575 7.36095 281.144 7.05263C280.624 7.33204 279.988 6.76359 279.872 6.28185C279.785 5.89645 279.959 5.53997 280.325 5.36654C280.566 5.25092 280.864 5.21238 281.134 5.23165C281.269 5.24129 281.857 5.5207 281.915 5.49179C283.745 4.62466 285.875 4.12365 287.907 4.11401C288.852 4.11401 289.825 4.21036 290.663 4.64393C291.501 5.0775 292.195 5.89645 292.262 6.84067C292.33 7.76561 291.761 8.49785 290.817 8.5653Z" fill="#1F1C3F"/>
<path d="M289.304 36.304L283.832 43.3856L275.18 30.8025C274.602 29.9547 273.696 29.3862 272.684 29.2417C271.981 29.1357 271.143 29.0972 270.305 29.261C268.281 29.656 266.248 30.5327 266.248 30.5327C266.248 30.5327 270.073 32.4501 271.596 32.5175C271.596 32.5175 278.976 54.456 283.841 53.348C289.381 52.0762 296.665 42.9424 296.665 42.9424L289.304 36.304Z" fill="#F7A9AA"/>
<path d="M296.656 42.9423C296.656 42.9423 302.119 36.1497 302.205 32.7294L303.342 38.4043C303.342 38.4139 302.649 41.4392 296.656 42.9423Z" fill="#DC3967"/>
<path d="M288.476 35.7259C288.852 34.8587 289.304 34.0302 289.796 33.2305C290.287 32.4211 290.817 31.6504 291.405 30.9085C291.993 30.1666 292.619 29.4536 293.322 28.8177C293.679 28.4998 294.045 28.2011 294.44 27.941C294.835 27.6808 295.259 27.4496 295.702 27.3051C295.297 27.5459 294.931 27.8253 294.575 28.1336C294.228 28.4323 293.891 28.7599 293.573 29.0971C293.255 29.4343 292.946 29.7812 292.648 30.1377C292.349 30.4942 292.06 30.8507 291.771 31.2168C291.193 31.949 290.644 32.7006 290.094 33.4521L288.476 35.7259Z" fill="#DC3967"/>
<path d="M304.826 121.302C304.73 121.302 304.653 121.235 304.633 121.139C304.605 120.907 301.608 98.0632 301.203 95.6641C300.799 93.2458 302.109 66.2683 302.157 65.1218C302.167 65.0158 302.254 64.9387 302.36 64.9387C302.466 64.9484 302.552 65.0351 302.543 65.141C302.533 65.4205 301.184 93.2265 301.579 95.6063C301.984 98.0054 304.98 120.859 305.009 121.09C305.019 121.196 304.951 121.293 304.845 121.302C304.836 121.302 304.826 121.302 304.826 121.302Z" fill="#3C62AC"/>
<path d="M291.588 121.524C291.492 121.524 291.405 121.447 291.395 121.35C291.27 120.252 288.418 94.3634 288.601 90.2782C288.775 86.2123 290.557 66.2104 290.576 66.0081C290.586 65.9021 290.682 65.825 290.788 65.8347C290.894 65.8443 290.971 65.9407 290.962 66.0466C290.942 66.249 289.16 86.2412 288.987 90.2975C288.813 94.3441 291.752 121.042 291.781 121.312C291.79 121.418 291.713 121.514 291.607 121.524C291.598 121.524 291.588 121.524 291.588 121.524Z" fill="#3C62AC"/>
<path d="M263.136 46.2567C263.136 46.2567 266.017 49.8698 266.239 51.1608C266.47 52.4519 263.782 54.1284 263.136 53.3865C262.491 52.6542 261.691 48.8099 263.136 46.2567Z" fill="#F7A9AA"/>
<path d="M295.991 71.7312L294.363 57.7125L294.748 57.6643L296.309 71.0953C296.945 70.6328 297.292 69.862 297.195 69.0623L295.875 57.4235C295.866 57.3175 295.943 57.2211 296.049 57.2115C296.155 57.2019 296.251 57.2789 296.261 57.3849L297.581 69.0238C297.696 70.074 297.176 71.0856 296.251 71.5963L295.991 71.7312Z" fill="#3C62AC"/>
<path d="M212.583 19.9152C212.583 19.9152 210.771 16.3888 209.577 14.115C210.733 12.9685 211.397 11.61 211.397 10.1358C211.397 6.10849 206.339 2.84229 200.105 2.84229C193.872 2.84229 188.813 6.10849 188.813 10.1358C188.813 14.1632 193.872 17.4294 200.105 17.4294C202.225 17.4294 204.21 17.0536 205.906 16.3888L212.583 19.9152Z" fill="white"/>
<path d="M212.583 19.9151C212.072 18.9324 211.542 17.9592 211.031 17.0054L209.499 14.1535L209.47 14.0957L209.519 14.0475C210.309 13.2478 210.925 12.2651 211.166 11.1763C211.407 10.0876 211.234 8.93142 210.713 7.94867C210.203 6.95628 209.403 6.13732 208.507 5.48215C207.601 4.82699 206.58 4.32598 205.52 3.95022C204.99 3.76716 204.451 3.613 203.902 3.47811C203.352 3.35286 202.794 3.25651 202.244 3.18907C201.127 3.05418 199.999 3.03491 198.872 3.11199C197.755 3.1987 196.637 3.38176 195.558 3.69971C194.479 4.00803 193.438 4.45123 192.484 5.02932C191.54 5.60741 190.663 6.33965 190.027 7.23569C189.709 7.67889 189.449 8.17027 189.286 8.69055C189.112 9.21083 189.045 9.75038 189.054 10.2899C189.074 10.8295 189.189 11.369 189.392 11.8797C189.594 12.3903 189.883 12.8624 190.22 13.296C190.904 14.1631 191.791 14.8665 192.764 15.4253C193.737 15.9841 194.787 16.3984 195.876 16.6874C196.415 16.8416 196.974 16.9476 197.523 17.0439C198.082 17.1403 198.641 17.1981 199.209 17.227C201.464 17.3619 203.757 17.0728 205.877 16.2924L205.925 16.2731L205.963 16.2924L209.239 18.0845L210.896 18.9902L212.583 19.9151ZM212.583 19.9151L210.925 19.0672L209.249 18.2194L205.857 16.4947L205.944 16.5044C204.875 16.9283 203.757 17.227 202.62 17.4004C201.483 17.5738 200.327 17.6413 199.181 17.5835C198.602 17.5546 198.034 17.5064 197.466 17.4197C196.897 17.333 196.329 17.227 195.77 17.0825C195.211 16.9379 194.662 16.7645 194.122 16.5526C193.583 16.3406 193.062 16.0901 192.552 15.8107C191.54 15.2422 190.606 14.5196 189.864 13.5947C189.498 13.1322 189.189 12.6216 188.958 12.0724C188.736 11.5232 188.601 10.9258 188.582 10.3285C188.563 9.73111 188.64 9.13375 188.833 8.56529C189.016 7.99684 189.295 7.46693 189.632 6.98518C190.316 6.0217 191.232 5.25092 192.224 4.64392C193.217 4.03693 194.296 3.5841 195.413 3.26615C196.521 2.93856 197.668 2.7555 198.824 2.66879C199.98 2.59171 201.136 2.62061 202.283 2.76514C202.851 2.84221 203.429 2.93856 203.988 3.07345C204.547 3.20834 205.106 3.37213 205.645 3.56483C206.195 3.75752 206.725 3.99839 207.235 4.26817C207.746 4.53794 208.237 4.84626 208.709 5.19311C209.634 5.88682 210.453 6.76358 210.983 7.81378C211.513 8.85434 211.677 10.0972 211.407 11.2341C211.34 11.5232 211.243 11.793 211.137 12.0627C211.022 12.3325 210.887 12.5926 210.733 12.8335C210.578 13.084 210.405 13.3153 210.232 13.5369C210.049 13.7585 209.846 13.9704 209.644 14.1728L209.663 14.0668L211.137 17.015C211.619 17.9978 212.091 18.9613 212.583 19.9151Z" fill="#1F1C3F"/>
<path d="M195.728 10.5417C196.048 10.2219 196.048 9.70338 195.728 9.38356C195.409 9.06374 194.89 9.06374 194.57 9.38356C194.25 9.70338 194.25 10.2219 194.57 10.5417C194.89 10.8616 195.409 10.8616 195.728 10.5417Z" fill="#1F1C3F"/>
<path d="M200.772 10.1597C200.876 9.71953 200.603 9.27844 200.163 9.1745C199.723 9.07056 199.282 9.34313 199.178 9.78331C199.074 10.2235 199.347 10.6646 199.787 10.7685C200.227 10.8725 200.668 10.5999 200.772 10.1597Z" fill="#1F1C3F"/>
<path d="M205.363 10.5406C205.683 10.2208 205.683 9.70228 205.363 9.38246C205.043 9.06264 204.524 9.06264 204.205 9.38246C203.885 9.70228 203.885 10.2208 204.205 10.5406C204.524 10.8605 205.043 10.8605 205.363 10.5406Z" fill="#1F1C3F"/>
<path d="M173.879 22.796C173.879 22.796 175.691 19.2697 176.885 16.9959C175.729 15.8493 175.064 14.4908 175.064 13.0167C175.064 8.98935 180.123 5.72314 186.356 5.72314C192.59 5.72314 197.648 8.98935 197.648 13.0167C197.648 17.0441 192.59 20.3103 186.356 20.3103C184.237 20.3103 182.252 19.9345 180.556 19.2697L173.879 22.796Z" fill="white"/>
<path d="M173.879 22.796C174.371 21.8421 174.843 20.8786 175.334 19.9055L176.808 16.9573L176.828 17.0633C176.625 16.8609 176.423 16.649 176.24 16.4274C176.057 16.2058 175.883 15.9649 175.739 15.724C175.585 15.4735 175.45 15.223 175.334 14.9532C175.219 14.6835 175.132 14.404 175.064 14.1246C174.795 12.9877 174.959 11.7448 175.488 10.7043C176.009 9.65408 176.837 8.77731 177.762 8.08361C178.225 7.73675 178.726 7.42844 179.236 7.15866C179.747 6.88889 180.277 6.64802 180.826 6.45532C181.366 6.26263 181.924 6.09883 182.483 5.96395C183.042 5.82906 183.611 5.73271 184.189 5.65563C185.335 5.51111 186.491 5.47257 187.648 5.55928C188.804 5.646 189.95 5.82906 191.058 6.15664C192.166 6.47459 193.255 6.92743 194.247 7.53442C195.24 8.14141 196.155 8.9122 196.839 9.87568C197.176 10.3574 197.456 10.8873 197.639 11.4558C197.822 12.0242 197.909 12.6216 197.88 13.219C197.86 13.8163 197.726 14.404 197.504 14.9629C197.282 15.512 196.964 16.0227 196.598 16.4852C195.866 17.4101 194.922 18.1327 193.91 18.7012C193.4 18.9806 192.879 19.2311 192.34 19.4431C191.8 19.655 191.251 19.8284 190.692 19.973C190.133 20.1175 189.565 20.2235 188.996 20.3102C188.428 20.3969 187.85 20.4451 187.281 20.474C186.135 20.5318 184.979 20.4643 183.842 20.2909C182.705 20.1175 181.587 19.8188 180.518 19.3949L180.605 19.3852L177.213 21.1099L175.537 21.9577L173.879 22.796ZM173.879 22.796L175.565 21.8903L177.223 20.9846L180.499 19.1925L180.537 19.1733L180.585 19.1925C182.705 19.9826 184.998 20.2716 187.253 20.1271C187.811 20.0982 188.38 20.0404 188.939 19.9441C189.497 19.8573 190.047 19.7417 190.586 19.5876C191.675 19.2889 192.725 18.8746 193.698 18.3254C194.662 17.7666 195.558 17.0633 196.242 16.1961C196.579 15.7626 196.868 15.2904 197.07 14.7798C197.273 14.2692 197.388 13.7392 197.408 13.1901C197.427 12.6505 197.35 12.1013 197.176 11.5907C197.003 11.0704 196.752 10.5887 196.435 10.1358C195.799 9.23978 194.931 8.50754 193.978 7.92945C193.024 7.35136 191.983 6.90816 190.904 6.59984C189.825 6.2819 188.717 6.09883 187.59 6.01212C186.472 5.93504 185.335 5.95431 184.218 6.0892C183.659 6.15664 183.1 6.25299 182.56 6.37824C182.011 6.5035 181.472 6.65765 180.942 6.85035C179.882 7.22611 178.87 7.72712 177.955 8.38229C177.049 9.03745 176.259 9.85641 175.749 10.8488C175.228 11.8315 175.064 12.9877 175.296 14.0765C175.537 15.1652 176.153 16.1479 176.943 16.9476L176.991 16.9958L176.963 17.0536L175.431 19.9055C174.92 20.8401 174.39 21.8132 173.879 22.796Z" fill="#1F1C3F"/>
<path d="M191.887 13.4258C192.207 13.1059 192.207 12.5874 191.887 12.2676C191.567 11.9478 191.049 11.9478 190.729 12.2676C190.409 12.5874 190.409 13.1059 190.729 13.4258C191.049 13.7456 191.567 13.7456 191.887 13.4258Z" fill="#1F1C3F"/>
<path d="M187.07 13.4263C187.39 13.1064 187.39 12.5879 187.07 12.2681C186.75 11.9483 186.231 11.9483 185.912 12.2681C185.592 12.5879 185.592 13.1064 185.912 13.4263C186.231 13.7461 186.75 13.7461 187.07 13.4263Z" fill="#1F1C3F"/>
<path d="M181.854 13.6319C182.294 13.528 182.567 13.0869 182.463 12.6467C182.359 12.2065 181.918 11.9339 181.477 12.0379C181.037 12.1418 180.765 12.5829 180.869 13.0231C180.973 13.4633 181.414 13.7358 181.854 13.6319Z" fill="#1F1C3F"/>
<path d="M69.7947 11.3788C69.7947 8.18003 67.2029 5.5979 64.0138 5.5979C60.8247 5.5979 58.2329 8.18967 58.2329 11.3788C58.2329 12.034 58.3389 12.6602 58.5412 13.2479C59.3313 16.1095 61.6629 19.8478 61.6629 19.8478H63.8596H64.2161H66.4129C66.4129 19.8478 69.9103 14.2307 69.7947 11.504C69.7947 11.4559 69.7947 11.4173 69.7947 11.3788Z" fill="white"/>
<path d="M61.7207 20.6763H66.4129V20.6859C66.4129 21.9866 65.3627 23.0368 64.062 23.0368C62.7709 23.0368 61.7207 21.9866 61.7207 20.6763Z" fill="white"/>
<path d="M70.3632 11.1571C70.3632 10.0202 70.0164 8.87368 69.3708 7.9391C68.7253 6.99489 67.8004 6.25301 66.7502 5.83871C65.7 5.42441 64.5149 5.32806 63.4165 5.56893C62.3182 5.8098 61.2969 6.38789 60.5164 7.19722C59.7457 8.00654 59.2157 9.0471 59.023 10.1455C58.9749 10.4152 58.946 10.6947 58.9363 10.9741C58.9267 11.2535 58.9363 11.5329 58.9749 11.8123C59.0038 12.0917 59.0616 12.3615 59.129 12.6313C59.1676 12.7661 59.2061 12.901 59.2543 13.0359L59.3795 13.4406C59.553 13.9801 59.7553 14.51 59.9769 15.0303C60.0829 15.2905 60.2081 15.5506 60.3237 15.8107C60.449 16.0709 60.5646 16.3214 60.6899 16.5815C61.1909 17.6028 61.7401 18.6048 62.3182 19.578L62.2218 19.5298L66.9621 19.578L66.914 19.6069C67.3186 18.9613 67.704 18.2965 68.0798 17.6221C68.4459 16.9477 68.8024 16.2636 69.1203 15.5699C69.4383 14.8762 69.737 14.1632 69.9682 13.4309C70.2091 12.6891 70.3921 11.9279 70.3632 11.1571ZM70.3632 11.1571C70.3921 11.9279 70.2187 12.6891 69.9875 13.4213C69.7562 14.1536 69.4672 14.8665 69.1589 15.5699C68.8409 16.2732 68.5037 16.9573 68.1472 17.6414C67.7907 18.3254 67.415 18.9902 67.0199 19.655L67.0007 19.6839H66.9621L62.2218 19.7321H62.164L62.1351 19.6839C61.8268 19.2022 61.5377 18.7012 61.2583 18.2098C60.9789 17.7088 60.7091 17.2078 60.449 16.6971C60.1889 16.1865 59.948 15.6662 59.7168 15.1363C59.4855 14.616 59.2832 14.0765 59.1001 13.5273L58.9749 13.113C58.9363 12.9781 58.8882 12.8432 58.8496 12.6987C58.7725 12.4193 58.7244 12.1302 58.6858 11.8412C58.6569 11.5522 58.6377 11.2535 58.6569 10.9644C58.6666 10.6754 58.6955 10.3767 58.7533 10.0973C58.8111 9.80825 58.8785 9.52884 58.9749 9.24943C59.0712 8.97002 59.1868 8.70025 59.3217 8.44974C59.5915 7.92946 59.948 7.45736 60.3527 7.0527C61.1716 6.2241 62.2411 5.65565 63.3684 5.43405C64.5053 5.21245 65.7 5.32806 66.7598 5.7809C67.8196 6.2241 68.7446 6.98525 69.3708 7.9391C69.525 8.17997 69.6695 8.43047 69.7948 8.68098C69.92 8.94112 70.0164 9.21089 70.1031 9.48067C70.1898 9.75044 70.2476 10.0299 70.2861 10.3189C70.344 10.5887 70.3632 10.8777 70.3632 11.1571Z" fill="#1F1C3F"/>
<path d="M62.2893 20.4644L63.4359 20.4162L64.6017 20.3776L65.7868 20.3487L66.9815 20.3295H67.1164V20.474C67.126 21.1292 66.8658 21.7843 66.3937 22.2372C66.1625 22.4684 65.8831 22.6515 65.5844 22.7767C65.2857 22.902 64.9582 22.9598 64.6306 22.9501C63.985 22.9405 63.3395 22.6611 62.9059 22.189C62.482 21.7169 62.2508 21.081 62.2893 20.4644ZM62.2893 20.4644C62.3279 21.081 62.5976 21.6687 63.0312 22.0734C63.2432 22.2757 63.5033 22.4395 63.7731 22.5455C64.0429 22.6515 64.3415 22.6996 64.6306 22.6996C65.2183 22.69 65.7868 22.4491 66.1914 22.0348C66.3937 21.8325 66.5575 21.582 66.6732 21.3122C66.7888 21.0424 66.8369 20.7534 66.8466 20.4644L66.9815 20.5992L65.8349 20.58L64.6787 20.5511L63.5033 20.5125L62.2893 20.4644Z" fill="#1F1C3F"/>
<path d="M67.6556 11.5425C67.6653 12.3326 67.3473 13.1226 66.7885 13.6911C66.2393 14.2692 65.4492 14.6257 64.6399 14.6546C64.2353 14.6642 63.821 14.5968 63.4356 14.4522C63.0502 14.3077 62.6937 14.0765 62.395 13.7874C62.0963 13.4984 61.8555 13.1515 61.6917 12.7661C61.5279 12.3807 61.4412 11.9568 61.4412 11.5425C61.4412 11.1186 61.5279 10.7043 61.6917 10.3189C61.8555 9.9335 62.0963 9.58665 62.395 9.2976C62.6937 9.00856 63.0502 8.78696 63.4356 8.6328C63.821 8.48828 64.2353 8.42083 64.6399 8.43047C65.4589 8.45937 66.2393 8.81586 66.7885 9.39395C67.3377 9.9624 67.6556 10.7525 67.6556 11.5425ZM67.6556 11.5425C67.6556 11.1475 67.5689 10.7525 67.4147 10.3863C67.2606 10.0202 67.0294 9.69263 66.7499 9.42285C66.4705 9.15308 66.1333 8.94111 65.7672 8.80623C65.4011 8.67134 65.0157 8.6039 64.6399 8.62317C63.8691 8.65207 63.1369 8.98929 62.6262 9.52884C62.106 10.0684 61.8169 10.8006 61.8169 11.5425C61.8073 12.2844 62.106 13.0166 62.6262 13.5562C63.1369 14.0957 63.8788 14.433 64.6399 14.4619C65.0253 14.4715 65.4107 14.4137 65.7768 14.2788C66.143 14.1439 66.4802 13.9319 66.7596 13.6622C67.039 13.3924 67.2702 13.0648 67.4244 12.6987C67.5689 12.3326 67.646 11.9375 67.6556 11.5425Z" fill="#1F1C3F"/>
<path d="M64.0715 3.85393C64.0137 3.53598 63.9848 3.20839 63.9559 2.89044C63.9366 2.5725 63.927 2.24491 63.927 1.92696C63.927 1.60901 63.9366 1.28143 63.9559 0.963481C63.9752 0.645533 64.0041 0.317949 64.0715 0C64.1293 0.317949 64.1679 0.645533 64.1871 0.963481C64.2064 1.28143 64.216 1.60901 64.216 1.92696C64.216 2.24491 64.2064 2.5725 64.1871 2.89044C64.1582 3.21803 64.1293 3.53598 64.0715 3.85393Z" fill="#1F1C3F"/>
<path d="M71.8372 10.6754C72.1551 10.6176 72.4827 10.5887 72.8006 10.5598C73.1186 10.5405 73.4462 10.5309 73.7641 10.5309C74.0821 10.5309 74.4097 10.5405 74.7276 10.5598C75.0456 10.5791 75.3731 10.608 75.6911 10.6754C75.3731 10.7332 75.0456 10.7718 74.7276 10.791C74.4097 10.8103 74.0821 10.8199 73.7641 10.8199C73.4462 10.8199 73.1186 10.8103 72.8006 10.791C72.4731 10.7621 72.1551 10.7332 71.8372 10.6754Z" fill="#1F1C3F"/>
<path d="M52.4424 11.215C52.7603 11.1571 53.0879 11.1282 53.4059 11.0993C53.7238 11.0801 54.0514 11.0704 54.3693 11.0704C54.6873 11.0704 55.0149 11.0801 55.3328 11.0993C55.6508 11.1186 55.9784 11.1475 56.2963 11.215C55.9784 11.2728 55.6508 11.3113 55.3328 11.3306C55.0149 11.3498 54.6873 11.3595 54.3693 11.3595C54.0514 11.3595 53.7238 11.3498 53.4059 11.3306C53.0783 11.3017 52.7603 11.2728 52.4424 11.215Z" fill="#1F1C3F"/>
<path d="M54.9282 4.59583C55.2365 4.71144 55.5256 4.85597 55.8146 5.00049C56.1037 5.14501 56.3831 5.3088 56.6529 5.47259C56.9323 5.63638 57.202 5.80981 57.4622 6.00251C57.7223 6.18557 57.9825 6.37827 58.233 6.59987C57.9247 6.48425 57.6356 6.34936 57.3466 6.1952C57.0575 6.05068 56.7781 5.88689 56.5083 5.7231C56.2289 5.55931 55.9591 5.38588 55.699 5.19318C55.4292 5.00049 55.1691 4.80779 54.9282 4.59583Z" fill="#1F1C3F"/>
<path d="M70.8643 14.4521C71.1726 14.5678 71.4616 14.7123 71.7507 14.8568C72.0397 15.0013 72.3191 15.1651 72.5889 15.3289C72.8683 15.4927 73.1381 15.6661 73.3982 15.8588C73.6584 16.0419 73.9185 16.2346 74.169 16.4562C73.8607 16.3406 73.5716 16.2057 73.2826 16.0515C72.9935 15.907 72.7141 15.7432 72.4444 15.5794C72.165 15.4156 71.8952 15.2422 71.635 15.0495C71.3653 14.8664 71.1051 14.6737 70.8643 14.4521Z" fill="#1F1C3F"/>
<path d="M55.2556 16.9476C55.4869 16.7163 55.7277 16.5044 55.9782 16.302C56.2287 16.0997 56.4889 15.907 56.749 15.724C57.0092 15.5409 57.2789 15.3578 57.5583 15.194C57.8377 15.0302 58.1172 14.8665 58.4158 14.7316C58.1846 14.9628 57.9437 15.1748 57.6932 15.3771C57.4427 15.5794 57.1826 15.7721 56.9224 15.9552C56.6623 16.1383 56.3925 16.3213 56.1131 16.4851C55.8337 16.6585 55.5543 16.8127 55.2556 16.9476Z" fill="#1F1C3F"/>
<path d="M70.6809 6.31086C70.9121 6.07962 71.153 5.86765 71.4035 5.66532C71.654 5.46299 71.9142 5.2703 72.1743 5.08723C72.4344 4.90417 72.7042 4.72111 72.9836 4.55732C73.263 4.39353 73.5425 4.22974 73.8411 4.09485C73.6099 4.32608 73.369 4.53805 73.1185 4.74038C72.868 4.94271 72.6079 5.13541 72.3477 5.31847C72.0876 5.50153 71.8178 5.68459 71.5384 5.84839C71.259 6.02181 70.9796 6.17597 70.6809 6.31086Z" fill="#1F1C3F"/>
<path d="M0 131.332L20.5607 131.245L41.1214 131.168L82.2524 131.072L123.374 131.014L164.495 130.995L205.626 131.014L246.748 131.072L287.869 131.168L308.439 131.245L329 131.332L308.439 131.429L287.869 131.506L246.748 131.602L205.626 131.66L164.495 131.669L123.374 131.66L82.2524 131.602L41.1214 131.506L20.5607 131.429L0 131.332Z" fill="#1F1C3F"/>
</g>
<defs>
<clipPath id="clip0_185_7027">
<rect width="329" height="131.833" fill="white"/>
</clipPath>
</defs>
</svg>
