<svg width="1440" height="2561" viewBox="0 0 1440 2561" fill="none" xmlns="http://www.w3.org/2000/svg">
<line y1="-5" x2="2557.76" y2="-5" transform="matrix(0.0011729 0.999999 -0.999999 0.00137304 215 3.24626)" stroke="#ECD0D0" stroke-width="10" stroke-dasharray="20 20"/>
<line x1="1219" y1="0.000396729" x2="1219" y2="2526.29" stroke="#ECD0D0" stroke-width="10" stroke-dasharray="20 20"/>
<line x1="1189" y1="3.93403e-07" x2="1189" y2="2530.25" stroke="#ECD0D0" stroke-width="18"/>
<line x1="1248.93" y1="951.2" x2="1248.93" y2="-6.10352e-05" stroke="#ECD0D0" stroke-width="18"/>
<line x1="1249" y1="1962.91" x2="1249" y2="1011.71" stroke="#ECD0D0" stroke-width="18"/>
<line x1="1249" y1="2398.44" x2="1249" y2="2034.32" stroke="#ECD0D0" stroke-width="18"/>
<line x1="256" y1="2531.24" x2="256" y2="203.333" stroke="#ECD0D0" stroke-width="18"/>
<line x1="184" y1="374.99" x2="184" y2="0.000488281" stroke="#ECD0D0" stroke-width="18"/>
<line x1="247" y1="121.927" x2="1187" y2="121.927" stroke="#ECD0D0" stroke-width="18"/>
<line x1="247" y1="203.26" x2="1187" y2="203.26" stroke="#ECD0D0" stroke-width="18"/>
<line x1="256" y1="125.968" x2="256" y2="0.000480652" stroke="#ECD0D0" stroke-width="18"/>
<line x1="185.5" y1="1458.05" x2="185.5" y2="449.314" stroke="#ECD0D0" stroke-width="18"/>
<line x1="185" y1="2531.25" x2="185" y2="1522.52" stroke="#ECD0D0" stroke-width="18"/>
<line x1="1604" y1="975.046" x2="1233" y2="975.046" stroke="#ECD0D0" stroke-width="10" stroke-dasharray="20 20"/>
<line x1="1608" y1="2006.59" x2="1237" y2="2006.59" stroke="#ECD0D0" stroke-width="10" stroke-dasharray="20 20"/>
<line x1="203" y1="1490.82" x2="-168" y2="1490.82" stroke="#ECD0D0" stroke-width="10" stroke-dasharray="20 20"/>
<line x1="206" y1="414.641" x2="-165" y2="414.641" stroke="#ECD0D0" stroke-width="10" stroke-dasharray="20 20"/>
<line x1="982" y1="158.74" x2="248" y2="158.74" stroke="#ECD0D0" stroke-width="10" stroke-dasharray="20 20"/>
<line x1="1240" y1="944.184" x2="1474.36" y2="944.184" stroke="#ECD0D0" stroke-width="18"/>
<line x1="1240" y1="1969.78" x2="1474.36" y2="1969.78" stroke="#ECD0D0" stroke-width="18"/>
<line x1="1240" y1="2041.19" x2="1474.36" y2="2041.19" stroke="#ECD0D0" stroke-width="18"/>
<line x1="1240" y1="1005.68" x2="1474.36" y2="1005.68" stroke="#ECD0D0" stroke-width="18"/>
<line x1="-40" y1="1519.47" x2="194.36" y2="1519.47" stroke="#ECD0D0" stroke-width="18"/>
<line x1="-31" y1="1455.99" x2="194.109" y2="1455.99" stroke="#ECD0D0" stroke-width="18"/>
<line x1="-41" y1="441.308" x2="193.36" y2="441.308" stroke="#ECD0D0" stroke-width="18"/>
<line x1="-41" y1="380.804" x2="193.36" y2="380.804" stroke="#ECD0D0" stroke-width="18"/>
</svg>
