<svg viewBox="0 0 1076 637" preserveAspectRatio="none" fill="none" xmlns="http://www.w3.org/2000/svg">
<rect x="-2.98023e-08" y="0.5" width="449.137" height="449.137" rx="17.3362" transform="matrix(0.866025 0.5 -0.866025 0.5 429.999 0.296875)" fill="#151719" stroke="#525252"/>
<mask id="path-2-inside-1_703_3" fill="white">
<path fill-rule="evenodd" clip-rule="evenodd" d="M49.9712 227.927V983.845L42.3942 988.217C33.8621 993.141 33.8621 1001.12 42.3942 1006.05L413.503 1220.19C422.035 1225.12 435.868 1225.12 444.401 1220.19L815.51 1006.05C824.042 1001.12 824.042 993.141 815.51 988.217L807.931 983.844V228.101L444.551 437.788C436.019 442.711 422.186 442.711 413.654 437.788L49.9712 227.927Z"/>
</mask>
<path fill-rule="evenodd" clip-rule="evenodd" d="M49.9712 227.927V983.845L42.3942 988.217C33.8621 993.141 33.8621 1001.12 42.3942 1006.05L413.503 1220.19C422.035 1225.12 435.868 1225.12 444.401 1220.19L815.51 1006.05C824.042 1001.12 824.042 993.141 815.51 988.217L807.931 983.844V228.101L444.551 437.788C436.019 442.711 422.186 442.711 413.654 437.788L49.9712 227.927Z" fill="url(#paint0_linear_703_3)"/>
<path d="M49.9712 227.927L50.471 227.061L48.9712 226.195V227.927H49.9712ZM49.9712 983.845L50.471 984.711L50.9712 984.422V983.845H49.9712ZM42.3942 988.217L41.8944 987.351L42.3942 988.217ZM42.3942 1006.05L41.8943 1006.91H41.8943L42.3942 1006.05ZM413.503 1220.19L413.003 1221.06L413.503 1220.19ZM444.401 1220.19L444.9 1221.06L444.401 1220.19ZM815.51 1006.05L815.01 1005.18L815.51 1006.05ZM815.51 988.217L816.009 987.351H816.009L815.51 988.217ZM807.931 983.844H806.931V984.421L807.431 984.71L807.931 983.844ZM807.931 228.101H808.931V226.37L807.431 227.235L807.931 228.101ZM444.551 437.788L445.051 438.654L444.551 437.788ZM413.654 437.788L413.154 438.654L413.654 437.788ZM48.9712 227.927V983.845H50.9712V227.927H48.9712ZM49.4714 982.979L41.8944 987.351L42.894 989.083L50.471 984.711L49.4714 982.979ZM41.8944 987.351C37.4463 989.918 34.9951 993.422 34.9951 997.132C34.9951 1000.84 37.4463 1004.35 41.8943 1006.91L42.894 1005.18C38.81 1002.82 36.9951 999.875 36.9951 997.132C36.9951 994.389 38.81 991.44 42.894 989.083L41.8944 987.351ZM41.8943 1006.91L413.003 1221.06L414.003 1219.33L42.894 1005.18L41.8943 1006.91ZM413.003 1221.06C417.457 1223.63 423.232 1224.89 428.952 1224.89C434.672 1224.89 440.447 1223.63 444.9 1221.06L443.901 1219.33C439.822 1221.68 434.414 1222.89 428.952 1222.89C423.489 1222.89 418.081 1221.68 414.003 1219.33L413.003 1221.06ZM444.9 1221.06L816.009 1006.91L815.01 1005.18L443.901 1219.33L444.9 1221.06ZM816.009 1006.91C820.457 1004.35 822.909 1000.84 822.909 997.132C822.909 993.422 820.458 989.918 816.009 987.351L815.01 989.083C819.094 991.44 820.909 994.389 820.909 997.132C820.909 999.875 819.094 1002.82 815.01 1005.18L816.009 1006.91ZM816.009 987.351L808.43 982.978L807.431 984.71L815.01 989.083L816.009 987.351ZM808.931 983.844V228.101H806.931V983.844H808.931ZM807.431 227.235L444.051 436.922L445.051 438.654L808.43 228.967L807.431 227.235ZM444.051 436.922C439.973 439.275 434.565 440.48 429.102 440.48C423.64 440.48 418.232 439.275 414.153 436.922L413.154 438.654C417.607 441.224 423.382 442.48 429.102 442.48C434.822 442.48 440.597 441.224 445.051 438.654L444.051 436.922ZM414.153 436.922L50.471 227.061L49.4714 228.793L413.154 438.654L414.153 436.922Z" fill="black" mask="url(#path-2-inside-1_703_3)"/>
<path d="M341.099 63.9354L711.219 260.589L711.219 277.624L543.592 374.403L190.506 170.549L173.473 160.715L173.472 143.68L341.099 63.9354Z" fill="url(#paint1_linear_703_3)"/>
<rect width="427.377" height="193.559" transform="matrix(0.866025 0.5 -0.866025 0.5 341.099 46.9014)" fill="#2F3133"/>
<path d="M619.36 301.238L275.39 102.646" stroke="#BB8F1E" stroke-width="4.34441" stroke-dasharray="18.62 6.21"/>
<mask id="path-7-inside-2_703_3" fill="white">
<path fill-rule="evenodd" clip-rule="evenodd" d="M591.857 518.402V718.266L590.093 719.195C583.193 722.83 583.193 728.722 590.093 732.357L814.111 850.352C821.011 853.986 832.199 853.986 839.099 850.352L1063.12 732.357C1070.02 728.722 1070.02 722.83 1063.12 719.195L1062.35 718.794V518.402L872.129 618.598L839.599 635.732C832.699 639.367 821.512 639.367 814.612 635.732L781.582 618.334L591.857 518.402Z"/>
</mask>
<path fill-rule="evenodd" clip-rule="evenodd" d="M591.857 518.402V718.266L590.093 719.195C583.193 722.83 583.193 728.722 590.093 732.357L814.111 850.352C821.011 853.986 832.199 853.986 839.099 850.352L1063.12 732.357C1070.02 728.722 1070.02 722.83 1063.12 719.195L1062.35 718.794V518.402L872.129 618.598L839.599 635.732C832.699 639.367 821.512 639.367 814.612 635.732L781.582 618.334L591.857 518.402Z" fill="url(#paint2_linear_703_3)"/>
<path d="M591.857 718.266L592.323 719.151L592.857 718.87V718.266H591.857ZM591.857 518.402L592.323 517.518L590.857 516.746V518.402H591.857ZM590.093 719.195L589.627 718.311H589.627L590.093 719.195ZM590.093 732.357L590.56 731.472H590.56L590.093 732.357ZM814.111 850.352L814.577 849.467L814.111 850.352ZM839.099 850.352L838.632 849.467L839.099 850.352ZM1063.12 732.357L1062.65 731.472L1063.12 732.357ZM1063.12 719.195L1063.58 718.311L1063.12 719.195ZM1062.35 718.794H1061.35V719.398L1061.89 719.679L1062.35 718.794ZM1062.35 518.402H1063.35V516.745L1061.89 517.518L1062.35 518.402ZM872.129 618.598L872.595 619.483L872.129 618.598ZM839.599 635.732L839.133 634.847H839.133L839.599 635.732ZM814.612 635.732L815.078 634.847L814.612 635.732ZM781.582 618.334L781.116 619.219L781.582 618.334ZM592.857 718.266V518.402H590.857V718.266H592.857ZM590.56 720.08L592.323 719.151L591.391 717.381L589.627 718.311L590.56 720.08ZM590.56 731.472C587.268 729.738 585.918 727.627 585.918 725.776C585.918 723.925 587.268 721.814 590.56 720.08L589.627 718.311C586.019 720.211 583.918 722.864 583.918 725.776C583.918 728.688 586.019 731.341 589.627 733.241L590.56 731.472ZM814.577 849.467L590.56 731.472L589.627 733.241L813.645 851.237L814.577 849.467ZM838.632 849.467C835.362 851.189 831.011 852.078 826.605 852.078C822.199 852.078 817.847 851.189 814.577 849.467L813.645 851.237C817.275 853.149 821.967 854.078 826.605 854.078C831.242 854.078 835.935 853.149 839.565 851.237L838.632 849.467ZM1062.65 731.472L838.632 849.467L839.565 851.237L1063.58 733.241L1062.65 731.472ZM1062.65 720.08C1065.94 721.814 1067.29 723.925 1067.29 725.776C1067.29 727.627 1065.94 729.738 1062.65 731.472L1063.58 733.241C1067.19 731.341 1069.29 728.688 1069.29 725.776C1069.29 722.864 1067.19 720.211 1063.58 718.311L1062.65 720.08ZM1061.89 719.679L1062.65 720.08L1063.58 718.311L1062.82 717.91L1061.89 719.679ZM1061.35 518.402V718.794H1063.35V518.402H1061.35ZM1061.89 517.518L871.663 617.714L872.595 619.483L1062.82 519.287L1061.89 517.518ZM871.663 617.714L839.133 634.847L840.065 636.617L872.595 619.483L871.663 617.714ZM839.133 634.847C835.863 636.57 831.512 637.458 827.106 637.458C822.7 637.458 818.348 636.57 815.078 634.847L814.146 636.617C817.776 638.529 822.468 639.458 827.106 639.458C831.743 639.458 836.435 638.529 840.065 636.617L839.133 634.847ZM815.078 634.847L782.048 617.45L781.116 619.219L814.146 636.617L815.078 634.847ZM782.048 617.45L592.323 517.518L591.391 519.287L781.116 619.219L782.048 617.45Z" fill="#343131" mask="url(#path-7-inside-2_703_3)"/>
<rect x="-2.98023e-08" y="0.471212" width="277.338" height="277.338" rx="13.6207" transform="matrix(0.88202 0.471212 -0.88202 0.471212 830.916 387.249)" fill="#151719" stroke="#3A3A3A"/>
<path fill-rule="evenodd" clip-rule="evenodd" d="M774.585 218.708H761.678V488.478C761.401 489.542 761.401 490.66 761.678 491.724V491.781H761.694C761.986 492.859 762.564 493.878 763.429 494.722C766.041 497.275 770.275 497.275 772.887 494.722C774.669 492.981 775.235 490.501 774.585 488.291V218.708Z" fill="url(#paint3_linear_703_3)"/>
<rect width="185.164" height="97.7945" rx="7.72475" transform="matrix(0.866025 0.5 -2.20305e-08 1 689.986 109)" fill="#ABABAB"/>
<rect width="185.164" height="97.7945" rx="7.72475" transform="matrix(0.866025 0.5 -2.20305e-08 1 688 110.489)" fill="#D9D9D9"/>
<rect x="0.692051" y="1.19867" width="170.659" height="83.2894" rx="6.92564" transform="matrix(0.866025 0.5 -2.20305e-08 1 693.252 119.574)" stroke="black" stroke-width="1.59822"/>
<path d="M739.128 200.275L739.128 176.334L742.954 178.543L742.954 188.305L750.018 182.621L754.757 185.357L747.237 191.293L754.716 209.275L750.099 206.609L744.578 193.191L743.035 194.269L743.035 202.531L739.128 200.275ZM756.178 186.178L762.501 189.828L766.113 208.859L766.195 208.906L769.818 194.053L776.13 197.697L776.13 221.639L772.304 219.43L772.304 201.828L772.355 198.752L771.919 200.996L767.818 216.84L764.49 214.918L760.44 194.416L759.943 191.457L760.004 194.668L760.004 212.328L756.178 210.119L756.178 186.178ZM779.682 199.748L783.508 201.957L783.508 219.043C783.508 219.285 783.522 219.547 783.549 219.828C783.576 220.109 783.634 220.404 783.722 220.713C783.81 221.021 783.931 221.338 784.087 221.662C784.249 221.982 784.459 222.307 784.716 222.635C784.98 222.959 785.301 223.285 785.68 223.613C786.059 223.933 786.512 224.246 787.04 224.551C787.575 224.859 788.031 225.072 788.41 225.189C788.796 225.303 789.121 225.349 789.385 225.33C789.648 225.303 789.862 225.223 790.024 225.09C790.186 224.949 790.311 224.775 790.399 224.568C790.487 224.361 790.545 224.133 790.572 223.883C790.599 223.633 790.613 223.387 790.613 223.144L790.613 206.058L794.398 208.244L794.398 225.424C794.398 226.658 794.219 227.621 793.86 228.312C793.502 229.004 792.997 229.455 792.348 229.666C791.705 229.873 790.931 229.855 790.024 229.613C789.124 229.375 788.129 228.941 787.04 228.312C785.951 227.683 784.953 226.967 784.046 226.162C783.146 225.361 782.372 224.484 781.722 223.531C781.079 222.574 780.579 221.543 780.22 220.437C779.862 219.332 779.682 218.162 779.682 216.928L779.682 199.748ZM796.458 209.433L810.717 217.666L810.717 221.474L805.562 218.498L805.562 238.631L801.695 236.398L801.695 216.266L796.458 213.242L796.458 209.433ZM811.925 218.363L826.184 226.596L826.184 230.404L821.028 227.428L821.028 247.56L817.162 245.328L817.162 225.195L811.925 222.172L811.925 218.363Z" fill="black"/>
<path d="M719.706 162.054L706.486 169.686L719.706 192.584" stroke="black" stroke-width="1.86459"/>
<path fill-rule="evenodd" clip-rule="evenodd" d="M160.145 95.7328C166.118 99.1813 175.803 99.1813 181.776 95.7328C184.763 94.0083 186.256 91.748 186.255 89.4878H186.256V816.716C187.072 819.448 185.653 822.359 182 824.469C176.026 827.918 166.342 827.918 160.369 824.469C157.382 822.744 155.888 820.483 155.889 818.223H155.846L155.846 90.8469C156.326 92.6353 157.759 94.355 160.145 95.7328Z" fill="url(#paint4_linear_703_3)"/>
<path d="M181.368 311.764L323.86 394.032L345.728 425.391L341.831 427.427L323.86 431.5L181.368 349.232L177.295 314.207L181.368 311.764Z" fill="#440202"/>
<path d="M177.568 313.936L320.06 396.204L341.927 427.563L320.06 433.672L177.568 351.405L177.568 313.936Z" fill="#5D0505"/>
<path d="M182.17 170.578L324.203 252.846L346 284.206L342.116 286.241L324.203 290.315L182.17 208.047L178.111 173.021L182.17 170.578Z" fill="#991616"/>
<path d="M178.382 172.75L320.414 255.018L342.211 286.378L320.414 292.487L178.382 210.219L178.382 172.75Z" fill="#C12121"/>
<path d="M164.359 243.887L21.8675 326.155L-0.000109252 357.514L3.89662 359.55L21.8675 363.623L164.359 281.355L168.432 246.33L164.359 243.887Z" fill="#680505"/>
<path d="M168.16 246.057L25.6684 328.325L3.80087 359.684L25.6684 365.793L168.16 283.526L168.16 246.057Z" fill="#8F0202"/>
<circle r="12.4883" transform="matrix(0.866025 0.5 -0.866025 0.5 170.96 89.4883)" fill="#414141"/>
<defs>
<linearGradient id="paint0_linear_703_3" x1="36.6533" y1="594.717" x2="821.909" y2="594.717" gradientUnits="userSpaceOnUse">
<stop offset="0.355456" stop-color="#121416"/>
<stop offset="0.505623" stop-color="#1F2326"/>
<stop offset="0.649117" stop-color="#1C1F22"/>
</linearGradient>
<linearGradient id="paint1_linear_703_3" x1="709.241" y1="413.888" x2="295.8" y2="652.588" gradientUnits="userSpaceOnUse">
<stop offset="0.183056" stop-color="#42484E"/>
<stop offset="0.223252" stop-color="#6D7782"/>
<stop offset="0.255717" stop-color="#292B2D"/>
</linearGradient>
<linearGradient id="paint2_linear_703_3" x1="585.323" y1="641.656" x2="1068.29" y2="641.656" gradientUnits="userSpaceOnUse">
<stop offset="0.355456" stop-color="#121416"/>
<stop offset="0.505623" stop-color="#1F2326"/>
<stop offset="0.649117" stop-color="#1C1F22"/>
</linearGradient>
<linearGradient id="paint3_linear_703_3" x1="761.678" y1="407.759" x2="775.082" y2="407.759" gradientUnits="userSpaceOnUse">
<stop offset="0.1875" stop-color="#514F4F"/>
<stop offset="0.489583" stop-color="#8C8C8C"/>
<stop offset="0.796875" stop-color="#828282"/>
</linearGradient>
<linearGradient id="paint4_linear_703_3" x1="155.846" y1="479.378" x2="186.255" y2="479.378" gradientUnits="userSpaceOnUse">
<stop stop-color="#343434"/>
<stop offset="0.495567" stop-color="#929292"/>
<stop offset="1" stop-color="#525252"/>
</linearGradient>
</defs>
</svg>
