<svg width="485" height="838" viewBox="0 0 485 838" fill="none" xmlns="http://www.w3.org/2000/svg">
<path d="M207.534 417.61L415.281 297.805L207.534 178L0 297.805L207.534 417.61Z" fill="#C6B9B6"/>
<path d="M0 297.804L207.534 417.609V837.351L0 717.333V297.804Z" fill="#A59B97"/>
<path d="M207.534 837.351L415.281 717.333V297.804L207.534 417.609V837.351Z" fill="#D9D1D1"/>
<g clip-path="url(#clip0_1188_4)">
<path d="M85 170.226L85.7407 185.768L360.556 347.113V330.09L85 170.226Z" fill="#B27E46"/>
<path d="M360.556 330.091L443.519 282.724V299.746L360.556 347.113V330.091Z" fill="#8C5B2F"/>
<path d="M313.889 318.988V393L390.926 347.113V330.09L360.556 347.113L313.889 318.988Z" fill="#7C4F23"/>
<path d="M298.333 310.107V384.859L313.889 393V318.989L298.333 310.107Z" fill="#B27E46"/>
<path d="M135.37 215.373V291.605L201.296 253.859L192.407 248.678L187.222 245.718L135.37 215.373Z" fill="#7C4F23"/>
<path d="M123.519 207.972V283.463L135.37 291.604V213.893L123.519 207.972Z" fill="#B27E46"/>
<path d="M191.667 6.66102L207.222 0L485 162.085L471.667 169.486L191.667 6.66102Z" fill="#D8A97D"/>
<path d="M471.667 169.486L456.111 261.26L468.704 254.599L485 162.085L471.667 169.486Z" fill="#8C5B2F"/>
<path d="M216.852 108.797L205.741 148.023L216.852 156.164L231.667 111.017L216.852 108.797Z" fill="#A07245"/>
<path d="M241.296 119.898L227.963 162.084L216.852 156.163L231.667 111.017L241.296 119.898Z" fill="#8C5B2F"/>
<path d="M383.519 209.452L372.407 248.678L383.519 256.819L398.333 211.672L383.519 209.452Z" fill="#A07245"/>
<path d="M407.963 220.553L394.63 262.74L383.519 256.819L398.333 211.672L407.963 220.553Z" fill="#8C5B2F"/>
<path d="M85 170.226L360.556 330.091L443.519 282.724L169.444 121.379L85 170.226Z" fill="#CCA071"/>
<path d="M175.37 98.4352L191.667 6.66113L471.667 169.486L456.111 261.26L175.37 98.4352Z" fill="#BA8652"/>
<path d="M112.407 170.226L170.185 136.921L415.37 280.503L360.556 313.068L112.407 170.226Z" fill="#89817D"/>
</g>
<defs>
<clipPath id="clip0_1188_4">
<rect width="400" height="393" fill="white" transform="translate(85)"/>
</clipPath>
</defs>
</svg>
