<svg width="55" height="58" viewBox="0 0 55 58" fill="none" xmlns="http://www.w3.org/2000/svg">
<path d="M53.5 28.7884C53.5 43.7858 41.8066 55.8461 27.5 55.8461C13.1934 55.8461 1.5 43.7858 1.5 28.7884C1.5 13.791 13.1934 1.73071 27.5 1.73071C41.8066 1.73071 53.5 13.791 53.5 28.7884Z" fill="#E46E18" stroke="#8C2B0C" stroke-width="3"/>
<path d="M50.6436 25.6809C50.7275 26.3621 50.7843 27.0521 50.8126 27.7498L50.313 27.7701C50.3267 28.1077 50.3337 28.4472 50.3337 28.7884C50.3337 29.1296 50.3267 29.4691 50.313 29.8067L50.8126 29.827C50.7843 30.5247 50.7275 31.2147 50.6436 31.8958L50.1473 31.8347C50.0637 32.5127 49.9526 33.1817 49.8152 33.8405L50.3047 33.9426C50.1625 34.6242 49.9927 35.2951 49.7966 35.954L49.3173 35.8113C49.1228 36.4649 48.9018 37.1063 48.6557 37.7344L49.1212 37.9168C48.8675 38.564 48.5877 39.1973 48.2831 39.8153L47.8346 39.5942C47.5338 40.2044 47.2083 40.7993 46.8594 41.3775L47.2875 41.6358C46.929 42.23 46.5463 42.807 46.141 43.3651L45.7364 43.0713C45.3372 43.621 44.9155 44.152 44.4728 44.663L44.8506 44.9904C44.3967 45.5143 43.921 46.0175 43.4252 46.4986L43.077 46.1397C42.5902 46.6119 42.0836 47.0622 41.5586 47.4892L41.8741 47.8771C41.3371 48.3138 40.7812 48.7265 40.2079 49.1138L39.928 48.6995C39.3673 49.0783 38.7897 49.4322 38.1966 49.7597L38.4382 50.1974C37.8334 50.5313 37.2128 50.8384 36.5779 51.1171L36.3769 50.6593C35.7592 50.9304 35.1277 51.1741 34.4837 51.3889L34.6419 51.8632C33.9885 52.0811 33.3227 52.2699 32.6456 52.4281L32.5318 51.9412C31.8772 52.0942 31.2119 52.218 30.5372 52.3112L30.6056 52.8065C29.9254 52.9004 29.236 52.9639 28.5387 52.9956L28.516 52.4961C28.1793 52.5114 27.8407 52.5192 27.5003 52.5192C27.16 52.5192 26.8214 52.5114 26.4847 52.4961L26.462 52.9956C25.7646 52.9639 25.0752 52.9004 24.395 52.8065L24.4634 52.3112C23.7888 52.218 23.1235 52.0942 22.4688 51.9412L22.355 52.4281C21.678 52.2699 21.0121 52.0811 20.3588 51.8632L20.517 51.3889C19.873 51.1741 19.2415 50.9304 18.6237 50.6593L18.4228 51.1171C17.7878 50.8384 17.1672 50.5313 16.5624 50.1974L16.8041 49.7597C16.211 49.4322 15.6333 49.0783 15.0726 48.6995L14.7927 49.1138C14.2194 48.7265 13.6636 48.3138 13.1266 47.8771L13.442 47.4892C12.917 47.0622 12.4104 46.6119 11.9236 46.1397L11.5755 46.4986C11.0796 46.0175 10.604 45.5143 10.15 44.9904L10.5279 44.663C10.0852 44.152 9.66348 43.621 9.26425 43.0713L8.85969 43.3651C8.45432 42.807 8.07165 42.23 7.71312 41.6358L8.14123 41.3775C7.79239 40.7993 7.46687 40.2044 7.16602 39.5942L6.71756 39.8152C6.41293 39.1973 6.1331 38.564 5.87945 37.9168L6.34497 37.7343C6.09885 37.1063 5.87786 36.4649 5.68331 35.8113L5.2041 35.954C5.00796 35.2951 4.83816 34.6242 4.69598 33.9426L5.18545 33.8405C5.04802 33.1817 4.93691 32.5127 4.85332 31.8347L4.35708 31.8958C4.27311 31.2147 4.21637 30.5246 4.18804 29.827L4.68763 29.8067C4.67392 29.4691 4.66699 29.1296 4.66699 28.7884C4.66699 28.4472 4.67392 28.1077 4.68763 27.77L4.18804 27.7498C4.21637 27.0521 4.27311 26.3621 4.35708 25.6809L4.85332 25.7421C4.93691 25.0641 5.04802 24.395 5.18545 23.7363L4.69598 23.6341C4.83817 22.9526 5.00796 22.2817 5.2041 21.6228L5.68332 21.7654C5.87787 21.1119 6.09885 20.4704 6.34498 19.8424L5.87945 19.66C6.13311 19.0127 6.41293 18.3794 6.71756 17.7615L7.16602 17.9826C7.46687 17.3724 7.7924 16.7774 8.14123 16.1993L7.71312 15.941C8.07165 15.3467 8.45432 14.7698 8.85969 14.2116L9.26425 14.5055C9.66348 13.9558 10.0852 13.4247 10.5279 12.9138L10.15 12.5864C10.604 12.0625 11.0796 11.5592 11.5755 11.0782L11.9236 11.4371C12.4104 10.9648 12.917 10.5145 13.442 10.0876L13.1266 9.69969C13.6636 9.26302 14.2194 8.85025 14.7927 8.46293L15.0726 8.87724C15.6333 8.49842 16.211 8.14454 16.8041 7.81708L16.5624 7.37937C17.1672 7.04546 17.7878 6.73839 18.4228 6.45967L18.6237 6.9175C19.2415 6.64635 19.873 6.40267 20.517 6.18791L20.3588 5.7136C21.0121 5.49571 21.678 5.30692 22.355 5.14869L22.4688 5.63556C23.1235 5.48256 23.7888 5.35878 24.4634 5.26562L24.395 4.77032C25.0752 4.67639 25.7646 4.61289 26.462 4.58118L26.4847 5.08066C26.8214 5.06535 27.16 5.05762 27.5003 5.05762C27.8407 5.05762 28.1793 5.06535 28.516 5.08066L28.5387 4.58118C29.236 4.61289 29.9255 4.67639 30.6056 4.77032L30.5372 5.26562C31.2119 5.35879 31.8772 5.48256 32.5318 5.63557L32.6456 5.14869C33.3227 5.30692 33.9885 5.49571 34.6419 5.7136L34.4837 6.18791C35.1277 6.40267 35.7592 6.64635 36.3769 6.9175L36.5779 6.45967C37.2128 6.73839 37.8335 7.04546 38.4382 7.37937L38.1966 7.81709C38.7897 8.14454 39.3673 8.49843 39.928 8.87724L40.2079 8.46293C40.7812 8.85025 41.3371 9.26302 41.8741 9.69969L41.5586 10.0876C42.0836 10.5145 42.5902 10.9648 43.077 11.4371L43.4252 11.0782C43.921 11.5592 44.3967 12.0625 44.8506 12.5864L44.4728 12.9138C44.9155 13.4247 45.3372 13.9558 45.7364 14.5055L46.141 14.2116C46.5463 14.7698 46.929 15.3467 47.2875 15.941L46.8594 16.1993C47.2083 16.7774 47.5338 17.3724 47.8346 17.9826L48.2831 17.7615C48.5877 18.3794 48.8675 19.0127 49.1212 19.66L48.6557 19.8424C48.9018 20.4704 49.1228 21.1119 49.3173 21.7655L49.7966 21.6228C49.9927 22.2817 50.1625 22.9526 50.3047 23.6342L49.8152 23.7363C49.9526 24.395 50.0637 25.0641 50.1473 25.7421L50.6436 25.6809Z" fill="#E46E18" stroke="#8C2B0C" stroke-dasharray="2 2"/>
<mask id="mask0_1080_1243" style="mask-type:alpha" maskUnits="userSpaceOnUse" x="18" y="27" width="21" height="22">
<path d="M37.7689 35.8055L36.8938 35.4757C36.854 35.4757 36.8142 35.4345 36.7745 35.352C36.3767 34.4039 36.1778 33.8679 35.78 32.8785C35.78 32.8373 35.78 32.7961 35.78 32.7136L36.1778 31.8479C36.2176 31.8067 36.2176 31.7242 36.1778 31.683C35.8596 31.1883 35.5016 30.7348 35.0641 30.3226C34.6663 29.9103 34.2288 29.5393 33.7514 29.1683C33.7117 29.1271 33.6321 29.1271 33.5923 29.1683L32.757 29.5805C32.7173 29.6218 32.6377 29.6218 32.5979 29.5805C31.6831 29.1683 31.166 28.9622 30.2113 28.5499C30.1716 28.5499 30.1318 28.5087 30.092 28.4262C30.0125 28.2201 29.8534 27.7254 29.7738 27.5193C29.7738 27.4781 29.6943 27.4368 29.6545 27.3956C29.0976 27.3132 28.5407 27.2307 27.9441 27.2307C27.3474 27.2307 26.7906 27.2719 26.2337 27.3956C26.1939 27.3956 26.1144 27.4368 26.1144 27.5193L25.7962 28.4262C25.7962 28.4675 25.7564 28.5087 25.6768 28.5499C24.762 28.9622 24.2449 29.1683 23.2903 29.5805C23.2505 29.5805 23.2107 29.5805 23.1312 29.5805C22.972 29.4981 22.4947 29.2507 22.2958 29.1683C22.2561 29.1271 22.1765 29.1683 22.1367 29.1683C21.6594 29.4981 21.2219 29.8691 20.8241 30.3226C20.4264 30.7348 20.0684 31.1883 19.7104 31.683C19.6706 31.7242 19.6706 31.8067 19.7104 31.8479L20.1081 32.7136C20.1479 32.7549 20.1479 32.7961 20.1081 32.8785C19.7104 33.8267 19.5115 34.3626 19.1137 35.352C19.1137 35.3933 19.074 35.4345 18.9944 35.4757L18.1193 35.8055C18.0796 35.8467 18.0398 35.8879 18 35.9292C18.1591 36.5063 18.1193 37.0835 18.1193 37.7018C18.1193 38.3202 18.1591 38.8974 18.2784 39.4745C18.2784 39.5157 18.3182 39.5982 18.3978 39.5982L19.2728 39.928C19.3126 39.928 19.3524 39.9692 19.3922 40.0517C19.7899 40.9998 19.9888 41.5358 20.3866 42.5252C20.3866 42.5664 20.3866 42.6076 20.3866 42.6901L19.9888 43.5558C19.949 43.597 19.949 43.6795 19.9888 43.7207C20.307 44.2154 20.665 44.6689 21.1026 45.0811C21.5003 45.4934 21.9379 45.8644 22.4152 46.2354C22.455 46.2766 22.5345 46.2766 22.5743 46.2354L23.4096 45.8232C23.4494 45.7819 23.4891 45.7819 23.5687 45.8232C24.4836 46.2354 25.0006 46.4415 25.9553 46.8538C25.9951 46.8538 26.0348 46.895 26.0746 46.9775C26.1542 47.1836 26.3133 47.6783 26.3928 47.8844C26.3928 47.9256 26.4724 47.9669 26.5121 48.0081C27.069 48.0905 27.6259 48.173 28.2225 48.173C28.7794 48.173 29.376 48.1318 29.9329 48.0081C29.9727 48.0081 30.0522 47.9669 30.0522 47.8844L30.3705 46.9775C30.3705 46.9362 30.4102 46.895 30.4898 46.8538C31.4046 46.4415 31.9217 46.2354 32.8764 45.8232C32.9161 45.8232 32.9559 45.8232 32.9957 45.8232C33.1548 45.9056 33.6321 46.153 33.831 46.2354C33.8708 46.2766 33.9503 46.2766 33.9901 46.2354C34.4276 45.9468 34.8254 45.5758 35.1834 45.2048C35.2232 45.1636 35.2629 45.1223 35.3027 45.0811C35.7005 44.6689 36.0585 44.2154 36.3767 43.7207C36.4165 43.6795 36.4165 43.597 36.3767 43.5558L35.9789 42.6901C35.9789 42.6488 35.9391 42.6076 35.9789 42.5664C36.0187 42.4015 36.0983 42.2778 36.138 42.1541C36.1778 42.0305 36.0983 41.9068 35.9789 41.9068H32.7173C32.6775 41.9068 32.6377 41.9068 32.5979 41.948C31.524 43.1848 29.9329 43.968 28.1828 43.968C25.6768 43.968 23.5289 42.3603 22.6538 40.0929C22.6141 39.9692 22.6936 39.8455 22.8129 39.8455C24.6427 39.8455 36.8142 39.8455 37.4109 39.8455H37.4506L37.8882 39.6806C37.928 39.6806 37.9677 39.5982 38.0075 39.557C38.0871 38.9798 38.1666 38.4027 38.1666 37.7843C38.1666 37.1659 38.1268 36.5888 38.0075 36.0116C37.8484 35.8879 37.8086 35.8467 37.7689 35.8055ZM28.3021 38.6912C27.5463 38.8561 26.9099 38.1965 27.1088 37.4545C27.1883 37.0835 27.4668 36.7949 27.8248 36.7124C28.5805 36.5475 29.2169 37.2071 29.0181 37.9492C28.9385 38.3202 28.6601 38.6088 28.3021 38.6912ZM22.6538 35.6406C22.5345 35.6406 22.455 35.5169 22.4947 35.3932C23.3698 33.1259 25.5177 31.5181 28.0236 31.5181C30.5296 31.5181 32.6775 33.1259 33.5526 35.3932C33.5923 35.5169 33.5128 35.6406 33.3935 35.6406C32.0013 35.6406 24.1256 35.6406 22.6538 35.6406Z" fill="white"/>
</mask>
<g mask="url(#mask0_1080_1243)">
<rect x="18.1089" y="27.1189" width="21.2495" height="22.5171" fill="white"/>
</g>
<path d="M16.0135 21.6528L15.2323 24.8462H14.2337L13.013 19.8584H14.0238L14.7537 23.1152L15.5326 19.8584H16.5335L17.2537 23.1543L18.0423 19.8584H19.0433L17.7225 24.8462H16.724L16.0135 21.6528ZM20.7108 21.0059C20.9728 21.0059 21.1982 21.0514 21.387 21.1426C21.5775 21.2321 21.7337 21.3623 21.8558 21.5332C21.9779 21.7025 22.0674 21.9084 22.1243 22.1509C22.1829 22.3918 22.2122 22.6636 22.2122 22.9663C22.2122 23.3162 22.1764 23.6149 22.1048 23.8623C22.0332 24.1081 21.9315 24.3091 21.7996 24.4653C21.6678 24.6216 21.5091 24.7363 21.3236 24.8096C21.1396 24.8812 20.9354 24.917 20.7108 24.917C20.491 24.917 20.2892 24.882 20.1053 24.812C19.9214 24.7404 19.7635 24.6265 19.6317 24.4702C19.4998 24.314 19.3965 24.1121 19.3216 23.8647C19.2484 23.6174 19.2118 23.3179 19.2118 22.9663C19.2118 22.6619 19.2402 22.3885 19.2972 22.146C19.3542 21.9035 19.4429 21.6976 19.5633 21.5283C19.6854 21.359 19.8408 21.2297 20.0296 21.1401C20.2184 21.0506 20.4455 21.0059 20.7108 21.0059ZM20.7108 24.187C20.8101 24.187 20.8963 24.1602 20.9696 24.1064C21.0444 24.0511 21.1063 23.9722 21.1551 23.8696C21.2039 23.7655 21.2406 23.6377 21.265 23.4863C21.2894 23.335 21.3016 23.1616 21.3016 22.9663C21.3016 22.7645 21.2902 22.5854 21.2674 22.4292C21.2463 22.2729 21.2113 22.1427 21.1624 22.0386C21.1136 21.9328 21.0509 21.853 20.9744 21.7993C20.8996 21.744 20.8084 21.7163 20.701 21.7163C20.5008 21.7163 20.3543 21.8221 20.2616 22.0337C20.1688 22.2453 20.1224 22.5562 20.1224 22.9663C20.1224 23.1584 20.1338 23.3301 20.1566 23.4814C20.181 23.6328 20.2176 23.7606 20.2664 23.8647C20.3153 23.9689 20.3763 24.0487 20.4495 24.104C20.5228 24.1593 20.6099 24.187 20.7108 24.187ZM23.7845 21.4697C23.8447 21.3916 23.909 21.3232 23.9774 21.2646C24.0474 21.2061 24.1271 21.1589 24.2166 21.123C24.3062 21.0856 24.4071 21.0612 24.5194 21.0498C24.6317 21.0368 24.7603 21.0392 24.9051 21.0571V21.8555C24.7277 21.8262 24.5698 21.8302 24.4315 21.8677C24.2931 21.9035 24.1768 21.9629 24.0824 22.0459C23.988 22.1289 23.9163 22.2298 23.8675 22.3486C23.8187 22.4674 23.7943 22.5944 23.7943 22.7295V24.8462H22.9447V21.0669H23.7845V21.4697ZM25.3665 24.8462V19.7461H26.2479V22.3462L27.327 21.0669H28.3182L27.0462 22.5757L28.2767 24.8462H27.3563L26.4578 23.2568L26.2479 23.4863V24.8462H25.3665ZM30.1468 22.3169C30.1631 22.1151 30.1403 21.9645 30.0785 21.8652C30.0166 21.766 29.9132 21.7163 29.7684 21.7163C29.7163 21.7163 29.6667 21.7236 29.6195 21.7383C29.5739 21.7529 29.534 21.7749 29.4998 21.8042C29.4657 21.8335 29.438 21.8701 29.4168 21.9141C29.3973 21.958 29.3875 22.0085 29.3875 22.0654C29.3875 22.1289 29.3997 22.1842 29.4242 22.2314C29.4502 22.277 29.4852 22.3177 29.5291 22.3535C29.5731 22.3877 29.6243 22.4178 29.6829 22.4438C29.7415 22.4699 29.8034 22.4943 29.8685 22.5171C29.9596 22.548 30.0549 22.5814 30.1541 22.6172C30.2534 22.653 30.3511 22.6937 30.4471 22.7393C30.5431 22.7848 30.6335 22.8369 30.7181 22.8955C30.8044 22.9525 30.88 23.0192 30.9452 23.0957C31.0103 23.1722 31.0615 23.2593 31.099 23.3569C31.138 23.453 31.1576 23.5628 31.1576 23.6865C31.1576 23.877 31.1266 24.0479 31.0648 24.1992C31.0046 24.3506 30.915 24.48 30.7962 24.5874C30.679 24.6932 30.535 24.7746 30.3641 24.8315C30.1932 24.8885 29.9979 24.917 29.7782 24.917C29.5535 24.917 29.3558 24.8918 29.1849 24.8413C29.014 24.7909 28.87 24.7095 28.7528 24.5972C28.6372 24.4849 28.5493 24.3392 28.4891 24.1602C28.4305 23.9811 28.3996 23.763 28.3963 23.5059H29.2777C29.2679 23.7158 29.3037 23.8818 29.3851 24.0039C29.4665 24.126 29.5975 24.187 29.7782 24.187C29.9344 24.187 30.0549 24.1504 30.1395 24.0771C30.2241 24.0039 30.2664 23.8973 30.2664 23.7573C30.2664 23.6873 30.2518 23.6279 30.2225 23.5791C30.1932 23.5286 30.1533 23.4855 30.1029 23.4497C30.0524 23.4123 29.993 23.3797 29.9246 23.3521C29.8579 23.3228 29.7855 23.2943 29.7074 23.2666C29.6162 23.234 29.5226 23.1991 29.4266 23.1616C29.3322 23.1242 29.2394 23.0827 29.1483 23.0371C29.0588 22.9899 28.9741 22.9378 28.8944 22.8809C28.8162 22.8223 28.7471 22.7547 28.6868 22.6782C28.6283 22.6017 28.5819 22.5155 28.5477 22.4194C28.5135 22.3218 28.4964 22.2111 28.4964 22.0874C28.4964 21.9165 28.5257 21.7643 28.5843 21.6309C28.6429 21.4974 28.7259 21.3843 28.8333 21.2915C28.9408 21.1987 29.0693 21.1279 29.2191 21.0791C29.3688 21.0303 29.5348 21.0059 29.7171 21.0059C29.9271 21.0059 30.1143 21.0319 30.2786 21.084C30.443 21.1344 30.5822 21.2134 30.6961 21.3208C30.8101 21.4266 30.8955 21.5625 30.9525 21.7285C31.0111 21.8929 31.0396 22.089 31.0379 22.3169H30.1468ZM32.7518 21.4966C32.8022 21.4217 32.8584 21.3542 32.9202 21.2939C32.9837 21.2337 33.0513 21.1825 33.1229 21.1401C33.1945 21.0962 33.2694 21.0628 33.3475 21.04C33.4272 21.0173 33.5086 21.0059 33.5916 21.0059C33.9106 21.0059 34.1548 21.0978 34.3241 21.2817C34.495 21.464 34.5804 21.7326 34.5804 22.0874V24.8462H33.6917V22.2363C33.6917 22.1615 33.6828 22.0923 33.6649 22.0288C33.647 21.9653 33.6209 21.9108 33.5868 21.8652C33.5526 21.818 33.5094 21.7814 33.4574 21.7554C33.4069 21.7293 33.3483 21.7163 33.2816 21.7163C33.2116 21.7163 33.1449 21.731 33.0814 21.7603C33.0179 21.7896 32.9626 21.8319 32.9154 21.8872C32.8682 21.9409 32.8299 22.006 32.8006 22.0825C32.7729 22.159 32.7591 22.2445 32.7591 22.3389L32.7616 24.8462H31.8704V19.7461H32.7518V21.4966ZM36.8045 21.0059C37.0666 21.0059 37.292 21.0514 37.4808 21.1426C37.6712 21.2321 37.8275 21.3623 37.9495 21.5332C38.0716 21.7025 38.1611 21.9084 38.2181 22.1509C38.2767 22.3918 38.306 22.6636 38.306 22.9663C38.306 23.3162 38.2702 23.6149 38.1986 23.8623C38.127 24.1081 38.0252 24.3091 37.8934 24.4653C37.7616 24.6216 37.6029 24.7363 37.4173 24.8096C37.2334 24.8812 37.0291 24.917 36.8045 24.917C36.5848 24.917 36.383 24.882 36.1991 24.812C36.0151 24.7404 35.8573 24.6265 35.7254 24.4702C35.5936 24.314 35.4902 24.1121 35.4154 23.8647C35.3421 23.6174 35.3055 23.3179 35.3055 22.9663C35.3055 22.6619 35.334 22.3885 35.391 22.146C35.4479 21.9035 35.5366 21.6976 35.6571 21.5283C35.7791 21.359 35.9346 21.2297 36.1234 21.1401C36.3122 21.0506 36.5392 21.0059 36.8045 21.0059ZM36.8045 24.187C36.9038 24.187 36.9901 24.1602 37.0633 24.1064C37.1382 24.0511 37.2 23.9722 37.2489 23.8696C37.2977 23.7655 37.3343 23.6377 37.3587 23.4863C37.3831 23.335 37.3953 23.1616 37.3953 22.9663C37.3953 22.7645 37.384 22.5854 37.3612 22.4292C37.34 22.2729 37.305 22.1427 37.2562 22.0386C37.2074 21.9328 37.1447 21.853 37.0682 21.7993C36.9933 21.744 36.9022 21.7163 36.7948 21.7163C36.5946 21.7163 36.4481 21.8221 36.3553 22.0337C36.2625 22.2453 36.2161 22.5562 36.2161 22.9663C36.2161 23.1584 36.2275 23.3301 36.2503 23.4814C36.2747 23.6328 36.3114 23.7606 36.3602 23.8647C36.409 23.9689 36.4701 24.0487 36.5433 24.104C36.6165 24.1593 36.7036 24.187 36.8045 24.187ZM39.8294 22.8857C39.8294 22.9639 39.8302 23.0509 39.8319 23.147C39.8335 23.243 39.84 23.3398 39.8514 23.4375C39.8628 23.5352 39.8807 23.6304 39.9051 23.7231C39.9295 23.8159 39.9645 23.8981 40.0101 23.9697C40.0557 24.0413 40.1126 24.0991 40.181 24.1431C40.251 24.1854 40.3372 24.2065 40.4398 24.2065C40.5309 24.2065 40.6091 24.1862 40.6742 24.1455C40.7409 24.1048 40.797 24.0519 40.8426 23.9868C40.8882 23.9201 40.924 23.8444 40.95 23.7598C40.9777 23.6751 40.9989 23.5889 41.0135 23.501C41.0282 23.4115 41.0379 23.3236 41.0428 23.2373C41.0477 23.151 41.0501 23.0737 41.0501 23.0054C41.0501 22.5854 41.0037 22.2721 40.911 22.0654C40.8182 21.8587 40.6644 21.7554 40.4495 21.7554C40.3519 21.7554 40.2689 21.7733 40.2005 21.8091C40.1338 21.8433 40.0768 21.8896 40.0296 21.9482C39.9841 22.0068 39.9474 22.0752 39.9198 22.1533C39.8937 22.2298 39.8742 22.3104 39.8612 22.395C39.8481 22.478 39.8392 22.5618 39.8343 22.6465C39.8311 22.7311 39.8294 22.8109 39.8294 22.8857ZM39.9002 21.4062C39.9474 21.333 39.9995 21.2712 40.0565 21.2207C40.1151 21.1702 40.1753 21.1296 40.2371 21.0986C40.3006 21.0661 40.3641 21.0425 40.4276 21.0278C40.491 21.0132 40.5513 21.0059 40.6082 21.0059C40.7726 21.0059 40.9199 21.0327 41.0501 21.0864C41.182 21.1385 41.2975 21.2118 41.3968 21.3062C41.4961 21.4006 41.5807 21.512 41.6507 21.6406C41.7207 21.7692 41.7777 21.9092 41.8216 22.0605C41.8656 22.2119 41.8973 22.3714 41.9168 22.5391C41.938 22.7067 41.9486 22.876 41.9486 23.0469C41.9486 23.2178 41.938 23.383 41.9168 23.5425C41.8973 23.7004 41.8656 23.8493 41.8216 23.9893C41.7777 24.1292 41.7207 24.2578 41.6507 24.375C41.5824 24.4906 41.4993 24.5898 41.4017 24.6729C41.304 24.7559 41.1909 24.8201 41.0623 24.8657C40.9354 24.9129 40.7913 24.9365 40.6302 24.9365C40.4837 24.9365 40.3535 24.9032 40.2396 24.8364C40.1257 24.7681 40.0256 24.681 39.9393 24.5752V26.167H39.0384V21.0669H39.9002V21.4062Z" fill="white"/>
</svg>
