<svg width="55" height="55" viewBox="0 0 55 55" fill="none" xmlns="http://www.w3.org/2000/svg">
<circle cx="27.5" cy="27.5" r="26" fill="white" stroke="#8C2B0C" stroke-width="3"/>
<circle cx="27.4998" cy="27.5" r="22.8333" fill="white" stroke="#8C2B0C" stroke-dasharray="2 2"/>
<mask id="mask0_1086_1645" style="mask-type:alpha" maskUnits="userSpaceOnUse" x="5" y="5" width="45" height="45">
<circle cx="27.5002" cy="27.5" r="21.1667" fill="white" stroke="#8C2B0C"/>
</mask>
<g mask="url(#mask0_1086_1645)">
<path fill-rule="evenodd" clip-rule="evenodd" d="M24.6529 35.8335H30.7366V39.3981C31.3594 39.5103 31.9692 39.6598 32.5638 39.8442L34.3244 36.7948L39.593 39.8366L37.9062 42.7583C38.4134 43.1829 38.8929 43.6393 39.3418 44.1246L42.2194 42.4632L45.2612 47.7319L42.5183 49.3155C42.7558 49.9643 42.951 50.6334 43.1008 51.3195H46.2225V57.4032H43.211C43.0817 58.1205 42.903 58.8206 42.6785 59.4998L45.2611 60.9909L42.2192 66.2595L39.6682 64.7867C39.1892 65.3384 38.6717 65.8558 38.1201 66.3349L39.5929 68.8858L34.3242 71.9277L32.8331 69.3451C32.1539 69.5695 31.4538 69.7482 30.7366 69.8775V72.8891H24.6529V69.7673C23.9668 69.6175 23.2977 69.4222 22.6489 69.1848L21.0653 71.9277L15.7966 68.8858L17.458 66.0082C16.9728 65.5594 16.5164 65.0799 16.0919 64.5728L13.1702 66.2597L10.1283 60.991L13.1777 59.2304C12.9934 58.6359 12.8439 58.026 12.7316 57.4032H9.16699V51.3195H12.8417C12.9712 50.7263 13.1347 50.1459 13.33 49.5804L10.1282 47.7318L13.17 42.4631L16.4106 44.334C16.8052 43.8915 17.2249 43.4719 17.6673 43.0772L15.7964 39.8366L21.0651 36.7948L22.9137 39.9966C23.4792 39.8013 24.0597 39.6378 24.6529 39.5083V35.8335Z" fill="#D7560D"/>
<circle cx="27.9715" cy="54.6379" r="12.7206" fill="white"/>
<circle cx="27.9715" cy="54.6379" r="10.5614" fill="white" stroke="#D7560D"/>
<circle cx="27.9716" cy="54.6379" r="8.59909" fill="white" stroke="#D7560D" stroke-width="0.5"/>
<path fill-rule="evenodd" clip-rule="evenodd" d="M24.6529 -18.3333H30.7366V-14.7687C31.3594 -14.6564 31.9693 -14.5069 32.5638 -14.3225L34.3244 -17.3719L39.593 -14.3301L37.9062 -11.4084C38.4134 -10.9839 38.8929 -10.5274 39.3417 -10.0422L42.2194 -11.7036L45.2612 -6.43492L42.5183 -4.85129C42.7558 -4.20251 42.951 -3.5334 43.1008 -2.84729H46.2225V3.23645H43.211C43.0817 3.95371 42.903 4.65381 42.6785 5.33309L45.2611 6.82412L42.2192 12.0928L39.6682 10.62C39.1892 11.1717 38.6717 11.6891 38.1201 12.1681L39.5929 14.7191L34.3242 17.7609L32.8331 15.1784C32.1539 15.4028 31.4538 15.5815 30.7366 15.7108V18.7223H24.6529V15.6006C23.9668 15.4508 23.2977 15.2555 22.6489 15.0181L21.0653 17.761L15.7966 14.7191L17.458 11.8415C16.9728 11.3926 16.5164 10.9131 16.0919 10.406L13.1702 12.0929L10.1283 6.82418L13.1777 5.0636C12.9934 4.46909 12.8439 3.85924 12.7316 3.23645H9.16699V-2.84729H12.8417C12.9712 -3.44041 13.1347 -4.02082 13.33 -4.58638L10.1282 -6.43498L13.17 -11.7037L16.4106 -9.83274C16.8052 -10.2752 17.2249 -10.6949 17.6673 -11.0895L15.7964 -14.3301L21.0651 -17.372L22.9137 -14.1701C23.4793 -14.3655 24.0597 -14.529 24.6529 -14.6585V-18.3333Z" fill="#D7560D"/>
<circle cx="27.9715" cy="0.471174" r="12.7206" fill="white"/>
<circle cx="27.9715" cy="0.47115" r="10.5614" fill="white" stroke="#D7560D"/>
<circle cx="27.9716" cy="0.471281" r="8.59909" fill="white" stroke="#D7560D" stroke-width="0.5"/>
</g>
</svg>
