<?xml version="1.0" encoding="utf-8"?>
<svg viewBox="0 -0.012 560.7 113.397" preserveAspectRatio="none" xmlns="http://www.w3.org/2000/svg">
  <defs>
    <style>.cls-1 {
        fill: #f15a29;
      }

      .cls-2 {
        fill: #f7941e;
      }</style>
  </defs>
  <g data-name="Layer 1">
    <path d="m10.85,86.78C3.62,79.57,0,70.55,0,59.7c.03-10.61,3.66-19.54,10.88-26.77,7.22-7.24,16.17-10.86,26.85-10.86s20.03,3.36,27.76,10.07l-10.07,11.03c-5.14-4.03-11.03-6.04-17.68-6.04-6.78.03-12.25,2.15-16.4,6.35-4.15,4.2-6.22,9.57-6.22,16.12.03,7.02,2.13,12.59,6.3,16.72,4.16,4.13,9.64,6.2,16.42,6.2s12.65-2,17.58-6l10.07,11.03c-7.69,6.72-16.94,10.07-27.76,10.07-10.68-.03-19.64-3.65-26.88-10.85Z"/>
    <path d="m184.87,97.63V22.07h5.04l32.74,37.28,32.79-37.28h5.04v75.56h-15.11l-.05-43.83-22.67,25.19-22.67-25.19v43.83h-15.11Z"/>
    <path d="m275.55,97.63V22.07h32.95c17.63,0,26.45,7.25,26.45,21.76s-8.8,22.57-26.4,22.57h-17.88v31.23h-15.11Zm15.11-45.34h21.16c6.08-.1,9.2-2.87,9.37-8.31-.17-4.97-3.24-7.56-9.22-7.76h-21.31v16.07Z"/>
    <path class="cls-1" d="m80.91,57.72c-.16.47-.33.94-.49,1.41,0,0-2.33,6.62-5.74,21.89-.83,4.16-1.46,8.38-1.67,12.62-.3,5.93-.58,14.04,6.59,16.08.6.17,1.22.31,1.83.47l2.34.55c2.79.59,12.18,1.81,15.03,2.14l.05-13.92,12.77-25.39-30.71-15.84Z"/>
    <path class="cls-2" d="m133.3,30.45c-.44-.79-.98-1.62-1.65-2.38-3.71-4.97-9.36-7.73-17.55-8.71-8.02-.96-14.01,4.29-18.6,10.08-3.82,4.83-6.94,10.14-9.57,15.72l31.4,17.03,15.97-31.75Z"/>
    <path class="cls-1" d="m137.97,47.9l-9.66,20.25,12.08,6.55-.26-5.98c-.36-6.99-1.05-13.93-2.16-20.82Z"/>
    <path class="cls-2" d="m98.8,112.87c8.62.69,25.31,1.15,33.56-1.78,5.73-2.04,7.32-3.72,7.98-10.09.43-4.12.54-8.25.51-12.37l-17.9-9.23-11.8,24.74-12.34,8.73Z"/>
    <path d="m174.28,94.39c-3.31-18.5-7.83-39.75-12.48-57.94-1.48-5.8-3.11-11.57-5.48-17.06-2.29-5.29-5.7-6.67-10.94-4.52-1.83.75-3.46,1.88-5.04,3.09-.79.62-1.39,1.97-2.71,1.21-1.19-.68-.84-1.97-.84-3.04,0-2.26-.36-4.47-.88-6.64-2.13-8.98-13.97-12.65-20.58-6.35-3.04,2.89-4.45,6.38-5.64,10.42-.22.74-.8,3.12.23,2.8,3.38-1.05,7.95-.42,7.95-.42.85-6.03,2.62-7.92,7.5-7.62,2.76.17,5.21,4.43,4.08,7.04-.45,1.04-1.25.74-2,.73-1.7,0-3.7-.2-7.4.31,2.95.56,3.11.82,4.21,1.15,3.95,1.19,8.1,4.13,11.32,8.34,2.45,3.21,4.36,7.15,5.21,11.62.2,1.07.4,2.15.59,3.22,1.44,8.03,2.52,16.1,2.88,24.26.18,4.03.39,8.06.54,12.09.17,4.55.26,9.1.13,13.65-.12,4.21-.42,8.42-1.03,12.62-.26,1.8.22,2,1.63,1.43,3.38-1.36,5.47-3.74,5.93-7.61.12-.97.17-1.96.2-2.96l12.03,6.2c2.52,1.93,5.17,1.37,7.68-.28,2-1.32,3.4-2.92,2.89-5.75Zm-22.82-20.08c-.82-12.87-2.09-25.67-4.66-38.31-.3-1.48-.64-2.95-1.04-4.4l.54-1.13,13.17,54.58s-.01,0-.01,0l-6.93-3.76c-.96-.82-.99-5.85-1.06-6.97Z"/>
    <path d="m408.37,22.34v75.29h-15.46v-33.87h-33.14v33.87h-15.41V22.34h15.41v26.88h33.14v-26.88h15.46Z"/>
    <path d="m486.54,22.28v40.85c0,19.37-12.37,34.5-32.06,34.5s-32.01-14.86-32.01-34.5V22.28h15.46v40.11c0,10.08,4.95,20.69,16.6,20.69,10.98,0,16.55-9.82,16.55-20.69V22.28h15.46Z"/>
    <path d="m549.15,56.99c6.49,3.73,11.55,9.82,11.55,18.06,0,13.65-9.69,22.58-22.42,22.58h-37.58V22.39h30.67c12.42,0,22.37,8.82,22.37,22.52,0,4.41-1.7,8.45-4.59,12.08Zm-33.04-20.58v16.49h15.41c4.02-.42,8.14-3.31,8.14-8.24s-4.38-8.24-9.23-8.24h-14.33Zm20.21,46.99c4.48,0,9.28-2.94,9.28-8.66,0-5.3-4.38-8.61-9.23-8.61h-20.26v17.27h20.21Z"/>
  </g>
</svg>
