<?xml version="1.0" encoding="utf-8"?>
<svg viewBox="-0.096 22.202 809.745 203.478" xmlns="http://www.w3.org/2000/svg">
  <defs>
    <style>
      .cls-1 {
        font-family: Mistral, Mistral;
        font-size: 200px;
      }

      .cls-2 {
        font-family: Calibri-Bold, Calibri;
        font-size: 32px;
        font-weight: 700;
      }
    </style>
  </defs>
  <g id="Layer_1-2" data-name="Layer 1">
    <path d="M 16.602 -138.086 Q 20.605 -139.258 25.342 -139.844 Q 30.078 -140.43 35.84 -140.43 Q 36.914 -140.43 39.014 -140.088 Q 41.113 -139.746 42.383 -139.746 Q 44.238 -139.453 45.215 -139.16 Q 46.289 -138.867 48.145 -138.477 L 50.879 -139.258 Q 51.758 -139.16 52.783 -138.525 Q 53.809 -137.891 55.273 -137.109 Q 56.055 -137.598 57.52 -138.281 Q 58.984 -138.281 59.912 -137.158 Q 60.84 -136.035 61.133 -133.984 Q 61.133 -132.422 61.133 -130.908 Q 61.133 -129.395 60.938 -127.734 Q 60.84 -126.953 61.035 -125.293 Q 61.23 -123.633 61.23 -122.754 Q 61.23 -121.68 60.742 -121.191 Q 60.254 -120.703 59.473 -120.703 Q 55.762 -120.703 52.148 -121.338 Q 48.535 -121.973 44.922 -123.242 Q 41.797 -122.656 39.453 -122.363 Q 37.598 -122.168 36.719 -121.777 Q 35.84 -121.387 35.84 -120.801 Q 36.23 -120.117 36.914 -119.336 Q 37.598 -118.555 38.574 -117.871 Q 39.258 -117.383 40.137 -115.771 Q 41.016 -114.16 41.992 -111.426 Q 42.383 -110.352 42.529 -109.375 Q 42.676 -108.398 42.676 -107.52 Q 42.676 -105.469 42.285 -102.393 Q 41.895 -99.316 41.406 -97.363 Q 40.527 -93.555 40.039 -91.064 Q 39.551 -88.574 39.258 -87.305 Q 39.063 -86.328 38.965 -84.961 Q 38.867 -83.594 38.77 -81.836 Q 38.672 -80.371 37.988 -78.174 Q 37.305 -75.977 36.621 -73.145 Q 36.621 -71.875 36.328 -70.215 Q 36.035 -68.555 35.547 -66.406 Q 35.254 -65.137 34.619 -63.525 Q 33.984 -61.914 33.398 -59.766 Q 33.594 -58.301 33.691 -56.738 Q 33.301 -54.004 32.91 -51.074 Q 32.324 -46.875 31.738 -42.578 Q 31.152 -38.281 30.664 -34.277 Q 30.078 -33.105 29.395 -31.641 Q 29.395 -30.957 29.639 -29.541 Q 29.883 -28.125 29.883 -27.246 Q 29.883 -26.172 29.492 -24.072 Q 29.102 -21.973 29.102 -20.996 Q 29.102 -19.141 29.004 -15.234 Q 28.906 -11.328 28.906 -9.375 Q 29.395 -7.715 29.785 -6.152 Q 29.492 -4.785 29.15 -3.955 Q 28.809 -3.125 28.223 -2.637 Q 26.465 -1.562 25 -0.879 Q 24.023 0.098 23.389 0.684 Q 22.754 1.27 22.266 1.27 Q 20.117 1.27 19.238 0.684 Q 18.359 0.098 18.359 -0.879 Q 18.555 -4.102 19.043 -7.129 Q 18.848 -7.52 18.604 -8.301 Q 18.359 -9.082 17.871 -10.254 Q 17.383 -17.871 16.602 -25.879 Q 16.895 -31.641 16.895 -37.5 Q 16.895 -40.234 17.139 -44.385 Q 17.383 -48.535 18.066 -54.004 Q 18.75 -59.473 19.043 -63.574 Q 19.336 -67.676 19.336 -70.312 Q 19.336 -71.484 19.58 -73.291 Q 19.824 -75.098 20.117 -77.734 Q 20.41 -79.98 20.703 -81.787 Q 20.996 -83.594 20.996 -85.059 Q 20.996 -85.84 20.898 -86.719 Q 20.801 -87.598 20.703 -88.281 Q 21.68 -90.723 22.168 -92.236 Q 22.656 -93.75 22.656 -94.238 Q 22.266 -95.508 21.777 -96.777 Q 22.363 -98.145 23.047 -101.709 Q 23.73 -105.273 24.512 -111.035 Q 24.512 -112.207 24.512 -113.867 Q 24.512 -115.527 24.609 -117.871 L 24.023 -119.629 Q 23.633 -119.824 22.607 -120.117 Q 21.582 -120.41 20.02 -120.605 L 18.75 -119.727 Q 17.48 -119.434 16.162 -119.141 Q 14.844 -118.848 13.379 -118.457 Q 3.223 -115.625 -6.738 -112.891 Q -7.52 -112.891 -8.008 -113.525 Q -8.496 -114.16 -8.496 -115.234 Q -8.496 -115.82 -8.008 -117.285 Q -7.52 -118.75 -6.445 -121.094 Q -6.25 -124.512 -5.957 -126.758 Q -5.664 -129.004 -5.273 -130.176 Q -4.492 -132.324 -2.881 -133.789 Q -1.27 -135.254 0.977 -136.035 Q 5.469 -137.5 9.375 -137.988 Q 13.281 -138.477 16.602 -138.086 Z M 52.043 -29.102 L 52.629 -29.785 L 52.922 -30.762 Q 55.558 -34.375 62.199 -40.186 Q 68.84 -45.996 71.379 -49.609 Q 72.355 -51.172 73.625 -51.855 Q 74.894 -52.539 76.164 -52.539 Q 79.582 -52.539 81.926 -50.83 Q 84.269 -49.121 85.051 -45.703 Q 85.734 -42.676 86.32 -39.6 Q 86.906 -36.523 87.297 -33.398 Q 87.98 -31.445 88.957 -27.49 Q 89.933 -23.535 90.422 -22.949 Q 90.91 -21.973 91.887 -21.533 Q 92.863 -21.094 94.328 -21.094 Q 96.086 -21.094 97.941 -21.729 Q 99.797 -22.363 101.75 -23.926 Q 103.215 -25.195 104.826 -26.514 Q 106.437 -27.832 108 -29.102 L 111.906 -20.117 Q 110.344 -18.555 107.756 -16.553 Q 105.168 -14.551 101.555 -11.914 Q 97.551 -8.984 94.719 -7.568 Q 91.887 -6.152 90.422 -6.152 Q 81.535 -6.152 78.898 -8.203 Q 76.262 -10.254 73.039 -19.629 Q 72.648 -20.41 71.867 -21.484 Q 71.086 -22.559 70.109 -24.023 Q 68.937 -26.27 68.058 -27.393 Q 67.18 -28.516 66.594 -28.516 Q 65.031 -28.516 62.394 -26.416 Q 59.758 -24.316 55.949 -20.117 Q 55.461 -21.387 54.728 -23.145 Q 53.996 -24.902 53.215 -27.246 Q 53.019 -27.832 52.726 -28.32 Q 52.433 -28.809 52.043 -29.102 Z M 92.863 -106.152 Q 95.305 -106.152 96.428 -105.176 Q 97.551 -104.199 97.551 -102.344 Q 96.965 -99.609 96.574 -97.754 Q 95.598 -94.238 94.865 -91.992 Q 94.133 -89.746 93.742 -88.77 Q 92.863 -86.621 91.349 -85.01 Q 89.836 -83.398 87.687 -82.129 Q 85.441 -80.566 83.928 -79.932 Q 82.414 -79.297 81.828 -79.395 Q 80.168 -79.59 78.654 -79.736 Q 77.141 -79.883 75.676 -79.883 Q 74.406 -80.566 73.674 -82.52 Q 72.941 -84.473 72.941 -87.793 Q 72.941 -90.723 76.506 -95.166 Q 80.07 -99.609 82.805 -99.902 Q 84.465 -101.953 86.711 -104.59 Q 87.687 -105.273 89.25 -105.713 Q 90.812 -106.152 92.863 -106.152 Z M 107.906 -29.102 L 108.784 -29.883 Q 108.882 -30.957 110.152 -32.422 Q 111.421 -33.887 113.765 -35.84 Q 115.23 -36.914 116.841 -37.891 Q 118.452 -38.867 119.917 -40.039 Q 126.07 -45.312 131.831 -50.195 Q 135.152 -53.125 138.472 -55.225 Q 141.792 -57.324 144.722 -58.594 Q 146.773 -61.23 152.388 -63.965 Q 158.003 -66.699 161.519 -66.699 Q 162.886 -66.699 163.716 -65.918 Q 164.546 -65.137 164.742 -63.965 L 164.742 -58.594 Q 164.742 -55.762 163.13 -53.564 Q 161.519 -51.367 158.296 -49.512 Q 156.148 -48.535 153.999 -47.363 Q 151.851 -46.191 149.702 -45.215 Q 148.921 -44.238 145.552 -41.553 Q 142.183 -38.867 136.421 -34.375 Q 133.784 -32.324 132.027 -30.713 Q 130.269 -29.102 129.585 -28.125 Q 128.609 -26.27 128.072 -24.023 Q 127.534 -21.777 127.534 -18.848 Q 127.534 -16.602 128.218 -14.99 Q 128.902 -13.379 130.269 -12.402 Q 131.245 -11.719 132.954 -11.035 Q 134.663 -10.352 137.202 -9.668 Q 138.667 -10.254 141.06 -10.791 Q 143.452 -11.328 146.382 -12.207 Q 149.702 -14.16 153.169 -16.309 Q 156.636 -18.457 160.054 -20.703 Q 160.542 -20.996 161.275 -21.338 Q 162.007 -21.68 162.788 -22.363 Q 163.765 -23.633 165.474 -25.293 Q 167.183 -26.953 169.624 -29.102 Q 173.531 -20.605 173.531 -20.117 Q 169.917 -17.187 166.206 -14.111 Q 162.495 -11.035 157.71 -9.082 Q 156.148 -7.812 155.074 -6.738 Q 150.191 -1.855 143.697 0.635 Q 137.202 3.125 128.902 3.125 Q 127.046 3.125 125.581 2.832 Q 124.117 2.539 123.14 2.051 Q 120.21 0.098 118.159 -1.367 Q 116.011 -2.93 114.546 -4.346 Q 113.081 -5.762 112.398 -7.031 Q 111.519 -8.398 111.177 -10.352 Q 110.835 -12.305 110.835 -15.137 Q 110.835 -15.918 111.324 -17.676 Q 111.812 -19.434 111.812 -20.117 Q 111.128 -22.266 110.152 -24.512 Q 109.175 -26.758 107.906 -29.102 Z M 169.515 -29.102 Q 169.906 -29.395 170.296 -29.932 Q 170.687 -30.469 171.175 -31.641 Q 171.761 -32.617 172.835 -33.74 Q 173.91 -34.863 175.375 -36.23 Q 178.109 -38.477 180.306 -41.846 Q 182.503 -45.215 184.652 -49.609 Q 187.484 -55.762 189.828 -60.059 Q 192.171 -64.355 194.125 -66.602 Q 194.71 -68.848 196.468 -73.73 Q 198.226 -78.613 201.156 -86.426 Q 203.988 -93.848 205.941 -98.486 Q 207.894 -103.125 208.871 -104.883 Q 209.261 -105.566 209.896 -106.641 Q 210.531 -107.715 210.921 -109.277 Q 212.289 -113.867 214.144 -117.822 Q 216 -121.777 217.953 -125.293 Q 218.441 -126.172 219.173 -126.66 Q 219.906 -127.148 220.687 -127.148 Q 224.593 -127.148 226.498 -124.121 Q 228.402 -121.094 228.402 -115.234 Q 228.402 -108.691 224.203 -97.119 Q 220.003 -85.547 211.312 -69.043 Q 209.554 -65.332 207.503 -59.961 Q 205.453 -54.59 203.402 -47.656 Q 201.742 -42.285 200.179 -36.719 Q 198.617 -31.152 196.957 -25.781 Q 195.394 -20.605 194.613 -17.627 Q 193.832 -14.648 193.832 -13.672 Q 193.832 -12.988 194.076 -12.695 Q 194.32 -12.402 194.808 -12.402 Q 195.785 -12.402 196.517 -12.988 Q 197.25 -13.574 197.64 -14.648 Q 199.593 -17.48 201.498 -21.045 Q 203.402 -24.609 205.355 -28.906 L 205.648 -31.738 Q 206.332 -38.184 208.578 -40.723 Q 210.824 -43.262 216.976 -44.727 Q 217.757 -45.02 220.931 -50 Q 224.105 -54.98 229.378 -64.746 Q 232.308 -69.922 234.261 -72.51 Q 236.214 -75.098 237.191 -75.098 Q 239.437 -75.098 240.414 -73.633 Q 241.39 -72.168 241.39 -69.238 Q 241.39 -61.719 232.992 -50.293 Q 224.593 -38.867 224.593 -35.254 Q 224.593 -32.715 229.085 -27.49 Q 233.578 -22.266 236.507 -22.266 Q 237.484 -22.266 238.705 -22.9 Q 239.925 -23.535 241.585 -24.902 Q 242.855 -25.879 244.076 -27.002 Q 245.296 -28.125 246.761 -29.102 L 250.667 -20.117 Q 248.128 -17.871 245.833 -15.625 Q 243.539 -13.379 241 -11.23 Q 238.167 -8.496 235.335 -7.178 Q 232.503 -5.859 229.671 -5.859 Q 226.742 -5.859 219.759 -11.865 Q 212.777 -17.871 212.289 -17.871 Q 208.675 -14.551 205.941 -11.23 Q 204.183 -9.082 202.474 -7.08 Q 200.765 -5.078 199.007 -2.93 Q 198.519 -2.246 197.445 -1.27 Q 196.371 -0.293 195.003 0.977 Q 193.636 2.93 191.927 4.736 Q 190.218 6.543 187.679 6.543 Q 183.773 6.543 181.82 4.297 Q 179.867 2.051 179.867 -2.539 Q 179.867 -7.227 180.697 -12.5 Q 181.527 -17.773 183.285 -23.535 Q 183.968 -26.27 184.359 -28.369 Q 184.75 -30.469 184.75 -32.031 L 184.066 -33.008 Q 182.796 -31.445 180.843 -29.297 Q 178.89 -27.148 176.253 -24.023 Q 175.863 -23.73 175.423 -22.998 Q 174.984 -22.266 173.421 -20.117 Q 172.933 -21.387 172.201 -23.145 Q 171.468 -24.902 170.687 -27.246 Q 170.492 -27.832 170.199 -28.32 Q 169.906 -28.809 169.515 -29.102 Z M 246.574 -29.102 Q 247.452 -30.078 248.331 -31.494 Q 249.21 -32.91 250.675 -34.57 L 257.12 -40.234 Q 257.511 -40.527 257.56 -41.016 Q 257.609 -41.504 257.609 -42.383 Q 257.511 -43.652 257.316 -44.434 Q 257.316 -46.68 258.195 -51.953 Q 259.074 -57.227 259.757 -58.301 L 259.171 -60.156 Q 260.441 -66.699 262.736 -74.463 Q 265.031 -82.227 267.96 -91.309 Q 268.937 -92.871 270.011 -95.264 Q 271.085 -97.656 272.452 -100.684 Q 274.113 -105.762 276.847 -111.328 Q 279.581 -116.895 282.999 -122.754 Q 287.589 -130.469 291.154 -134.375 Q 294.718 -138.281 297.55 -138.281 Q 303.214 -138.281 305.314 -136.084 Q 307.413 -133.887 307.413 -127.832 Q 307.413 -126.27 306.876 -122.998 Q 306.339 -119.727 306.339 -118.066 Q 306.339 -116.406 305.265 -113.379 Q 304.191 -110.352 304.191 -107.812 Q 304.093 -107.031 303.702 -106.25 L 303.8 -104.883 Q 303.41 -103.516 302.628 -101.562 Q 301.847 -99.609 300.577 -96.875 Q 299.894 -94.434 298.82 -91.211 Q 297.745 -87.988 296.281 -84.18 Q 295.695 -83.203 294.767 -81.787 Q 293.839 -80.371 292.765 -78.613 Q 292.472 -77.344 291.788 -75.684 Q 291.105 -74.023 289.933 -71.777 Q 289.347 -70.605 288.37 -69.238 Q 287.394 -67.871 286.027 -65.723 Q 285.441 -64.746 284.757 -63.281 Q 284.074 -61.816 283.195 -59.961 Q 282.12 -58.301 280.363 -55.859 Q 278.605 -53.418 276.359 -50.098 Q 273.331 -44.727 270.109 -39.844 Q 270.109 -30.371 273.868 -25.537 Q 277.628 -20.703 285.148 -20.703 Q 285.636 -20.703 288.077 -21.387 Q 290.519 -22.07 294.816 -23.535 Q 296.085 -24.316 297.843 -25.732 Q 299.601 -27.148 301.847 -29.102 L 305.656 -20.117 Q 303.117 -17.871 300.577 -15.527 Q 298.038 -13.184 295.402 -10.937 Q 292.374 -8.398 289.249 -7.08 Q 286.124 -5.762 283.097 -5.762 Q 281.535 -5.762 278.312 -6.104 Q 275.089 -6.445 273.429 -6.445 Q 267.96 -6.445 264.396 -10.84 Q 260.831 -15.234 259.367 -24.023 Q 259.171 -24.902 258.829 -25.586 Q 258.488 -26.27 257.609 -27.148 Q 256.339 -25.879 254.63 -24.121 Q 252.921 -22.363 250.48 -20.117 Z M 293.156 -105.762 L 292.472 -106.152 Q 287.003 -100.879 284.22 -96.191 Q 281.437 -91.504 281.437 -87.109 Q 281.437 -86.426 280.802 -84.814 Q 280.167 -83.203 278.898 -80.664 Q 277.335 -77.637 275.675 -74.023 Q 273.82 -68.555 272.843 -65.137 Q 271.867 -61.719 271.867 -60.254 L 272.452 -59.473 Q 273.331 -59.57 274.601 -61.23 Q 275.87 -62.891 277.531 -66.113 Q 278.312 -67.871 279.777 -70.215 Q 281.242 -72.559 283.097 -75.781 Q 284.66 -77.93 288.077 -86.816 Q 291.495 -95.703 291.788 -98.145 Q 291.886 -100.098 292.326 -102.002 Q 292.765 -103.906 293.156 -105.762 Z M 301.642 -29.102 Q 302.814 -31.152 304.669 -33.252 Q 306.525 -35.352 309.357 -37.598 Q 309.65 -39.551 309.943 -41.455 Q 310.236 -43.359 310.333 -45.312 Q 310.626 -46.68 311.261 -48.535 Q 311.896 -50.391 312.677 -52.539 Q 313.556 -54.687 315.07 -57.91 Q 316.583 -61.133 319.025 -65.137 Q 321.075 -67.383 323.322 -70.068 Q 325.568 -72.754 327.814 -75.488 Q 328.888 -76.367 330.158 -77.148 Q 331.427 -77.93 332.697 -78.906 Q 333.868 -79.297 335.333 -79.59 Q 336.798 -79.883 338.556 -79.883 Q 340.997 -79.883 342.511 -79.395 Q 344.025 -78.906 345.001 -77.734 Q 345.685 -76.953 346.32 -75.391 Q 346.954 -73.828 347.54 -71.582 Q 347.833 -69.629 348.224 -67.285 Q 348.224 -67.871 347.882 -66.797 Q 347.54 -65.723 346.857 -63.379 L 345.978 -60.254 Q 344.611 -55.566 339.825 -49.414 Q 335.04 -43.262 326.935 -35.352 Q 326.251 -34.668 325.763 -33.643 Q 325.275 -32.617 325.275 -31.445 Q 325.275 -29.395 326.007 -27.832 Q 326.74 -26.27 328.107 -25.488 Q 328.888 -24.902 330.597 -24.316 Q 332.306 -23.73 334.65 -23.242 Q 338.458 -23.535 341.583 -24.512 Q 344.708 -25.488 347.15 -26.855 Q 347.638 -27.148 348.712 -27.686 Q 349.786 -28.223 350.861 -29.102 Q 352.13 -26.27 353.107 -24.023 Q 354.083 -21.777 354.669 -20.117 Q 349.103 -14.648 344.562 -11.865 Q 340.021 -9.082 336.212 -9.082 Q 334.65 -8.105 332.648 -7.666 Q 330.646 -7.227 327.911 -7.227 Q 324.298 -7.227 321.515 -8.301 Q 318.732 -9.375 316.876 -11.426 Q 315.9 -12.402 314.923 -14.307 Q 313.947 -16.211 312.872 -18.848 Q 311.993 -20.996 311.212 -22.021 Q 310.431 -23.047 309.454 -23.047 Q 308.673 -23.047 307.697 -22.314 Q 306.72 -21.582 305.548 -20.117 Q 305.158 -21.582 304.181 -23.73 Q 303.204 -25.879 301.642 -29.102 Z M 332.892 -60.84 Q 330.743 -60.84 327.13 -55.225 Q 323.517 -49.609 323.517 -46.973 Q 323.517 -46.387 323.761 -46.143 Q 324.005 -45.898 324.786 -45.898 Q 325.861 -45.898 326.544 -47.021 Q 327.228 -48.145 327.814 -49.121 Q 328.888 -50.098 329.913 -51.221 Q 330.939 -52.344 331.915 -53.418 Q 333.087 -54.785 333.673 -56.152 Q 334.259 -57.52 334.259 -58.887 Q 334.259 -59.766 333.917 -60.303 Q 333.575 -60.84 332.892 -60.84 Z M 350.761 -29.102 L 351.346 -29.785 L 351.639 -30.762 Q 353.397 -32.91 354.667 -34.131 Q 355.936 -35.352 356.62 -36.035 Q 357.108 -36.523 358.768 -37.305 Q 360.428 -38.086 363.261 -39.258 L 364.53 -40.039 Q 365.214 -41.113 366.971 -43.164 Q 368.729 -45.215 371.171 -47.852 Q 371.659 -48.437 372.636 -49.121 Q 373.612 -49.805 374.686 -50.879 Q 377.03 -53.125 379.374 -55.518 Q 381.718 -57.91 383.768 -60.254 Q 384.647 -61.133 387.382 -63.428 Q 390.116 -65.723 394.803 -69.824 Q 395.487 -70.312 397.245 -71.24 Q 399.003 -72.168 401.835 -73.437 Q 403.104 -74.023 403.739 -75.342 Q 404.374 -76.66 404.374 -78.711 Q 405.155 -79.98 405.887 -81.787 Q 406.62 -83.594 407.303 -86.035 Q 408.28 -89.062 408.817 -90.967 Q 409.354 -92.871 409.647 -93.555 Q 411.307 -97.949 414.139 -103.857 Q 416.971 -109.766 420.878 -117.383 Q 422.831 -121.387 425.468 -126.27 Q 427.128 -128.711 429.178 -129.932 Q 431.229 -131.152 433.475 -131.152 Q 435.233 -131.152 436.063 -129.785 Q 436.893 -128.418 436.893 -125.781 Q 436.893 -121.582 436.307 -117.773 Q 435.721 -113.965 434.159 -110.645 Q 433.866 -109.961 433.671 -108.594 Q 433.475 -107.227 433.28 -105.273 Q 433.182 -103.906 432.548 -102.637 Q 431.913 -101.367 430.936 -100.293 Q 430.936 -99.609 430.741 -98.682 Q 430.546 -97.754 430.35 -96.484 L 428.983 -94.727 Q 428.788 -94.141 428.788 -93.311 Q 428.788 -92.48 428.788 -91.602 Q 428.788 -91.016 428.104 -89.307 Q 427.421 -87.598 426.053 -84.473 Q 424.491 -81.152 423.563 -79.199 Q 422.636 -77.246 422.538 -76.758 Q 422.147 -76.27 421.512 -75.195 Q 420.878 -74.121 419.999 -72.754 L 420.292 -70.605 L 414.042 -48.145 Q 414.042 -44.434 414.139 -41.797 Q 414.237 -39.16 414.725 -37.598 Q 415.214 -35.937 416.337 -33.545 Q 417.46 -31.152 419.218 -28.418 Q 420.292 -26.562 421.757 -25.732 Q 423.221 -24.902 424.882 -24.902 Q 426.737 -24.902 428.641 -25.928 Q 430.546 -26.953 432.499 -29.102 Q 433.671 -26.562 434.696 -24.316 Q 435.721 -22.07 436.405 -20.117 Q 435.917 -19.824 434.305 -18.115 Q 432.694 -16.406 430.057 -13.281 Q 428.495 -11.426 426.2 -10.596 Q 423.905 -9.766 420.585 -9.766 Q 413.261 -9.766 408.671 -13.574 Q 404.081 -17.383 402.225 -25 Q 401.835 -26.562 401.542 -27.734 Q 401.249 -28.906 400.956 -29.883 Q 400.272 -31.738 398.612 -33.887 Q 397.928 -32.91 397.538 -32.422 Q 396.366 -31.641 394.95 -30.176 Q 393.534 -28.711 392.069 -26.465 Q 391.776 -25.488 390.995 -24.072 Q 390.214 -22.656 388.846 -20.703 Q 385.721 -17.09 382.499 -13.428 Q 379.276 -9.766 376.053 -6.25 Q 371.659 -1.367 367.948 0.928 Q 364.237 3.223 361.503 3.223 Q 356.62 3.223 354.276 0.928 Q 351.932 -1.367 351.932 -6.25 Q 351.932 -8.496 353.593 -12.549 Q 355.253 -16.602 355.253 -18.555 L 354.667 -20.117 Z M 399.882 -57.031 Q 399.882 -57.52 399.491 -58.496 Q 398.026 -57.031 395.878 -55.078 Q 393.729 -53.125 390.8 -50.781 Q 390.116 -49.219 387.675 -45.85 Q 385.233 -42.48 380.839 -37.5 Q 379.569 -36.035 377.421 -32.471 Q 375.272 -28.906 372.147 -23.73 Q 371.073 -21.68 369.901 -18.75 Q 369.901 -18.164 370.682 -17.48 Q 373.612 -18.359 377.86 -22.607 Q 382.108 -26.855 387.968 -34.375 Q 394.022 -42.383 396.952 -47.998 Q 399.882 -53.613 399.882 -57.031 Z M 505.737 -111.914 Q 505.346 -113.281 503.93 -115.576 Q 502.514 -117.871 500.366 -121.387 Q 498.12 -124.609 497.046 -126.416 Q 495.971 -128.223 495.971 -128.906 Q 495.971 -131.641 502.27 -137.939 Q 508.569 -144.238 511.499 -144.238 Q 513.647 -143.359 514.624 -142.48 L 517.553 -142.48 Q 520.19 -141.113 522.973 -139.941 Q 525.756 -138.77 528.393 -137.5 Q 536.303 -133.887 538.256 -131.689 Q 540.21 -129.492 544.506 -126.758 Q 545.092 -125.977 546.85 -124.17 Q 548.608 -122.363 551.635 -119.629 Q 552.026 -119.336 552.612 -118.555 Q 553.198 -117.773 553.881 -116.895 Q 558.081 -111.914 560.962 -107.715 Q 563.842 -103.516 565.307 -99.902 Q 567.163 -95.508 568.09 -90.527 Q 569.018 -85.547 569.018 -79.687 Q 569.018 -68.848 566.089 -61.426 Q 563.159 -54.004 557.006 -50.391 Q 556.421 -49.902 555.346 -49.268 Q 554.272 -48.633 553.198 -47.852 L 551.928 -46.582 Q 550.268 -44.727 546.411 -42.627 Q 542.553 -40.527 536.303 -38.086 Q 528.003 -34.863 518.823 -31.055 Q 516.284 -29.785 514.477 -29.004 Q 512.671 -28.223 511.694 -28.223 Q 508.862 -28.223 508.276 -27.832 Q 507.69 -27.441 507.202 -20.02 Q 506.909 -15.234 506.616 -10.645 Q 506.616 -8.984 507.641 -6.787 Q 508.667 -4.59 510.815 -2.051 Q 509.936 -0.098 508.813 1.758 Q 507.69 3.613 506.03 5.762 Q 504.272 8.398 502.417 9.717 Q 500.561 11.035 498.901 11.035 Q 495.678 11.035 494.165 7.617 Q 492.651 4.199 492.651 -2.637 Q 492.651 -4.785 493.335 -8.057 Q 494.018 -11.328 495.385 -16.113 L 494.897 -21.777 Q 493.628 -22.363 492.407 -23.047 Q 491.186 -23.73 490.014 -24.512 Q 488.256 -25.293 487.524 -26.27 Q 486.792 -27.246 486.792 -28.223 Q 486.792 -29.395 491.528 -31.689 Q 496.264 -33.984 496.264 -37.793 Q 496.264 -38.867 495.825 -40.918 Q 495.385 -42.969 495.385 -43.945 Q 496.264 -49.609 497.339 -55.371 Q 497.534 -55.957 497.827 -58.887 Q 498.12 -61.816 498.608 -67.285 Q 498.901 -68.945 499.487 -71.484 Q 500.073 -74.023 500.756 -77.344 L 500.073 -80.859 Z M 513.745 -123.535 Q 513.159 -123.535 512.915 -123.242 Q 512.671 -122.949 512.671 -122.363 Q 524.194 -110.352 524.194 -104.59 Q 524.194 -102.832 520.434 -89.404 Q 516.674 -75.977 515.307 -73.145 L 516.089 -69.043 Q 513.452 -59.18 512.133 -52.1 Q 510.815 -45.02 510.815 -40.82 Q 510.815 -39.746 511.255 -39.258 Q 511.694 -38.77 512.475 -38.77 Q 513.452 -38.77 515.991 -39.648 Q 518.53 -40.527 522.534 -42.676 Q 525.073 -44.043 527.612 -45.215 Q 530.151 -46.387 532.788 -47.656 Q 533.862 -48.242 535.278 -49.17 Q 536.694 -50.098 538.354 -51.367 Q 540.698 -53.125 542.065 -54.248 Q 543.432 -55.371 543.823 -55.664 Q 548.022 -58.594 550.171 -62.988 Q 552.319 -67.383 552.319 -73.437 Q 552.319 -77.051 551.489 -80.762 Q 550.659 -84.473 548.999 -88.379 L 548.803 -90.723 Q 548.608 -91.211 548.12 -91.846 Q 547.631 -92.48 547.046 -93.262 Q 546.46 -93.848 545.776 -94.824 Q 545.092 -95.801 544.506 -97.363 Q 542.944 -100.391 538.842 -104.883 Q 534.741 -109.375 527.905 -115.234 Q 527.124 -115.918 526.147 -116.846 Q 525.171 -117.773 523.999 -118.848 Q 522.143 -119.727 519.604 -120.85 Q 517.065 -121.973 513.745 -123.535 Z M 570.882 -29.102 L 571.468 -29.785 L 571.76 -30.762 Q 574.397 -34.375 581.038 -40.186 Q 587.678 -45.996 590.218 -49.609 Q 591.194 -51.172 592.464 -51.855 Q 593.733 -52.539 595.003 -52.539 Q 598.421 -52.539 600.764 -50.83 Q 603.108 -49.121 603.889 -45.703 Q 604.573 -42.676 605.159 -39.6 Q 605.745 -36.523 606.135 -33.398 Q 606.819 -31.445 607.796 -27.49 Q 608.772 -23.535 609.26 -22.949 Q 609.749 -21.973 610.725 -21.533 Q 611.702 -21.094 613.167 -21.094 Q 614.925 -21.094 616.78 -21.729 Q 618.635 -22.363 620.589 -23.926 Q 622.053 -25.195 623.665 -26.514 Q 625.276 -27.832 626.839 -29.102 L 630.745 -20.117 Q 629.182 -18.555 626.594 -16.553 Q 624.007 -14.551 620.393 -11.914 Q 616.389 -8.984 613.557 -7.568 Q 610.725 -6.152 609.26 -6.152 Q 600.374 -6.152 597.737 -8.203 Q 595.1 -10.254 591.878 -19.629 Q 591.487 -20.41 590.706 -21.484 Q 589.925 -22.559 588.948 -24.023 Q 587.776 -26.27 586.897 -27.393 Q 586.018 -28.516 585.432 -28.516 Q 583.87 -28.516 581.233 -26.416 Q 578.596 -24.316 574.788 -20.117 Q 574.3 -21.387 573.567 -23.145 Q 572.835 -24.902 572.053 -27.246 Q 571.858 -27.832 571.565 -28.32 Q 571.272 -28.809 570.882 -29.102 Z M 611.702 -106.152 Q 614.143 -106.152 615.266 -105.176 Q 616.389 -104.199 616.389 -102.344 Q 615.803 -99.609 615.413 -97.754 Q 614.436 -94.238 613.704 -91.992 Q 612.971 -89.746 612.581 -88.77 Q 611.702 -86.621 610.188 -85.01 Q 608.675 -83.398 606.526 -82.129 Q 604.28 -80.566 602.766 -79.932 Q 601.253 -79.297 600.667 -79.395 Q 599.007 -79.59 597.493 -79.736 Q 595.979 -79.883 594.514 -79.883 Q 593.245 -80.566 592.512 -82.52 Q 591.78 -84.473 591.78 -87.793 Q 591.78 -90.723 595.344 -95.166 Q 598.909 -99.609 601.643 -99.902 Q 603.303 -101.953 605.55 -104.59 Q 606.526 -105.273 608.089 -105.713 Q 609.651 -106.152 611.702 -106.152 Z M 626.727 -29.102 Q 627.118 -29.785 627.753 -30.615 Q 628.388 -31.445 629.266 -32.617 Q 630.243 -33.398 631.806 -34.863 Q 633.368 -36.328 635.321 -38.281 Q 637.079 -40.234 639.618 -43.115 Q 642.157 -45.996 645.77 -50.098 Q 647.333 -51.758 649.677 -54.346 Q 652.02 -56.934 655.243 -60.547 Q 657.977 -63.77 661.102 -65.332 Q 664.227 -66.895 667.743 -66.895 Q 671.259 -66.895 672.919 -64.697 Q 674.579 -62.5 674.579 -58.301 Q 674.579 -56.055 672.919 -49.707 Q 671.259 -43.359 667.743 -32.91 Q 666.864 -30.957 666.083 -29.199 Q 665.497 -27.93 665.302 -26.953 Q 665.106 -25.977 665.106 -25.488 Q 665.106 -24.902 665.79 -24.023 Q 666.278 -24.316 666.718 -24.805 Q 667.157 -25.293 667.743 -25.977 Q 668.524 -27.441 670.136 -29.053 Q 671.747 -30.664 673.993 -32.617 Q 674.872 -34.277 676.288 -35.889 Q 677.704 -37.5 679.462 -38.867 Q 679.852 -39.258 680.487 -40.137 Q 681.122 -41.016 682.001 -41.992 Q 683.27 -43.262 685.028 -44.629 Q 686.786 -45.996 689.13 -47.461 Q 691.766 -48.828 693.866 -49.609 Q 695.966 -50.391 697.528 -50.391 Q 700.556 -50.391 702.899 -48.926 Q 705.243 -47.461 706.903 -44.336 Q 708.856 -38.281 710.614 -33.105 Q 711.688 -30.078 713.007 -28.613 Q 714.325 -27.148 715.985 -27.148 Q 717.255 -27.148 718.28 -27.637 Q 719.306 -28.125 720.184 -29.102 L 724.091 -20.117 Q 722.431 -18.75 720.673 -17.285 Q 718.915 -15.82 717.255 -14.453 Q 715.009 -12.402 713.056 -11.572 Q 711.102 -10.742 709.149 -10.742 Q 706.903 -10.742 704.852 -11.719 Q 702.802 -12.695 701.337 -14.648 Q 700.556 -15.43 699.384 -17.529 Q 698.212 -19.629 696.649 -22.754 Q 695.38 -24.023 693.768 -26.123 Q 692.157 -28.223 690.009 -31.055 L 689.13 -31.348 Q 687.274 -30.762 685.468 -29.59 Q 683.661 -28.418 681.61 -26.562 Q 677.216 -22.656 675.263 -21.68 Q 673.309 -20.703 672.626 -19.434 Q 671.259 -17.09 667.938 -13.379 Q 664.618 -9.668 659.638 -4.59 Q 658.368 -3.32 657.099 -2.1 Q 655.829 -0.879 654.559 0.293 Q 653.29 1.367 651.679 1.807 Q 650.067 2.246 648.114 2.246 Q 644.208 2.246 643.866 -0.439 Q 643.524 -3.125 643.231 -5.859 Q 644.696 -9.961 646.552 -16.113 Q 648.407 -22.266 650.849 -30.469 Q 650.849 -30.957 651.19 -31.787 Q 651.532 -32.617 652.02 -33.984 Q 652.509 -35.254 652.704 -36.182 Q 652.899 -37.109 652.899 -37.793 Q 652.899 -38.477 652.411 -38.867 Q 651.923 -39.258 650.849 -39.258 Q 649.872 -39.258 648.261 -38.086 Q 646.649 -36.914 644.403 -34.375 Q 641.669 -31.445 640.009 -29.785 Q 638.349 -28.125 637.763 -27.832 Q 636.786 -27.148 635.468 -25.879 Q 634.149 -24.609 632.489 -23.047 Q 632.294 -22.656 631.903 -21.875 Q 631.513 -21.094 630.634 -20.117 Q 630.243 -21.582 629.266 -23.73 Q 628.29 -25.879 626.727 -29.102 Z M 720.097 -29.102 Q 720.487 -29.395 720.878 -29.932 Q 721.269 -30.469 721.757 -31.641 Q 722.343 -32.617 723.417 -33.74 Q 724.491 -34.863 725.956 -36.23 Q 728.691 -38.477 730.888 -41.846 Q 733.085 -45.215 735.234 -49.609 Q 738.066 -55.762 740.409 -60.059 Q 742.753 -64.355 744.706 -66.602 Q 745.292 -68.848 747.05 -73.73 Q 748.808 -78.613 751.737 -86.426 Q 754.569 -93.848 756.523 -98.486 Q 758.476 -103.125 759.452 -104.883 Q 759.843 -105.566 760.478 -106.641 Q 761.112 -107.715 761.503 -109.277 Q 762.87 -113.867 764.726 -117.822 Q 766.581 -121.777 768.534 -125.293 Q 769.023 -126.172 769.755 -126.66 Q 770.487 -127.148 771.269 -127.148 Q 775.175 -127.148 777.079 -124.121 Q 778.984 -121.094 778.984 -115.234 Q 778.984 -108.691 774.784 -97.119 Q 770.585 -85.547 761.894 -69.043 Q 760.136 -65.332 758.085 -59.961 Q 756.034 -54.59 753.984 -47.656 Q 752.323 -42.285 750.761 -36.719 Q 749.198 -31.152 747.538 -25.781 Q 745.976 -20.605 745.194 -17.627 Q 744.413 -14.648 744.413 -13.672 Q 744.413 -12.988 744.657 -12.695 Q 744.901 -12.402 745.39 -12.402 Q 746.366 -12.402 747.099 -12.988 Q 747.831 -13.574 748.222 -14.648 Q 750.175 -17.48 752.079 -21.045 Q 753.984 -24.609 755.937 -28.906 L 756.23 -31.738 Q 756.913 -38.184 759.159 -40.723 Q 761.405 -43.262 767.558 -44.727 Q 768.339 -45.02 771.513 -50 Q 774.687 -54.98 779.96 -64.746 Q 782.89 -69.922 784.843 -72.51 Q 786.796 -75.098 787.773 -75.098 Q 790.019 -75.098 790.995 -73.633 Q 791.972 -72.168 791.972 -69.238 Q 791.972 -61.719 783.573 -50.293 Q 775.175 -38.867 775.175 -35.254 Q 775.175 -32.715 779.667 -27.49 Q 784.159 -22.266 787.089 -22.266 Q 788.066 -22.266 789.286 -22.9 Q 790.507 -23.535 792.167 -24.902 Q 793.437 -25.879 794.657 -27.002 Q 795.878 -28.125 797.343 -29.102 L 801.249 -20.117 Q 798.71 -17.871 796.415 -15.625 Q 794.12 -13.379 791.581 -11.23 Q 788.749 -8.496 785.917 -7.178 Q 783.085 -5.859 780.253 -5.859 Q 777.323 -5.859 770.341 -11.865 Q 763.359 -17.871 762.87 -17.871 Q 759.257 -14.551 756.523 -11.23 Q 754.765 -9.082 753.056 -7.08 Q 751.347 -5.078 749.589 -2.93 Q 749.101 -2.246 748.026 -1.27 Q 746.952 -0.293 745.585 0.977 Q 744.218 2.93 742.509 4.736 Q 740.8 6.543 738.261 6.543 Q 734.355 6.543 732.401 4.297 Q 730.448 2.051 730.448 -2.539 Q 730.448 -7.227 731.278 -12.5 Q 732.109 -17.773 733.866 -23.535 Q 734.55 -26.27 734.941 -28.369 Q 735.331 -30.469 735.331 -32.031 L 734.648 -33.008 Q 733.378 -31.445 731.425 -29.297 Q 729.472 -27.148 726.835 -24.023 Q 726.444 -23.73 726.005 -22.998 Q 725.566 -22.266 724.003 -20.117 Q 723.515 -21.387 722.782 -23.145 Q 722.05 -24.902 721.269 -27.246 Q 721.073 -27.832 720.78 -28.32 Q 720.487 -28.809 720.097 -29.102 Z" transform="matrix(1, 0, 0, 1, 8.4, 166.440002)" style="white-space: pre;"/>
<!-- <text class="cls-2" style="white-space: pre;" x="18.653" y="217.51"><tspan x="18.653" y="217.51" style="font-size: 32px; word-spacing: 0px;">I C E  C R E A M   D E S S E R T S   B E V E R A G E S </tspan></text> --> -->
  </g>
</svg>
