<svg width="147" height="241" viewBox="0 0 147 241" fill="none" xmlns="http://www.w3.org/2000/svg">
    <g id="car" clip-path="url(#clip0_1133_2)">
    <g id="Group">
    <g id="Group_2">
    <path id="Vector" d="M45.3001 212.3H40.1001V226.5H45.3001V212.3Z" fill="#841009"/>
    <path id="Vector_2" d="M100.7 212.3H95.5V226.5H100.7V212.3Z" fill="#841009"/>
    <path id="Vector_3" d="M112.5 213C84.5998 220.8 55.3998 220.8 27.5998 213C20.9998 211.1 16.2998 204.4 16.2998 196.8V25.2C16.2998 17.6 20.8998 10.8 27.5998 9.00002C40.8998 5.20002 56.3998 0.200015 69.9998 1.50255e-05C84.9998 -0.199985 97.8998 4.80001 112.5 8.90001C119.1 10.8 123.8 17.5 123.8 25.1V196.7C123.8 204.4 119.2 211.1 112.5 213Z" fill="#C4300F"/>
    <g id="Group_3">
    <path id="Vector_4" d="M112.6 60.5L104 92.5C103.3 95.3 100.5 97 97.7001 96.5C78.1001 93.1 64.0001 93.1 44.5001 96.5C41.7001 97 38.9001 95.3 38.2001 92.5L29.6001 60.4C29.0001 58 30.5001 55.6 32.9001 55.2C58.2001 50.8 84.0001 50.8 109.3 55.2C111.7 55.7 113.2 58.1 112.6 60.5Z" fill="#32353B"/>
    <path id="Vector_5" d="M72.5003 94L51.2003 52.9C45.2003 53.4 39.2003 54.2 33.3003 55.2L53.8003 94.8C60.0003 94.2 66.2003 93.9 72.5003 94Z" fill="#42424D"/>
    <path id="Vector_6" d="M65.5003 52C62.9003 52.1 60.4003 52.2 57.8003 52.3L79.4003 94.1C82.1003 94.2 84.8003 94.4 87.5003 94.6L65.5003 52Z" fill="#42424D"/>
    </g>
    <path id="Vector_7" d="M23.7001 185.6L21.1001 189.1V71.8C21.1001 69.6 24.2001 69.2 24.8001 71.3L32.4001 98.2C33.3001 101.5 33.8001 104.9 33.8001 108.3V154.3C33.9001 165.5 30.3001 176.5 23.7001 185.6Z" fill="#32353B"/>
    <path id="Vector_8" d="M25.5 83.6H0C0 75.5 6.5 69 14.6 69H25.5V83.6Z" fill="#C4300F"/>
    <path id="Vector_9" d="M22.3002 86.8H5.4002C3.6002 86.8 2.2002 85.4 2.2002 83.6H25.5002C25.5002 85.3 24.0002 86.8 22.3002 86.8Z" fill="#FFE44C"/>
    <path id="Vector_10" d="M37.0998 140.2H16.2998V149.6H37.0998V140.2Z" fill="#C4300F"/>
    <path id="Vector_11" d="M117.3 185.6L119.9 189.1V71.8C119.9 69.6 116.8 69.2 116.2 71.3L108.6 98.2C107.7 101.5 107.2 104.9 107.2 108.3V154.3C107.2 165.5 110.7 176.5 117.3 185.6Z" fill="#32353B"/>
    <path id="Vector_12" d="M103.163 149.652H123.963V140.252H103.163V149.652Z" fill="#C4300F"/>
    <path id="Vector_13" d="M100 212.3C80.2001 216.7 59.9001 216.7 40.1001 212.3C38.2001 211.9 37.0001 210 37.4001 208.2C38.5001 202.7 39.6001 197.2 40.7001 191.8C41.1001 189.9 43.0001 188.6 44.9001 189C61.5001 192.6 78.6001 192.6 95.3001 189C97.2001 188.6 99.1001 189.8 99.5001 191.8C100.6 197.3 101.7 202.8 102.8 208.2C103.1 210 101.9 211.9 100 212.3Z" fill="#32353B"/>
    <g id="Group_4">
    <path id="Vector_14" d="M92.5001 186.2C78.2001 188.5 63.9001 188.5 49.7001 186.2C45.2001 185.4 41.0001 180.8 40.6001 176.3C38.6001 153.6 38.6001 130.9 40.6001 108.3C41.0001 103.8 45.2001 99.2 49.7001 98.4C64.0001 96.1 78.3001 96.1 92.5001 98.4C97.0001 99.2 101.2 103.8 101.6 108.3C103.6 131 103.6 153.7 101.6 176.3C101.2 180.8 97.0001 185.4 92.5001 186.2Z" fill="#8E2711"/>
    </g>
    <path id="Vector_15" d="M88.5001 128.2H53.6001C50.6001 128.2 48.1001 125.7 48.1001 122.7V113.7C48.1001 110.7 50.6001 108.2 53.6001 108.2H88.5001C91.5001 108.2 94.0001 110.7 94.0001 113.7V122.7C94.0001 125.8 91.6001 128.2 88.5001 128.2Z" fill="#32353B"/>
    <path id="Vector_16" d="M33.8999 24.1V42.7C33.8999 45 36.0999 46.6 38.2999 46C56.1999 41.1 83.7999 42.3 100.4 46.3C102.5 46.8 104.6 45.2 104.6 43V25.4" stroke="#B32C01" stroke-miterlimit="10"/>
    <path id="Vector_17" d="M52.1998 8.40002C52.7998 10.3 47.5998 13.8 40.3998 16.3C33.1998 18.7 26.8998 19.1 26.1998 17.2C25.4998 15.3 30.7998 11.8 37.9998 9.30002C45.1998 6.90002 51.4998 6.50002 52.1998 8.40002Z" fill="#FCEE98"/>
    <path id="Vector_18" d="M111.6 17.2C112.2 15.3 107 11.8 99.7998 9.30002C92.5998 6.90002 86.2998 6.50002 85.5998 8.40002C84.9998 10.3 90.1998 13.8 97.3998 16.3C104.6 18.7 110.9 19.1 111.6 17.2Z" fill="#FCEE98"/>
    <path id="Vector_19" d="M81.8002 10.7H56.7002C56.7002 6.80001 59.9002 3.60001 63.8002 3.60001H74.7002C78.6002 3.60001 81.8002 6.80001 81.8002 10.7Z" fill="#32353B"/>
    <path id="Vector_20" d="M29.3999 213.5L41.3999 172.4" stroke="#B32C01" stroke-miterlimit="10"/>
    <path id="Vector_21" d="M111.8 213.5L99.7998 172.4" stroke="#B32C01" stroke-miterlimit="10"/>
    <g id="Group_5">
    <path id="Vector_22" d="M69.0999 232.2C52.8999 232.2 39.6999 229.7 31.3999 227.6C25.9999 226.2 23.0999 220.4 25.1999 215.2C25.5999 215.4 65.5999 230.8 114.8 215.1L114.9 215.5C116.5 220.6 113.5 226 108.3 227.3C94.0999 230.9 80.7999 232.2 69.0999 232.2Z" fill="#C4300F"/>
    </g>
    <path id="Vector_23" d="M115.1 83.6H140.6C140.6 75.5 134.1 69 126 69H115.1V83.6Z" fill="#C4300F"/>
    <path id="Vector_24" d="M118.3 86.8H135.2C137 86.8 138.4 85.4 138.4 83.6H115.1C115.1 85.3 116.5 86.8 118.3 86.8Z" fill="#FFE44C"/>
    <path id="Vector_25" d="M62.5001 20.8H56.6001C56.6001 18.3 58.6001 16.3 61.1001 16.3H68.9001L62.5001 20.8Z" fill="#7D0F08"/>
    <path id="Vector_26" d="M77.6002 20.8H83.5002C83.5002 18.3 81.5002 16.3 79.0002 16.3H71.2002L77.6002 20.8Z" fill="#7D0F08"/>
    </g>
    </g>
    </g>
    <defs>
    <clipPath id="clip0_1133_2">
    <rect width="147" height="240.3" fill="white"/>
    </clipPath>
    </defs>
</svg>
