<svg width="334" height="459" viewBox="0 0 334 459" fill="none" xmlns="http://www.w3.org/2000/svg">
<path d="M334 324.386L167.068 228L0 324.386L166.658 421.045L334 324.386Z" fill="#C6B9B6"/>
<path d="M334 324.387L333.863 363.078L166.658 459.463V421.046L334 324.387Z" fill="#D9D1D1"/>
<path d="M0 324.387L166.658 421.046V459.463L0 362.941V324.387Z" fill="#A59B97"/>
<path fill-rule="evenodd" clip-rule="evenodd" d="M69.8328 88.4817H59.4231V306.056C59.1991 306.914 59.1991 307.815 59.4231 308.673V308.721H59.4359C59.6716 309.589 60.138 310.41 60.835 311.092C62.9414 313.15 66.3566 313.15 68.4631 311.092C69.9004 309.687 70.357 307.687 69.8328 305.904V88.4817Z" fill="url(#paint0_linear_1188_2)"/>
<rect width="149.339" height="78.8732" rx="7.72475" transform="matrix(0.866025 0.5 -2.20305e-08 1 1.60156 0)" fill="#ABABAB"/>
<rect width="149.339" height="78.8732" rx="7.72475" transform="matrix(0.866025 0.5 -2.20305e-08 1 0 1.20117)" fill="#D9D9D9"/>
<rect x="0.692051" y="1.19867" width="137.331" height="66.8653" rx="6.92564" transform="matrix(0.866025 0.5 -2.20305e-08 1 4.25361 8.46159)" stroke="black" stroke-width="1.59822"/>
<path d="M43.655 74.43L43.655 56.4739L46.5246 58.1307L46.5246 65.452L51.8222 61.1893L55.3768 63.2415L49.7367 67.6932L55.3464 81.18L51.8831 79.1805L47.7424 69.117L46.5855 69.9256L46.5855 76.1219L43.655 74.43ZM56.4424 63.8567L61.1844 66.5945L63.8941 80.868L63.955 80.9031L66.6724 69.763L71.4067 72.4964L71.4067 90.4524L68.5372 88.7957L68.5372 75.5945L68.5753 73.2874L68.248 74.9705L65.1729 86.8533L62.6763 85.4119L59.6393 70.0355L59.2663 67.8162L59.312 70.2244L59.312 83.4695L56.4424 81.8128L56.4424 63.8567ZM74.0708 74.0345L76.9403 75.6912L76.9403 88.5057C76.9403 88.6873 76.9505 88.8836 76.9708 89.0945C76.9911 89.3055 77.0342 89.5267 77.1002 89.7581C77.1662 89.9896 77.2575 90.2269 77.3742 90.47C77.496 90.7103 77.6533 90.9534 77.8461 91.1995C78.044 91.4427 78.2851 91.6873 78.5692 91.9334C78.8534 92.1736 79.1934 92.408 79.5892 92.6365C79.99 92.868 80.3326 93.0276 80.6167 93.1155C80.906 93.2005 81.1495 93.2357 81.3474 93.221C81.5453 93.2005 81.7052 93.1404 81.827 93.0408C81.9487 92.9354 82.0426 92.805 82.1086 92.6497C82.1746 92.4944 82.2177 92.3231 82.238 92.1356C82.2583 91.9481 82.2684 91.7635 82.2684 91.5818L82.2684 78.7674L85.1075 80.4065L85.1075 93.2913C85.1075 94.2171 84.9731 94.9393 84.7041 95.4578C84.4352 95.9764 84.0571 96.3148 83.57 96.473C83.0879 96.6282 82.5069 96.615 81.827 96.4334C81.1521 96.2547 80.4061 95.9295 79.5892 95.4578C78.7722 94.9861 78.0237 94.4485 77.3438 93.845C76.6689 93.2444 76.0879 92.5867 75.6007 91.8719C75.1186 91.1541 74.7431 90.3807 74.4742 89.5516C74.2053 88.7225 74.0708 87.845 74.0708 86.9192L74.0708 74.0345ZM86.6527 81.2986L97.3469 87.473L97.3469 90.3294L93.4802 88.097L93.4802 103.197L90.5802 101.522L90.5802 86.4227L86.6527 84.1551L86.6527 81.2986ZM98.2527 87.9959L108.947 94.1702L108.947 97.0267L105.08 94.7942L105.08 109.894L102.18 108.22L102.18 93.1199L98.2527 90.8523L98.2527 87.9959Z" fill="black"/>
<path d="M25.5717 42.7895L14.9097 48.9452L25.5717 67.4124" stroke="black" stroke-width="1.86459"/>
<g clip-path="url(#clip0_1188_2)">
<path d="M115.554 233.311V291.631L107.669 296.455V237.696L115.554 233.311Z" fill="#40494A"/>
<path d="M107.67 296.455L98.9092 291.631V243.396L107.67 237.695V296.455Z" fill="#606C6D"/>
<path d="M246.959 307.855V366.176L239.074 371V312.24L246.959 307.855Z" fill="#40494A"/>
<path d="M239.074 371L230.314 366.176V317.941L239.074 312.24V371Z" fill="#606C6D"/>
<path d="M70 235.503L232.942 330.658L282 302.594L119.934 207L70 235.503Z" fill="#A0AEAF"/>
<path d="M70 235.503L70.438 245.15L232.942 340.744V330.658L70 235.503Z" fill="#738182"/>
<path d="M232.942 330.658L282 302.594V312.679L232.942 340.743V330.658Z" fill="#475151"/>
<path d="M86.2065 235.503L120.372 216.209L265.355 301.278L232.942 320.134L86.2065 235.503Z" fill="#738182"/>
</g>
<defs>
<linearGradient id="paint0_linear_1188_2" x1="59.4231" y1="240.954" x2="70.2331" y2="240.954" gradientUnits="userSpaceOnUse">
<stop offset="0.1875" stop-color="#514F4F"/>
<stop offset="0.489583" stop-color="#8C8C8C"/>
<stop offset="0.796875" stop-color="#828282"/>
</linearGradient>
<clipPath id="clip0_1188_2">
<rect width="212" height="164" fill="white" transform="translate(70 207)"/>
</clipPath>
</defs>
</svg>
